<?xml version="1.0" encoding="utf-8"?>
<!-- Generator: Adobe Illustrator 21.1.0, SVG Export Plug-In . SVG Version: 6.00 Build 0)  -->
<svg version="1.1" id="Layer_1" xmlns="http://www.w3.org/2000/svg" xmlns:xlink="http://www.w3.org/1999/xlink" x="0px" y="0px"
	 viewBox="0 0 128 128" style="enable-background:new 0 0 128 128;" xml:space="preserve">
<style type="text/css">
	.st0{fill:none;}
	.st1{fill:#FFFFFF;}
	.st2{fill:none;stroke:#FFFFFF;stroke-miterlimit:10;}
</style>
<line class="st0" x1="-96.9" y1="53.6" x2="-106.5" y2="53.6"/>
<path class="st1" d="M-69.3,17.7h-55.2c-4.6,0-8.3,3.7-8.3,8.3v55.1c0,4.6,3.7,8.3,8.3,8.3h55.1c4.6,0,8.3-3.7,8.3-8.3V48h0.1V25.9
	C-61.1,21.4-64.8,17.7-69.3,17.7z M-80.4,25.9h8.6c0.1,0,0.2,0,0.3,0.1c0.1,0,0.2,0,0.3,0.1c0.1,0,0.2,0,0.2,0.1
	c0.7,0.3,1.2,0.8,1.5,1.5c0,0.1,0.1,0.1,0.1,0.2s0.1,0.2,0.1,0.3c0,0.2,0.1,0.4,0.1,0.5V37c0,1.5-1.2,2.8-2.8,2.8h-8.3
	c-1.5,0-2.8-1.2-2.8-2.8l-0.1-8.3C-83.2,27.2-82,25.9-80.4,25.9z M-64.1,81.1c0,2.9-2.4,5.3-5.3,5.3h-55.1c-2.9,0-5.3-2.4-5.3-5.3
	V51h16.3c-0.1,0.8-0.2,1.7-0.2,2.5c0,9.3,7.5,16.8,16.8,16.8s16.8-7.5,16.8-16.8c0-0.8-0.1-1.7-0.2-2.5h16.2V81.1z M-83.1,53.5
	c0,7.6-6.2,13.8-13.8,13.8s-13.8-6.2-13.8-13.8c0-1.9,0.4-3.8,1.1-5.5h0.1c2.1-4.9,7-8.3,12.7-8.3s10.5,3.4,12.7,8.3h-0.1
	C-83.5,49.8-83.1,51.7-83.1,53.5z"/>
<g>
	<path class="st1" d="M79.5,34.4c8.8,0,15.9,7.1,15.9,15.9v29.2c0,8.8-7.1,15.9-15.9,15.9H50.3c-8.8,0-15.9-7.1-15.9-15.9V50.3
		c0-8.8,7.1-15.9,15.9-15.9H79.5 M79.5,29.4H50.3c-11.5,0-20.9,9.4-20.9,20.9v29.2c0,11.5,9.4,20.9,20.9,20.9h29.2
		c11.5,0,20.9-9.4,20.9-20.9V50.3C100.4,38.8,91,29.4,79.5,29.4L79.5,29.4z"/>
</g>
<circle class="st2" cx="85.4" cy="44.4" r="4.3"/>
<g>
	<path class="st1" d="M64.9,50.6c7.9,0,14.4,6.4,14.4,14.4s-6.4,14.4-14.4,14.4s-14.4-6.4-14.4-14.4S57,50.6,64.9,50.6 M64.9,45.6
		c-10.7,0-19.4,8.7-19.4,19.4s8.7,19.4,19.4,19.4s19.4-8.7,19.4-19.4S75.6,45.6,64.9,45.6L64.9,45.6z"/>
</g>
</svg>
