<?xml version="1.0" encoding="utf-8"?>
<!-- Generator: Adobe Illustrator 21.1.0, SVG Export Plug-In . SVG Version: 6.00 Build 0)  -->
<svg version="1.1" id="Layer_1" xmlns="http://www.w3.org/2000/svg" xmlns:xlink="http://www.w3.org/1999/xlink" x="0px" y="0px"
	 viewBox="0 0 128 128" style="enable-background:new 0 0 128 128;" xml:space="preserve">
<style type="text/css">
	.st0{fill:none;stroke:#FFFFFF;stroke-width:5;stroke-linecap:round;stroke-miterlimit:10;}
	.st1{fill:#FFFFFF;}
</style>
<g>
	<path class="st0" d="M64.4,65.7L32.9,41.6"/>
	<path class="st0" d="M95.8,41.6L64.4,65.7"/>
</g>
<g>
	<g>
		<path class="st1" d="M92.3,42.8c0.9,0,1.7,0.4,2.3,1c0.4,0.4,0.9,1.2,0.9,2.2l0,0.1v0.1v36.3c0,1.9-1.5,3.3-3.3,3.3H36.6
			c-1.9,0-3.3-1.5-3.3-3.3V46.2c0-1.9,1.5-3.3,3.3-3.3H92.3 M92.3,37.8H36.6c-4.6,0-8.3,3.7-8.3,8.3v36.3c0,4.6,3.7,8.3,8.3,8.3
			h55.6c4.6,0,8.3-3.7,8.3-8.3V46.2C100.6,41.5,96.8,37.8,92.3,37.8L92.3,37.8z"/>
	</g>
</g>
</svg>
