<?xml version="1.0" encoding="utf-8"?>
<!-- Generator: Adobe Illustrator 21.1.0, SVG Export Plug-In . SVG Version: 6.00 Build 0)  -->
<svg version="1.1" id="Layer_1" xmlns="http://www.w3.org/2000/svg" xmlns:xlink="http://www.w3.org/1999/xlink" x="0px" y="0px"
	 viewBox="0 0 806.2 226.1" style="enable-background:new 0 0 806.2 226.1;" xml:space="preserve">
<style type="text/css">
	.st0{opacity:0.3;}
	.st1{fill:none;stroke:#000000;stroke-linecap:round;stroke-linejoin:round;}
	.st2{fill:#E6E7E8;}
	.st3{fill:none;}
	.st4{fill:#808285;}
	.st5{font-family:'Klavika-Regular';}
	.st6{font-size:12px;}
	.st7{fill:#C7C6C6;}
	.st8{fill:#FFFFFF;}
</style>
<g id="Layer_1_1_">
</g>
<g id="XMLID_1_" class="st0">
	<g>
		<path class="st1" d="M65.5,55.6V13.7h682.8v20.4c0,0,0,1.5,0,2.2"/>
		<g>
			<polygon points="743.3,34.9 748.3,43.6 753.3,34.9 			"/>
		</g>
	</g>
</g>
<g id="XMLID_50_" class="st0">
	<g>
		<line class="st1" x1="496.4" y1="13.7" x2="496.4" y2="35.2"/>
		<g>
			<polygon points="491.4,33.8 496.4,42.4 501.4,33.8 			"/>
		</g>
	</g>
</g>
<g id="XMLID_2_" class="st0">
	<g>
		<line class="st1" x1="253" y1="13.7" x2="253" y2="35.2"/>
		<g>
			<polygon points="248,33.8 253,42.4 258,33.8 			"/>
		</g>
	</g>
</g>
<g id="Light_Block">
</g>
<g id="Dark_Block">
</g>
<g id="Dots">
</g>
<g id="Light_Text">
</g>
<g id="Dark_Text">
</g>
<g id="XMLID_111_">
	<path class="st2" d="M806.2,222.1c0,2.2-1.8,4-4,4h-123c-2.2,0-4-1.8-4-4V59.6c0-2.2,1.8-4,4-4h123c2.2,0,4,1.8,4,4V222.1z"/>
</g>
<g id="XMLID_105_">
	<rect id="XMLID_33_" x="695.3" y="74.6" class="st3" width="90.2" height="17"/>
	<text transform="matrix(1 0 0 1 711.211 82.9956)" class="st4 st5 st6">About me</text>
</g>
<g id="XMLID_76_">
	<path class="st2" d="M561.9,222.1c0,2.2-1.8,4-4,4h-123c-2.2,0-4-1.8-4-4V59.6c0-2.2,1.8-4,4-4h123c2.2,0,4,1.8,4,4V222.1z"/>
</g>
<g id="XMLID_5_">
	<path class="st2" d="M318,222.1c0,2.2-1.8,4-4,4H191c-2.2,0-4-1.8-4-4V59.6c0-2.2,1.8-4,4-4h123c2.2,0,4,1.8,4,4V222.1z"/>
</g>
<rect id="XMLID_75_" x="461" y="110.6" class="st7" width="46.6" height="4.5"/>
<rect id="XMLID_74_" x="461" y="101" class="st7" width="16.4" height="4.5"/>
<rect id="XMLID_73_" x="461" y="120.6" class="st7" width="46.6" height="4.5"/>
<g id="XMLID_54_">
	<rect id="XMLID_38_" x="434.6" y="75.6" class="st3" width="127.6" height="17"/>
	<text transform="matrix(1 0 0 1 479.3806 83.9686)" class="st4 st5 st6">Photo</text>
</g>
<rect id="XMLID_53_" x="461" y="140.8" class="st8" width="70.7" height="55.5"/>
<rect id="XMLID_104_" x="713" y="177.5" class="st7" width="46.6" height="4.5"/>
<rect id="XMLID_103_" x="713" y="168" class="st7" width="16.4" height="4.5"/>
<rect id="XMLID_102_" x="713" y="187.5" class="st7" width="46.6" height="4.5"/>
<rect id="XMLID_101_" x="713" y="98.9" class="st8" width="70.7" height="55.5"/>
<g>
	<g id="XMLID_160_">
		<path class="st2" d="M131,220.8c0,2.2-1.8,4-4,4H4c-2.2,0-4-1.8-4-4V58.3c0-2.2,1.8-4,4-4h123c2.2,0,4,1.8,4,4V220.8z"/>
	</g>
	<g id="XMLID_106_">
		<rect id="XMLID_34_" x="5.6" y="73.3" class="st3" width="119.9" height="17"/>
		<text transform="matrix(1 0 0 1 23.8306 81.726)" class="st4 st5 st6">Landing Page</text>
	</g>
	<rect id="XMLID_87_" x="30" y="96.5" class="st8" width="31" height="31"/>
	<rect id="XMLID_86_" x="70" y="96.5" class="st8" width="31" height="31"/>
	<rect id="XMLID_85_" x="30" y="136.5" class="st8" width="31" height="31"/>
	<rect id="XMLID_83_" x="70" y="136.5" class="st8" width="31" height="31"/>
	<rect id="XMLID_32_" x="30" y="176.5" class="st8" width="31" height="31"/>
	<rect id="XMLID_22_" x="70" y="176.5" class="st8" width="31" height="31"/>
</g>
<g>
	<rect id="XMLID_25_" x="229.7" y="109.4" class="st7" width="46.6" height="4.5"/>
	<rect id="XMLID_24_" x="244.8" y="99.8" class="st7" width="16.4" height="4.5"/>
	<rect id="XMLID_23_" x="229.7" y="119.4" class="st7" width="46.6" height="4.5"/>
	<rect id="XMLID_21_" x="217.6" y="139.6" class="st8" width="70.7" height="55.5"/>
	<rect id="XMLID_20_" x="217.6" y="200.1" class="st8" width="70.7" height="21.5"/>
	<g id="XMLID_4_">
		<rect id="XMLID_39_" x="189.2" y="74.3" class="st3" width="127.6" height="17"/>
		<text transform="matrix(1 0 0 1 229.3181 82.7145)" class="st4 st5 st6">Project</text>
	</g>
</g>
</svg>
