<?xml version="1.0" encoding="utf-8"?>
<!-- Generator: Adobe Illustrator 21.1.0, SVG Export Plug-In . SVG Version: 6.00 Build 0)  -->
<svg version="1.1" id="Layer_1" xmlns="http://www.w3.org/2000/svg" xmlns:xlink="http://www.w3.org/1999/xlink" x="0px" y="0px"
	 viewBox="0 0 992.8 486" style="enable-background:new 0 0 992.8 486;" xml:space="preserve">
<style type="text/css">
	.st0{fill:#E6E7E8;}
	.st1{opacity:0.3;}
	.st2{fill:none;stroke:#000000;stroke-linecap:round;stroke-linejoin:round;}
	.st3{fill:#D1D3D4;}
	.st4{fill:none;}
	.st5{fill:#808285;}
	.st6{font-family:'Klavika-Regular';}
	.st7{font-size:14px;}
	.st8{fill:#FFFFFF;}
</style>
<g id="XMLID_13_">
	<path class="st0" d="M131,219c0,2.2-1.8,4-4,4H4c-2.2,0-4-1.8-4-4V56.4c0-2.2,1.8-4,4-4h123c2.2,0,4,1.8,4,4V219z"/>
</g>
<g id="XMLID_19_">
	<path class="st0" d="M342,482.3c0,2.2-1.8,4-4,4H215c-2.2,0-4-1.8-4-4V319.8c0-2.2,1.8-4,4-4h123c2.2,0,4,1.8,4,4V482.3z"/>
</g>
<g id="Layer_10">
</g>
<g id="Layer_1_1_">
</g>
<g id="Outline">
	<g id="XMLID_14_" class="st1">
		<g>
			<path class="st2" d="M67.8,52.4V13.5h859.7l-0.1,26.8"/>
			<g>
				<polygon points="922.4,38.8 927.3,47.5 932.3,38.8 				"/>
			</g>
		</g>
	</g>
	<g id="XMLID_7_" class="st1">
		<g>
			<path class="st2" d="M442.6,13.5c0,0,0,20.1,0,23"/>
			<g>
				<polygon points="437.6,35 442.6,43.6 447.6,35 				"/>
			</g>
		</g>
	</g>
	<g id="XMLID_81_" class="st1">
		<g id="XMLID_329_">
			<line id="XMLID_332_" class="st2" x1="276.5" y1="13.5" x2="276.7" y2="36.5"/>
			<g id="XMLID_330_">
				<polygon id="XMLID_331_" points="271.7,35 276.7,43.6 281.7,35 				"/>
			</g>
		</g>
	</g>
	<g id="XMLID_219_" class="st1">
		<g id="XMLID_227_">
			<line id="XMLID_319_" class="st2" x1="276.5" y1="183.2" x2="276.7" y2="298.6"/>
			<g id="XMLID_228_">
				<polygon id="XMLID_318_" points="271.7,297.2 276.7,305.8 281.7,297.2 				"/>
			</g>
		</g>
	</g>
	<g id="XMLID_12_" class="st1">
		<g>
			<path class="st2" d="M764.9,13.5v22.9"/>
			<g>
				<polygon points="759.9,35 764.9,43.6 769.9,35 				"/>
			</g>
		</g>
	</g>
	<g id="XMLID_8_" class="st1">
		<g>
			<path class="st2" d="M603.7,13.5c0,0,0,18.6,0,23"/>
			<g>
				<polygon points="598.7,35 603.7,43.6 608.7,35 				"/>
			</g>
		</g>
	</g>
</g>
<g id="Light_Block">
</g>
<g id="Dark_Block">
</g>
<g id="Dots">
</g>
<g id="Light_Text">
</g>
<g id="Dark_Text">
</g>
<g id="Titles">
</g>
<rect id="XMLID_28_" x="238.5" y="326.7" class="st3" width="84.1" height="41.9"/>
<rect id="XMLID_26_" x="238.5" y="412" class="st3" width="34" height="26"/>
<rect id="XMLID_24_" x="288.6" y="412" class="st3" width="34" height="26"/>
<rect id="XMLID_23_" x="288.6" y="377.1" class="st3" width="34" height="26"/>
<rect id="XMLID_15_" x="238.5" y="446.8" class="st3" width="34" height="26"/>
<rect id="XMLID_4_" x="288.6" y="446.8" class="st3" width="34" height="26"/>
<rect id="XMLID_1_" x="238.5" y="377.1" class="st3" width="34" height="26"/>
<rect id="XMLID_42_" x="27.5" y="61.3" class="st3" width="84.1" height="41.9"/>
<rect id="XMLID_41_" x="27.5" y="146.6" class="st3" width="34" height="26"/>
<rect id="XMLID_38_" x="77.6" y="146.6" class="st3" width="34" height="26"/>
<rect id="XMLID_29_" x="77.6" y="111.7" class="st3" width="34" height="26"/>
<rect id="XMLID_18_" x="27.5" y="181.4" class="st3" width="34" height="26"/>
<rect id="XMLID_16_" x="77.6" y="181.4" class="st3" width="34" height="26"/>
<rect id="XMLID_2_" x="27.5" y="111.7" class="st3" width="34" height="26"/>
<rect id="XMLID_3_" x="238.5" y="62.5" class="st3" width="84.1" height="41.9"/>
<g id="XMLID_762_">
	<path class="st0" d="M830.4,482c0,2.2-1.8,4-4,4h-123c-2.2,0-4-1.8-4-4V319.5c0-2.2,1.8-4,4-4h123c2.2,0,4,1.8,4,4V482z"/>
</g>
<g id="XMLID_789_">
	<path class="st0" d="M992.8,482c0,2.2-1.8,4-4,4h-123c-2.2,0-4-1.8-4-4V319.5c0-2.2,1.8-4,4-4h123c2.2,0,4,1.8,4,4V482z"/>
</g>
<g id="XMLID_715_">
	<path class="st0" d="M668,482c0,2.2-1.8,4-4,4H541c-2.2,0-4-1.8-4-4V319.5c0-2.2,1.8-4,4-4h123c2.2,0,4,1.8,4,4V482z"/>
</g>
<g id="XMLID_195_">
	<path class="st0" d="M992.8,218c0,2.2-1.8,4-4,4h-123c-2.2,0-4-1.8-4-4V55.5c0-2.2,1.8-4,4-4h123c2.2,0,4,1.8,4,4V218z"/>
</g>
<g id="XMLID_226_">
	<path class="st0" d="M830.4,218c0,2.2-1.8,4-4,4h-123c-2.2,0-4-1.8-4-4V55.5c0-2.2,1.8-4,4-4h123c2.2,0,4,1.8,4,4V218z"/>
</g>
<g id="XMLID_371_">
	<path class="st0" d="M505.6,218c0,2.2-1.8,4-4,4h-123c-2.2,0-4-1.8-4-4V55.5c0-2.2,1.8-4,4-4h123c2.2,0,4,1.8,4,4V218z"/>
</g>
<g id="XMLID_11_">
	<path class="st0" d="M342,218c0,2.2-1.8,4-4,4H215c-2.2,0-4-1.8-4-4V55.5c0-2.2,1.8-4,4-4h123c2.2,0,4,1.8,4,4V218z"/>
</g>
<g id="XMLID_80_">
	<path class="st0" d="M505.6,481.2c0,2.2-1.8,4-4,4h-123c-2.2,0-4-1.8-4-4V318.7c0-2.2,1.8-4,4-4h123c2.2,0,4,1.8,4,4V481.2z"/>
</g>
<g id="XMLID_264_">
	<path class="st0" d="M668,218c0,2.2-1.8,4-4,4H541c-2.2,0-4-1.8-4-4V55.5c0-2.2,1.8-4,4-4h123c2.2,0,4,1.8,4,4V218z"/>
</g>
<g id="XMLID_760_">
	<rect id="XMLID_122_" x="703.1" y="334.5" class="st4" width="123.6" height="17.7"/>
	<text transform="matrix(1 0 0 1 731.3765 344.2661)" class="st5 st6 st7">Login/ User</text>
</g>
<g id="XMLID_756_">
	<path id="XMLID_293_" class="st8" d="M819.8,388c0,2.7-2.2,4.9-4.9,4.9h-100c-2.7,0-4.9-2.2-4.9-4.9v-18c0-2.7,2.2-4.9,4.9-4.9h100
		c2.7,0,4.9,2.2,4.9,4.9V388z"/>
</g>
<rect id="XMLID_755_" x="710" y="356.6" class="st3" width="22.4" height="4.5"/>
<rect id="XMLID_731_" x="737.5" y="372.9" class="st3" width="13.5" height="4.5"/>
<rect id="XMLID_730_" x="756.5" y="372.9" class="st3" width="35.3" height="4.5"/>
<rect id="XMLID_729_" x="737.5" y="381.2" class="st3" width="13.5" height="4.5"/>
<rect id="XMLID_722_" x="756.5" y="381.2" class="st3" width="35.3" height="4.5"/>
<g id="XMLID_703_">
	<path id="XMLID_291_" class="st8" d="M819.8,449c0,3.4-2.8,6.3-6.3,6.3h-97.3c-3.4,0-6.3-2.8-6.3-6.3v-32.6c0-3.4,2.8-6.3,6.3-6.3
		h97.3c3.4,0,6.3,2.8,6.3,6.3V449z"/>
</g>
<rect id="XMLID_702_" x="710" y="401.6" class="st3" width="22.4" height="4.5"/>
<rect id="XMLID_700_" x="739.8" y="418" class="st3" width="11.2" height="4.5"/>
<rect id="XMLID_699_" x="756.5" y="418" class="st3" width="35.3" height="4.5"/>
<rect id="XMLID_698_" x="739.8" y="426.3" class="st3" width="11.2" height="4.5"/>
<rect id="XMLID_697_" x="756.5" y="426.3" class="st3" width="35.3" height="4.5"/>
<rect id="XMLID_696_" x="739.8" y="435.3" class="st3" width="11.2" height="4.5"/>
<rect id="XMLID_662_" x="756.5" y="435.3" class="st3" width="35.3" height="4.5"/>
<rect id="XMLID_661_" x="739.8" y="444.3" class="st3" width="11.2" height="4.5"/>
<rect id="XMLID_660_" x="756.5" y="444.3" class="st3" width="35.3" height="4.5"/>
<g id="XMLID_787_">
	<rect id="XMLID_120_" x="865.5" y="334.5" class="st4" width="123.6" height="17.7"/>
	<text transform="matrix(1 0 0 1 889.3221 344.2661)" class="st5 st6 st7">Confirmation</text>
</g>
<g id="XMLID_783_">
	<path id="XMLID_289_" class="st8" d="M982.3,388c0,2.7-2.2,4.9-4.9,4.9h-100c-2.7,0-4.9-2.2-4.9-4.9v-18c0-2.7,2.2-4.9,4.9-4.9h100
		c2.7,0,4.9,2.2,4.9,4.9V388z"/>
</g>
<rect id="XMLID_782_" x="872.4" y="356.6" class="st3" width="22.4" height="4.5"/>
<rect id="XMLID_781_" x="899.9" y="372.9" class="st3" width="13.5" height="4.5"/>
<rect id="XMLID_780_" x="919" y="372.9" class="st3" width="35.3" height="4.5"/>
<rect id="XMLID_779_" x="899.9" y="381.2" class="st3" width="13.5" height="4.5"/>
<rect id="XMLID_778_" x="919" y="381.2" class="st3" width="35.3" height="4.5"/>
<g id="XMLID_707_">
	<rect id="XMLID_118_" x="540.7" y="334.5" class="st4" width="123.6" height="17.7"/>
	<text transform="matrix(1 0 0 1 575.7064 344.2662)" class="st5 st6 st7">Checkout</text>
</g>
<g id="XMLID_701_">
	<path id="XMLID_186_" class="st8" d="M657.4,420.3c0,4.3-3.5,7.7-7.7,7.7h-94.3c-4.3,0-7.7-3.5-7.7-7.7V367c0-4.3,3.5-7.7,7.7-7.7
		h94.3c4.3,0,7.7,3.5,7.7,7.7V420.3z"/>
</g>
<rect id="XMLID_695_" x="594" y="367.2" class="st3" width="35.3" height="4.5"/>
<rect id="XMLID_694_" x="594" y="382.1" class="st3" width="35.3" height="4.5"/>
<rect id="XMLID_693_" x="594" y="397.5" class="st3" width="35.3" height="4.5"/>
<rect id="XMLID_692_" x="594" y="412.2" class="st3" width="35.3" height="4.5"/>
<g id="XMLID_685_">
	<path id="XMLID_285_" class="st8" d="M636.1,446.9c0,1.4-1.2,2.6-2.6,2.6h-60.8c-1.4,0-2.6-1.2-2.6-2.6V439c0-1.4,1.2-2.6,2.6-2.6
		h60.8c1.4,0,2.6,1.2,2.6,2.6V446.9z"/>
</g>
<g id="XMLID_185_">
	<rect id="XMLID_116_" x="865.5" y="70.5" class="st4" width="123.6" height="17.7"/>
	<text transform="matrix(1 0 0 1 895.9788 80.3164)" class="st5 st6 st7">Contact Us</text>
</g>
<g id="XMLID_168_">
	<path id="XMLID_272_" class="st8" d="M982.3,124.1c0,2.7-2.2,4.9-4.9,4.9h-100c-2.7,0-4.9-2.2-4.9-4.9v-18c0-2.7,2.2-4.9,4.9-4.9
		h100c2.7,0,4.9,2.2,4.9,4.9V124.1z"/>
</g>
<rect id="XMLID_167_" x="872.4" y="92.6" class="st3" width="22.4" height="4.5"/>
<rect id="XMLID_166_" x="899.9" y="109" class="st3" width="13.5" height="4.5"/>
<rect id="XMLID_162_" x="919" y="109" class="st3" width="35.3" height="4.5"/>
<rect id="XMLID_161_" x="899.9" y="117.3" class="st3" width="13.5" height="4.5"/>
<rect id="XMLID_113_" x="919" y="117.3" class="st3" width="35.3" height="4.5"/>
<g id="XMLID_98_">
	<path id="XMLID_268_" class="st8" d="M982.3,193.3c0,3.8-3.1,6.9-6.9,6.9h-96.1c-3.8,0-6.9-3.1-6.9-6.9V153c0-3.8,3.1-6.9,6.9-6.9
		h96.1c3.8,0,6.9,3.1,6.9,6.9V193.3z"/>
</g>
<rect id="XMLID_97_" x="872.4" y="137.7" class="st3" width="22.4" height="4.5"/>
<rect id="XMLID_93_" x="902.2" y="154" class="st3" width="11.2" height="4.5"/>
<rect id="XMLID_92_" x="919" y="154" class="st3" width="35.3" height="4.5"/>
<rect id="XMLID_87_" x="919" y="164.1" class="st3" width="35.3" height="18.6"/>
<rect id="XMLID_78_" x="902.2" y="189.1" class="st3" width="11.2" height="4.5"/>
<rect id="XMLID_85_" x="902.2" y="163.6" class="st3" width="11.2" height="4.5"/>
<rect id="XMLID_6_" x="919" y="189.1" class="st3" width="35.3" height="4.5"/>
<g id="XMLID_224_">
	<rect id="XMLID_110_" x="703.1" y="70.5" class="st4" width="123.6" height="17.7"/>
	<text transform="matrix(1 0 0 1 735.3384 80.3164)" class="st5 st6 st7">Resources</text>
</g>
<g id="XMLID_114_">
	<path id="XMLID_266_" class="st8" d="M819.8,124.1c0,2.7-2.2,4.9-4.9,4.9h-100c-2.7,0-4.9-2.2-4.9-4.9v-18c0-2.7,2.2-4.9,4.9-4.9
		h100c2.7,0,4.9,2.2,4.9,4.9V124.1z"/>
</g>
<rect id="XMLID_100_" x="710" y="92.6" class="st3" width="22.4" height="4.5"/>
<rect id="XMLID_99_" x="737.5" y="109" class="st3" width="13.5" height="4.5"/>
<rect id="XMLID_96_" x="756.5" y="109" class="st3" width="35.3" height="4.5"/>
<rect id="XMLID_95_" x="737.5" y="117.3" class="st3" width="13.5" height="4.5"/>
<rect id="XMLID_94_" x="756.5" y="117.3" class="st3" width="35.3" height="4.5"/>
<rect id="XMLID_27_" x="710" y="137.7" class="st3" width="22.4" height="4.5"/>
<rect id="XMLID_22_" x="756.5" y="153.6" class="st3" width="35.3" height="18.6"/>
<rect id="XMLID_17_" x="739.8" y="178.6" class="st3" width="11.2" height="4.5"/>
<rect id="XMLID_10_" x="739.8" y="153.2" class="st3" width="11.2" height="4.5"/>
<rect id="XMLID_9_" x="756.5" y="178.6" class="st3" width="35.3" height="4.5"/>
<g id="XMLID_368_">
	<rect id="XMLID_108_" x="378.3" y="70.5" class="st4" width="123.6" height="17.7"/>
	<text transform="matrix(1 0 0 1 422.339 80.3164)" class="st5 st6 st7">Media</text>
</g>
<g id="XMLID_363_">
	<path id="XMLID_259_" class="st8" d="M495,124.1c0,2.7-2.2,4.9-4.9,4.9h-100c-2.7,0-4.9-2.2-4.9-4.9v-18c0-2.7,2.2-4.9,4.9-4.9h100
		c2.7,0,4.9,2.2,4.9,4.9V124.1z"/>
</g>
<rect id="XMLID_362_" x="385.2" y="92.6" class="st3" width="22.4" height="4.5"/>
<rect id="XMLID_354_" x="412.7" y="109" class="st3" width="13.5" height="4.5"/>
<rect id="XMLID_353_" x="431.7" y="109" class="st3" width="35.3" height="4.5"/>
<rect id="XMLID_350_" x="412.7" y="117.3" class="st3" width="13.5" height="4.5"/>
<rect id="XMLID_346_" x="431.7" y="117.3" class="st3" width="35.3" height="4.5"/>
<g id="XMLID_308_">
	<path id="XMLID_257_" class="st8" d="M495,193.3c0,3.8-3.1,6.9-6.9,6.9H392c-3.8,0-6.9-3.1-6.9-6.9V153c0-3.8,3.1-6.9,6.9-6.9h96.2
		c3.8,0,6.9,3.1,6.9,6.9v40.3H495z"/>
</g>
<rect id="XMLID_307_" x="385.2" y="137.7" class="st3" width="22.4" height="4.5"/>
<rect id="XMLID_306_" x="415" y="154" class="st3" width="11.2" height="4.5"/>
<rect id="XMLID_305_" x="431.7" y="154" class="st3" width="35.3" height="4.5"/>
<rect id="XMLID_304_" x="431.7" y="164.1" class="st3" width="35.3" height="18.6"/>
<rect id="XMLID_303_" x="415" y="189.1" class="st3" width="11.2" height="4.5"/>
<rect id="XMLID_302_" x="415" y="163.6" class="st3" width="11.2" height="4.5"/>
<rect id="XMLID_301_" x="431.7" y="189.1" class="st3" width="35.3" height="4.5"/>
<g id="XMLID_76_">
	<rect id="XMLID_107_" x="378.3" y="335.7" class="st4" width="123.6" height="17.7"/>
	<text transform="matrix(1 0 0 1 417.6769 345.4341)" class="st5 st6 st7">Product</text>
</g>
<rect id="XMLID_70_" x="471.7" y="374.1" class="st3" width="17.9" height="4.5"/>
<rect id="XMLID_32_" x="471.7" y="366.7" class="st3" width="17.9" height="4.5"/>
<rect id="XMLID_68_" x="471.7" y="382.4" class="st3" width="17.9" height="4.5"/>
<rect id="XMLID_40_" x="407.3" y="419.1" class="st3" width="49.7" height="4.5"/>
<rect id="XMLID_39_" x="407.3" y="428.8" class="st3" width="49.7" height="4.5"/>
<g id="XMLID_595_">
	<rect id="XMLID_106_" x="7.8" y="76.6" class="st4" width="119.9" height="17"/>
	<text transform="matrix(1 0 0 1 59.3421 86.3471)" class="st5 st6 st7">HP</text>
</g>
<g id="XMLID_340_">
	<rect id="XMLID_105_" x="213.7" y="76.7" class="st4" width="129.2" height="17"/>
	<text transform="matrix(1 0 0 1 253.0386 86.4434)" class="st5 st6 st7">Category</text>
</g>
<g id="XMLID_683_">
	<rect id="XMLID_104_" x="215" y="336.5" class="st4" width="129.2" height="17"/>
	<text transform="matrix(1 0 0 1 241.6834 346.2986)" class="st5 st6 st7">Sub Category</text>
</g>
<g id="XMLID_236_">
	<rect id="XMLID_103_" x="540.7" y="70.5" class="st4" width="123.6" height="17.7"/>
	<text transform="matrix(1 0 0 1 566.8793 80.3164)" class="st5 st6 st7">Dealer Login</text>
</g>
<g id="XMLID_216_">
	<path class="st8" d="M657.4,124.1c0,2.7-2.2,4.9-4.9,4.9h-100c-2.7,0-4.9-2.2-4.9-4.9v-18c0-2.7,2.2-4.9,4.9-4.9h100
		c2.7,0,4.9,2.2,4.9,4.9V124.1z"/>
</g>
<rect id="XMLID_212_" x="547.6" y="92.6" class="st3" width="22.4" height="4.5"/>
<rect id="XMLID_211_" x="575.1" y="109" class="st3" width="13.5" height="4.5"/>
<rect id="XMLID_210_" x="594.1" y="109" class="st3" width="35.3" height="4.5"/>
<rect id="XMLID_209_" x="575.1" y="117.3" class="st3" width="13.5" height="4.5"/>
<rect id="XMLID_208_" x="594.1" y="117.3" class="st3" width="35.3" height="4.5"/>
<g id="XMLID_145_">
	<path id="XMLID_61_" class="st8" d="M657.4,185.1c0,3.4-2.8,6.3-6.3,6.3h-97.3c-3.4,0-6.3-2.8-6.3-6.3v-32.6c0-3.4,2.8-6.3,6.3-6.3
		h97.4c3.4,0,6.3,2.8,6.3,6.3L657.4,185.1L657.4,185.1z"/>
</g>
<rect id="XMLID_91_" x="547.6" y="137.7" class="st3" width="22.4" height="4.5"/>
<rect id="XMLID_83_" x="577.4" y="154" class="st3" width="11.2" height="4.5"/>
<rect id="XMLID_79_" x="594.1" y="154" class="st3" width="35.3" height="4.5"/>
<rect id="XMLID_75_" x="577.4" y="162.4" class="st3" width="11.2" height="4.5"/>
<rect id="XMLID_74_" x="594.1" y="162.4" class="st3" width="35.3" height="4.5"/>
<rect id="XMLID_73_" x="577.4" y="171.4" class="st3" width="11.2" height="4.5"/>
<rect id="XMLID_72_" x="594.1" y="171.4" class="st3" width="35.3" height="4.5"/>
<rect id="XMLID_71_" x="577.4" y="180.4" class="st3" width="11.2" height="4.5"/>
<rect id="XMLID_31_" x="594.1" y="180.4" class="st3" width="35.3" height="4.5"/>
<rect id="XMLID_53_" x="581.1" y="366.9" class="st3" width="6" height="9.9"/>
<rect id="XMLID_5_" x="581.1" y="382.1" class="st3" width="6" height="9.9"/>
<rect id="XMLID_33_" x="581.1" y="397" class="st3" width="6" height="9.9"/>
<rect id="XMLID_36_" x="581.1" y="411.8" class="st3" width="6" height="9.9"/>
<rect id="XMLID_49_" x="238.5" y="147.8" class="st3" width="34" height="26"/>
<rect id="XMLID_48_" x="288.6" y="147.8" class="st3" width="34" height="26"/>
<rect id="XMLID_112_" x="288.6" y="112.9" class="st3" width="34" height="26"/>
<rect id="XMLID_21_" x="238.5" y="182.6" class="st3" width="34" height="26"/>
<rect id="XMLID_20_" x="288.6" y="182.6" class="st3" width="34" height="26"/>
<rect id="XMLID_46_" x="238.5" y="112.9" class="st3" width="34" height="26"/>
<g id="XMLID_159_">
	<path id="XMLID_82_" class="st8" d="M466.8,408.4c0,2.8-2.3,5.1-5.1,5.1h-59.1c-2.8,0-5.1-2.3-5.1-5.1v-36.6c0-2.8,2.3-5.1,5.1-5.1
		h59.1c2.8,0,5.1,2.3,5.1,5.1V408.4z"/>
</g>
<g id="XMLID_37_">
	<path id="XMLID_115_" class="st8" d="M457.1,472.7c0,2.1-1.7,3.8-3.8,3.8h-42.1c-2.1,0-3.8-1.7-3.8-3.8v-29c0-2.1,1.7-3.8,3.8-3.8
		h42.1c2.1,0,3.8,1.7,3.8,3.8V472.7L457.1,472.7z"/>
</g>
<g id="Outline_1_">
	<g id="XMLID_56_" class="st1">
		<g>
			<path class="st2" d="M276.5,277.5h650.9l-0.1,26.8"/>
			<g>
				<polygon points="922.4,302.8 927.3,311.5 932.3,302.8 				"/>
			</g>
		</g>
	</g>
	<g id="XMLID_55_" class="st1">
		<g>
			<path class="st2" d="M442.6,277.5c0,0,0,20.1,0,23"/>
			<g>
				<polygon points="437.6,299 442.6,307.6 447.6,299 				"/>
			</g>
		</g>
	</g>
	<g id="XMLID_30_" class="st1">
		<g>
			<path class="st2" d="M764.9,277.5v22.9"/>
			<g>
				<polygon points="759.9,299 764.9,307.6 769.9,299 				"/>
			</g>
		</g>
	</g>
	<g id="XMLID_25_" class="st1">
		<g>
			<path class="st2" d="M603.7,277.5c0,0,0,18.6,0,23"/>
			<g>
				<polygon points="598.7,299 603.7,307.6 608.7,299 				"/>
			</g>
		</g>
	</g>
</g>
</svg>
