<?xml version="1.0" encoding="utf-8"?>
<!-- Generator: Adobe Illustrator 21.1.0, SVG Export Plug-In . SVG Version: 6.00 Build 0)  -->
<svg version="1.1" id="Layer_1" xmlns="http://www.w3.org/2000/svg" xmlns:xlink="http://www.w3.org/1999/xlink" x="0px" y="0px"
	 viewBox="0 0 100 50" style="enable-background:new 0 0 100 50;" xml:space="preserve">
<style type="text/css">
	.st0{fill:none;stroke:#E5E5E5;stroke-miterlimit:10;}
	.st1{fill:#B2B2B2;}
	.st2{fill:#E5E5E5;}
	.st3{fill:#2D2D2D;}
	.st4{fill:#595959;}
	.st5{fill:#858585;}
	.st6{fill:#FC8383;}
	.st7{fill:none;stroke:#FFFFFF;stroke-width:2;stroke-miterlimit:10;}
	.st8{fill:none;stroke:#FC8383;stroke-width:2;stroke-miterlimit:10;}
	.st9{fill:none;stroke:#FC8383;stroke-width:2;stroke-miterlimit:10;stroke-dasharray:2.9673,2.9673;}
	.st10{fill:none;stroke:#FC8383;stroke-width:2;stroke-miterlimit:10;stroke-dasharray:2.9483,2.9483;}
	.st11{fill:none;stroke:#000000;stroke-miterlimit:10;}
</style>
<line class="st0" x1="100" y1="32.5" x2="99" y2="32.8"/>
<line class="st0" x1="1" y1="42" x2="0" y2="42"/>
<g>
	<path class="st1" d="M0,0v50h100V0H0z M99,49H1V1h98V49z"/>
	<polygon class="st2" points="99,32.8 99,49 1,49 1,42 55.3,43.7 	"/>
	<polygon class="st2" points="99,1 99,5.9 55.3,14.3 1,6.4 1,1 	"/>
</g>
<rect x="77.1" y="56" width="16.1" height="40.5"/>
<rect x="59.2" y="62.1" class="st3" width="16.1" height="34.4"/>
<rect x="41.3" y="68.2" class="st4" width="16.1" height="28.3"/>
<rect x="23.4" y="74.3" class="st5" width="16.1" height="22.2"/>
<rect x="156.2" y="37.2" class="st2" width="11.3" height="16.1"/>
<polygon class="st6" points="161.8,-2.1 161.8,22.9 145.6,22.9 135,28.7 135,22.9 126.1,22.9 126.1,-2.1 "/>
<line class="st7" x1="140.5" y1="6.4" x2="149.8" y2="15.8"/>
<line class="st7" x1="149.8" y1="6.4" x2="140.5" y2="15.8"/>
<polygon class="st6" points="200.8,-2.1 200.8,22.9 184.6,22.9 174,28.7 174,22.9 165.1,22.9 165.1,-2.1 "/>
<g transform="translate(0,-952.36218)">
	<path class="st7" d="M189.2,958.1l-9,9.1l-3.5-2.5"/>
</g>
<rect x="3.2" y="-56" class="st2" width="21.8" height="43.1"/>
<rect x="30.4" y="-56" class="st2" width="21.8" height="43.1"/>
<rect x="57.6" y="-56" class="st2" width="21.8" height="43.1"/>
<rect x="8.1" y="-40" width="11.8" height="1.9"/>
<rect x="8.1" y="-36.4" class="st5" width="11.8" height="1"/>
<rect x="8.1" y="-34.5" class="st5" width="11.8" height="1"/>
<rect x="62.7" y="-32.1" class="st5" width="11.8" height="1"/>
<rect x="62.7" y="-30.5" class="st5" width="11.8" height="1"/>
<circle class="st5" cx="41.5" cy="-37.1" r="5.9"/>
<circle class="st5" cx="68.5" cy="-39.1" r="3.2"/>
<line class="st0" x1="100" y1="5.7" x2="99" y2="5.9"/>
<g>
	<g>
		<path class="st8" d="M-10.2,35.7c0,0,0.5-0.3,1.3-0.7"/>
		<path class="st9" d="M-6.2,33.6c9.8-5,35-17,42.6-14.1c7.2,2.8,9.5,15.2,10.2,20.9"/>
		<path class="st8" d="M46.7,41.9c0.1,0.9,0.1,1.5,0.1,1.5s0.3-0.4,0.9-1.2"/>
		<path class="st10" d="M49.5,39.9c5.1-6.5,16.4-19.7,23.2-20c8.5-0.3,0.2,30.4,17.2,6.3"/>
		<path class="st8" d="M90.8,25c0.3-0.4,0.6-0.8,0.8-1.2"/>
		<g>
			<polygon class="st6" points="93.6,26.1 94,20.2 88.6,22.8 			"/>
		</g>
	</g>
</g>
<line class="st11" x1="44.7" y1="41.9" x2="48.9" y2="46.1"/>
<line class="st11" x1="49" y1="41.9" x2="44.8" y2="46.1"/>
</svg>
