<?xml version="1.0" encoding="utf-8"?>
<!-- Generator: Adobe Illustrator 21.1.0, SVG Export Plug-In . SVG Version: 6.00 Build 0)  -->
<svg version="1.1" id="Layer_1" xmlns="http://www.w3.org/2000/svg" xmlns:xlink="http://www.w3.org/1999/xlink" x="0px" y="0px"
	 viewBox="0 0 100 50" style="enable-background:new 0 0 100 50;" xml:space="preserve">
<style type="text/css">
	.st0{fill:#FC8383;}
	.st1{fill:#F69B9B;}
	.st2{fill:#F1B4B4;}
	.st3{fill:#EBCDCD;}
	.st4{fill:#B2B2B2;}
	.st5{fill:none;stroke:#B2B2B2;stroke-miterlimit:10;}
	.st6{fill:none;stroke:#B2B2B2;stroke-width:0.5;stroke-miterlimit:10;}
</style>
<rect x="77.4" y="59.6" class="st0" width="11.3" height="40.5"/>
<rect x="60.8" y="62.6" class="st1" width="11.3" height="34.4"/>
<rect x="44.2" y="65.7" class="st2" width="11.3" height="28.3"/>
<rect x="27.6" y="68.7" class="st3" width="11.3" height="22.2"/>
<rect x="9.8" y="19.6" class="st0" width="11.3" height="16.1"/>
<rect x="27.1" y="19.6" class="st0" width="11.3" height="16.1"/>
<rect x="61.6" y="19.6" class="st0" width="11.3" height="16.1"/>
<rect x="44.3" y="19.6" class="st0" width="11.3" height="16.1"/>
<rect x="78.8" y="19.6" class="st0" width="11.3" height="16.1"/>
<g>
	<path class="st4" d="M99,1v48H1V1H99 M100,0H0v50h100V0L100,0z"/>
</g>
<g>
	<path class="st5" d="M74.9,58v48h-98V58H74.9 M75.9,57h-100v50h100V57L75.9,57z"/>
</g>
<rect x="119.8" y="39.3" class="st0" width="35" height="50"/>
<path class="st0" d="M15.5,19.6"/>
<path class="st6" d="M15.5,16.9c0-4.8,3.9-8.6,8.6-8.6s8.6,3.9,8.6,8.6"/>
<path class="st6" d="M32.8,16.9c0-4.8,3.9-8.6,8.6-8.6s8.6,3.9,8.6,8.6"/>
<path class="st6" d="M50,16.9c0-4.8,3.9-8.6,8.6-8.6s8.6,3.9,8.6,8.6"/>
<g>
	<path class="st6" d="M67.2,16.9c0-4.8,3.9-8.6,8.6-8.6c4.2,0,7.6,2.9,8.4,6.8"/>
	<g>
		<polygon class="st4" points="83,14.9 84.5,16.9 85.5,14.6 		"/>
	</g>
</g>
</svg>
