<svg width="100" height="50" viewBox="0 0 100 50" fill="none" xmlns="http://www.w3.org/2000/svg">
<g clip-path="url(#clip0)">
<path d="M33.7 3.3H11.9V46.4H33.7V3.3Z" fill="black"/>
<path d="M33.7 3.3H11.9V5.2H33.7V3.3Z" fill="white"/>
<path d="M33.7 42.6H11.9V46.3H33.7V42.6Z" fill="white"/>
<path d="M60.9 3.3H39.1V46.4H60.9V3.3Z" fill="black"/>
<path d="M60.9 3.3H39.1V5.2H60.9V3.3Z" fill="white"/>
<path d="M60.9 42.6H39.1V46.3H60.9V42.6Z" fill="white"/>
<path d="M88.1 3.3H66.3V46.4H88.1V3.3Z" fill="black"/>
<path d="M88.1 3.3H66.3V5.2H88.1V3.3Z" fill="white"/>
<path d="M88.1 42.6H66.3V46.3H88.1V42.6Z" fill="white"/>
<path d="M28.6 19.3H16.8V21.2H28.6V19.3Z" fill="white"/>
<path d="M28.6 22.7H16.8V30.7H28.6V22.7Z" fill="white"/>
<path d="M50.2 28.1C53.4585 28.1 56.1 25.4585 56.1 22.2C56.1 18.9415 53.4585 16.3 50.2 16.3C46.9415 16.3 44.3 18.9415 44.3 22.2C44.3 25.4585 46.9415 28.1 50.2 28.1Z" fill="white"/>
<path d="M77.2 23.4C78.9673 23.4 80.4 21.9673 80.4 20.2C80.4 18.4327 78.9673 17 77.2 17C75.4327 17 74 18.4327 74 20.2C74 21.9673 75.4327 23.4 77.2 23.4Z" fill="white"/>
<path d="M83.2 27.8H71.4V30.6H83.2V27.8Z" fill="white"/>
</g>
<defs>
<clipPath id="clip0">
<rect width="100" height="50" fill="white"/>
</clipPath>
</defs>
</svg>
