<?xml version="1.0" encoding="utf-8"?>
<!-- Generator: Adobe Illustrator 21.1.0, SVG Export Plug-In . SVG Version: 6.00 Build 0)  -->
<svg version="1.1" id="Layer_1" xmlns="http://www.w3.org/2000/svg" xmlns:xlink="http://www.w3.org/1999/xlink" x="0px" y="0px"
	 viewBox="0 0 100 50" style="enable-background:new 0 0 100 50;" xml:space="preserve">
<style type="text/css">
	.st0{fill:#2D2D2D;}
	.st1{fill:#595959;}
	.st2{fill:#858585;}
	.st3{fill:#B2B2B2;}
	.st4{fill:#E5E5E5;}
	.st5{fill:#FC8383;}
	.st6{fill:none;stroke:#FFFFFF;stroke-width:2;stroke-miterlimit:10;}
</style>
<rect x="77.1" y="56" width="16.1" height="40.5"/>
<rect x="59.2" y="62.1" class="st0" width="16.1" height="34.4"/>
<rect x="41.3" y="68.2" class="st1" width="16.1" height="28.3"/>
<rect x="23.4" y="74.3" class="st2" width="16.1" height="22.2"/>
<g>
	<path class="st3" d="M99,1v48H1V1H99 M100,0H0v50h100V0L100,0z"/>
</g>
<rect x="156.2" y="37.2" class="st4" width="11.3" height="16.1"/>
<polygon class="st5" points="161.8,-2.1 161.8,22.9 145.6,22.9 135,28.7 135,22.9 126.1,22.9 126.1,-2.1 "/>
<line class="st6" x1="140.5" y1="6.4" x2="149.8" y2="15.8"/>
<line class="st6" x1="149.8" y1="6.4" x2="140.5" y2="15.8"/>
<polygon class="st5" points="200.8,-2.1 200.8,22.9 184.6,22.9 174,28.7 174,22.9 165.1,22.9 165.1,-2.1 "/>
<g transform="translate(0,-952.36218)">
	<path class="st6" d="M189.2,958.1l-9,9.1l-3.5-2.5"/>
</g>
<rect x="11.9" y="3.3" class="st4" width="21.8" height="43.1"/>
<rect x="11.9" y="3.3" class="st5" width="21.8" height="1.9"/>
<rect x="11.9" y="42.6" class="st5" width="21.8" height="3.7"/>
<rect x="39.1" y="3.3" class="st4" width="21.8" height="43.1"/>
<rect x="39.1" y="3.3" class="st5" width="21.8" height="1.9"/>
<rect x="39.1" y="42.6" class="st5" width="21.8" height="3.7"/>
<rect x="66.3" y="3.3" class="st4" width="21.8" height="43.1"/>
<rect x="66.3" y="3.3" class="st5" width="21.8" height="1.9"/>
<rect x="66.3" y="42.6" class="st5" width="21.8" height="3.7"/>
<rect x="16.8" y="19.3" width="11.8" height="1.9"/>
<rect x="16.8" y="22.7" class="st2" width="11.8" height="8"/>
<circle class="st2" cx="50.2" cy="22.2" r="5.9"/>
<circle class="st2" cx="77.2" cy="20.2" r="3.2"/>
<rect x="71.4" y="27.8" class="st2" width="11.8" height="2.8"/>
</svg>
