<svg width="100" height="50" viewBox="0 0 100 50" fill="none" xmlns="http://www.w3.org/2000/svg">
<g clip-path="url(#clip0)">
<path d="M100 32.5L99 32.8" stroke="#E5E5E5" stroke-miterlimit="10"/>
<path d="M1 42H0" stroke="#E5E5E5" stroke-miterlimit="10"/>
<path d="M99 32.8V49H1V42L55.3 43.7L99 32.8Z" fill="#E5E5E5"/>
<path d="M99 1V5.9L55.3 14.3L1 6.4V1H99Z" fill="#E5E5E5"/>
<path d="M100 5.7L99 5.9" stroke="#E5E5E5" stroke-miterlimit="10"/>
<path d="M-6.2 33.6C3.6 28.6 28.8 16.6 36.4 19.5C43.6 22.3 45.9 34.7 46.6 40.4" stroke="white" stroke-width="2" stroke-miterlimit="10" stroke-dasharray="2.97 2.97"/>
<path d="M46.7 41.9C46.8 42.8 46.8 43.4 46.8 43.4C46.8 43.4 47.1 43 47.7 42.2" stroke="white" stroke-width="2" stroke-miterlimit="10"/>
<path d="M49.5 39.9C54.6 33.4 65.9 20.2 72.7 19.9C81.2 19.6 72.9 50.3 89.9 26.2" stroke="white" stroke-width="2" stroke-miterlimit="10" stroke-dasharray="2.95 2.95"/>
<path d="M90.8 25C91.1 24.6 91.4 24.2 91.6 23.8" stroke="white" stroke-width="2" stroke-miterlimit="10"/>
<path d="M93.6 26.1L94 20.2L88.6 22.8L93.6 26.1Z" fill="white"/>
<path d="M44.7 41.9L48.9 46.1" stroke="white" stroke-miterlimit="10"/>
<path d="M49 41.9L44.8 46.1" stroke="white" stroke-miterlimit="10"/>
</g>
<defs>
<clipPath id="clip0">
<rect width="100" height="50" fill="white"/>
</clipPath>
</defs>
</svg>
