<?xml version="1.0" encoding="utf-8"?>
<!-- Generator: Adobe Illustrator 21.1.0, SVG Export Plug-In . SVG Version: 6.00 Build 0)  -->
<svg version="1.1" id="Layer_1" xmlns="http://www.w3.org/2000/svg" xmlns:xlink="http://www.w3.org/1999/xlink" x="0px" y="0px"
	 viewBox="0 0 328.5 329.4" style="enable-background:new 0 0 328.5 329.4;" xml:space="preserve">
<style type="text/css">
	.st0{stroke:#000000;stroke-width:30;stroke-miterlimit:10;}
	.st1{fill:none;stroke:#000000;stroke-width:30;stroke-miterlimit:10;}
	.st2{fill:none;}
	.st3{enable-background:new    ;}
	.st4{fill:#FFFFFF;}
</style>
<path class="st0" d="M-524.3-134.7c0,0,28.8,54.3,19.4,231.8"/>
<path class="st1" d="M-503.5-1.1c-37.3-21.6-183.5,74.2,0.4,62.6"/>
<path class="st1" d="M-456.3-13.4c0,0,110-92.3,77.7,116"/>
<path class="st1" d="M-371.8,13.3c0,0-184.5,58.7-13.9,50"/>
<path class="st1" d="M-324.1-20c0,0-24.7,159,27.3,43c42.2-94.2,40.5-23.9,38.3,5.8c-0.9,11.9,0,23.9,2.9,35.5
	c4.8,19.4,14.7,37.1,33.4-6.6"/>
<rect x="-42.6" y="44.4" class="st2" width="490.5" height="213.9"/>
<rect x="23.3" y="116" class="st2" width="375" height="245"/>
<g class="st3">
	<path class="st4" d="M126.1,213.3c0,15-3.3,26.9-10,35.9c-6.7,9-16.3,13.5-28.9,13.5c-5.9,0-11-1.2-15.3-3.7
		c-4.3-2.4-8-6-10.9-10.6l-2,12.3H35.6V135.1l-14.4-2.8V116h41.4v55c2.9-4,6.4-7.1,10.4-9.3c4.1-2.2,8.7-3.2,14-3.2
		c12.7,0,22.5,4.8,29.1,14.4c6.7,9.6,10,22.4,10,38.5V213.3z M99.1,211.4c0-9.8-1.4-17.5-4.3-23.2s-7.8-8.6-14.7-8.6
		c-4.2,0-7.8,0.9-10.7,2.6c-2.9,1.8-5.2,4.3-6.9,7.6v42.4c1.7,3.1,4,5.4,6.9,7.1c2.9,1.6,6.5,2.4,10.8,2.4c7,0,11.9-2.5,14.7-7.4
		c2.8-4.9,4.2-11.9,4.2-20.9V211.4z"/>
	<path class="st4" d="M127.1,132.3V116h41.6v125.7l13.1,2.8v16.2h-53.3v-16.2l13.1-2.8V135.1L127.1,132.3z"/>
	<path class="st4" d="M223.7,135.8v24.6h17.6v19h-17.6v51.1c0,3.9,0.8,6.7,2.4,8.3c1.6,1.7,3.8,2.5,6.5,2.5c1.9,0,3.5-0.1,4.9-0.2
		c1.4-0.2,3-0.4,4.7-0.8l2.3,19.6c-3,0.9-6,1.6-9,2.1s-6.2,0.7-9.6,0.7c-9.3,0-16.5-2.6-21.6-7.7c-5-5.1-7.6-13.3-7.6-24.4v-51.2
		h-14.8v-19h14.8v-24.6L223.7,135.8L223.7,135.8z"/>
	<path class="st4" d="M280.9,260.7h-27V237h27V260.7z"/>
</g>
</svg>
