<?xml version="1.0" encoding="utf-8"?>
<!-- Generator: Adobe Illustrator 23.0.6, SVG Export Plug-In . SVG Version: 6.00 Build 0)  -->
<svg version="1.1" id="Layer_1" xmlns="http://www.w3.org/2000/svg" xmlns:xlink="http://www.w3.org/1999/xlink" x="0px" y="0px"
	 viewBox="0 0 216 160.2" style="enable-background:new 0 0 216 160.2;" xml:space="preserve">
<style type="text/css">
	.st0{fill:none;stroke:#000000;stroke-miterlimit:10;}
	.st1{fill:none;}
</style>
<path class="st0" d="M-439.8-395.5c0,0,19.5,36.8,13.1,157L-439.8-395.5z"/>
<path class="st0" d="M-425.7-305c-25.3-14.6-124.3,50.3,0.3,42.4L-425.7-305z"/>
<path d="M-485.6,78.8c-6.4-120.2,13.1-157,13.1-157L-485.6,78.8z"/>
<path d="M-486.9,54.7c124.6,7.9,25.6-57,0.3-42.4L-486.9,54.7z"/>
<path class="st0" d="M-387-313.4c0,0,74.5-62.5,52.6,78.6L-387-313.4z"/>
<path class="st0" d="M-329.7-295.3c0,0-125,39.8-9.4,33.9L-329.7-295.3z"/>
<path class="st0" d="M-290.6-317.8c0,0-16.7,107.7,18.5,29.1c28.6-63.8,27.4-16.2,25.9,3.9c-0.6,8.1,0,16.2,2,24
	c3.3,13.1,10,25.1,22.6-4.5L-290.6-317.8z"/>
<rect x="6.1" y="-262.3" class="st1" width="536.9" height="232.2"/>
<text transform="matrix(1 0 0 1 6.1338 -146.8474)" style="font-family:'Futura-Medium'; font-size:140px;">blt</text>
<g>
	<path d="M12,34.4v44.1c4.8-5,10.2-7.5,16.3-7.5c7,0,12.8,2.6,17.4,7.8c4.7,5.2,7,11.6,7,19.4c0,8-2.3,14.6-7,19.8
		c-4.7,5.2-10.5,7.8-17.6,7.8c-6,0-11.4-2.3-16-6.9v5.5H0V34.4H12z M40.4,98.7c0-5-1.3-9-4-12.1c-2.7-3.2-6.2-4.8-10.3-4.8
		c-4.4,0-8,1.6-10.7,4.6s-4.1,7-4.1,11.9c0,5.1,1.3,9,4,12.1c2.7,3.1,6.2,4.6,10.7,4.6c4.1,0,7.6-1.6,10.4-4.6
		C39.1,107.3,40.4,103.4,40.4,98.7z"/>
	<path d="M77.3,34.4v89.9h-12V34.4H77.3z"/>
	<path d="M110.3,83.6v40.6h-12V83.6h-5.1V72.4h5.1v-19h12v19h9.3v11.2C119.6,83.6,110.3,83.6,110.3,83.6z"/>
</g>
</svg>
