<?xml version="1.0" encoding="utf-8"?>
<!-- Generator: Adobe Illustrator 23.0.6, SVG Export Plug-In . SVG Version: 6.00 Build 0)  -->
<svg version="1.1" id="Layer_1" xmlns="http://www.w3.org/2000/svg" xmlns:xlink="http://www.w3.org/1999/xlink" x="0px" y="0px"
	 viewBox="0 0 330 250" style="enable-background:new 0 0 330 250;" xml:space="preserve">
<g>
	<path d="M-394.9-337.8c0,0,19.5,36.8,13.1,157"/>
	<path d="M-380.8-247.3c-25.3-14.6-124.3,50.3,0.3,42.4"/>
</g>
<g>
	<path d="M-440.7,136.5c-6.4-120.2,13.1-157,13.1-157"/>
	<path d="M-442,112.4c124.6,7.9,25.6-57,0.3-42.4"/>
</g>
<path d="M-342.1-255.7c0,0,74.5-62.5,52.6,78.6"/>
<path d="M-284.8-237.6c0,0-125,39.8-9.4,33.9"/>
<path d="M-245.7-260.1c0,0-16.7,107.7,18.5,29.1c28.6-63.8,27.4-16.2,25.9,3.9c-0.6,8.1,0,16.2,2,24c3.3,13.1,10,25.1,22.6-4.5"/>
<g>
	<g>
		<path d="M111.9,142.8c-3.6-5.3-7.9-9.7-13-13.1c5.1-7.9,7.6-16.8,7.6-26.7c0-7.8-1.7-15.7-5-23.2c-3.3-7.6-7.8-14-13.5-19.2
			c-4.3-3.8-9.4-6.9-15.1-9c-1.9-0.7-3.8-1.3-5.8-1.8c-7.4-1.9-16.9-2.9-28.9-2.9H3.4v184.7h47.7c12.2,0,22.3-1.1,30.7-3.5l0.3-0.1
			c8.3-2.6,15.9-7.3,22.5-13.9c11-10.8,16.7-24.2,16.7-39.8C121.3,162.5,118.2,151.9,111.9,142.8z M62.7,103.5c0,5-1.1,8.6-3.3,10.7
			c-2,1.9-5.8,3-10.9,3.3V90c5,0.2,8.6,1.3,10.9,3.3C60.2,94.1,62.7,96.3,62.7,103.5z M71.8,183.7c-2.3,1.9-7.3,4.2-18.1,4.2h-5.2
			v-29.4h2.4c14.5,0,19.4,3.1,21,4.5c3.2,2.9,4.6,6.1,4.6,10.4C76.5,177.7,75,180.9,71.8,183.7z"/>
	</g>
	<g>
		<polygon points="233.7,187.9 233.7,231.6 140.3,231.6 140.3,46.9 185.4,46.9 185.4,187.9 		"/>
	</g>
	<g>
		<polygon points="337.6,46.9 337.6,90.5 300,90.5 300,231.6 254.8,231.6 254.8,90.5 217,90.5 217,46.9 		"/>
	</g>
</g>
</svg>
