<svg width="60" height="41" viewBox="0 0 60 41" fill="none" xmlns="http://www.w3.org/2000/svg">
<path d="M13.0831 13.8661C16.5382 13.7739 17.9202 14.3728 20.2696 16.8144C22.6191 19.0717 23.6325 24.4155 23.4943 27.9166C23.3561 31.5099 23.0337 34.5043 20.546 36.8076C18.0123 39.2031 15.1561 40.3548 11.5629 40.2627C9.58197 40.2166 7.50894 38.4661 7.50894 38.4661L7.1404 39.2031C6.95613 39.6177 6.54152 39.8942 6.08085 39.9863L2.02692 40.447C1.10557 40.6312 0.276355 39.802 0.414557 38.8346C0.875231 35.8402 1.79658 30.4043 1.98085 28.0088C2.81006 19.4863 2.16512 8.24584 1.88871 4.60651C1.84265 3.86943 2.30332 3.27056 2.99433 3.13236L7.04826 2.07281C7.92355 1.84247 8.75276 2.48741 8.79883 3.40876C8.93703 7.23236 9.30557 15.2481 9.07523 16.6301C9.35164 14.9256 11.1943 13.9121 13.0831 13.8661ZM12.346 32.3391C14.3814 32.3391 16.0314 30.0085 16.0314 27.1335C16.0314 24.2585 14.3814 21.9279 12.346 21.9279C10.3106 21.9279 8.66062 24.2585 8.66062 27.1335C8.66062 30.0085 10.3106 32.3391 12.346 32.3391Z" fill="#808080"/>
<path d="M37.4987 0.598754C37.084 0.368416 36.6234 0.322349 36.2088 0.460551C34.8267 0.967293 33.4447 1.3819 32.1088 1.79651C31.4178 1.98078 30.9571 2.62572 31.0031 3.3628C31.0953 9.12123 30.4503 15.0179 29.7593 20.7302C29.0683 26.719 28.3312 32.9381 28.5155 39.1111C28.5155 39.6179 28.7919 40.0785 29.1605 40.3549C29.4369 40.5392 29.7593 40.6774 30.0818 40.6774C30.22 40.6774 30.3582 40.6774 30.5425 40.6313C32.0166 40.2167 33.5829 39.71 35.3335 39.1111C36.0245 38.8808 36.4852 38.1437 36.393 37.4066C35.7481 32.0628 36.5773 26.765 37.4987 21.1448C38.5121 14.8336 39.5717 8.29201 38.2818 1.75044C38.1897 1.2437 37.9133 0.829091 37.4987 0.598754Z" fill="#808080"/>
<path d="M59.5649 16.1694C59.2424 15.7548 58.7817 15.5245 58.2289 15.5245C57.3076 15.5245 56.3862 15.5705 55.4188 15.5705C55.1885 15.5705 54.9581 15.5705 54.7278 15.5705C55.2806 13.3593 55.6952 10.8717 55.4649 8.33796C55.4188 7.87729 55.1885 7.46268 54.866 7.23234C54.4975 6.95594 54.0368 6.8638 53.6222 6.95594C51.9177 7.27841 50.1671 7.60088 48.4626 7.92335C47.7256 8.06156 47.1728 8.7065 47.1728 9.48964C47.1728 11.3323 46.9424 13.3132 46.3896 15.7548C46.0671 15.7548 45.7447 15.7548 45.4222 15.7548C44.7312 15.7548 43.9941 15.7548 43.3031 15.7548C42.566 15.7548 41.9211 16.2616 41.7368 16.9986C41.4604 18.2885 41.184 19.4863 40.9076 20.7762L40.7233 21.5132C40.6312 21.9739 40.7233 22.4807 41.0458 22.8953C41.3683 23.2638 41.8289 23.4941 42.3357 23.4941C43.0728 23.4941 43.8098 23.4481 44.5469 23.4481C43.8559 28.838 43.4874 34.366 47.4031 39.9863C47.7256 40.4009 48.1862 40.6773 48.693 40.6773C48.8312 40.6773 48.9694 40.6773 49.1076 40.6312C49.6604 40.493 50.1671 40.3548 50.7199 40.1705C51.5952 39.9402 52.4244 39.7099 53.2997 39.4795C53.8065 39.3413 54.175 38.9728 54.3593 38.5121C54.5435 38.0514 54.4514 37.4986 54.175 37.084C51.1346 32.6616 51.6413 28.193 52.4705 23.4481H56.5244C57.1694 23.4481 57.7683 23.0335 57.9986 22.4346C58.2289 21.8357 58.4132 21.2829 58.6435 20.7301C59.0121 19.7627 59.4267 18.7492 59.7952 17.6896C59.9795 17.1368 59.8874 16.584 59.5649 16.1694Z" fill="#808080"/>
</svg>
