<?xml version="1.0" encoding="utf-8"?>
<!-- Generator: Adobe Illustrator 21.1.0, SVG Export Plug-In . SVG Version: 6.00 Build 0)  -->
<svg version="1.1" id="Layer_1" xmlns="http://www.w3.org/2000/svg" xmlns:xlink="http://www.w3.org/1999/xlink" x="0px" y="0px"
	 viewBox="0 0 330 250" style="enable-background:new 0 0 330 250;" xml:space="preserve">
<style type="text/css">
	.st0{fill:none;}
	.st1{enable-background:new    ;}
	.st2{fill:#00C2E7;}
	.st3{fill:none;stroke:#FFFFFF;stroke-width:20.3238;stroke-miterlimit:10;}
</style>
<rect x="37.2" y="51.6" class="st0" width="375" height="245"/>
<g class="st1">
	<path d="M104.9,178.9c0,15-3.3,26.9-10,35.9S78.6,228.3,66,228.3c-5.9,0-11-1.2-15.3-3.7c-4.3-2.4-8-6-10.9-10.6l-2,12.3H14.4
		V100.7L0,97.9V81.6h41.4v55c2.9-4,6.4-7.1,10.4-9.3c4.1-2.2,8.7-3.2,14-3.2c12.7,0,22.5,4.8,29.1,14.4c6.7,9.6,10,22.4,10,38.5
		V178.9L104.9,178.9z M77.9,177c0-9.8-1.4-17.5-4.3-23.2s-7.8-8.6-14.7-8.6c-4.2,0-7.8,0.9-10.7,2.6c-2.9,1.8-5.2,4.3-6.9,7.6v42.4
		c1.7,3.1,4,5.4,6.9,7.1c2.9,1.6,6.5,2.4,10.8,2.4c7,0,11.9-2.5,14.7-7.4s4.2-11.9,4.2-20.9C77.9,179,77.9,177,77.9,177z"/>
	<path d="M105.9,97.9V81.6h41.6v125.7l13.1,2.8v16.2h-53.3v-16.2l13.1-2.8V100.7L105.9,97.9z"/>
	<path d="M202.5,101.4V126h17.6v19h-17.6v51.1c0,3.9,0.8,6.7,2.4,8.3c1.6,1.7,3.8,2.5,6.5,2.5c1.9,0,3.5-0.1,4.9-0.2
		c1.4-0.2,3-0.4,4.7-0.8l2.3,19.6c-3,0.9-6,1.6-9,2.1s-6.2,0.7-9.6,0.7c-9.3,0-16.5-2.6-21.6-7.7c-5-5.1-7.6-13.3-7.6-24.4V145
		h-14.8v-19h14.8v-24.6H202.5L202.5,101.4z"/>
</g>
<path class="st2" d="M-148.7-75.8h-324c-66.3,0-120-53.7-120-120v-105.3c0-66.3,53.7-120,120-120h324c66.3,0,120,53.7,120,120v105.3
	C-28.7-129.5-82.4-75.8-148.7-75.8z"/>
<path class="st3" d="M-394.9-337.8c0,0,19.5,36.8,13.1,157"/>
<path class="st3" d="M-380.8-247.3c-25.3-14.6-124.3,50.3,0.3,42.4"/>
<path class="st3" d="M-342.1-255.7c0,0,74.5-62.5,52.6,78.6"/>
<path class="st3" d="M-284.8-237.6c0,0-125,39.8-9.4,33.9"/>
<path class="st3" d="M-245.7-260.1c0,0-16.7,107.7,18.5,29.1c28.6-63.8,27.4-16.2,25.9,3.9c-0.6,8.1,0,16.2,2,24
	c3.3,13.1,10,25.1,22.6-4.5"/>
</svg>
