<?xml version="1.0" encoding="utf-8"?>
<!-- Generator: Adobe Illustrator 23.0.6, SVG Export Plug-In . SVG Version: 6.00 Build 0)  -->
<svg version="1.1" id="Layer_1" xmlns="http://www.w3.org/2000/svg" xmlns:xlink="http://www.w3.org/1999/xlink" x="0px" y="0px"
	 viewBox="0 0 216 160.2" style="enable-background:new 0 0 216 160.2;" xml:space="preserve">
<style type="text/css">
	.st0{fill:none;stroke:#000000;stroke-miterlimit:10;}
	.st1{fill:none;}
	.st2{fill:#1C1C1C;}
	.st3{stroke:#000000;stroke-width:7;stroke-linecap:round;stroke-linejoin:round;stroke-miterlimit:10;}
	.st4{fill:#FFFFFF;}
</style>
<path class="st0" d="M-439.8-395.5c0,0,19.5,36.8,13.1,157L-439.8-395.5z"/>
<path class="st0" d="M-425.7-305c-25.3-14.6-124.3,50.3,0.3,42.4L-425.7-305z"/>
<path d="M-485.6,78.8c-6.4-120.2,13.1-157,13.1-157L-485.6,78.8z"/>
<path d="M-486.9,54.7c124.6,7.9,25.6-57,0.3-42.4L-486.9,54.7z"/>
<path class="st0" d="M-387-313.4c0,0,74.5-62.5,52.6,78.6L-387-313.4z"/>
<path class="st0" d="M-329.7-295.3c0,0-125,39.8-9.4,33.9L-329.7-295.3z"/>
<path class="st0" d="M-290.6-317.8c0,0-16.7,107.7,18.5,29.1c28.6-63.8,27.4-16.2,25.9,3.9c-0.6,8.1,0,16.2,2,24
	c3.3,13.1,10,25.1,22.6-4.5L-290.6-317.8z"/>
<rect x="6.1" y="-262.3" class="st1" width="536.9" height="232.2"/>
<text transform="matrix(1 0 0 1 6.1338 -146.8474)" style="font-family:'Futura-Medium'; font-size:140px;">blt</text>
<g>
	<path d="M23.6,267.3v44.1c4.8-5,10.2-7.5,16.3-7.5c7,0,12.8,2.6,17.4,7.8c4.7,5.2,7,11.6,7,19.4c0,8-2.3,14.6-7,19.8
		c-4.7,5.2-10.5,7.8-17.6,7.8c-6,0-11.4-2.3-16-6.9v5.5H11.6v-90L23.6,267.3L23.6,267.3z M52,331.6c0-5-1.3-9-4-12.1
		c-2.7-3.2-6.2-4.8-10.3-4.8c-4.4,0-8,1.6-10.7,4.6s-4.1,7-4.1,11.9c0,5.1,1.3,9,4,12.1s6.2,4.6,10.7,4.6c4.1,0,7.6-1.6,10.4-4.6
		C50.7,340.2,52,336.3,52,331.6z"/>
	<path d="M88.9,267.3v89.9h-12v-89.9H88.9z"/>
	<path d="M121.9,316.5v40.6h-12v-40.6h-5.1v-11.2h5.1v-19h12v19h9.3v11.2H121.9z"/>
</g>
<g>
	<path class="st2" d="M34.4,73.1c-4.1,0.1-8.1,2.3-8.7,6c0.5-3-0.3-20.4-0.6-28.7c-0.1-2-1.9-3.4-3.8-2.9l-8.8,2.3
		C11,50.1,10,51.4,10.1,53c0.6,7.9,2,32.3,0.2,50.8c-0.4,5.2-2.4,17-3.4,23.5c-0.3,2.1,1.5,3.9,3.5,3.5l8.8-1c1-0.2,1.9-0.8,2.3-1.7
		l0.8-1.6c0,0,4.5,3.8,8.8,3.9c7.8,0.2,14-2.3,19.5-7.5c5.4-5,6.1-11.5,6.4-19.3c0.3-7.6-1.9-19.2-7-24.1
		C44.9,74.2,41.9,72.9,34.4,73.1z"/>
	<path class="st2" d="M87.4,44.3c-0.9-0.5-1.9-0.6-2.8-0.3c-3,1.1-6,2-8.9,2.9c-1.5,0.4-2.5,1.8-2.4,3.4c0.2,12.5-1.2,25.3-2.7,37.7
		c-1.5,13-3.1,26.5-2.7,39.9c0,1.1,0.6,2.1,1.4,2.7c0.6,0.4,1.3,0.7,2,0.7c0.3,0,0.6,0,1-0.1c3.2-0.9,6.6-2,10.4-3.3
		c1.5-0.5,2.5-2.1,2.3-3.7c-1.4-11.6,0.4-23.1,2.4-35.3c2.2-13.7,4.5-27.9,1.7-42.1C88.9,45.7,88.3,44.8,87.4,44.3z"/>
	<path class="st2" d="M135.3,78.1c-0.7-0.9-1.7-1.4-2.9-1.4c-2,0-4,0.1-6.1,0.1c-0.5,0-1,0-1.5,0c1.2-4.8,2.1-10.2,1.6-15.7
		c-0.1-1-0.6-1.9-1.3-2.4c-0.8-0.6-1.8-0.8-2.7-0.6c-3.7,0.7-7.5,1.4-11.2,2.1c-1.6,0.3-2.8,1.7-2.8,3.4c0,4-0.5,8.3-1.7,13.6
		c-0.7,0-1.4,0-2.1,0c-1.5,0-3.1,0-4.6,0c-1.6,0-3,1.1-3.4,2.7c-0.6,2.8-1.2,5.4-1.8,8.2l-0.4,1.6c-0.2,1,0,2.1,0.7,3
		c0.7,0.8,1.7,1.3,2.8,1.3c1.6,0,3.2-0.1,4.8-0.1c-1.5,11.7-2.3,23.7,6.2,35.9c0.7,0.9,1.7,1.5,2.8,1.5c0.3,0,0.6,0,0.9-0.1
		c1.2-0.3,2.3-0.6,3.5-1c1.9-0.5,3.7-1,5.6-1.5c1.1-0.3,1.9-1.1,2.3-2.1s0.2-2.2-0.4-3.1c-6.6-9.6-5.5-19.3-3.7-29.6h8.8
		c1.4,0,2.7-0.9,3.2-2.2c0.5-1.3,0.9-2.5,1.4-3.7c0.8-2.1,1.7-4.3,2.5-6.6C136.2,80.2,136,79,135.3,78.1z"/>
</g>
<g>
	<path class="st3" d="M-216.3-5c-1.8,14.3-7.5,31.4-12.3,48.1c7.9-5.7,17-8.4,25.3-8.2c9.6,0.1,16,3.2,18.3,8.8
		c2.6,5.6,0.1,12.4-2.8,20.4c-3,8.2-3.7,14.9-4.6,20.4c-0.8,5.5-2.9,8.5-10.4,8.9c-6.1,0.3-14.4-1.6-21.6-6.1
		c1.2,1.9,2.7,3.7,4.2,5.6c-3.9,0.2-7.7,0.4-11.4,0.6c-18.3-29.5-17.6-69.2,4.7-99.3C-223.5-5.5-219.9-5.3-216.3-5z M-202.3,64.9
		c1.3-5.2,2.2-9.5,0.6-12.8c-1.5-3.4-5-5.2-10.1-5.2c-5.5,0-10.9,1.8-14.8,5.2c-4,3.4-6,7.9-5.7,13.3c0.3,5.6,2.6,9.8,6.1,12.9
		c3.6,3.1,7.7,4.5,11.9,4.2c3.9-0.2,6.2-2,8-5.3C-204.6,73.9-203.5,69.9-202.3,64.9z"/>
	<path class="st3" d="M-150.5,0.2c44.2,27.4-30.1,60.7-0.9,88.4c-4.6,0.3-9.1,0.6-13.6,0.8c-18.3-14.6-5.5-29.4,4.6-45.1
		c10.4-15.5,18-31.8-3.1-45.2C-159.2-0.5-154.9-0.1-150.5,0.2z"/>
	<path class="st3" d="M-104.6,48.7c-3.2,12.8-7.6,25.4-7.5,37.4c-4.9,0.3-9.8,0.6-14.6,0.9c-5.8-12.4,0.1-25.1,6.2-38.3
		c-2.2,0-4.5,0-6.7,0c1.9-3.7,3.8-7.3,5.2-11c2,0,3.9,0.1,5.9,0.1c2-6.2,2.9-12.3,1.4-18.3c3.9,0.3,7.7,0.5,11.3,0.8
		c1.6,5.8,1.7,11.8,0.9,17.8c3.4,0.1,6.8,0.1,10.2,0.2c0.3,3.4,0.4,6.9,0.3,10.3C-92.2,48.6-104.7,48.7-104.6,48.7z"/>
</g>
<ellipse class="st4" cx="32.8" cy="101.9" rx="8" ry="11.3"/>
</svg>
