<?xml version="1.0" encoding="utf-8"?>
<!-- Generator: Adobe Illustrator 23.0.6, SVG Export Plug-In . SVG Version: 6.00 Build 0)  -->
<svg version="1.1" id="Layer_1" xmlns="http://www.w3.org/2000/svg" xmlns:xlink="http://www.w3.org/1999/xlink" x="0px" y="0px"
	 viewBox="0 0 201.7 139.9" style="enable-background:new 0 0 201.7 139.9;" xml:space="preserve">
<g>
	<path d="M-394.9-405.7c0,0,19.5,36.8,13.1,157"/>
	<path d="M-380.8-315.2c-25.3-14.6-124.3,50.3,0.3,42.4"/>
</g>
<g>
	<path d="M-440.7,68.6c-6.4-120.2,13.1-157,13.1-157"/>
	<path d="M-442,44.5c124.6,7.9,25.6-57,0.3-42.4"/>
</g>
<path d="M-342.1-323.6c0,0,74.5-62.5,52.6,78.6"/>
<path d="M-284.8-305.5c0,0-125,39.8-9.4,33.9"/>
<path d="M-245.7-328c0,0-16.7,107.7,18.5,29.1c28.6-63.8,27.4-16.2,25.9,3.9c-0.6,8.1,0,16.2,2,24c3.3,13.1,10,25.1,22.6-4.5"/>
<g>
	<g>
		<path d="M66.7,73.5c-2.2-3.2-4.7-5.8-7.8-7.8c3.1-4.7,4.5-10.1,4.5-16c0-4.7-1-9.4-3-13.9c-2-4.5-4.7-8.4-8.1-11.5
			c-2.6-2.3-5.6-4.1-9-5.4c-1.1-0.4-2.3-0.8-3.5-1.1c-4.4-1.1-10.1-1.7-17.3-1.7H1.7v110.5h28.5c7.3,0,13.3-0.7,18.4-2.1l0.2-0.1
			c5-1.6,9.5-4.4,13.5-8.3c6.6-6.5,10-14.5,10-23.8C72.3,85.3,70.4,79,66.7,73.5z M37.2,49.9c0,3-0.7,5.1-2,6.4
			c-1.2,1.1-3.5,1.8-6.5,2V41.9c3,0.1,5.1,0.8,6.5,2C35.7,44.4,37.2,45.7,37.2,49.9z M42.7,98c-1.4,1.1-4.4,2.5-10.8,2.5h-3.1V82.9
			h1.4c8.7,0,11.6,1.9,12.6,2.7c1.9,1.7,2.8,3.7,2.8,6.2C45.5,94.4,44.6,96.3,42.7,98z"/>
	</g>
	<g>
		<polygon points="139.6,100.5 139.6,126.6 83.7,126.6 83.7,16.1 110.7,16.1 110.7,100.5 		"/>
	</g>
	<g>
		<polygon points="201.7,16.1 201.7,42.2 179.2,42.2 179.2,126.6 152.2,126.6 152.2,42.2 129.6,42.2 129.6,16.1 		"/>
	</g>
</g>
</svg>
