<?xml version="1.0" encoding="utf-8"?>
<!-- Generator: Adobe Illustrator 23.0.6, SVG Export Plug-In . SVG Version: 6.00 Build 0)  -->
<svg version="1.1" id="Layer_1" xmlns="http://www.w3.org/2000/svg" xmlns:xlink="http://www.w3.org/1999/xlink" x="0px" y="0px"
	 viewBox="0 0 216 160.2" style="enable-background:new 0 0 216 160.2;" xml:space="preserve">
<style type="text/css">
	.st0{fill:none;stroke:#000000;stroke-miterlimit:10;}
	.st1{fill:none;}
	.st2{stroke:#000000;stroke-width:8;stroke-linejoin:round;stroke-miterlimit:10;}
	.st3{stroke:#000000;stroke-width:7;stroke-linecap:round;stroke-linejoin:round;stroke-miterlimit:10;}
	.st4{fill:#FFFFFF;}
</style>
<path class="st0" d="M-439.8-395.5c0,0,19.5,36.8,13.1,157L-439.8-395.5z"/>
<path class="st0" d="M-425.7-305c-25.3-14.6-124.3,50.3,0.3,42.4L-425.7-305z"/>
<path d="M-485.6,78.8c-6.4-120.2,13.1-157,13.1-157L-485.6,78.8z"/>
<path d="M-486.9,54.7c124.6,7.9,25.6-57,0.3-42.4L-486.9,54.7z"/>
<path class="st0" d="M-387-313.4c0,0,74.5-62.5,52.6,78.6L-387-313.4z"/>
<path class="st0" d="M-329.7-295.3c0,0-125,39.8-9.4,33.9L-329.7-295.3z"/>
<path class="st0" d="M-290.6-317.8c0,0-16.7,107.7,18.5,29.1c28.6-63.8,27.4-16.2,25.9,3.9c-0.6,8.1,0,16.2,2,24
	c3.3,13.1,10,25.1,22.6-4.5L-290.6-317.8z"/>
<rect x="6.1" y="-262.3" class="st1" width="536.9" height="232.2"/>
<text transform="matrix(1 0 0 1 6.1338 -146.8474)" style="font-family:'Futura-Medium'; font-size:140px;">blt</text>
<g>
	<path d="M23.6,267.3v44.1c4.8-5,10.2-7.5,16.3-7.5c7,0,12.8,2.6,17.4,7.8c4.7,5.2,7,11.6,7,19.4c0,8-2.3,14.6-7,19.8
		c-4.7,5.2-10.5,7.8-17.6,7.8c-6,0-11.4-2.3-16-6.9v5.5H11.6v-90H23.6z M52,331.6c0-5-1.3-9-4-12.1c-2.7-3.2-6.2-4.8-10.3-4.8
		c-4.4,0-8,1.6-10.7,4.6s-4.1,7-4.1,11.9c0,5.1,1.3,9,4,12.1c2.7,3.1,6.2,4.6,10.7,4.6c4.1,0,7.6-1.6,10.4-4.6
		C50.7,340.2,52,336.3,52,331.6z"/>
	<path d="M88.9,267.3v89.9h-12v-89.9H88.9z"/>
	<path d="M121.9,316.5v40.6h-12v-40.6h-5.1v-11.2h5.1v-19h12v19h9.3v11.2C131.2,316.5,121.9,316.5,121.9,316.5z"/>
</g>
<g>
	<g>
		<path d="M64.4,106c-0.3,9.1-1.1,16.7-7.4,22.5c-6.4,6-13.6,8.9-22.7,8.7c-5-0.1-10.2-4.5-10.2-4.5l-0.9,1.9
			c-0.5,1.1-1.5,1.8-2.7,2l-10.2,1.2c-2.4,0.4-4.5-1.7-4.1-4.1c1.2-7.5,3.5-21.3,4-27.3c2.1-21.5,0.5-49.9-0.2-59.1
			c-0.1-1.8,1-3.3,2.8-3.7l10.3-2.7c2.2-0.5,4.3,1.1,4.4,3.4c0.4,9.7,1.3,29.9,0.7,33.4c0.7-4.3,5.3-6.9,10.1-7
			c8.8-0.2,12.3,1.3,18,7.3C62.2,83.7,64.7,97.2,64.4,106z"/>
	</g>
	<path class="st2" d="M98.1,40.7c5.9,29.9-8.5,60-4.8,89.8c-3.8,1.3-7.8,2.6-11.9,3.8c-0.9-30,6.8-60.1,6.2-90.2
		C91.2,43,94.7,41.9,98.1,40.7z"/>
	<path class="st2" d="M134.5,90.8c-2.4,13.5-4.9,27.2,4.4,40.7c-3.5,1-6.9,1.9-10.5,2.9c-10-14.5-7.8-29-5.9-43.5
		c-3.4,0-6.9,0-10.3,0.1c0.9-3.9,1.8-7.7,2.6-11.6c3.6,0,7.2-0.1,10.9-0.1c1.6-6.6,2.8-13.2,2.8-19.8c4.4-0.8,8.8-1.6,13.1-2.4
		c0.6,7.3-1,14.6-3.2,22c4.7-0.1,9.5-0.1,14.2-0.2c-1.4,4-3,7.9-4.5,11.9C143.8,90.8,134.5,90.8,134.5,90.8z"/>
</g>
<g>
	<path class="st3" d="M-216.3-5c-1.8,14.3-7.5,31.4-12.3,48.1c7.9-5.7,17-8.4,25.3-8.2c9.6,0.1,16,3.2,18.3,8.8
		c2.6,5.6,0.1,12.4-2.8,20.4c-3,8.2-3.7,14.9-4.6,20.4c-0.8,5.5-2.9,8.5-10.4,8.9c-6.1,0.3-14.4-1.6-21.6-6.1
		c1.2,1.9,2.7,3.7,4.2,5.6c-3.9,0.2-7.7,0.4-11.4,0.6c-18.3-29.5-17.6-69.2,4.7-99.3C-223.5-5.5-219.9-5.3-216.3-5z M-202.3,64.9
		c1.3-5.2,2.2-9.5,0.6-12.8c-1.5-3.4-5-5.2-10.1-5.2c-5.5,0-10.9,1.8-14.8,5.2c-4,3.4-6,7.9-5.7,13.3c0.3,5.6,2.6,9.8,6.1,12.9
		c3.6,3.1,7.7,4.5,11.9,4.2c3.9-0.2,6.2-2,8-5.3C-204.6,73.9-203.5,69.9-202.3,64.9z"/>
	<path class="st3" d="M-150.5,0.2c44.2,27.4-30.1,60.7-0.9,88.4c-4.6,0.3-9.1,0.6-13.6,0.8c-18.3-14.6-5.5-29.4,4.6-45.1
		c10.4-15.5,18-31.8-3.1-45.2C-159.2-0.5-154.9-0.1-150.5,0.2z"/>
	<path class="st3" d="M-104.6,48.7c-3.2,12.8-7.6,25.4-7.5,37.4c-4.9,0.3-9.8,0.6-14.6,0.9c-5.8-12.4,0.1-25.1,6.2-38.3
		c-2.2,0-4.5,0-6.7,0c1.9-3.7,3.8-7.3,5.2-11c2,0,3.9,0.1,5.9,0.1c2-6.2,2.9-12.3,1.4-18.3c3.9,0.3,7.7,0.5,11.3,0.8
		c1.6,5.8,1.7,11.8,0.9,17.8c3.4,0.1,6.8,0.1,10.2,0.2c0.3,3.4,0.4,6.9,0.3,10.3C-92.2,48.6-104.7,48.7-104.6,48.7z"/>
</g>
<ellipse class="st4" cx="36.5" cy="104.3" rx="9.3" ry="13.1"/>
</svg>
