<?xml version="1.0" encoding="utf-8"?>
<!-- Generator: Adobe Illustrator 23.0.6, SVG Export Plug-In . SVG Version: 6.00 Build 0)  -->
<svg version="1.1" id="Layer_1" xmlns="http://www.w3.org/2000/svg" xmlns:xlink="http://www.w3.org/1999/xlink" x="0px" y="0px"
	 viewBox="0 0 216 160.2" style="enable-background:new 0 0 216 160.2;" xml:space="preserve">
<style type="text/css">
	.st0{fill:none;stroke:#000000;stroke-miterlimit:10;}
	.st1{fill:none;}
</style>
<path class="st0" d="M-439.8-395.5c0,0,19.5,36.8,13.1,157L-439.8-395.5z"/>
<path class="st0" d="M-425.7-305c-25.3-14.6-124.3,50.3,0.3,42.4L-425.7-305z"/>
<path d="M-485.6,78.8c-6.4-120.2,13.1-157,13.1-157L-485.6,78.8z"/>
<path d="M-486.9,54.7c124.6,7.9,25.6-57,0.3-42.4L-486.9,54.7z"/>
<path class="st0" d="M-387-313.4c0,0,74.5-62.5,52.6,78.6L-387-313.4z"/>
<path class="st0" d="M-329.7-295.3c0,0-125,39.8-9.4,33.9L-329.7-295.3z"/>
<path class="st0" d="M-290.6-317.8c0,0-16.7,107.7,18.5,29.1c28.6-63.8,27.4-16.2,25.9,3.9c-0.6,8.1,0,16.2,2,24
	c3.3,13.1,10,25.1,22.6-4.5L-290.6-317.8z"/>
<rect x="6.1" y="-262.3" class="st1" width="536.9" height="232.2"/>
<text transform="matrix(1 0 0 1 6.1338 -146.8474)" style="font-family:'Futura-Medium'; font-size:140px;">blt</text>
<g>
	<path d="M15.4,24.5v56.6c6.2-6.4,13.1-9.6,20.9-9.6c9,0,16.5,3.3,22.4,10c6,6.7,9,14.9,9,24.9c0,10.3-3,18.7-9,25.4
		s-13.5,10-22.6,10c-7.7,0-14.6-3-20.6-8.9v7H0V24.5H15.4z M51.9,107.1c0-6.4-1.7-11.6-5.2-15.6c-3.5-4.1-7.9-6.2-13.2-6.2
		c-5.7,0-10.3,2-13.8,5.9s-5.3,9-5.3,15.3c0,6.5,1.7,11.6,5.2,15.5c3.5,4,8,5.9,13.7,5.9c5.3,0,9.8-2,13.3-5.9
		C50.2,118.1,51.9,113.1,51.9,107.1z"/>
	<path d="M99.3,24.5V140H83.9V24.5H99.3z"/>
	<path d="M141.6,87.7v52.2h-15.4V87.7h-6.6V73.3h6.6V48.9h15.4v24.4h12v14.4C153.6,87.7,141.6,87.7,141.6,87.7z"/>
</g>
</svg>
