<?xml version="1.0" encoding="UTF-8"?>
<svg width="60px" height="41px" viewBox="0 0 60 41" version="1.1" xmlns="http://www.w3.org/2000/svg" xmlns:xlink="http://www.w3.org/1999/xlink">
    <!-- Generator: Sketch 53.2 (72643) - https://sketchapp.com -->
    <title>dan</title>
    <desc>Created with Sketch.</desc>
    <g id="Page-1" stroke="none" stroke-width="1" fill="none" fill-rule="evenodd">
        <g id="dan" fill="#FFFFFF" fill-rule="nonzero">
            <path d="M13.0831461,13.8662921 C16.5382022,13.7741573 17.9202247,14.3730337 20.2696629,16.8146067 C22.6191011,19.0719101 23.6325843,24.4157303 23.494382,27.9168539 C23.3561798,31.5101124 23.0337079,34.5044944 20.5460674,36.8078652 C18.0123596,39.2033708 15.1561798,40.3550562 11.5629213,40.2629213 C9.58202247,40.2168539 7.50898876,38.4662921 7.50898876,38.4662921 L7.14044944,39.2033708 C6.95617978,39.6179775 6.54157303,39.894382 6.08089888,39.9865169 L2.02696629,40.447191 C1.10561798,40.6314607 0.276404494,39.8022472 0.414606742,38.8348315 C0.875280899,35.8404494 1.79662921,30.4044944 1.98089888,28.0089888 C2.81011236,19.4865169 2.16516854,8.24606742 1.88876404,4.60674157 C1.84269663,3.86966292 2.30337079,3.27078652 2.99438202,3.13258427 L7.04831461,2.07303371 C7.92359551,1.84269663 8.75280899,2.48764045 8.7988764,3.40898876 C8.93707865,7.23258427 9.30561798,15.2483146 9.0752809,16.6303371 C9.35168539,14.9258427 11.194382,13.9123596 13.0831461,13.8662921 Z M12.3460674,32.3393258 C14.3814539,32.3393258 16.0314607,30.0086913 16.0314607,27.1337079 C16.0314607,24.2587244 14.3814539,21.9280899 12.3460674,21.9280899 C10.3106809,21.9280899 8.66067416,24.2587244 8.66067416,27.1337079 C8.66067416,30.0086913 10.3106809,32.3393258 12.3460674,32.3393258 Z" id="Combined-Shape"></path>
            <path d="M37.4988764,0.598876404 C37.0842697,0.368539326 36.6235955,0.32247191 36.2089888,0.460674157 C34.8269663,0.96741573 33.4449438,1.38202247 32.1089888,1.79662921 C31.4179775,1.98089888 30.9573034,2.6258427 31.0033708,3.36292135 C31.0955056,9.12134831 30.4505618,15.0179775 29.7595506,20.7303371 C29.0685393,26.7191011 28.3314607,32.9382022 28.5157303,39.111236 C28.5157303,39.6179775 28.7921348,40.0786517 29.1606742,40.3550562 C29.4370787,40.5393258 29.7595506,40.6775281 30.0820225,40.6775281 C30.2202247,40.6775281 30.358427,40.6775281 30.5426966,40.6314607 C32.0168539,40.2168539 33.5831461,39.7101124 35.3337079,39.111236 C36.0247191,38.8808989 36.4853933,38.1438202 36.3932584,37.4067416 C35.7483146,32.0629213 36.5775281,26.7651685 37.4988764,21.1449438 C38.5123596,14.8337079 39.5719101,8.29213483 38.2820225,1.7505618 C38.1898876,1.24382022 37.9134831,0.829213483 37.4988764,0.598876404 Z" id="Path"></path>
            <path d="M59.5651685,16.1696629 C59.2426966,15.7550562 58.7820225,15.5247191 58.2292135,15.5247191 C57.3078652,15.5247191 56.3865169,15.5707865 55.4191011,15.5707865 C55.188764,15.5707865 54.958427,15.5707865 54.7280899,15.5707865 C55.2808989,13.3595506 55.6955056,10.8719101 55.4651685,8.33820225 C55.4191011,7.87752809 55.188764,7.46292135 54.8662921,7.23258427 C54.4977528,6.95617978 54.0370787,6.86404494 53.6224719,6.95617978 C51.9179775,7.27865169 50.1674157,7.6011236 48.4629213,7.92359551 C47.7258427,8.06179775 47.1730337,8.70674157 47.1730337,9.48988764 C47.1730337,11.3325843 46.9426966,13.3134831 46.3898876,15.7550562 C46.0674157,15.7550562 45.7449438,15.7550562 45.4224719,15.7550562 C44.7314607,15.7550562 43.994382,15.7550562 43.3033708,15.7550562 C42.5662921,15.7550562 41.9213483,16.2617978 41.7370787,16.9988764 C41.4606742,18.288764 41.1842697,19.4865169 40.9078652,20.7764045 L40.7235955,21.5134831 C40.6314607,21.9741573 40.7235955,22.4808989 41.0460674,22.8955056 C41.3685393,23.2640449 41.8292135,23.494382 42.3359551,23.494382 C43.0730337,23.494382 43.8101124,23.4483146 44.547191,23.4483146 C43.8561798,28.8382022 43.4876404,34.3662921 47.4033708,39.9865169 C47.7258427,40.4011236 48.1865169,40.6775281 48.6932584,40.6775281 C48.8314607,40.6775281 48.9696629,40.6775281 49.1078652,40.6314607 C49.6606742,40.4932584 50.1674157,40.3550562 50.7202247,40.1707865 C51.5955056,39.9404494 52.4247191,39.7101124 53.3,39.4797753 C53.8067416,39.341573 54.1752809,38.9730337 54.3595506,38.5123596 C54.5438202,38.0516854 54.4516854,37.4988764 54.1752809,37.0842697 C51.1348315,32.6617978 51.641573,28.1932584 52.4707865,23.4483146 L56.5247191,23.4483146 C57.1696629,23.4483146 57.7685393,23.0337079 57.9988764,22.4348315 C58.2292135,21.8359551 58.4134831,21.2831461 58.6438202,20.7303371 C59.0123596,19.7629213 59.4269663,18.7494382 59.7955056,17.6898876 C59.9797753,17.1370787 59.8876404,16.5842697 59.5651685,16.1696629 Z" id="Path"></path>
        </g>
    </g>
</svg>