<?xml version="1.0" encoding="utf-8"?>
<!-- Generator: Adobe Illustrator 21.1.0, SVG Export Plug-In . SVG Version: 6.00 Build 0)  -->
<svg version="1.1" id="Layer_1" xmlns="http://www.w3.org/2000/svg" xmlns:xlink="http://www.w3.org/1999/xlink" x="0px" y="0px"
	 viewBox="0 0 792 1010" style="enable-background:new 0 0 792 1010;" xml:space="preserve">
<style type="text/css">
	.st0{fill:#939598;}
	.st1{fill:#E6E7E8;}
	.st2{font-family:'Roboto-Regular';}
	.st3{font-size:7px;}
	.st4{fill:none;stroke:#57CBF5;stroke-width:0.5;}
	.st5{fill:#57CBF5;}
	.st6{fill:#EC008C;}
	.st7{fill:#6D6E71;}
	.st8{font-family:'Roboto-Bold';}
	.st9{font-size:12px;}
</style>
<text transform="matrix(1 0 0 1 752.0049 1150.3564)" class="st0 st3" style="font-family:'OpenSans-Bold';">3</text>
<path class="st1" d="M184.8,162.1c0,0-4.5,0-4.5,4.5v6.1c0,0,0,4.5,4.5,4.5h59.5c0,0,4.5,0,4.5-4.5v-6.1c0,0,0-4.5-4.5-4.5H184.8z"
	/>
<text transform="matrix(1 0 0 1 195.583 172.1729)"><tspan x="0" y="0" class="st2 st3">$ Calcula</tspan><tspan x="28.8" y="0" class="st2 st3">t</tspan><tspan x="31" y="0" class="st2 st3">or</tspan></text>
<path class="st1" d="M277.2,162.1c0,0-4.5,0-4.5,4.5v6.1c0,0,0,4.5,4.5,4.5h59.5c0,0,4.5,0,4.5-4.5v-6.1c0,0,0-4.5-4.5-4.5H277.2z"
	/>
<text transform="matrix(1 0 0 1 290.4839 172.1729)" class="st2 st3">Selections</text>
<path class="st1" d="M277.2,298c0,0-4.5,0-4.5,4.5v6.1c0,0,0,4.5,4.5,4.5h59.5c0,0,4.5,0,4.5-4.5v-6.1c0,0,0-4.5-4.5-4.5H277.2z"/>
<text transform="matrix(1 0 0 1 279.8799 308.0356)" class="st2 st3">Individual Dentist</text>
<path class="st1" d="M184.8,970.9c0,0-4.5,0-4.5,4.5v6.1c0,0,0,4.5,4.5,4.5h59.5c0,0,4.5,0,4.5-4.5v-6.1c0,0,0-4.5-4.5-4.5H184.8z"
	/>
<text transform="matrix(1 0 0 1 204.9341 980.9385)" class="st2 st3">About</text>
<path class="st1" d="M185.3,930.4c0,0-4.5,0-4.5,4.5v6.1c0,0,0,4.5,4.5,4.5h59.5c0,0,4.5,0,4.5-4.5v-6.1c0,0,0-4.5-4.5-4.5H185.3z"
	/>
<text transform="matrix(1 0 0 1 195.2832 940.415)"><tspan x="0" y="0" class="st2 st3">Sea</tspan><tspan x="11.7" y="0" class="st2 st3">r</tspan><tspan x="14" y="0" class="st2 st3">ch Input</tspan></text>
<path class="st1" d="M185.3,851.1c0,0-4.5,0-4.5,4.5v6.1c0,0,0,4.5,4.5,4.5h59.5c0,0,4.5,0,4.5-4.5v-6.1c0,0,0-4.5-4.5-4.5H185.3z"
	/>
<path d="M186.7,861.1v-5h1.6c0.5,0,0.9,0.1,1.2,0.3c0.3,0.2,0.4,0.6,0.4,1c0,0.2-0.1,0.4-0.2,0.6c-0.1,0.2-0.3,0.3-0.5,0.4
	c0.3,0.1,0.5,0.2,0.6,0.4c0.2,0.2,0.2,0.5,0.2,0.8c0,0.4-0.1,0.8-0.4,1.1c-0.3,0.3-0.7,0.4-1.2,0.4H186.7z M187.4,858.2h1
	c0.3,0,0.5-0.1,0.7-0.2c0.2-0.1,0.3-0.3,0.3-0.6c0-0.3-0.1-0.5-0.2-0.6c-0.2-0.1-0.4-0.2-0.7-0.2h-1V858.2z M187.4,858.8v1.8h1.1
	c0.3,0,0.5-0.1,0.7-0.2c0.2-0.2,0.3-0.4,0.3-0.7c0-0.6-0.3-0.9-1-0.9H187.4z M193.9,860.4c-0.3,0.5-0.8,0.7-1.4,0.7
	c-0.5,0-0.9-0.2-1.2-0.5s-0.5-0.8-0.5-1.3v-0.1c0-0.4,0.1-0.7,0.2-1s0.3-0.5,0.6-0.7c0.3-0.2,0.5-0.2,0.8-0.2c0.5,0,0.9,0.2,1.1,0.5
	s0.4,0.8,0.4,1.4v0.3h-2.5c0,0.4,0.1,0.7,0.3,0.9c0.2,0.2,0.5,0.3,0.8,0.3c0.2,0,0.4,0,0.6-0.1c0.2-0.1,0.3-0.2,0.4-0.4L193.9,860.4
	L193.9,860.4z M192.4,857.8c-0.3,0-0.5,0.1-0.6,0.3c-0.2,0.2-0.3,0.4-0.3,0.8h1.9v0c0-0.3-0.1-0.6-0.3-0.7
	C192.9,857.9,192.7,857.8,192.4,857.8z M195.3,857.4l0,0.5c0.3-0.4,0.7-0.5,1.1-0.5c0.8,0,1.2,0.4,1.2,1.3v2.4H197v-2.4
	c0-0.3-0.1-0.5-0.2-0.6s-0.3-0.2-0.6-0.2c-0.2,0-0.4,0.1-0.5,0.2c-0.2,0.1-0.3,0.3-0.4,0.4v2.6h-0.6v-3.7H195.3z M201.5,860.4
	c-0.3,0.5-0.8,0.7-1.4,0.7c-0.5,0-0.9-0.2-1.2-0.5s-0.5-0.8-0.5-1.3v-0.1c0-0.4,0.1-0.7,0.2-1s0.3-0.5,0.6-0.7
	c0.3-0.2,0.5-0.2,0.8-0.2c0.5,0,0.9,0.2,1.1,0.5s0.4,0.8,0.4,1.4v0.3H199c0,0.4,0.1,0.7,0.3,0.9c0.2,0.2,0.5,0.3,0.8,0.3
	c0.2,0,0.4,0,0.6-0.1c0.2-0.1,0.3-0.2,0.4-0.4L201.5,860.4L201.5,860.4z M200,857.8c-0.3,0-0.5,0.1-0.6,0.3
	c-0.2,0.2-0.3,0.4-0.3,0.8h1.9v0c0-0.3-0.1-0.6-0.3-0.7C200.5,857.9,200.3,857.8,200,857.8z M202.5,861.1v-3.2h-0.6v-0.5h0.6v-0.3
	c0-0.4,0.1-0.7,0.4-1s0.6-0.3,1-0.3c0.3,0,0.6,0.1,1,0.2l-0.1,0.5c-0.3-0.1-0.6-0.2-0.8-0.2c-0.3,0-0.5,0.1-0.6,0.2
	s-0.2,0.3-0.2,0.5v0.3h0.8v0.5h-0.8v3.2H202.5z M205.1,861.1h-0.6v-3.7h0.6V861.1z M207,856.5v0.9h0.7v0.5H207v2.3
	c0,0.1,0,0.3,0.1,0.3c0.1,0.1,0.2,0.1,0.3,0.1c0.1,0,0.2,0,0.3,0v0.5c-0.2,0-0.3,0.1-0.5,0.1c-0.3,0-0.5-0.1-0.6-0.3
	s-0.2-0.4-0.2-0.7v-2.3h-0.7v-0.5h0.7v-0.9H207z M210.3,861.1v-5h1.4c0.4,0,0.8,0.1,1.1,0.3c0.3,0.2,0.6,0.5,0.8,0.8
	s0.3,0.8,0.3,1.2v0.3c0,0.5-0.1,0.9-0.3,1.2s-0.4,0.6-0.8,0.8c-0.3,0.2-0.7,0.3-1.2,0.3H210.3z M210.9,856.7v3.9h0.7
	c0.5,0,0.9-0.2,1.2-0.5c0.3-0.3,0.4-0.8,0.4-1.3v-0.3c0-0.6-0.1-1-0.4-1.3c-0.3-0.3-0.6-0.5-1.1-0.5H210.9z M217,861.1
	c0-0.1-0.1-0.2-0.1-0.4c-0.3,0.3-0.6,0.5-1.1,0.5c-0.4,0-0.7-0.1-0.9-0.3c-0.2-0.2-0.4-0.5-0.4-0.8c0-0.4,0.1-0.7,0.4-0.9
	c0.3-0.2,0.7-0.3,1.2-0.3h0.6v-0.3c0-0.2-0.1-0.4-0.2-0.5c-0.1-0.1-0.3-0.2-0.6-0.2c-0.2,0-0.4,0.1-0.6,0.2
	c-0.2,0.1-0.2,0.3-0.2,0.4h-0.6c0-0.2,0.1-0.4,0.2-0.5c0.1-0.2,0.3-0.3,0.5-0.4c0.2-0.1,0.5-0.2,0.7-0.2c0.4,0,0.8,0.1,1,0.3
	c0.2,0.2,0.4,0.5,0.4,0.9v1.7c0,0.3,0,0.6,0.1,0.8v0.1H217z M216,860.6c0.2,0,0.4-0.1,0.6-0.2s0.3-0.2,0.4-0.4v-0.8h-0.5
	c-0.8,0-1.2,0.2-1.2,0.7c0,0.2,0.1,0.4,0.2,0.5C215.6,860.6,215.8,860.6,216,860.6z M220.7,860.1c0-0.2-0.1-0.3-0.2-0.4
	c-0.1-0.1-0.4-0.2-0.7-0.2c-0.3-0.1-0.6-0.2-0.8-0.2s-0.3-0.2-0.4-0.3c-0.1-0.1-0.1-0.3-0.1-0.5c0-0.3,0.1-0.6,0.4-0.8
	s0.6-0.3,1-0.3c0.4,0,0.8,0.1,1,0.3c0.3,0.2,0.4,0.5,0.4,0.8h-0.6c0-0.2-0.1-0.3-0.2-0.4s-0.3-0.2-0.6-0.2c-0.2,0-0.4,0.1-0.5,0.2
	s-0.2,0.2-0.2,0.4c0,0.2,0.1,0.3,0.2,0.3c0.1,0.1,0.3,0.2,0.7,0.2c0.3,0.1,0.6,0.2,0.8,0.3c0.2,0.1,0.3,0.2,0.4,0.4
	c0.1,0.1,0.1,0.3,0.1,0.5c0,0.3-0.1,0.6-0.4,0.8c-0.3,0.2-0.6,0.3-1,0.3c-0.3,0-0.6-0.1-0.8-0.2c-0.2-0.1-0.4-0.3-0.5-0.4
	c-0.1-0.2-0.2-0.4-0.2-0.6h0.6c0,0.2,0.1,0.4,0.3,0.5c0.2,0.1,0.4,0.2,0.6,0.2c0.2,0,0.4,0,0.6-0.1
	C220.6,860.4,220.7,860.3,220.7,860.1z M222.8,857.8c0.3-0.3,0.6-0.5,1.1-0.5c0.8,0,1.2,0.4,1.2,1.3v2.4h-0.6v-2.4
	c0-0.3-0.1-0.5-0.2-0.6s-0.3-0.2-0.6-0.2c-0.2,0-0.4,0.1-0.5,0.2c-0.2,0.1-0.3,0.3-0.4,0.4v2.6h-0.6v-5.2h0.6V857.8z M229.2,859.3
	c0,0.6-0.1,1-0.4,1.4s-0.6,0.5-1,0.5c-0.5,0-0.8-0.2-1.1-0.5l0,0.4H226v-5.2h0.6v2c0.3-0.3,0.6-0.5,1.1-0.5c0.4,0,0.8,0.2,1.1,0.5
	S229.2,858.6,229.2,859.3L229.2,859.3z M228.5,859.2c0-0.4-0.1-0.8-0.2-1c-0.2-0.2-0.4-0.4-0.7-0.4c-0.4,0-0.7,0.2-0.9,0.6v1.6
	c0.2,0.4,0.5,0.6,0.9,0.6c0.3,0,0.5-0.1,0.7-0.4C228.4,860,228.5,859.7,228.5,859.2z M229.8,859.2c0-0.4,0.1-0.7,0.2-1
	c0.1-0.3,0.3-0.5,0.6-0.7c0.3-0.2,0.5-0.2,0.9-0.2c0.5,0,0.9,0.2,1.2,0.5s0.5,0.8,0.5,1.4v0c0,0.4-0.1,0.7-0.2,1
	c-0.1,0.3-0.3,0.5-0.6,0.7s-0.6,0.2-0.9,0.2c-0.5,0-0.9-0.2-1.2-0.5S229.8,859.8,229.8,859.2L229.8,859.2z M230.4,859.3
	c0,0.4,0.1,0.7,0.3,1c0.2,0.2,0.4,0.4,0.8,0.4c0.3,0,0.6-0.1,0.8-0.4c0.2-0.3,0.3-0.6,0.3-1.1c0-0.4-0.1-0.7-0.3-1
	c-0.2-0.3-0.4-0.4-0.8-0.4c-0.3,0-0.6,0.1-0.8,0.4S230.4,858.8,230.4,859.3z M236.2,861.1c0-0.1-0.1-0.2-0.1-0.4
	c-0.3,0.3-0.6,0.5-1.1,0.5c-0.4,0-0.7-0.1-0.9-0.3c-0.2-0.2-0.4-0.5-0.4-0.8c0-0.4,0.1-0.7,0.4-0.9c0.3-0.2,0.7-0.3,1.2-0.3h0.6
	v-0.3c0-0.2-0.1-0.4-0.2-0.5c-0.1-0.1-0.3-0.2-0.6-0.2c-0.2,0-0.4,0.1-0.6,0.2c-0.2,0.1-0.2,0.3-0.2,0.4h-0.6c0-0.2,0.1-0.4,0.2-0.5
	c0.1-0.2,0.3-0.3,0.5-0.4c0.2-0.1,0.5-0.2,0.7-0.2c0.4,0,0.8,0.1,1,0.3c0.2,0.2,0.4,0.5,0.4,0.9v1.7c0,0.3,0,0.6,0.1,0.8v0.1H236.2z
	 M235.2,860.6c0.2,0,0.4-0.1,0.6-0.2s0.3-0.2,0.4-0.4v-0.8h-0.5c-0.8,0-1.2,0.2-1.2,0.7c0,0.2,0.1,0.4,0.2,0.5
	C234.8,860.6,235,860.6,235.2,860.6z M239.5,858c-0.1,0-0.2,0-0.3,0c-0.4,0-0.7,0.2-0.8,0.5v2.6h-0.6v-3.7h0.6l0,0.4
	c0.2-0.3,0.5-0.5,0.9-0.5c0.1,0,0.2,0,0.3,0V858z M239.9,859.2c0-0.6,0.1-1,0.4-1.4c0.3-0.3,0.6-0.5,1.1-0.5c0.4,0,0.8,0.1,1,0.4
	v-1.9h0.6v5.2h-0.6l0-0.4c-0.3,0.3-0.6,0.5-1.1,0.5c-0.4,0-0.8-0.2-1-0.5S239.9,859.8,239.9,859.2L239.9,859.2z M240.5,859.3
	c0,0.4,0.1,0.7,0.3,1c0.2,0.2,0.4,0.4,0.7,0.4c0.4,0,0.7-0.2,0.9-0.5v-1.7c-0.2-0.3-0.5-0.5-0.9-0.5c-0.3,0-0.6,0.1-0.7,0.4
	C240.6,858.5,240.5,858.8,240.5,859.3z"/>
<path class="st1" d="M186,13.8c0,0-4.5,0-4.5,4.5v6.1c0,0,0,4.5,4.5,4.5h59.5c0,0,4.5,0,4.5-4.5v-6.1c0,0,0-4.5-4.5-4.5H186z"/>
<text transform="matrix(1 0 0 1 204.8892 23.8657)" class="st2 st3">Sign In</text>
<path class="st1" d="M185,44.2c0,0-4.5,0-4.5,4.5v6.1c0,0,0,4.5,4.5,4.5h59.5c0,0,4.5,0,4.5-4.5v-6.1c0,0,0-4.5-4.5-4.5H185z"/>
<text transform="matrix(1 0 0 1 187.9888 54.2227)"><tspan x="0" y="0" class="st2 st3">F</tspan><tspan x="3.8" y="0" class="st2 st3">o</tspan><tspan x="7.8" y="0" class="st2 st3">r</tspan><tspan x="10.1" y="0" class="st2 st3">got </tspan><tspan x="22" y="0" class="st2 st3">P</tspan><tspan x="26.4" y="0" class="st2 st3">asswo</tspan><tspan x="46.7" y="0" class="st2 st3">r</tspan><tspan x="49" y="0" class="st2 st3">d</tspan></text>
<path class="st1" d="M185,72.5c0,0-4.5,0-4.5,4.5v6.1c0,0,0,4.5,4.5,4.5h59.5c0,0,4.5,0,4.5-4.5V77c0,0,0-4.5-4.5-4.5H185z"/>
<text transform="matrix(1 0 0 1 196.8311 82.5239)" class="st2 st3">Enter Email</text>
<path class="st1" d="M185,100.8c0,0-4.5,0-4.5,4.5v6.1c0,0,0,4.5,4.5,4.5h59.5c0,0,4.5,0,4.5-4.5v-6.1c0,0,0-4.5-4.5-4.5H185z"/>
<path d="M189.6,108.9h-1.2v2h-0.7v-5h1.6c0.6,0,1,0.1,1.3,0.4c0.3,0.3,0.5,0.6,0.5,1.1c0,0.3-0.1,0.6-0.3,0.8
	c-0.2,0.2-0.4,0.4-0.7,0.5l1.2,2.1v0h-0.7L189.6,108.9z M188.4,108.3h1c0.3,0,0.6-0.1,0.8-0.3c0.2-0.2,0.3-0.4,0.3-0.7
	c0-0.3-0.1-0.5-0.3-0.7c-0.2-0.2-0.4-0.2-0.8-0.2h-1V108.3z M194.9,110.2c-0.3,0.5-0.8,0.7-1.4,0.7c-0.5,0-0.9-0.2-1.2-0.5
	c-0.3-0.3-0.5-0.8-0.5-1.3V109c0-0.4,0.1-0.7,0.2-1c0.1-0.3,0.3-0.5,0.6-0.7c0.3-0.2,0.5-0.2,0.8-0.2c0.5,0,0.9,0.2,1.1,0.5
	c0.3,0.3,0.4,0.8,0.4,1.4v0.3h-2.5c0,0.4,0.1,0.7,0.3,0.9c0.2,0.2,0.5,0.3,0.8,0.3c0.2,0,0.4,0,0.6-0.1c0.2-0.1,0.3-0.2,0.4-0.4
	L194.9,110.2L194.9,110.2z M193.4,107.6c-0.3,0-0.5,0.1-0.6,0.3c-0.2,0.2-0.3,0.4-0.3,0.8h1.9v0c0-0.3-0.1-0.6-0.3-0.7
	C193.9,107.7,193.7,107.6,193.4,107.6z M197.8,109.9c0-0.2-0.1-0.3-0.2-0.4c-0.1-0.1-0.4-0.2-0.7-0.2c-0.3-0.1-0.6-0.2-0.8-0.2
	s-0.3-0.2-0.4-0.3c-0.1-0.1-0.1-0.3-0.1-0.5c0-0.3,0.1-0.6,0.4-0.8c0.3-0.2,0.6-0.3,1-0.3c0.4,0,0.8,0.1,1,0.3
	c0.3,0.2,0.4,0.5,0.4,0.8h-0.6c0-0.2-0.1-0.3-0.2-0.4c-0.1-0.1-0.3-0.2-0.6-0.2c-0.2,0-0.4,0.1-0.5,0.2c-0.1,0.1-0.2,0.2-0.2,0.4
	c0,0.2,0.1,0.3,0.2,0.3c0.1,0.1,0.3,0.2,0.7,0.2c0.3,0.1,0.6,0.2,0.8,0.3c0.2,0.1,0.3,0.2,0.4,0.4c0.1,0.1,0.1,0.3,0.1,0.5
	c0,0.3-0.1,0.6-0.4,0.8c-0.3,0.2-0.6,0.3-1,0.3c-0.3,0-0.6-0.1-0.8-0.2c-0.2-0.1-0.4-0.3-0.5-0.4c-0.1-0.2-0.2-0.4-0.2-0.6h0.6
	c0,0.2,0.1,0.4,0.3,0.5c0.2,0.1,0.4,0.2,0.6,0.2c0.2,0,0.4,0,0.6-0.1C197.7,110.2,197.8,110.1,197.8,109.9z M202.2,110.2
	c-0.3,0.5-0.8,0.7-1.4,0.7c-0.5,0-0.9-0.2-1.2-0.5c-0.3-0.3-0.5-0.8-0.5-1.3V109c0-0.4,0.1-0.7,0.2-1c0.1-0.3,0.3-0.5,0.6-0.7
	c0.3-0.2,0.5-0.2,0.8-0.2c0.5,0,0.9,0.2,1.1,0.5c0.3,0.3,0.4,0.8,0.4,1.4v0.3h-2.5c0,0.4,0.1,0.7,0.3,0.9c0.2,0.2,0.5,0.3,0.8,0.3
	c0.2,0,0.4,0,0.6-0.1c0.2-0.1,0.3-0.2,0.4-0.4L202.2,110.2L202.2,110.2z M200.7,107.6c-0.3,0-0.5,0.1-0.6,0.3
	c-0.2,0.2-0.3,0.4-0.3,0.8h1.9v0c0-0.3-0.1-0.6-0.3-0.7C201.2,107.7,201,107.6,200.7,107.6z M203.8,106.3v0.9h0.7v0.5h-0.7v2.3
	c0,0.1,0,0.3,0.1,0.3s0.2,0.1,0.3,0.1c0.1,0,0.2,0,0.3,0v0.5c-0.2,0-0.3,0.1-0.5,0.1c-0.3,0-0.5-0.1-0.6-0.3s-0.2-0.4-0.2-0.7v-2.3
	h-0.7v-0.5h0.7v-0.9H203.8z M208.7,110l1.4-4.1h0.7l-1.8,5h-0.6l-1.8-5h0.7L208.7,110z M214.2,110.2c-0.3,0.5-0.8,0.7-1.4,0.7
	c-0.5,0-0.9-0.2-1.2-0.5c-0.3-0.3-0.5-0.8-0.5-1.3V109c0-0.4,0.1-0.7,0.2-1c0.1-0.3,0.3-0.5,0.6-0.7c0.3-0.2,0.5-0.2,0.8-0.2
	c0.5,0,0.9,0.2,1.1,0.5c0.3,0.3,0.4,0.8,0.4,1.4v0.3h-2.5c0,0.4,0.1,0.7,0.3,0.9c0.2,0.2,0.5,0.3,0.8,0.3c0.2,0,0.4,0,0.6-0.1
	c0.2-0.1,0.3-0.2,0.4-0.4L214.2,110.2L214.2,110.2z M212.7,107.6c-0.3,0-0.5,0.1-0.6,0.3c-0.2,0.2-0.3,0.4-0.3,0.8h1.9v0
	c0-0.3-0.1-0.6-0.3-0.7C213.2,107.7,213,107.6,212.7,107.6z M216.8,107.7c-0.1,0-0.2,0-0.3,0c-0.4,0-0.7,0.2-0.8,0.5v2.6H215v-3.7
	h0.6l0,0.4c0.2-0.3,0.5-0.5,0.9-0.5c0.1,0,0.2,0,0.3,0V107.7z M217.4,106.2c0-0.1,0-0.2,0.1-0.3c0.1-0.1,0.2-0.1,0.3-0.1
	s0.2,0,0.3,0.1c0.1,0.1,0.1,0.2,0.1,0.3s0,0.2-0.1,0.3c-0.1,0.1-0.2,0.1-0.3,0.1s-0.2,0-0.3-0.1
	C217.4,106.4,217.4,106.3,217.4,106.2z M218,110.9h-0.6v-3.7h0.6V110.9z M219.3,110.9v-3.2h-0.6v-0.5h0.6v-0.3c0-0.4,0.1-0.7,0.4-1
	c0.2-0.2,0.6-0.3,1-0.3c0.3,0,0.6,0.1,1,0.2l-0.1,0.5c-0.3-0.1-0.6-0.2-0.8-0.2c-0.3,0-0.5,0.1-0.6,0.2c-0.1,0.1-0.2,0.3-0.2,0.5
	v0.3h0.8v0.5h-0.8v3.2H219.3z M221.9,110.9h-0.6v-3.7h0.6V110.9z M224.4,110.4c0.2,0,0.4-0.1,0.6-0.2c0.2-0.1,0.3-0.3,0.3-0.5h0.6
	c0,0.2-0.1,0.4-0.2,0.6c-0.1,0.2-0.3,0.3-0.5,0.5c-0.2,0.1-0.5,0.2-0.7,0.2c-0.5,0-0.9-0.2-1.2-0.5c-0.3-0.3-0.4-0.8-0.4-1.4V109
	c0-0.4,0.1-0.7,0.2-1c0.1-0.3,0.3-0.5,0.6-0.7c0.2-0.2,0.5-0.2,0.9-0.2c0.4,0,0.8,0.1,1,0.4c0.3,0.2,0.4,0.6,0.4,1h-0.6
	c0-0.2-0.1-0.4-0.3-0.6c-0.2-0.2-0.4-0.2-0.6-0.2c-0.3,0-0.6,0.1-0.7,0.3c-0.2,0.2-0.3,0.6-0.3,1v0.1c0,0.4,0.1,0.8,0.3,1
	C223.8,110.3,224.1,110.4,224.4,110.4z M228.9,110.9c0-0.1-0.1-0.2-0.1-0.4c-0.3,0.3-0.6,0.5-1.1,0.5c-0.4,0-0.7-0.1-0.9-0.3
	c-0.2-0.2-0.4-0.5-0.4-0.8c0-0.4,0.1-0.7,0.4-0.9c0.3-0.2,0.7-0.3,1.2-0.3h0.6v-0.3c0-0.2-0.1-0.4-0.2-0.5c-0.1-0.1-0.3-0.2-0.6-0.2
	c-0.2,0-0.4,0.1-0.6,0.2c-0.2,0.1-0.2,0.3-0.2,0.4h-0.6c0-0.2,0.1-0.4,0.2-0.5c0.1-0.2,0.3-0.3,0.5-0.4c0.2-0.1,0.5-0.2,0.7-0.2
	c0.4,0,0.8,0.1,1,0.3c0.2,0.2,0.4,0.5,0.4,0.9v1.7c0,0.3,0,0.6,0.1,0.8v0.1H228.9z M227.8,110.4c0.2,0,0.4-0.1,0.6-0.2
	s0.3-0.2,0.4-0.4v-0.8h-0.5c-0.8,0-1.2,0.2-1.2,0.7c0,0.2,0.1,0.4,0.2,0.5C227.5,110.3,227.6,110.4,227.8,110.4z M231.3,106.3v0.9
	h0.7v0.5h-0.7v2.3c0,0.1,0,0.3,0.1,0.3s0.2,0.1,0.3,0.1c0.1,0,0.2,0,0.3,0v0.5c-0.2,0-0.3,0.1-0.5,0.1c-0.3,0-0.5-0.1-0.6-0.3
	s-0.2-0.4-0.2-0.7v-2.3H230v-0.5h0.7v-0.9H231.3z M232.7,106.2c0-0.1,0-0.2,0.1-0.3c0.1-0.1,0.2-0.1,0.3-0.1s0.2,0,0.3,0.1
	c0.1,0.1,0.1,0.2,0.1,0.3s0,0.2-0.1,0.3c-0.1,0.1-0.2,0.1-0.3,0.1s-0.2,0-0.3-0.1C232.7,106.4,232.7,106.3,232.7,106.2z
	 M233.4,110.9h-0.6v-3.7h0.6V110.9z M234.2,109c0-0.4,0.1-0.7,0.2-1c0.1-0.3,0.3-0.5,0.6-0.7c0.3-0.2,0.5-0.2,0.9-0.2
	c0.5,0,0.9,0.2,1.2,0.5s0.5,0.8,0.5,1.4v0c0,0.4-0.1,0.7-0.2,1c-0.1,0.3-0.3,0.5-0.6,0.7c-0.3,0.2-0.6,0.2-0.9,0.2
	c-0.5,0-0.9-0.2-1.2-0.5S234.2,109.6,234.2,109L234.2,109z M234.9,109.1c0,0.4,0.1,0.7,0.3,1c0.2,0.2,0.4,0.4,0.8,0.4
	c0.3,0,0.6-0.1,0.8-0.4c0.2-0.3,0.3-0.6,0.3-1.1c0-0.4-0.1-0.7-0.3-1c-0.2-0.3-0.4-0.4-0.8-0.4c-0.3,0-0.6,0.1-0.8,0.4
	C235,108.2,234.9,108.6,234.9,109.1z M239,107.2l0,0.5c0.3-0.4,0.7-0.5,1.1-0.5c0.8,0,1.2,0.4,1.2,1.3v2.4h-0.6v-2.4
	c0-0.3-0.1-0.5-0.2-0.6c-0.1-0.1-0.3-0.2-0.6-0.2c-0.2,0-0.4,0.1-0.5,0.2c-0.2,0.1-0.3,0.3-0.4,0.4v2.6h-0.6v-3.7H239z"/>
<path class="st1" d="M274.4,13.8c0,0-4.5,0-4.5,4.5v6.1c0,0,0,4.5,4.5,4.5h59.5c0,0,4.5,0,4.5-4.5v-6.1c0,0,0-4.5-4.5-4.5H274.4z"/>
<text transform="matrix(1 0 0 1 278.1245 23.8657)" class="st2 st3">Member Sign Up</text>
<path class="st1" d="M274.4,72.5c0,0-4.5,0-4.5,4.5v6.1c0,0,0,4.5,4.5,4.5h59.5c0,0,4.5,0,4.5-4.5V77c0,0,0-4.5-4.5-4.5H274.4z"/>
<text transform="matrix(1 0 0 1 278.2188 82.5239)"><tspan x="0" y="0" class="st2 st3">P</tspan><tspan x="4.4" y="0" class="st2 st3">r</tspan><tspan x="6.7" y="0" class="st2 st3">o</tspan><tspan x="10.7" y="0" class="st2 st3">vider Sign Up</tspan></text>
<path class="st1" d="M352.9,72.5c0,0-4.5,0-4.5,4.5v6.1c0,0,0,4.5,4.5,4.5h59.5c0,0,4.5,0,4.5-4.5V77c0,0,0-4.5-4.5-4.5H352.9z"/>
<text transform="matrix(1 0 0 1 358.3916 82.5239)"><tspan x="0" y="0" class="st2 st3">C</tspan><tspan x="4.6" y="0" class="st2 st3">r</tspan><tspan x="6.9" y="0" class="st2 st3">eate Account</tspan></text>
<path class="st1" d="M431.4,13.8c0,0-4.5,0-4.5,4.5v6.1c0,0,0,4.5,4.5,4.5h59.5c0,0,4.5,0,4.5-4.5v-6.1c0,0,0-4.5-4.5-4.5H431.4z"/>
<text transform="matrix(1 0 0 1 444.9922 23.8657)" class="st2 st3">User Input</text>
<path class="st1" d="M352.9,13.8c0,0-4.5,0-4.5,4.5v6.1c0,0,0,4.5,4.5,4.5h59.5c0,0,4.5,0,4.5-4.5v-6.1c0,0,0-4.5-4.5-4.5H352.9z"/>
<text transform="matrix(1 0 0 1 359.2173 23.8657)"><tspan x="0" y="0" class="st2 st3">Pri</tspan><tspan x="8.5" y="0" class="st2 st3">v</tspan><tspan x="11.8" y="0" class="st2 st3">acy </tspan><tspan x="24.3" y="0" class="st2 st3">P</tspan><tspan x="28.7" y="0" class="st2 st3">op-up</tspan></text>
<path class="st1" d="M509.9,13.8c0,0-4.5,0-4.5,4.5v6.1c0,0,0,4.5,4.5,4.5h59.5c0,0,4.5,0,4.5-4.5v-6.1c0,0,0-4.5-4.5-4.5H509.9z"/>
<text transform="matrix(1 0 0 1 521.0898 23.8657)"><tspan x="0" y="0" class="st2 st3">V</tspan><tspan x="4.3" y="0" class="st2 st3">erify email</tspan></text>
<path class="st1" d="M588.4,13.8c0,0-4.5,0-4.5,4.5v6.1c0,0,0,4.5,4.5,4.5h59.5c0,0,4.5,0,4.5-4.5v-6.1c0,0,0-4.5-4.5-4.5H588.4z"/>
<path d="M601.9,22.3c-0.1,0.5-0.3,0.9-0.6,1.2c-0.3,0.3-0.8,0.4-1.3,0.4c-0.6,0-1.1-0.2-1.4-0.6c-0.4-0.4-0.5-1-0.5-1.7v-0.5
	c0-0.5,0.1-0.9,0.2-1.2c0.2-0.4,0.4-0.6,0.7-0.8c0.3-0.2,0.7-0.3,1.1-0.3c0.5,0,1,0.1,1.3,0.4c0.3,0.3,0.5,0.7,0.6,1.2h-0.7
	c-0.1-0.4-0.2-0.7-0.4-0.9c-0.2-0.2-0.5-0.3-0.8-0.3c-0.4,0-0.7,0.2-1,0.5c-0.2,0.3-0.4,0.8-0.4,1.3v0.5c0,0.5,0.1,1,0.3,1.3
	s0.5,0.5,0.9,0.5c0.4,0,0.6-0.1,0.8-0.2c0.2-0.2,0.3-0.5,0.4-0.9H601.9z M602.5,22c0-0.4,0.1-0.7,0.2-1c0.1-0.3,0.3-0.5,0.6-0.7
	c0.3-0.2,0.5-0.2,0.9-0.2c0.5,0,0.9,0.2,1.2,0.5s0.5,0.8,0.5,1.4v0c0,0.4-0.1,0.7-0.2,1c-0.1,0.3-0.3,0.5-0.6,0.7
	c-0.3,0.2-0.6,0.2-0.9,0.2c-0.5,0-0.9-0.2-1.2-0.5S602.5,22.6,602.5,22L602.5,22z M603.2,22.1c0,0.4,0.1,0.7,0.3,1
	c0.2,0.2,0.4,0.4,0.8,0.4c0.3,0,0.6-0.1,0.8-0.4c0.2-0.3,0.3-0.6,0.3-1.1c0-0.4-0.1-0.7-0.3-1c-0.2-0.3-0.4-0.4-0.8-0.4
	c-0.3,0-0.6,0.1-0.8,0.4C603.3,21.2,603.2,21.6,603.2,22.1z M607.3,20.2l0,0.5c0.3-0.4,0.7-0.5,1.1-0.5c0.8,0,1.2,0.4,1.2,1.3v2.4
	H609v-2.4c0-0.3-0.1-0.5-0.2-0.6c-0.1-0.1-0.3-0.2-0.6-0.2c-0.2,0-0.4,0.1-0.5,0.2c-0.2,0.1-0.3,0.3-0.4,0.4v2.6h-0.6v-3.7H607.3z
	 M610.8,23.9v-3.2h-0.6v-0.5h0.6v-0.3c0-0.4,0.1-0.7,0.4-1c0.2-0.2,0.6-0.3,1-0.3c0.3,0,0.6,0.1,1,0.2l-0.1,0.5
	c-0.3-0.1-0.6-0.2-0.8-0.2c-0.3,0-0.5,0.1-0.6,0.2c-0.1,0.1-0.2,0.3-0.2,0.5v0.3h0.8v0.5h-0.8v3.2H610.8z M613.4,23.9h-0.6v-3.7h0.6
	V23.9z M616.2,20.7c-0.1,0-0.2,0-0.3,0c-0.4,0-0.7,0.2-0.8,0.5v2.6h-0.6v-3.7h0.6l0,0.4c0.2-0.3,0.5-0.5,0.9-0.5c0.1,0,0.2,0,0.3,0
	V20.7z M617.4,20.2l0,0.4c0.3-0.3,0.6-0.5,1.1-0.5c0.5,0,0.9,0.2,1.1,0.6c0.1-0.2,0.3-0.3,0.5-0.4c0.2-0.1,0.4-0.2,0.7-0.2
	c0.8,0,1.2,0.4,1.2,1.3v2.5h-0.6v-2.4c0-0.3-0.1-0.5-0.2-0.6c-0.1-0.1-0.3-0.2-0.6-0.2c-0.2,0-0.4,0.1-0.6,0.2
	c-0.2,0.1-0.2,0.3-0.3,0.6v2.5h-0.6v-2.4c0-0.5-0.3-0.8-0.8-0.8c-0.4,0-0.7,0.2-0.9,0.5v2.7h-0.6v-3.7H617.4z M625.2,23.9
	c0-0.1-0.1-0.2-0.1-0.4c-0.3,0.3-0.6,0.5-1.1,0.5c-0.4,0-0.7-0.1-0.9-0.3c-0.2-0.2-0.4-0.5-0.4-0.8c0-0.4,0.1-0.7,0.4-0.9
	c0.3-0.2,0.7-0.3,1.2-0.3h0.6v-0.3c0-0.2-0.1-0.4-0.2-0.5c-0.1-0.1-0.3-0.2-0.6-0.2c-0.2,0-0.4,0.1-0.6,0.2
	c-0.2,0.1-0.2,0.3-0.2,0.4h-0.6c0-0.2,0.1-0.4,0.2-0.5c0.1-0.2,0.3-0.3,0.5-0.4c0.2-0.1,0.5-0.2,0.7-0.2c0.4,0,0.8,0.1,1,0.3
	c0.2,0.2,0.4,0.5,0.4,0.9V23c0,0.3,0,0.6,0.1,0.8v0.1H625.2z M624.2,23.4c0.2,0,0.4-0.1,0.6-0.2s0.3-0.2,0.4-0.4v-0.8h-0.5
	c-0.8,0-1.2,0.2-1.2,0.7c0,0.2,0.1,0.4,0.2,0.5C623.8,23.3,624,23.4,624.2,23.4z M627.6,19.3v0.9h0.7v0.5h-0.7V23
	c0,0.1,0,0.3,0.1,0.3s0.2,0.1,0.3,0.1c0.1,0,0.2,0,0.3,0v0.5c-0.2,0-0.3,0.1-0.5,0.1c-0.3,0-0.5-0.1-0.6-0.3s-0.2-0.4-0.2-0.7v-2.3
	h-0.7v-0.5h0.7v-0.9H627.6z M629,19.2c0-0.1,0-0.2,0.1-0.3c0.1-0.1,0.2-0.1,0.3-0.1s0.2,0,0.3,0.1c0.1,0.1,0.1,0.2,0.1,0.3
	s0,0.2-0.1,0.3c-0.1,0.1-0.2,0.1-0.3,0.1s-0.2,0-0.3-0.1C629.1,19.4,629,19.3,629,19.2z M629.7,23.9h-0.6v-3.7h0.6V23.9z M630.6,22
	c0-0.4,0.1-0.7,0.2-1c0.1-0.3,0.3-0.5,0.6-0.7c0.3-0.2,0.5-0.2,0.9-0.2c0.5,0,0.9,0.2,1.2,0.5s0.5,0.8,0.5,1.4v0
	c0,0.4-0.1,0.7-0.2,1c-0.1,0.3-0.3,0.5-0.6,0.7c-0.3,0.2-0.6,0.2-0.9,0.2c-0.5,0-0.9-0.2-1.2-0.5S630.6,22.6,630.6,22L630.6,22z
	 M631.2,22.1c0,0.4,0.1,0.7,0.3,1c0.2,0.2,0.4,0.4,0.8,0.4c0.3,0,0.6-0.1,0.8-0.4c0.2-0.3,0.3-0.6,0.3-1.1c0-0.4-0.1-0.7-0.3-1
	c-0.2-0.3-0.4-0.4-0.8-0.4c-0.3,0-0.6,0.1-0.8,0.4C631.3,21.2,631.2,21.6,631.2,22.1z M635.3,20.2l0,0.5c0.3-0.4,0.7-0.5,1.1-0.5
	c0.8,0,1.2,0.4,1.2,1.3v2.4H637v-2.4c0-0.3-0.1-0.5-0.2-0.6c-0.1-0.1-0.3-0.2-0.6-0.2c-0.2,0-0.4,0.1-0.5,0.2
	c-0.2,0.1-0.3,0.3-0.4,0.4v2.6h-0.6v-3.7H635.3z"/>
<path class="st1" d="M666.9,13.8c0,0-4.5,0-4.5,4.5v6.1c0,0,0,4.5,4.5,4.5h59.5c0,0,4.5,0,4.5-4.5v-6.1c0,0,0-4.5-4.5-4.5H666.9z"/>
<path d="M668.3,23.9v-5h1.6c0.5,0,0.9,0.1,1.2,0.3c0.3,0.2,0.4,0.6,0.4,1c0,0.2-0.1,0.4-0.2,0.6c-0.1,0.2-0.3,0.3-0.5,0.4
	c0.3,0.1,0.5,0.2,0.6,0.4c0.2,0.2,0.2,0.5,0.2,0.8c0,0.4-0.1,0.8-0.4,1.1c-0.3,0.3-0.7,0.4-1.2,0.4H668.3z M668.9,21h1
	c0.3,0,0.5-0.1,0.7-0.2c0.2-0.1,0.3-0.3,0.3-0.6c0-0.3-0.1-0.5-0.2-0.6c-0.2-0.1-0.4-0.2-0.7-0.2h-1V21z M668.9,21.5v1.8h1.1
	c0.3,0,0.5-0.1,0.7-0.2c0.2-0.2,0.3-0.4,0.3-0.7c0-0.6-0.3-0.9-1-0.9H668.9z M675.5,23.2c-0.3,0.5-0.8,0.7-1.4,0.7
	c-0.5,0-0.9-0.2-1.2-0.5c-0.3-0.3-0.5-0.8-0.5-1.3V22c0-0.4,0.1-0.7,0.2-1c0.1-0.3,0.3-0.5,0.6-0.7c0.3-0.2,0.5-0.2,0.8-0.2
	c0.5,0,0.9,0.2,1.1,0.5c0.3,0.3,0.4,0.8,0.4,1.4v0.3H673c0,0.4,0.1,0.7,0.3,0.9c0.2,0.2,0.5,0.3,0.8,0.3c0.2,0,0.4,0,0.6-0.1
	c0.2-0.1,0.3-0.2,0.4-0.4L675.5,23.2L675.5,23.2z M674,20.6c-0.3,0-0.5,0.1-0.6,0.3c-0.2,0.2-0.3,0.4-0.3,0.8h1.9v0
	c0-0.3-0.1-0.6-0.3-0.7C674.5,20.7,674.3,20.6,674,20.6z M676.9,20.2l0,0.5c0.3-0.4,0.7-0.5,1.1-0.5c0.8,0,1.2,0.4,1.2,1.3v2.4h-0.6
	v-2.4c0-0.3-0.1-0.5-0.2-0.6c-0.1-0.1-0.3-0.2-0.6-0.2c-0.2,0-0.4,0.1-0.5,0.2c-0.2,0.1-0.3,0.3-0.4,0.4v2.6h-0.6v-3.7H676.9z
	 M683,23.2c-0.3,0.5-0.8,0.7-1.4,0.7c-0.5,0-0.9-0.2-1.2-0.5c-0.3-0.3-0.5-0.8-0.5-1.3V22c0-0.4,0.1-0.7,0.2-1
	c0.1-0.3,0.3-0.5,0.6-0.7c0.3-0.2,0.5-0.2,0.8-0.2c0.5,0,0.9,0.2,1.1,0.5c0.3,0.3,0.4,0.8,0.4,1.4v0.3h-2.5c0,0.4,0.1,0.7,0.3,0.9
	c0.2,0.2,0.5,0.3,0.8,0.3c0.2,0,0.4,0,0.6-0.1c0.2-0.1,0.3-0.2,0.4-0.4L683,23.2L683,23.2z M681.6,20.6c-0.3,0-0.5,0.1-0.6,0.3
	c-0.2,0.2-0.3,0.4-0.3,0.8h1.9v0c0-0.3-0.1-0.6-0.3-0.7C682,20.7,681.8,20.6,681.6,20.6z M684,23.9v-3.2h-0.6v-0.5h0.6v-0.3
	c0-0.4,0.1-0.7,0.4-1c0.2-0.2,0.6-0.3,1-0.3c0.3,0,0.6,0.1,1,0.2l-0.1,0.5c-0.3-0.1-0.6-0.2-0.8-0.2c-0.3,0-0.5,0.1-0.6,0.2
	c-0.1,0.1-0.2,0.3-0.2,0.5v0.3h0.8v0.5h-0.8v3.2H684z M686.7,23.9H686v-3.7h0.6V23.9z M688.6,19.3v0.9h0.7v0.5h-0.7V23
	c0,0.1,0,0.3,0.1,0.3s0.2,0.1,0.3,0.1c0.1,0,0.2,0,0.3,0v0.5c-0.2,0-0.3,0.1-0.5,0.1c-0.3,0-0.5-0.1-0.6-0.3s-0.2-0.4-0.2-0.7v-2.3
	h-0.7v-0.5h0.7v-0.9H688.6z M691.8,23.9v-5h1.4c0.4,0,0.8,0.1,1.1,0.3c0.3,0.2,0.6,0.5,0.8,0.8c0.2,0.4,0.3,0.8,0.3,1.2v0.3
	c0,0.5-0.1,0.9-0.3,1.2c-0.2,0.4-0.4,0.6-0.8,0.8c-0.3,0.2-0.7,0.3-1.2,0.3H691.8z M692.5,19.4v3.9h0.7c0.5,0,0.9-0.2,1.2-0.5
	c0.3-0.3,0.4-0.8,0.4-1.3v-0.3c0-0.6-0.1-1-0.4-1.3c-0.3-0.3-0.6-0.5-1.1-0.5H692.5z M698.6,23.9c0-0.1-0.1-0.2-0.1-0.4
	c-0.3,0.3-0.6,0.5-1.1,0.5c-0.4,0-0.7-0.1-0.9-0.3c-0.2-0.2-0.4-0.5-0.4-0.8c0-0.4,0.1-0.7,0.4-0.9c0.3-0.2,0.7-0.3,1.2-0.3h0.6
	v-0.3c0-0.2-0.1-0.4-0.2-0.5c-0.1-0.1-0.3-0.2-0.6-0.2c-0.2,0-0.4,0.1-0.6,0.2c-0.2,0.1-0.2,0.3-0.2,0.4h-0.6c0-0.2,0.1-0.4,0.2-0.5
	c0.1-0.2,0.3-0.3,0.5-0.4c0.2-0.1,0.5-0.2,0.7-0.2c0.4,0,0.8,0.1,1,0.3c0.2,0.2,0.4,0.5,0.4,0.9V23c0,0.3,0,0.6,0.1,0.8v0.1H698.6z
	 M697.6,23.4c0.2,0,0.4-0.1,0.6-0.2s0.3-0.2,0.4-0.4v-0.8H698c-0.8,0-1.2,0.2-1.2,0.7c0,0.2,0.1,0.4,0.2,0.5
	C697.2,23.3,697.3,23.4,697.6,23.4z M702.3,22.9c0-0.2-0.1-0.3-0.2-0.4c-0.1-0.1-0.4-0.2-0.7-0.2c-0.3-0.1-0.6-0.2-0.8-0.2
	s-0.3-0.2-0.4-0.3c-0.1-0.1-0.1-0.3-0.1-0.5c0-0.3,0.1-0.6,0.4-0.8c0.3-0.2,0.6-0.3,1-0.3c0.4,0,0.8,0.1,1,0.3
	c0.3,0.2,0.4,0.5,0.4,0.8h-0.6c0-0.2-0.1-0.3-0.2-0.4c-0.1-0.1-0.3-0.2-0.6-0.2c-0.2,0-0.4,0.1-0.5,0.2c-0.1,0.1-0.2,0.2-0.2,0.4
	c0,0.2,0.1,0.3,0.2,0.3c0.1,0.1,0.3,0.2,0.7,0.2c0.3,0.1,0.6,0.2,0.8,0.3c0.2,0.1,0.3,0.2,0.4,0.4c0.1,0.1,0.1,0.3,0.1,0.5
	c0,0.3-0.1,0.6-0.4,0.8c-0.3,0.2-0.6,0.3-1,0.3c-0.3,0-0.6-0.1-0.8-0.2c-0.2-0.1-0.4-0.3-0.5-0.4c-0.1-0.2-0.2-0.4-0.2-0.6h0.6
	c0,0.2,0.1,0.4,0.3,0.5c0.2,0.1,0.4,0.2,0.6,0.2c0.2,0,0.4,0,0.6-0.1C702.2,23.2,702.3,23,702.3,22.9z M704.4,20.6
	c0.3-0.3,0.6-0.5,1.1-0.5c0.8,0,1.2,0.4,1.2,1.3v2.4H706v-2.4c0-0.3-0.1-0.5-0.2-0.6c-0.1-0.1-0.3-0.2-0.6-0.2
	c-0.2,0-0.4,0.1-0.5,0.2c-0.2,0.1-0.3,0.3-0.4,0.4v2.6h-0.6v-5.2h0.6V20.6z M710.7,22.1c0,0.6-0.1,1-0.4,1.4c-0.3,0.3-0.6,0.5-1,0.5
	c-0.5,0-0.8-0.2-1.1-0.5l0,0.4h-0.6v-5.2h0.6v2c0.3-0.3,0.6-0.5,1.1-0.5c0.4,0,0.8,0.2,1.1,0.5C710.6,20.9,710.7,21.4,710.7,22.1
	L710.7,22.1z M710.1,22c0-0.4-0.1-0.8-0.2-1c-0.2-0.2-0.4-0.4-0.7-0.4c-0.4,0-0.7,0.2-0.9,0.6v1.6c0.2,0.4,0.5,0.6,0.9,0.6
	c0.3,0,0.5-0.1,0.7-0.4C710,22.8,710.1,22.5,710.1,22z M711.4,22c0-0.4,0.1-0.7,0.2-1c0.1-0.3,0.3-0.5,0.6-0.7
	c0.3-0.2,0.5-0.2,0.9-0.2c0.5,0,0.9,0.2,1.2,0.5s0.5,0.8,0.5,1.4v0c0,0.4-0.1,0.7-0.2,1c-0.1,0.3-0.3,0.5-0.6,0.7
	c-0.3,0.2-0.6,0.2-0.9,0.2c-0.5,0-0.9-0.2-1.2-0.5S711.4,22.6,711.4,22L711.4,22z M712,22.1c0,0.4,0.1,0.7,0.3,1
	c0.2,0.2,0.4,0.4,0.8,0.4c0.3,0,0.6-0.1,0.8-0.4c0.2-0.3,0.3-0.6,0.3-1.1c0-0.4-0.1-0.7-0.3-1c-0.2-0.3-0.4-0.4-0.8-0.4
	c-0.3,0-0.6,0.1-0.8,0.4C712.1,21.2,712,21.6,712,22.1z M717.8,23.9c0-0.1-0.1-0.2-0.1-0.4c-0.3,0.3-0.6,0.5-1.1,0.5
	c-0.4,0-0.7-0.1-0.9-0.3c-0.2-0.2-0.4-0.5-0.4-0.8c0-0.4,0.1-0.7,0.4-0.9c0.3-0.2,0.7-0.3,1.2-0.3h0.6v-0.3c0-0.2-0.1-0.4-0.2-0.5
	c-0.1-0.1-0.3-0.2-0.6-0.2c-0.2,0-0.4,0.1-0.6,0.2c-0.2,0.1-0.2,0.3-0.2,0.4h-0.6c0-0.2,0.1-0.4,0.2-0.5c0.1-0.2,0.3-0.3,0.5-0.4
	c0.2-0.1,0.5-0.2,0.7-0.2c0.4,0,0.8,0.1,1,0.3c0.2,0.2,0.4,0.5,0.4,0.9V23c0,0.3,0,0.6,0.1,0.8v0.1H717.8z M716.8,23.4
	c0.2,0,0.4-0.1,0.6-0.2s0.3-0.2,0.4-0.4v-0.8h-0.5c-0.8,0-1.2,0.2-1.2,0.7c0,0.2,0.1,0.4,0.2,0.5C716.4,23.3,716.5,23.4,716.8,23.4z
	 M721.1,20.7c-0.1,0-0.2,0-0.3,0c-0.4,0-0.7,0.2-0.8,0.5v2.6h-0.6v-3.7h0.6l0,0.4c0.2-0.3,0.5-0.5,0.9-0.5c0.1,0,0.2,0,0.3,0V20.7z
	 M721.5,22c0-0.6,0.1-1,0.4-1.4c0.3-0.3,0.6-0.5,1.1-0.5c0.4,0,0.8,0.1,1,0.4v-1.9h0.6v5.2H724l0-0.4c-0.3,0.3-0.6,0.5-1.1,0.5
	c-0.4,0-0.8-0.2-1-0.5C721.6,23.1,721.5,22.6,721.5,22L721.5,22z M722.1,22.1c0,0.4,0.1,0.7,0.3,1c0.2,0.2,0.4,0.4,0.7,0.4
	c0.4,0,0.7-0.2,0.9-0.5v-1.7c-0.2-0.3-0.5-0.5-0.9-0.5c-0.3,0-0.6,0.1-0.7,0.4C722.2,21.2,722.1,21.6,722.1,22.1z"/>
<path class="st1" d="M279.4,930.4c0,0-4.5,0-4.5,4.5v6.1c0,0,0,4.5,4.5,4.5h59.5c0,0,4.5,0,4.5-4.5v-6.1c0,0,0-4.5-4.5-4.5H279.4z"
	/>
<text transform="matrix(1 0 0 1 297.3843 940.415)" class="st2 st3">Results</text>
<path class="st1" d="M439.3,799.5c0,0-4.5,0-4.5,4.5v6.1c0,0,0,4.5,4.5,4.5h59.5c0,0,4.5,0,4.5-4.5V804c0,0,0-4.5-4.5-4.5H439.3z"/>
<text transform="matrix(1 0 0 1 447.0889 809.5537)" class="st2 st3">Find A Dentist</text>
<path class="st1" d="M439.3,824.6c0,0-4.5,0-4.5,4.5v6.1c0,0,0,4.5,4.5,4.5h59.5c0,0,4.5,0,4.5-4.5v-6.1c0,0,0-4.5-4.5-4.5H439.3z"
	/>
<text transform="matrix(1 0 0 1 447.916 834.6533)" class="st2 st3">Ask A Dentist</text>
<path class="st1" d="M439.3,774.4c0,0-4.5,0-4.5,4.5v6.1c0,0,0,4.5,4.5,4.5h59.5c0,0,4.5,0,4.5-4.5v-6.1c0,0,0-4.5-4.5-4.5H439.3z"
	/>
<text transform="matrix(1 0 0 1 444.8906 784.4531)"><tspan x="0" y="0" class="st2 st3">Cost Calcula</tspan><tspan x="39.3" y="0" class="st2 st3">t</tspan><tspan x="41.5" y="0" class="st2 st3">or</tspan></text>
<path class="st1" d="M439.3,849.7c0,0-4.5,0-4.5,4.5v6.1c0,0,0,4.5,4.5,4.5h59.5c0,0,4.5,0,4.5-4.5v-6.1c0,0,0-4.5-4.5-4.5H439.3z"
	/>
<text transform="matrix(1 0 0 1 448.3604 859.7529)"><tspan x="0" y="0" class="st2 st3">A</tspan><tspan x="4.6" y="0" class="st2 st3">r</tspan><tspan x="7.1" y="0" class="st2 st3">ticles + </tspan><tspan x="31.2" y="0" class="st2 st3">E</tspan><tspan x="35.1" y="0" class="st2 st3">d.</tspan></text>
<path class="st1" d="M440.4,874.8c0,0-4.5,0-4.5,4.5v6.1c0,0,0,4.5,4.5,4.5h59.5c0,0,4.5,0,4.5-4.5v-6.1c0,0,0-4.5-4.5-4.5H440.4z"
	/>
<text transform="matrix(1 0 0 1 441.2432 884.8535)" class="st2 st3">Risk Assessments</text>
<path class="st1" d="M440.4,899.9c0,0-4.5,0-4.5,4.5v6.1c0,0,0,4.5,4.5,4.5h59.5c0,0,4.5,0,4.5-4.5v-6.1c0,0,0-4.5-4.5-4.5H440.4z"
	/>
<text transform="matrix(1 0 0 1 443.6084 909.9531)"><tspan x="0" y="0" class="st2 st3">Questions As</tspan><tspan x="41.3" y="0" class="st2 st3">k</tspan><tspan x="44.8" y="0" class="st2 st3">ed</tspan></text>
<path class="st1" d="M440.4,925c0,0-4.5,0-4.5,4.5v6.1c0,0,0,4.5,4.5,4.5h59.5c0,0,4.5,0,4.5-4.5v-6.1c0,0,0-4.5-4.5-4.5H440.4z"/>
<path d="M455.7,930.1l1.6,4.1l1.6-4.1h0.9v5h-0.7v-1.9l0.1-2.1l-1.6,4h-0.5l-1.6-4l0.1,2.1v1.9h-0.7v-5H455.7z M462.1,934.1l0.9-2.8
	h0.7l-1.5,4.3c-0.2,0.6-0.6,0.9-1.1,0.9l-0.1,0l-0.2,0V936l0.2,0c0.2,0,0.4,0,0.5-0.1s0.2-0.2,0.3-0.5l0.1-0.4l-1.3-3.7h0.7
	L462.1,934.1z M466.7,933.1v1.9H466v-5h1.8c0.5,0,1,0.1,1.3,0.4c0.3,0.3,0.5,0.6,0.5,1.1c0,0.5-0.2,0.9-0.5,1.1
	c-0.3,0.3-0.7,0.4-1.3,0.4H466.7z M466.7,932.6h1.2c0.4,0,0.6-0.1,0.8-0.2c0.2-0.2,0.3-0.4,0.3-0.7c0-0.3-0.1-0.5-0.3-0.7
	c-0.2-0.2-0.4-0.3-0.8-0.3h-1.2V932.6z M472.1,931.9c-0.1,0-0.2,0-0.3,0c-0.4,0-0.7,0.2-0.8,0.5v2.6h-0.6v-3.7h0.6l0,0.4
	c0.2-0.3,0.5-0.5,0.9-0.5c0.1,0,0.2,0,0.3,0V931.9z M472.5,933.2c0-0.4,0.1-0.7,0.2-1c0.1-0.3,0.3-0.5,0.6-0.7
	c0.3-0.2,0.5-0.2,0.9-0.2c0.5,0,0.9,0.2,1.2,0.5s0.5,0.8,0.5,1.4v0c0,0.4-0.1,0.7-0.2,1c-0.1,0.3-0.3,0.5-0.6,0.7
	c-0.3,0.2-0.6,0.2-0.9,0.2c-0.5,0-0.9-0.2-1.2-0.5S472.5,933.8,472.5,933.2L472.5,933.2z M473.1,933.2c0,0.4,0.1,0.7,0.3,1
	c0.2,0.2,0.4,0.4,0.8,0.4c0.3,0,0.6-0.1,0.8-0.4c0.2-0.3,0.3-0.6,0.3-1.1c0-0.4-0.1-0.7-0.3-1c-0.2-0.3-0.4-0.4-0.8-0.4
	c-0.3,0-0.6,0.1-0.8,0.4C473.2,932.4,473.1,932.8,473.1,933.2z M476.8,935.1v-3.2h-0.6v-0.5h0.6V931c0-0.4,0.1-0.7,0.4-1
	c0.2-0.2,0.6-0.3,1-0.3c0.3,0,0.6,0.1,1,0.2l-0.1,0.5c-0.3-0.1-0.6-0.2-0.8-0.2c-0.3,0-0.5,0.1-0.6,0.2c-0.1,0.1-0.2,0.3-0.2,0.5
	v0.3h0.8v0.5h-0.8v3.2H476.8z M479.5,935.1h-0.6v-3.7h0.6V935.1z M481.2,935.1h-0.6v-5.2h0.6V935.1z M485.1,934.4
	c-0.3,0.5-0.8,0.7-1.4,0.7c-0.5,0-0.9-0.2-1.2-0.5c-0.3-0.3-0.5-0.8-0.5-1.3v-0.1c0-0.4,0.1-0.7,0.2-1c0.1-0.3,0.3-0.5,0.6-0.7
	c0.3-0.2,0.5-0.2,0.8-0.2c0.5,0,0.9,0.2,1.1,0.5c0.3,0.3,0.4,0.8,0.4,1.4v0.3h-2.5c0,0.4,0.1,0.7,0.3,0.9c0.2,0.2,0.5,0.3,0.8,0.3
	c0.2,0,0.4,0,0.6-0.1c0.2-0.1,0.3-0.2,0.4-0.4L485.1,934.4L485.1,934.4z M483.7,931.8c-0.3,0-0.5,0.1-0.6,0.3
	c-0.2,0.2-0.3,0.4-0.3,0.8h1.9v0c0-0.3-0.1-0.6-0.3-0.7C484.1,931.9,483.9,931.8,483.7,931.8z"/>
<path class="st1" d="M184.8,272.2c0,0-4.5,0-4.5,4.5v6.1c0,0,0,4.5,4.5,4.5h59.5c0,0,4.5,0,4.5-4.5v-6.1c0,0,0-4.5-4.5-4.5H184.8z"
	/>
<text transform="matrix(1 0 0 1 192.6348 282.2856)" class="st2 st3">Dentist Finder</text>
<path class="st1" d="M369.6,162.6c0,0-4.5,0-4.5,4.5v6.1c0,0,0,4.5,4.5,4.5h59.5c0,0,4.5,0,4.5-4.5v-6.1c0,0,0-4.5-4.5-4.5H369.6z"
	/>
<text transform="matrix(1 0 0 1 381.7026 172.6729)" class="st2 st3">Conclusion</text>
<path class="st1" d="M462,162.6c0,0-4.5,0-4.5,4.5v6.1c0,0,0,4.5,4.5,4.5h59.5c0,0,4.5,0,4.5-4.5v-6.1c0,0,0-4.5-4.5-4.5H462z"/>
<text transform="matrix(1 0 0 1 464.7227 172.6729)" class="st2 st3">Risk Assessment</text>
<path class="st1" d="M462,272.2c0,0-4.5,0-4.5,4.5v6.1c0,0,0,4.5,4.5,4.5h59.5c0,0,4.5,0,4.5-4.5v-6.1c0,0,0-4.5-4.5-4.5H462z"/>
<text transform="matrix(1 0 0 1 477.6465 282.2856)" class="st2 st3">Calendar</text>
<path class="st1" d="M462,188.4c0,0-4.5,0-4.5,4.5v6.1c0,0,0,4.5,4.5,4.5h59.5c0,0,4.5,0,4.5-4.5v-6.1c0,0,0-4.5-4.5-4.5H462z"/>
<text transform="matrix(1 0 0 1 471.1436 198.4229)" class="st2 st3">Find Dentists</text>
<path class="st1" d="M462,296.8c0,0-4.5,0-4.5,4.5v6.1c0,0,0,4.5,4.5,4.5h59.5c0,0,4.5,0,4.5-4.5v-6.1c0,0,0-4.5-4.5-4.5H462z"/>
<text transform="matrix(1 0 0 1 480.8252 306.8706)" class="st2 st3">Details</text>
<path class="st1" d="M553.7,272.2c0,0-4.5,0-4.5,4.5v6.1c0,0,0,4.5,4.5,4.5h59.5c0,0,4.5,0,4.5-4.5v-6.1c0,0,0-4.5-4.5-4.5H553.7z"
	/>
<text transform="matrix(1 0 0 1 574.291 282.2856)"><tspan x="0" y="0" class="st2 st3">V</tspan><tspan x="4.3" y="0" class="st2 st3">erify</tspan></text>
<path class="st1" d="M553.7,323.4c0,0-4.5,0-4.5,4.5v6.1c0,0,0,4.5,4.5,4.5h59.5c0,0,4.5,0,4.5-4.5v-6.1c0,0,0-4.5-4.5-4.5H553.7z"
	/>
<text transform="matrix(1 0 0 1 561.9482 333.4043)" class="st2 st3">Dentist Views</text>
<path class="st1" d="M553.7,351.3c0,0-4.5,0-4.5,4.5v6.1c0,0,0,4.5,4.5,4.5h59.5c0,0,4.5,0,4.5-4.5v-6.1c0,0,0-4.5-4.5-4.5H553.7z"
	/>
<text transform="matrix(1 0 0 1 552.5146 361.3062)"><tspan x="0" y="0" class="st2 st3">P</tspan><tspan x="4.4" y="0" class="st2 st3">r</tspan><tspan x="6.7" y="0" class="st2 st3">opose New Dates</tspan></text>
<path class="st1" d="M553.7,379.2c0,0-4.5,0-4.5,4.5v6.1c0,0,0,4.5,4.5,4.5h59.5c0,0,4.5,0,4.5-4.5v-6.1c0,0,0-4.5-4.5-4.5H553.7z"
	/>
<text transform="matrix(1 0 0 1 572.1855 389.2773)"><tspan x="0" y="0" class="st2 st3">R</tspan><tspan x="4.3" y="0" class="st2 st3">e</tspan><tspan x="8" y="0" class="st2 st3">view</tspan></text>
<path class="st1" d="M553.7,407.3c0,0-4.5,0-4.5,4.5v6.1c0,0,0,4.5,4.5,4.5h59.5c0,0,4.5,0,4.5-4.5v-6.1c0,0,0-4.5-4.5-4.5H553.7z"
	/>
<path d="M567.2,415.7c-0.1,0.5-0.3,0.9-0.6,1.2c-0.3,0.3-0.8,0.4-1.3,0.4c-0.6,0-1.1-0.2-1.4-0.6c-0.4-0.4-0.5-1-0.5-1.7v-0.5
	c0-0.5,0.1-0.9,0.2-1.2c0.2-0.4,0.4-0.6,0.7-0.8c0.3-0.2,0.7-0.3,1.1-0.3c0.5,0,1,0.1,1.3,0.4c0.3,0.3,0.5,0.7,0.6,1.2h-0.7
	c-0.1-0.4-0.2-0.7-0.4-0.9c-0.2-0.2-0.5-0.3-0.8-0.3c-0.4,0-0.7,0.2-1,0.5c-0.2,0.3-0.4,0.8-0.4,1.3v0.5c0,0.5,0.1,1,0.3,1.3
	s0.5,0.5,0.9,0.5c0.4,0,0.6-0.1,0.8-0.2c0.2-0.2,0.3-0.5,0.4-0.9H567.2z M567.9,415.4c0-0.4,0.1-0.7,0.2-1c0.1-0.3,0.3-0.5,0.6-0.7
	c0.3-0.2,0.5-0.2,0.9-0.2c0.5,0,0.9,0.2,1.2,0.5s0.5,0.8,0.5,1.4v0c0,0.4-0.1,0.7-0.2,1c-0.1,0.3-0.3,0.5-0.6,0.7
	c-0.3,0.2-0.6,0.2-0.9,0.2c-0.5,0-0.9-0.2-1.2-0.5S567.9,416.1,567.9,415.4L567.9,415.4z M568.5,415.5c0,0.4,0.1,0.7,0.3,1
	c0.2,0.2,0.4,0.4,0.8,0.4c0.3,0,0.6-0.1,0.8-0.4c0.2-0.3,0.3-0.6,0.3-1.1c0-0.4-0.1-0.7-0.3-1c-0.2-0.3-0.4-0.4-0.8-0.4
	c-0.3,0-0.6,0.1-0.8,0.4C568.6,414.7,568.5,415.1,568.5,415.5z M572.6,413.6l0,0.5c0.3-0.4,0.7-0.5,1.1-0.5c0.8,0,1.2,0.4,1.2,1.3
	v2.4h-0.6v-2.4c0-0.3-0.1-0.5-0.2-0.6c-0.1-0.1-0.3-0.2-0.6-0.2c-0.2,0-0.4,0.1-0.5,0.2c-0.2,0.1-0.3,0.3-0.4,0.4v2.6H572v-3.7
	H572.6z M576.1,417.3v-3.2h-0.6v-0.5h0.6v-0.3c0-0.4,0.1-0.7,0.4-1c0.2-0.2,0.6-0.3,1-0.3c0.3,0,0.6,0.1,1,0.2l-0.1,0.5
	c-0.3-0.1-0.6-0.2-0.8-0.2c-0.3,0-0.5,0.1-0.6,0.2c-0.1,0.1-0.2,0.3-0.2,0.5v0.3h0.8v0.5h-0.8v3.2H576.1z M578.7,417.3h-0.6v-3.7
	h0.6V417.3z M581.5,414.2c-0.1,0-0.2,0-0.3,0c-0.4,0-0.7,0.2-0.8,0.5v2.6h-0.6v-3.7h0.6l0,0.4c0.2-0.3,0.5-0.5,0.9-0.5
	c0.1,0,0.2,0,0.3,0V414.2z M582.7,413.6l0,0.4c0.3-0.3,0.6-0.5,1.1-0.5c0.5,0,0.9,0.2,1.1,0.6c0.1-0.2,0.3-0.3,0.5-0.4
	c0.2-0.1,0.4-0.2,0.7-0.2c0.8,0,1.2,0.4,1.2,1.3v2.5h-0.6v-2.4c0-0.3-0.1-0.5-0.2-0.6c-0.1-0.1-0.3-0.2-0.6-0.2
	c-0.2,0-0.4,0.1-0.6,0.2c-0.2,0.1-0.2,0.3-0.3,0.6v2.5h-0.6v-2.4c0-0.5-0.3-0.8-0.8-0.8c-0.4,0-0.7,0.2-0.9,0.5v2.7h-0.6v-3.7H582.7
	z M590.5,417.3c0-0.1-0.1-0.2-0.1-0.4c-0.3,0.3-0.6,0.5-1.1,0.5c-0.4,0-0.7-0.1-0.9-0.3c-0.2-0.2-0.4-0.5-0.4-0.8
	c0-0.4,0.1-0.7,0.4-0.9c0.3-0.2,0.7-0.3,1.2-0.3h0.6v-0.3c0-0.2-0.1-0.4-0.2-0.5c-0.1-0.1-0.3-0.2-0.6-0.2c-0.2,0-0.4,0.1-0.6,0.2
	c-0.2,0.1-0.2,0.3-0.2,0.4h-0.6c0-0.2,0.1-0.4,0.2-0.5c0.1-0.2,0.3-0.3,0.5-0.4c0.2-0.1,0.5-0.2,0.7-0.2c0.4,0,0.8,0.1,1,0.3
	c0.2,0.2,0.4,0.5,0.4,0.9v1.7c0,0.3,0,0.6,0.1,0.8v0.1H590.5z M589.5,416.8c0.2,0,0.4-0.1,0.6-0.2s0.3-0.2,0.4-0.4v-0.8h-0.5
	c-0.8,0-1.2,0.2-1.2,0.7c0,0.2,0.1,0.4,0.2,0.5C589.1,416.8,589.3,416.8,589.5,416.8z M592.9,412.7v0.9h0.7v0.5h-0.7v2.3
	c0,0.1,0,0.3,0.1,0.3c0.1,0.1,0.2,0.1,0.3,0.1c0.1,0,0.2,0,0.3,0v0.5c-0.2,0-0.3,0.1-0.5,0.1c-0.3,0-0.5-0.1-0.6-0.3
	s-0.2-0.4-0.2-0.7v-2.3h-0.7v-0.5h0.7v-0.9H592.9z M594.3,412.6c0-0.1,0-0.2,0.1-0.3c0.1-0.1,0.2-0.1,0.3-0.1s0.2,0,0.3,0.1
	c0.1,0.1,0.1,0.2,0.1,0.3s0,0.2-0.1,0.3c-0.1,0.1-0.2,0.1-0.3,0.1s-0.2,0-0.3-0.1C594.4,412.8,594.3,412.7,594.3,412.6z M595,417.3
	h-0.6v-3.7h0.6V417.3z M595.9,415.4c0-0.4,0.1-0.7,0.2-1c0.1-0.3,0.3-0.5,0.6-0.7c0.3-0.2,0.5-0.2,0.9-0.2c0.5,0,0.9,0.2,1.2,0.5
	s0.5,0.8,0.5,1.4v0c0,0.4-0.1,0.7-0.2,1c-0.1,0.3-0.3,0.5-0.6,0.7c-0.3,0.2-0.6,0.2-0.9,0.2c-0.5,0-0.9-0.2-1.2-0.5
	S595.9,416.1,595.9,415.4L595.9,415.4z M596.5,415.5c0,0.4,0.1,0.7,0.3,1c0.2,0.2,0.4,0.4,0.8,0.4c0.3,0,0.6-0.1,0.8-0.4
	c0.2-0.3,0.3-0.6,0.3-1.1c0-0.4-0.1-0.7-0.3-1c-0.2-0.3-0.4-0.4-0.8-0.4c-0.3,0-0.6,0.1-0.8,0.4
	C596.6,414.7,596.5,415.1,596.5,415.5z M600.6,413.6l0,0.5c0.3-0.4,0.7-0.5,1.1-0.5c0.8,0,1.2,0.4,1.2,1.3v2.4h-0.6v-2.4
	c0-0.3-0.1-0.5-0.2-0.6c-0.1-0.1-0.3-0.2-0.6-0.2c-0.2,0-0.4,0.1-0.5,0.2c-0.2,0.1-0.3,0.3-0.4,0.4v2.6H600v-3.7H600.6z"/>
<path class="st1" d="M553.7,435.2c0,0-4.5,0-4.5,4.5v6.1c0,0,0,4.5,4.5,4.5h59.5c0,0,4.5,0,4.5-4.5v-6.1c0,0,0-4.5-4.5-4.5H553.7z"
	/>
<text transform="matrix(1 0 0 1 558.4697 441.0322)"><tspan x="0" y="0" class="st2 st3">P</tspan><tspan x="4.4" y="0" class="st2 st3">atient Accept/</tspan></text>
<text transform="matrix(1 0 0 1 564.9326 449.4321)" class="st2 st3">Call Dentist</text>
<path class="st1" d="M636.5,351.5c0,0-4.5,0-4.5,4.5v6.1c0,0,0,4.5,4.5,4.5H696c0,0,4.5,0,4.5-4.5V356c0,0,0-4.5-4.5-4.5H636.5z"/>
<text transform="matrix(1 0 0 1 635.7334 361.5044)"><tspan x="0" y="0" class="st2 st3">Call </tspan><tspan x="13.5" y="0" class="st2 st3">P</tspan><tspan x="17.9" y="0" class="st2 st3">atient Di</tspan><tspan x="43.5" y="0" class="st2 st3">r</tspan><tspan x="45.8" y="0" class="st2 st3">ectly</tspan></text>
<path class="st1" d="M636.5,323.4c0,0-4.5,0-4.5,4.5v6.1c0,0,0,4.5,4.5,4.5H696c0,0,4.5,0,4.5-4.5v-6.1c0,0,0-4.5-4.5-4.5H636.5z"/>
<text transform="matrix(1 0 0 1 643.4121 333.4043)" class="st2 st3">Accepts Dates</text>
<path class="st1" d="M553.7,297.9c0,0-4.5,0-4.5,4.5v6.1c0,0,0,4.5,4.5,4.5h59.5c0,0,4.5,0,4.5-4.5v-6.1c0,0,0-4.5-4.5-4.5H553.7z"
	/>
<path d="M567.2,306.3c-0.1,0.5-0.3,0.9-0.6,1.2c-0.3,0.3-0.8,0.4-1.3,0.4c-0.6,0-1.1-0.2-1.4-0.6c-0.4-0.4-0.5-1-0.5-1.7v-0.5
	c0-0.5,0.1-0.9,0.2-1.2c0.2-0.4,0.4-0.6,0.7-0.8c0.3-0.2,0.7-0.3,1.1-0.3c0.5,0,1,0.1,1.3,0.4c0.3,0.3,0.5,0.7,0.6,1.2h-0.7
	c-0.1-0.4-0.2-0.7-0.4-0.9c-0.2-0.2-0.5-0.3-0.8-0.3c-0.4,0-0.7,0.2-1,0.5c-0.2,0.3-0.4,0.8-0.4,1.3v0.5c0,0.5,0.1,1,0.3,1.3
	s0.5,0.5,0.9,0.5c0.4,0,0.6-0.1,0.8-0.2c0.2-0.2,0.3-0.5,0.4-0.9H567.2z M567.9,306c0-0.4,0.1-0.7,0.2-1c0.1-0.3,0.3-0.5,0.6-0.7
	c0.3-0.2,0.5-0.2,0.9-0.2c0.5,0,0.9,0.2,1.2,0.5s0.5,0.8,0.5,1.4v0c0,0.4-0.1,0.7-0.2,1c-0.1,0.3-0.3,0.5-0.6,0.7
	c-0.3,0.2-0.6,0.2-0.9,0.2c-0.5,0-0.9-0.2-1.2-0.5S567.9,306.7,567.9,306L567.9,306z M568.5,306.1c0,0.4,0.1,0.7,0.3,1
	c0.2,0.2,0.4,0.4,0.8,0.4c0.3,0,0.6-0.1,0.8-0.4c0.2-0.3,0.3-0.6,0.3-1.1c0-0.4-0.1-0.7-0.3-1c-0.2-0.3-0.4-0.4-0.8-0.4
	c-0.3,0-0.6,0.1-0.8,0.4C568.6,305.3,568.5,305.7,568.5,306.1z M572.6,304.2l0,0.5c0.3-0.4,0.7-0.5,1.1-0.5c0.8,0,1.2,0.4,1.2,1.3
	v2.4h-0.6v-2.4c0-0.3-0.1-0.5-0.2-0.6c-0.1-0.1-0.3-0.2-0.6-0.2c-0.2,0-0.4,0.1-0.5,0.2c-0.2,0.1-0.3,0.3-0.4,0.4v2.6H572v-3.7
	H572.6z M576.1,307.9v-3.2h-0.6v-0.5h0.6v-0.3c0-0.4,0.1-0.7,0.4-1c0.2-0.2,0.6-0.3,1-0.3c0.3,0,0.6,0.1,1,0.2l-0.1,0.5
	c-0.3-0.1-0.6-0.2-0.8-0.2c-0.3,0-0.5,0.1-0.6,0.2c-0.1,0.1-0.2,0.3-0.2,0.5v0.3h0.8v0.5h-0.8v3.2H576.1z M578.7,307.9h-0.6v-3.7
	h0.6V307.9z M581.5,304.8c-0.1,0-0.2,0-0.3,0c-0.4,0-0.7,0.2-0.8,0.5v2.6h-0.6v-3.7h0.6l0,0.4c0.2-0.3,0.5-0.5,0.9-0.5
	c0.1,0,0.2,0,0.3,0V304.8z M582.7,304.2l0,0.4c0.3-0.3,0.6-0.5,1.1-0.5c0.5,0,0.9,0.2,1.1,0.6c0.1-0.2,0.3-0.3,0.5-0.4
	c0.2-0.1,0.4-0.2,0.7-0.2c0.8,0,1.2,0.4,1.2,1.3v2.5h-0.6v-2.4c0-0.3-0.1-0.5-0.2-0.6c-0.1-0.1-0.3-0.2-0.6-0.2
	c-0.2,0-0.4,0.1-0.6,0.2c-0.2,0.1-0.2,0.3-0.3,0.6v2.5h-0.6v-2.4c0-0.5-0.3-0.8-0.8-0.8c-0.4,0-0.7,0.2-0.9,0.5v2.7h-0.6v-3.7H582.7
	z M590.5,307.9c0-0.1-0.1-0.2-0.1-0.4c-0.3,0.3-0.6,0.5-1.1,0.5c-0.4,0-0.7-0.1-0.9-0.3c-0.2-0.2-0.4-0.5-0.4-0.8
	c0-0.4,0.1-0.7,0.4-0.9c0.3-0.2,0.7-0.3,1.2-0.3h0.6v-0.3c0-0.2-0.1-0.4-0.2-0.5c-0.1-0.1-0.3-0.2-0.6-0.2c-0.2,0-0.4,0.1-0.6,0.2
	c-0.2,0.1-0.2,0.3-0.2,0.4h-0.6c0-0.2,0.1-0.4,0.2-0.5c0.1-0.2,0.3-0.3,0.5-0.4c0.2-0.1,0.5-0.2,0.7-0.2c0.4,0,0.8,0.1,1,0.3
	c0.2,0.2,0.4,0.5,0.4,0.9v1.7c0,0.3,0,0.6,0.1,0.8v0.1H590.5z M589.5,307.4c0.2,0,0.4-0.1,0.6-0.2s0.3-0.2,0.4-0.4v-0.8h-0.5
	c-0.8,0-1.2,0.2-1.2,0.7c0,0.2,0.1,0.4,0.2,0.5C589.1,307.4,589.3,307.4,589.5,307.4z M592.9,303.3v0.9h0.7v0.5h-0.7v2.3
	c0,0.1,0,0.3,0.1,0.3c0.1,0.1,0.2,0.1,0.3,0.1c0.1,0,0.2,0,0.3,0v0.5c-0.2,0-0.3,0.1-0.5,0.1c-0.3,0-0.5-0.1-0.6-0.3
	s-0.2-0.4-0.2-0.7v-2.3h-0.7v-0.5h0.7v-0.9H592.9z M594.3,303.2c0-0.1,0-0.2,0.1-0.3c0.1-0.1,0.2-0.1,0.3-0.1s0.2,0,0.3,0.1
	c0.1,0.1,0.1,0.2,0.1,0.3s0,0.2-0.1,0.3c-0.1,0.1-0.2,0.1-0.3,0.1s-0.2,0-0.3-0.1C594.4,303.4,594.3,303.3,594.3,303.2z M595,307.9
	h-0.6v-3.7h0.6V307.9z M595.9,306c0-0.4,0.1-0.7,0.2-1c0.1-0.3,0.3-0.5,0.6-0.7c0.3-0.2,0.5-0.2,0.9-0.2c0.5,0,0.9,0.2,1.2,0.5
	s0.5,0.8,0.5,1.4v0c0,0.4-0.1,0.7-0.2,1c-0.1,0.3-0.3,0.5-0.6,0.7c-0.3,0.2-0.6,0.2-0.9,0.2c-0.5,0-0.9-0.2-1.2-0.5
	S595.9,306.7,595.9,306L595.9,306z M596.5,306.1c0,0.4,0.1,0.7,0.3,1c0.2,0.2,0.4,0.4,0.8,0.4c0.3,0,0.6-0.1,0.8-0.4
	c0.2-0.3,0.3-0.6,0.3-1.1c0-0.4-0.1-0.7-0.3-1c-0.2-0.3-0.4-0.4-0.8-0.4c-0.3,0-0.6,0.1-0.8,0.4
	C596.6,305.3,596.5,305.7,596.5,306.1z M600.6,304.2l0,0.5c0.3-0.4,0.7-0.5,1.1-0.5c0.8,0,1.2,0.4,1.2,1.3v2.4h-0.6v-2.4
	c0-0.3-0.1-0.5-0.2-0.6c-0.1-0.1-0.3-0.2-0.6-0.2c-0.2,0-0.4,0.1-0.5,0.2c-0.2,0.1-0.3,0.3-0.4,0.4v2.6H600v-3.7H600.6z"/>
<path class="st1" d="M462,214.3c0,0-4.5,0-4.5,4.5v6.1c0,0,0,4.5,4.5,4.5h59.5c0,0,4.5,0,4.5-4.5v-6.1c0,0,0-4.5-4.5-4.5H462z"/>
<text transform="matrix(1 0 0 1 470.626 224.2979)" class="st2 st3">Ask A Dentist</text>
<path class="st1" d="M369.6,272.2c0,0-4.5,0-4.5,4.5v6.1c0,0,0,4.5,4.5,4.5h59.5c0,0,4.5,0,4.5-4.5v-6.1c0,0,0-4.5-4.5-4.5H369.6z"
	/>
<text transform="matrix(1 0 0 1 391.1548 282.2856)" class="st2 st3">Book</text>
<path class="st1" d="M277.2,353.4c0,0-4.5,0-4.5,4.5v6.1c0,0,0,4.5,4.5,4.5h59.5c0,0,4.5,0,4.5-4.5v-6.1c0,0,0-4.5-4.5-4.5H277.2z"
	/>
<text transform="matrix(1 0 0 1 286.0322 363.4819)" class="st2 st3">Ask Question</text>
<path class="st1" d="M277.2,378.9c0,0-4.5,0-4.5,4.5v6.1c0,0,0,4.5,4.5,4.5h59.5c0,0,4.5,0,4.5-4.5v-6.1c0,0,0-4.5-4.5-4.5H277.2z"
	/>
<text transform="matrix(1 0 0 1 280.6387 388.9819)"><tspan x="0" y="0" class="st2 st3">Sent Off/A</tspan><tspan x="32.9" y="0" class="st2 st3">r</tspan><tspan x="35.4" y="0" class="st2 st3">ticles</tspan></text>
<path class="st1" d="M277.2,405.2c0,0-4.5,0-4.5,4.5v6.1c0,0,0,4.5,4.5,4.5h59.5c0,0,4.5,0,4.5-4.5v-6.1c0,0,0-4.5-4.5-4.5H277.2z"
	/>
<text transform="matrix(1 0 0 1 282.2896 415.2319)"><tspan x="0" y="0" class="st2 st3">Selected A</tspan><tspan x="33.2" y="0" class="st2 st3">r</tspan><tspan x="35.7" y="0" class="st2 st3">ticle</tspan></text>
<path class="st1" d="M184.8,352.7c0,0-4.5,0-4.5,4.5v6.1c0,0,0,4.5,4.5,4.5h59.5c0,0,4.5,0,4.5-4.5v-6.1c0,0,0-4.5-4.5-4.5H184.8z"
	/>
<text transform="matrix(1 0 0 1 193.73 362.7319)" class="st2 st3">Ask a Dentist</text>
<line class="st4" x1="160.5" y1="978.2" x2="175.5" y2="978.2"/>
<polygon class="st5" points="180.2,978.2 175.6,979.9 175.6,976.5 "/>
<line class="st4" x1="175.5" y1="170.4" x2="160.5" y2="170.4"/>
<polygon class="st5" points="180.2,170.4 175.6,168.7 175.6,172.1 "/>
<polyline class="st4" points="175.5,23.9 160.5,23.9 160.5,978.2 "/>
<polygon class="st5" points="180.2,23.9 175.6,22.2 175.6,25.6 "/>
<polyline class="st4" points="250,21.6 260,21.6 260,81.5 263.5,81.5 "/>
<polygon class="st5" points="268.3,81.5 263.6,83.2 263.6,79.8 "/>
<polyline class="st4" points="360.4,280 353.4,280 353.4,300.8 341.2,300.8 "/>
<polygon class="st5" points="365.1,280 360.4,278.3 360.4,281.7 "/>
<polyline class="st4" points="450.2,306.2 446.3,306.2 446.3,280 434.1,280 "/>
<polygon class="st5" points="454.9,306.2 450.2,307.9 450.2,304.5 "/>
<polyline class="st4" points="625.5,357.8 623.6,357.8 623.6,331.6 617.7,331.6 "/>
<polygon class="st5" points="630.2,357.8 625.6,359.5 625.6,356.1 "/>
<polyline class="st4" points="542.1,280.2 536.4,280.2 536.4,305.4 526,305.4 "/>
<polygon class="st5" points="546.8,280.2 542.2,278.5 542.2,281.9 "/>
<line class="st4" x1="353.4" y1="280" x2="341.2" y2="280"/>
<polyline class="st4" points="450.7,195.7 445.8,195.7 445.8,169.4 433.6,169.4 "/>
<polygon class="st5" points="455.5,195.7 450.8,197.4 450.8,194 "/>
<polyline class="st4" points="450.2,221.6 445.8,221.6 445.8,169.4 433.6,169.4 "/>
<polygon class="st5" points="454.9,221.6 450.3,223.3 450.3,219.9 "/>
<line class="st4" x1="175.5" y1="937.7" x2="160.5" y2="937.7"/>
<polygon class="st5" points="180.2,937.7 175.6,939.4 175.6,936 "/>
<line class="st4" x1="175.5" y1="858.4" x2="160.5" y2="858.4"/>
<polygon class="st5" points="180.2,858.4 175.6,860.1 175.6,856.7 "/>
<line class="st4" x1="175.5" y1="361.2" x2="160.5" y2="361.2"/>
<polygon class="st5" points="180.2,361.2 175.6,359.5 175.6,362.9 "/>
<line class="st4" x1="338.4" y1="21.2" x2="343.5" y2="21.2"/>
<polygon class="st5" points="347.6,21.2 341.9,23.3 341.9,19.1 "/>
<line class="st4" x1="495.4" y1="21.2" x2="500.5" y2="21.2"/>
<polygon class="st5" points="504.6,21.2 498.9,23.3 498.9,19.1 "/>
<line class="st4" x1="416.9" y1="21.2" x2="422" y2="21.2"/>
<polygon class="st5" points="426.1,21.2 420.4,23.3 420.4,19.1 "/>
<line class="st4" x1="216.9" y1="29" x2="216.9" y2="33.6"/>
<polygon class="st5" points="216.9,38.4 218.6,33.7 215.2,33.7 "/>
<line class="st4" x1="216.9" y1="59.8" x2="216.9" y2="64.4"/>
<polygon class="st5" points="216.9,69.1 218.6,64.5 215.2,64.5 "/>
<line class="st4" x1="216.9" y1="88.1" x2="216.9" y2="92.7"/>
<polygon class="st5" points="216.9,97.4 218.6,92.8 215.2,92.8 "/>
<line class="st4" x1="573.9" y1="21.4" x2="579" y2="21.4"/>
<polygon class="st5" points="583.1,21.4 577.4,23.5 577.4,19.3 "/>
<line class="st4" x1="652.4" y1="21.4" x2="657.6" y2="21.4"/>
<polygon class="st5" points="661.6,21.4 656,23.5 656,19.4 "/>
<line class="st4" x1="338.4" y1="80.1" x2="343.5" y2="80.1"/>
<polygon class="st5" points="347.6,80.1 341.9,78 341.9,82.2 "/>
<line class="st4" x1="416.7" y1="80.6" x2="421.8" y2="80.6"/>
<polygon class="st5" points="425.9,80.6 420.2,78.5 420.2,82.7 "/>
<line class="st4" x1="491.8" y1="287.3" x2="491.8" y2="291"/>
<polygon class="st5" points="491.8,295.8 493.5,291.1 490.1,291.1 "/>
<line class="st4" x1="434.1" y1="279.7" x2="451" y2="279.7"/>
<polygon class="st5" points="455.7,279.7 451,278 451,281.4 "/>
<line class="st4" x1="617.7" y1="331.3" x2="626" y2="331.3"/>
<polygon class="st5" points="630.7,331.3 626,329.6 626,333 "/>
<line class="st4" x1="307.2" y1="291.4" x2="307.2" y2="286.9"/>
<polygon class="st5" points="307.2,296.1 305.5,291.5 308.9,291.5 "/>
<line class="st4" x1="307.2" y1="368.3" x2="307.2" y2="372.8"/>
<polygon class="st5" points="307.2,377.5 308.9,372.9 305.5,372.9 "/>
<line class="st4" x1="307.2" y1="393.9" x2="307.2" y2="398.5"/>
<polygon class="st5" points="307.2,403.2 308.9,398.5 305.5,398.5 "/>
<line class="st4" x1="583.5" y1="287.3" x2="583.5" y2="291.9"/>
<polygon class="st5" points="583.5,296.6 585.2,291.9 581.8,291.9 "/>
<line class="st4" x1="583.5" y1="312.3" x2="583.5" y2="316.8"/>
<polygon class="st5" points="583.5,321.6 585.2,316.9 581.8,316.9 "/>
<line class="st4" x1="583.5" y1="338" x2="583.5" y2="342.5"/>
<polygon class="st5" points="583.5,347.2 585.2,342.5 581.8,342.5 "/>
<line class="st4" x1="583.5" y1="366.8" x2="583.5" y2="371.3"/>
<polygon class="st5" points="583.5,376 585.2,371.4 581.8,371.4 "/>
<line class="st4" x1="583.5" y1="394.8" x2="583.5" y2="399.4"/>
<polygon class="st5" points="583.5,404.1 585.2,399.4 581.8,399.4 "/>
<line class="st4" x1="583.5" y1="422.7" x2="583.5" y2="427.3"/>
<polygon class="st5" points="583.5,432 585.2,427.3 581.8,427.3 "/>
<line class="st4" x1="175.5" y1="280" x2="160.5" y2="280"/>
<polygon class="st5" points="180.2,280 175.6,278.3 175.6,281.7 "/>
<line class="st4" x1="266.3" y1="169.4" x2="248.7" y2="169.4"/>
<polygon class="st5" points="271.1,169.4 266.4,171.1 266.4,167.7 "/>
<line class="st4" x1="248.8" y1="360.7" x2="267.9" y2="360.7"/>
<polygon class="st5" points="272.7,360.7 268,359 268,362.4 "/>
<line class="st4" x1="341.2" y1="169.9" x2="360.4" y2="169.9"/>
<polygon class="st5" points="365.1,169.9 360.4,168.2 360.4,171.6 "/>
<line class="st4" x1="266.3" y1="280" x2="248.7" y2="280"/>
<polygon class="st5" points="271.1,280 266.4,281.7 266.4,278.3 "/>
<line class="st4" x1="433.6" y1="169.4" x2="451" y2="169.4"/>
<polygon class="st5" points="455.7,169.4 451,167.7 451,171.1 "/>
<path class="st1" d="M277.2,272.2c0,0-4.5,0-4.5,4.5v6.1c0,0,0,4.5,4.5,4.5h59.5c0,0,4.5,0,4.5-4.5v-6.1c0,0,0-4.5-4.5-4.5H277.2z"
	/>
<text transform="matrix(1 0 0 1 283.4736 282.2856)" class="st2 st3">Listed Dentists</text>
<line class="st4" x1="175.5" y1="474.9" x2="160.5" y2="474.9"/>
<polygon class="st5" points="180.2,474.9 175.6,476.6 175.6,473.2 "/>
<path class="st1" d="M272.3,506c0,0-4.5,0-4.5,4.5v6.1c0,0,0,4.5,4.5,4.5h65.3c0,0,4.5,0,4.5-4.5v-6.1c0,0,0-4.5-4.5-4.5H272.3z"/>
<path d="M274.9,516v-5h1.6c0.5,0,0.9,0.1,1.2,0.3c0.3,0.2,0.4,0.6,0.4,1c0,0.2-0.1,0.4-0.2,0.6c-0.1,0.2-0.3,0.3-0.5,0.4
	c0.3,0.1,0.5,0.2,0.6,0.4c0.2,0.2,0.2,0.5,0.2,0.8c0,0.4-0.1,0.8-0.4,1.1c-0.3,0.3-0.7,0.4-1.2,0.4H274.9z M275.6,513.1h1
	c0.3,0,0.5-0.1,0.7-0.2c0.2-0.1,0.3-0.3,0.3-0.6c0-0.3-0.1-0.5-0.2-0.6c-0.2-0.1-0.4-0.2-0.7-0.2h-1V513.1z M275.6,513.7v1.8h1.1
	c0.3,0,0.5-0.1,0.7-0.2c0.2-0.2,0.3-0.4,0.3-0.7c0-0.6-0.3-0.9-1-0.9H275.6z M282.1,515.4c-0.3,0.5-0.8,0.7-1.4,0.7
	c-0.5,0-0.9-0.2-1.2-0.5c-0.3-0.3-0.5-0.8-0.5-1.3v-0.1c0-0.4,0.1-0.7,0.2-1c0.1-0.3,0.3-0.5,0.6-0.7c0.3-0.2,0.5-0.2,0.8-0.2
	c0.5,0,0.9,0.2,1.1,0.5c0.3,0.3,0.4,0.8,0.4,1.4v0.3h-2.5c0,0.4,0.1,0.7,0.3,0.9c0.2,0.2,0.5,0.3,0.8,0.3c0.2,0,0.4,0,0.6-0.1
	c0.2-0.1,0.3-0.2,0.4-0.4L282.1,515.4L282.1,515.4z M280.6,512.8c-0.3,0-0.5,0.1-0.6,0.3c-0.2,0.2-0.3,0.4-0.3,0.8h1.9v0
	c0-0.3-0.1-0.6-0.3-0.7C281.1,512.8,280.9,512.8,280.6,512.8z M283.5,512.3l0,0.5c0.3-0.4,0.7-0.5,1.1-0.5c0.8,0,1.2,0.4,1.2,1.3
	v2.4h-0.6v-2.4c0-0.3-0.1-0.5-0.2-0.6c-0.1-0.1-0.3-0.2-0.6-0.2c-0.2,0-0.4,0.1-0.5,0.2c-0.2,0.1-0.3,0.3-0.4,0.4v2.6h-0.6v-3.7
	H283.5z M289.7,515.4c-0.3,0.5-0.8,0.7-1.4,0.7c-0.5,0-0.9-0.2-1.2-0.5c-0.3-0.3-0.5-0.8-0.5-1.3v-0.1c0-0.4,0.1-0.7,0.2-1
	c0.1-0.3,0.3-0.5,0.6-0.7c0.3-0.2,0.5-0.2,0.8-0.2c0.5,0,0.9,0.2,1.1,0.5c0.3,0.3,0.4,0.8,0.4,1.4v0.3h-2.5c0,0.4,0.1,0.7,0.3,0.9
	c0.2,0.2,0.5,0.3,0.8,0.3c0.2,0,0.4,0,0.6-0.1c0.2-0.1,0.3-0.2,0.4-0.4L289.7,515.4L289.7,515.4z M288.2,512.8
	c-0.3,0-0.5,0.1-0.6,0.3c-0.2,0.2-0.3,0.4-0.3,0.8h1.9v0c0-0.3-0.1-0.6-0.3-0.7C288.7,512.8,288.5,512.8,288.2,512.8z M290.7,516
	v-3.2h-0.6v-0.5h0.6V512c0-0.4,0.1-0.7,0.4-1c0.2-0.2,0.6-0.3,1-0.3c0.3,0,0.6,0.1,1,0.2l-0.1,0.5c-0.3-0.1-0.6-0.2-0.8-0.2
	c-0.3,0-0.5,0.1-0.6,0.2c-0.1,0.1-0.2,0.3-0.2,0.5v0.3h0.8v0.5h-0.8v3.2H290.7z M293.3,516h-0.6v-3.7h0.6V516z M295.2,511.4v0.9h0.7
	v0.5h-0.7v2.3c0,0.1,0,0.3,0.1,0.3c0.1,0.1,0.2,0.1,0.3,0.1c0.1,0,0.2,0,0.3,0v0.5c-0.2,0-0.3,0.1-0.5,0.1c-0.3,0-0.5-0.1-0.6-0.3
	s-0.2-0.4-0.2-0.7v-2.3h-0.7v-0.5h0.7v-0.9H295.2z M298.8,515c0-0.2-0.1-0.3-0.2-0.4c-0.1-0.1-0.4-0.2-0.7-0.2
	c-0.3-0.1-0.6-0.2-0.8-0.2s-0.3-0.2-0.4-0.3c-0.1-0.1-0.1-0.3-0.1-0.5c0-0.3,0.1-0.6,0.4-0.8c0.3-0.2,0.6-0.3,1-0.3
	c0.4,0,0.8,0.1,1,0.3c0.3,0.2,0.4,0.5,0.4,0.8h-0.6c0-0.2-0.1-0.3-0.2-0.4c-0.1-0.1-0.3-0.2-0.6-0.2c-0.2,0-0.4,0.1-0.5,0.2
	c-0.1,0.1-0.2,0.2-0.2,0.4c0,0.2,0.1,0.3,0.2,0.3c0.1,0.1,0.3,0.2,0.7,0.2c0.3,0.1,0.6,0.2,0.8,0.3c0.2,0.1,0.3,0.2,0.4,0.4
	c0.1,0.1,0.1,0.3,0.1,0.5c0,0.3-0.1,0.6-0.4,0.8c-0.3,0.2-0.6,0.3-1,0.3c-0.3,0-0.6-0.1-0.8-0.2c-0.2-0.1-0.4-0.3-0.5-0.4
	c-0.1-0.2-0.2-0.4-0.2-0.6h0.6c0,0.2,0.1,0.4,0.3,0.5c0.2,0.1,0.4,0.2,0.6,0.2c0.2,0,0.4,0,0.6-0.1
	C298.7,515.3,298.8,515.2,298.8,515z M302.1,516v-5h1.4c0.4,0,0.8,0.1,1.1,0.3c0.3,0.2,0.6,0.5,0.8,0.8c0.2,0.4,0.3,0.8,0.3,1.2v0.3
	c0,0.5-0.1,0.9-0.3,1.2c-0.2,0.4-0.4,0.6-0.8,0.8c-0.3,0.2-0.7,0.3-1.2,0.3H302.1z M302.7,511.6v3.9h0.7c0.5,0,0.9-0.2,1.2-0.5
	c0.3-0.3,0.4-0.8,0.4-1.3v-0.3c0-0.6-0.1-1-0.4-1.3c-0.3-0.3-0.6-0.5-1.1-0.5H302.7z M308.8,516c0-0.1-0.1-0.2-0.1-0.4
	c-0.3,0.3-0.6,0.5-1.1,0.5c-0.4,0-0.7-0.1-0.9-0.3c-0.2-0.2-0.4-0.5-0.4-0.8c0-0.4,0.1-0.7,0.4-0.9c0.3-0.2,0.7-0.3,1.2-0.3h0.6
	v-0.3c0-0.2-0.1-0.4-0.2-0.5c-0.1-0.1-0.3-0.2-0.6-0.2c-0.2,0-0.4,0.1-0.6,0.2c-0.2,0.1-0.2,0.3-0.2,0.4h-0.6c0-0.2,0.1-0.4,0.2-0.5
	c0.1-0.2,0.3-0.3,0.5-0.4c0.2-0.1,0.5-0.2,0.7-0.2c0.4,0,0.8,0.1,1,0.3c0.2,0.2,0.4,0.5,0.4,0.9v1.7c0,0.3,0,0.6,0.1,0.8v0.1H308.8z
	 M307.8,515.5c0.2,0,0.4-0.1,0.6-0.2s0.3-0.2,0.4-0.4v-0.8h-0.5c-0.8,0-1.2,0.2-1.2,0.7c0,0.2,0.1,0.4,0.2,0.5
	C307.4,515.5,307.6,515.5,307.8,515.5z M312.5,515c0-0.2-0.1-0.3-0.2-0.4c-0.1-0.1-0.4-0.2-0.7-0.2c-0.3-0.1-0.6-0.2-0.8-0.2
	s-0.3-0.2-0.4-0.3c-0.1-0.1-0.1-0.3-0.1-0.5c0-0.3,0.1-0.6,0.4-0.8c0.3-0.2,0.6-0.3,1-0.3c0.4,0,0.8,0.1,1,0.3
	c0.3,0.2,0.4,0.5,0.4,0.8h-0.6c0-0.2-0.1-0.3-0.2-0.4c-0.1-0.1-0.3-0.2-0.6-0.2c-0.2,0-0.4,0.1-0.5,0.2c-0.1,0.1-0.2,0.2-0.2,0.4
	c0,0.2,0.1,0.3,0.2,0.3c0.1,0.1,0.3,0.2,0.7,0.2c0.3,0.1,0.6,0.2,0.8,0.3c0.2,0.1,0.3,0.2,0.4,0.4c0.1,0.1,0.1,0.3,0.1,0.5
	c0,0.3-0.1,0.6-0.4,0.8c-0.3,0.2-0.6,0.3-1,0.3c-0.3,0-0.6-0.1-0.8-0.2c-0.2-0.1-0.4-0.3-0.5-0.4c-0.1-0.2-0.2-0.4-0.2-0.6h0.6
	c0,0.2,0.1,0.4,0.3,0.5c0.2,0.1,0.4,0.2,0.6,0.2c0.2,0,0.4,0,0.6-0.1C312.4,515.3,312.5,515.2,312.5,515z M314.6,512.8
	c0.3-0.3,0.6-0.5,1.1-0.5c0.8,0,1.2,0.4,1.2,1.3v2.4h-0.6v-2.4c0-0.3-0.1-0.5-0.2-0.6c-0.1-0.1-0.3-0.2-0.6-0.2
	c-0.2,0-0.4,0.1-0.5,0.2c-0.2,0.1-0.3,0.3-0.4,0.4v2.6H314v-5.2h0.6V512.8z M321,514.2c0,0.6-0.1,1-0.4,1.4c-0.3,0.3-0.6,0.5-1,0.5
	c-0.5,0-0.8-0.2-1.1-0.5l0,0.4h-0.6v-5.2h0.6v2c0.3-0.3,0.6-0.5,1.1-0.5c0.4,0,0.8,0.2,1.1,0.5C320.8,513.1,321,513.5,321,514.2
	L321,514.2z M320.3,514.1c0-0.4-0.1-0.8-0.2-1c-0.2-0.2-0.4-0.4-0.7-0.4c-0.4,0-0.7,0.2-0.9,0.6v1.6c0.2,0.4,0.5,0.6,0.9,0.6
	c0.3,0,0.5-0.1,0.7-0.4C320.2,514.9,320.3,514.6,320.3,514.1z M321.6,514.1c0-0.4,0.1-0.7,0.2-1c0.1-0.3,0.3-0.5,0.6-0.7
	c0.3-0.2,0.5-0.2,0.9-0.2c0.5,0,0.9,0.2,1.2,0.5s0.5,0.8,0.5,1.4v0c0,0.4-0.1,0.7-0.2,1c-0.1,0.3-0.3,0.5-0.6,0.7
	c-0.3,0.2-0.6,0.2-0.9,0.2c-0.5,0-0.9-0.2-1.2-0.5S321.6,514.7,321.6,514.1L321.6,514.1z M322.2,514.2c0,0.4,0.1,0.7,0.3,1
	c0.2,0.2,0.4,0.4,0.8,0.4c0.3,0,0.6-0.1,0.8-0.4c0.2-0.3,0.3-0.6,0.3-1.1c0-0.4-0.1-0.7-0.3-1c-0.2-0.3-0.4-0.4-0.8-0.4
	c-0.3,0-0.6,0.1-0.8,0.4C322.3,513.4,322.2,513.7,322.2,514.2z M328,516c0-0.1-0.1-0.2-0.1-0.4c-0.3,0.3-0.6,0.5-1.1,0.5
	c-0.4,0-0.7-0.1-0.9-0.3c-0.2-0.2-0.4-0.5-0.4-0.8c0-0.4,0.1-0.7,0.4-0.9c0.3-0.2,0.7-0.3,1.2-0.3h0.6v-0.3c0-0.2-0.1-0.4-0.2-0.5
	c-0.1-0.1-0.3-0.2-0.6-0.2c-0.2,0-0.4,0.1-0.6,0.2c-0.2,0.1-0.2,0.3-0.2,0.4h-0.6c0-0.2,0.1-0.4,0.2-0.5c0.1-0.2,0.3-0.3,0.5-0.4
	c0.2-0.1,0.5-0.2,0.7-0.2c0.4,0,0.8,0.1,1,0.3c0.2,0.2,0.4,0.5,0.4,0.9v1.7c0,0.3,0,0.6,0.1,0.8v0.1H328z M327,515.5
	c0.2,0,0.4-0.1,0.6-0.2s0.3-0.2,0.4-0.4v-0.8h-0.5c-0.8,0-1.2,0.2-1.2,0.7c0,0.2,0.1,0.4,0.2,0.5C326.6,515.5,326.8,515.5,327,515.5
	z M331.3,512.9c-0.1,0-0.2,0-0.3,0c-0.4,0-0.7,0.2-0.8,0.5v2.6h-0.6v-3.7h0.6l0,0.4c0.2-0.3,0.5-0.5,0.9-0.5c0.1,0,0.2,0,0.3,0
	V512.9z M331.7,514.1c0-0.6,0.1-1,0.4-1.4c0.3-0.3,0.6-0.5,1.1-0.5c0.4,0,0.8,0.1,1,0.4v-1.9h0.6v5.2h-0.6l0-0.4
	c-0.3,0.3-0.6,0.5-1.1,0.5c-0.4,0-0.8-0.2-1-0.5C331.8,515.2,331.7,514.7,331.7,514.1L331.7,514.1z M332.3,514.2
	c0,0.4,0.1,0.7,0.3,1c0.2,0.2,0.4,0.4,0.7,0.4c0.4,0,0.7-0.2,0.9-0.5v-1.7c-0.2-0.3-0.5-0.5-0.9-0.5c-0.3,0-0.6,0.1-0.7,0.4
	C332.4,513.4,332.3,513.7,332.3,514.2z"/>
<path class="st1" d="M184.8,466.9c0,0-4.5,0-4.5,4.5v6.1c0,0,0,4.5,4.5,4.5h59.5c0,0,4.5,0,4.5-4.5v-6.1c0,0,0-4.5-4.5-4.5H184.8z"
	/>
<text transform="matrix(1 0 0 1 195.7246 476.978)" class="st2 st3">My Account</text>
<path class="st1" d="M356.6,506c0,0-4.5,0-4.5,4.5v6.1c0,0,0,4.5,4.5,4.5h59.5c0,0,4.5,0,4.5-4.5v-6.1c0,0,0-4.5-4.5-4.5H356.6z"/>
<text transform="matrix(1 0 0 1 360.4365 516.0029)"><tspan x="0" y="0" class="st2 st3">O</tspan><tspan x="4.8" y="0" class="st2 st3">r</tspan><tspan x="7" y="0" class="st2 st3">al Health P</tspan><tspan x="40.8" y="0" class="st2 st3">r</tspan><tspan x="43.1" y="0" class="st2 st3">of.</tspan></text>
<path class="st1" d="M435.1,506c0,0-4.5,0-4.5,4.5v6.1c0,0,0,4.5,4.5,4.5h59.5c0,0,4.5,0,4.5-4.5v-6.1c0,0,0-4.5-4.5-4.5H435.1z"/>
<text transform="matrix(1 0 0 1 437.8066 516.0029)" class="st2 st3">Risk Assessment</text>
<path class="st1" d="M513.6,506c0,0-4.5,0-4.5,4.5v6.1c0,0,0,4.5,4.5,4.5h59.5c0,0,4.5,0,4.5-4.5v-6.1c0,0,0-4.5-4.5-4.5H513.6z"/>
<text transform="matrix(1 0 0 1 524.5322 516.0029)" class="st2 st3">Find Dentist</text>
<path class="st1" d="M592.1,506c0,0-4.5,0-4.5,4.5v6.1c0,0,0,4.5,4.5,4.5h59.5c0,0,4.5,0,4.5-4.5v-6.1c0,0,0-4.5-4.5-4.5H592.1z"/>
<text transform="matrix(1 0 0 1 599.1611 516.0029)" class="st2 st3">Ask Questions</text>
<path class="st1" d="M670.6,506c0,0-4.5,0-4.5,4.5v6.1c0,0,0,4.5,4.5,4.5h59.5c0,0,4.5,0,4.5-4.5v-6.1c0,0,0-4.5-4.5-4.5H670.6z"/>
<text transform="matrix(1 0 0 1 676.1846 516.0029)"><tspan x="0" y="0" class="st2 st3">Cost Calcula</tspan><tspan x="39.3" y="0" class="st2 st3">t</tspan><tspan x="41.5" y="0" class="st2 st3">or</tspan></text>
<line class="st4" x1="386.5" y1="493.8" x2="386.5" y2="501.2"/>
<polygon class="st5" points="386.5,506 388.2,501.3 384.8,501.3 "/>
<polyline class="st4" points="248.8,473.7 304.6,473.7 304.6,499.1 "/>
<polygon class="st5" points="304.6,503.8 306.3,499.1 302.9,499.1 "/>
<line class="st4" x1="464.1" y1="493.8" x2="464.1" y2="501.2"/>
<polygon class="st5" points="464.1,506 465.8,501.3 462.4,501.3 "/>
<line class="st4" x1="543.4" y1="493.8" x2="543.4" y2="501.2"/>
<polygon class="st5" points="543.4,506 545.1,501.3 541.7,501.3 "/>
<line class="st4" x1="621.5" y1="493.8" x2="621.5" y2="501.2"/>
<polygon class="st5" points="621.5,506 623.2,501.3 619.8,501.3 "/>
<line class="st4" x1="697.9" y1="493.8" x2="697.9" y2="501.2"/>
<polygon class="st5" points="697.9,506 699.6,501.3 696.2,501.3 "/>
<line class="st4" x1="250" y1="21.6" x2="263.5" y2="21.6"/>
<polygon class="st5" points="268.3,21.6 263.6,23.3 263.6,19.9 "/>
<path class="st6" d="M617.2,411.3 M620.2,410.3l-0.7-1.2l-2,1.5l0.3-2.6h-1.3l0.3,2.6l-2-1.5l-0.7,1.2l2.3,1l-2.3,1l0.7,1.2l2-1.5
	l-0.3,2.6h1.3l-0.3-2.6l2,1.5l0.7-1.2l-2.3-1L620.2,410.3z"/>
<text transform="matrix(1 0 0 1 622.1885 413.3872)" class="st7 st2 st3">Dentist can</text>
<text transform="matrix(1 0 0 1 622.1885 421.7871)"><tspan x="0" y="0" class="st7 st2 st3">alw</tspan><tspan x="10.8" y="0" class="st7 st2 st3">a</tspan><tspan x="14.5" y="0" class="st7 st2 st3">ys cancel</tspan></text>
<text transform="matrix(1 0 0 1 644.2158 309.7783)" class="st7 st2 st3">Dentist can</text>
<text transform="matrix(1 0 0 1 644.2158 318.1787)"><tspan x="0" y="0" class="st7 st2 st3">alw</tspan><tspan x="10.8" y="0" class="st7 st2 st3">a</tspan><tspan x="14.5" y="0" class="st7 st2 st3">ys cancel</tspan></text>
<text transform="matrix(1 0 0 1 700.4922 339.186)" class="st7 st2 st3">email (2x)</text>
<text transform="matrix(1 0 0 1 548.7012 347.3525)" class="st7 st2 st3">email (2x)</text>
<text transform="matrix(1 0 0 1 545.9746 431.8062)" class="st7 st2 st3">email (2x)</text>
<text transform="matrix(1 0 0 1 614.7021 294.4849)" class="st7 st2 st3">email (2x)</text>
<text transform="matrix(1 0 0 1 257.6875 345.5688)"><tspan x="0" y="0" class="st7 st2 st3">Login </tspan><tspan x="19" y="0" class="st7 st2 st3">r</tspan><tspan x="21.3" y="0" class="st7 st2 st3">eq</tspan><tspan x="29" y="0" class="st7 st2 st3"></tspan><tspan x="30.2" y="0" class="st7 st2 st3">d.</tspan></text>
<text transform="matrix(1 0 0 1 54.2109 366.0059)"><tspan x="0" y="0" class="st5 st8 st9">AS</tspan><tspan x="16.3" y="0" class="st5 st8 st9">K</tspan><tspan x="24.1" y="0" class="st5 st8 st9"> </tspan><tspan x="27.2" y="0" class="st5 st8 st9">A</tspan><tspan x="35.4" y="0" class="st5 st8 st9"> </tspan><tspan x="38.5" y="0" class="st5 st8 st9">DE</tspan><tspan x="53.9" y="0" class="st5 st8 st9">N</tspan><tspan x="62.6" y="0" class="st5 st8 st9">TIS</tspan><tspan x="82.1" y="0" class="st5 st8 st9">T</tspan></text>
<text transform="matrix(1 0 0 1 54.2109 284.2178)"><tspan x="0" y="0" class="st5 st8 st9">DE</tspan><tspan x="15.4" y="0" class="st5 st8 st9">N</tspan><tspan x="24.1" y="0" class="st5 st8 st9">TIS</tspan><tspan x="43.7" y="0" class="st5 st8 st9">T</tspan><tspan x="51" y="0" class="st5 st8 st9"> </tspan><tspan x="54" y="0" class="st5 st8 st9">FI</tspan><tspan x="64.9" y="0" class="st5 st8 st9">N</tspan><tspan x="73.8" y="0" class="st5 st8 st9">DE</tspan><tspan x="89.2" y="0" class="st5 st8 st9">R</tspan></text>
<text transform="matrix(1 0 0 1 62.2046 174.5732)"><tspan x="0" y="0" class="st5 st8 st9">$</tspan><tspan x="7.1" y="0" class="st5 st8 st9"> </tspan><tspan x="10.1" y="0" class="st5 st8 st9">C</tspan><tspan x="18.3" y="0" class="st5 st8 st9">A</tspan><tspan x="26.8" y="0" class="st5 st8 st9">L</tspan><tspan x="33.4" y="0" class="st5 st8 st9">CU</tspan><tspan x="49.9" y="0" class="st5 st8 st9">L</tspan><tspan x="57" y="0" class="st5 st8 st9">A</tspan><tspan x="64.8" y="0" class="st5 st8 st9">T</tspan><tspan x="72.4" y="0" class="st5 st8 st9">O</tspan><tspan x="81.1" y="0" class="st5 st8 st9">R</tspan></text>
<text transform="matrix(1 0 0 1 106.689 29.0073)"><tspan x="0" y="0" class="st5 st8 st9">SI</tspan><tspan x="11.7" y="0" class="st5 st8 st9">G</tspan><tspan x="20.3" y="0" class="st5 st8 st9">N</tspan><tspan x="29" y="0" class="st5 st8 st9"> </tspan><tspan x="32" y="0" class="st5 st8 st9">I</tspan><tspan x="35.9" y="0" class="st5 st8 st9">N</tspan></text>
<text transform="matrix(1 0 0 1 64.3618 479.3604)"><tspan x="0" y="0" class="st5 st8 st9">M</tspan><tspan x="10.8" y="0" class="st5 st8 st9">Y</tspan><tspan x="18.4" y="0" class="st5 st8 st9"> </tspan><tspan x="21.4" y="0" class="st5 st8 st9">A</tspan><tspan x="29.7" y="0" class="st5 st8 st9">CCOU</tspan><tspan x="63.3" y="0" class="st5 st8 st9">N</tspan><tspan x="72" y="0" class="st5 st8 st9">T</tspan></text>
<text transform="matrix(1 0 0 1 84.313 603.8662)"><tspan x="0" y="0" class="st5 st8 st9">E</tspan><tspan x="7.2" y="0" class="st5 st8 st9">D</tspan><tspan x="14.5" y="0" class="st5 st8 st9">.</tspan><tspan x="18" y="0" class="st5 st8 st9"> </tspan><tspan x="21" y="0" class="st5 st8 st9">&amp;</tspan><tspan x="29.1" y="0" class="st5 st8 st9"> </tspan><tspan x="31.9" y="0" class="st5 st8 st9">TI</tspan><tspan x="43.6" y="0" class="st5 st8 st9">P</tspan><tspan x="51.8" y="0" class="st5 st8 st9">S</tspan></text>
<text transform="matrix(1 0 0 1 15.3711 729.0146)"><tspan x="0" y="0" class="st5 st8 st9">DE</tspan><tspan x="15.4" y="0" class="st5 st8 st9">N</tspan><tspan x="24.1" y="0" class="st5 st8 st9">TIS</tspan><tspan x="43.7" y="0" class="st5 st8 st9">T</tspan><tspan x="51" y="0" class="st5 st8 st9"> </tspan><tspan x="53.8" y="0" class="st5 st8 st9">D</tspan><tspan x="61.9" y="0" class="st5 st8 st9">ASH</tspan><tspan x="87.1" y="0" class="st5 st8 st9">B</tspan><tspan x="95.1" y="0" class="st5 st8 st9">O</tspan><tspan x="103.7" y="0" class="st5 st8 st9">A</tspan><tspan x="112.2" y="0" class="st5 st8 st9">R</tspan><tspan x="120.3" y="0" class="st5 st8 st9">D</tspan></text>
<text transform="matrix(1 0 0 1 95.4048 942.1768)"><tspan x="0" y="0" class="st5 st8 st9">SEARC</tspan><tspan x="39.6" y="0" class="st5 st8 st9">H</tspan></text>
<text transform="matrix(1 0 0 1 94.356 855.6143)"><tspan x="0" y="0" class="st5 st8 st9">B</tspan><tspan x="8.1" y="0" class="st5 st8 st9">E</tspan><tspan x="15.2" y="0" class="st5 st8 st9">N</tspan><tspan x="24.1" y="0" class="st5 st8 st9">EF</tspan><tspan x="38.3" y="0" class="st5 st8 st9">I</tspan><tspan x="42" y="0" class="st5 st8 st9">T</tspan></text>
<text transform="matrix(1 0 0 1 69.1606 870.0146)"><tspan x="0" y="0" class="st5 st8 st9">D</tspan><tspan x="8.1" y="0" class="st5 st8 st9">ASH</tspan><tspan x="33.3" y="0" class="st5 st8 st9">B</tspan><tspan x="41.3" y="0" class="st5 st8 st9">O</tspan><tspan x="49.9" y="0" class="st5 st8 st9">A</tspan><tspan x="58.4" y="0" class="st5 st8 st9">R</tspan><tspan x="66.5" y="0" class="st5 st8 st9">D</tspan></text>
<text transform="matrix(1 0 0 1 103.0278 982.7002)"><tspan x="0" y="0" class="st5 st8 st9">A</tspan><tspan x="8.4" y="0" class="st5 st8 st9">BOU</tspan><tspan x="33.4" y="0" class="st5 st8 st9">T</tspan></text>
<text transform="matrix(1 0 0 1 257.6875 157.8594)"><tspan x="0" y="0" class="st7 st2 st3">Login </tspan><tspan x="19" y="0" class="st7 st2 st3">r</tspan><tspan x="21.3" y="0" class="st7 st2 st3">eq</tspan><tspan x="29" y="0" class="st7 st2 st3"></tspan><tspan x="30.2" y="0" class="st7 st2 st3">d.</tspan></text>
<text transform="matrix(1 0 0 1 257.6875 265.3599)"><tspan x="0" y="0" class="st7 st2 st3">Login </tspan><tspan x="19" y="0" class="st7 st2 st3">r</tspan><tspan x="21.3" y="0" class="st7 st2 st3">eq</tspan><tspan x="29" y="0" class="st7 st2 st3"></tspan><tspan x="30.2" y="0" class="st7 st2 st3">d.</tspan></text>
<path class="st6" d="M260.7,355.6 M263.7,354.5l-0.7-1.2l-2,1.5l0.3-2.6h-1.3l0.3,2.6l-2-1.5l-0.7,1.2l2.3,1l-2.3,1l0.7,1.2l2-1.5
	l-0.3,2.6h1.3l-0.3-2.6l2,1.5l0.7-1.2l-2.3-1L263.7,354.5z"/>
<path class="st6" d="M609.4,297.4 M612.5,296.4l-0.7-1.2l-2,1.5l0.3-2.6h-1.3l0.3,2.6l-2-1.5l-0.7,1.2l2.3,1l-2.3,1l0.7,1.2l2-1.5
	l-0.3,2.6h1.3l-0.3-2.6l2,1.5l0.7-1.2l-2.3-1L612.5,296.4z"/>
<path class="st6" d="M704.2,328.5 M707.2,327.5l-0.7-1.2l-2,1.5l0.3-2.6h-1.3l0.3,2.6l-2-1.5l-0.7,1.2l2.3,1l-2.3,1l0.7,1.2l2-1.5
	l-0.3,2.6h1.3l-0.3-2.6l2,1.5l0.7-1.2l-2.3-1L707.2,327.5z"/>
<path class="st6" d="M579.8,350.8 M582.9,349.7l-0.7-1.2l-2,1.5l0.3-2.6h-1.3l0.3,2.6l-2-1.5l-0.7,1.2l2.3,1l-2.3,1l0.7,1.2l2-1.5
	l-0.3,2.6h1.3l-0.3-2.6l2,1.5l0.7-1.2l-2.3-1L582.9,349.7z"/>
<path class="st6" d="M561.3,422.6 M564.3,421.6l-0.7-1.2l-2,1.5l0.3-2.6h-1.3l0.3,2.6l-2-1.5l-0.7,1.2l2.3,1l-2.3,1l0.7,1.2l2-1.5
	l-0.3,2.6h1.3l-0.3-2.6l2,1.5l0.7-1.2l-2.3-1L564.3,421.6z"/>
<path class="st6" d="M260.7,275.4 M263.7,274.4l-0.7-1.2l-2,1.5l0.3-2.6h-1.3l0.3,2.6l-2-1.5l-0.7,1.2l2.3,1l-2.3,1l0.7,1.2l2-1.5
	l-0.3,2.6h1.3l-0.3-2.6l2,1.5l0.7-1.2l-2.3-1L263.7,274.4z"/>
<path class="st6" d="M260.7,164.2 M263.7,163.2l-0.7-1.2l-2,1.5l0.3-2.6h-1.3l0.3,2.6l-2-1.5l-0.7,1.2l2.3,1l-2.3,1l0.7,1.2l2-1.5
	l-0.3,2.6h1.3l-0.3-2.6l2,1.5l0.7-1.2l-2.3-1L263.7,163.2z"/>
<path class="st1" d="M277.2,592.9c0,0-4.5,0-4.5,4.5v6.1c0,0,0,4.5,4.5,4.5h59.5c0,0,4.5,0,4.5-4.5v-6.1c0,0,0-4.5-4.5-4.5H277.2z"
	/>
<text transform="matrix(1 0 0 1 275.6055 602.9229)" class="st2 st3"> Risk Assess. Select</text>
<path class="st1" d="M277.2,566.1c0,0-4.5,0-4.5,4.5v6.1c0,0,0,4.5,4.5,4.5h59.5c0,0,4.5,0,4.5-4.5v-6.1c0,0,0-4.5-4.5-4.5H277.2z"
	/>
<text transform="matrix(1 0 0 1 293.0459 576.1729)"><tspan x="0" y="0" class="st2 st3">E</tspan><tspan x="3.9" y="0" class="st2 st3">d. </tspan><tspan x="11.4" y="0" class="st2 st3">P</tspan><tspan x="15.8" y="0" class="st2 st3">age</tspan></text>
<path class="st1" d="M462,592.4c0,0-4.5,0-4.5,4.5v6.1c0,0,0,4.5,4.5,4.5h59.5c0,0,4.5,0,4.5-4.5v-6.1c0,0,0-4.5-4.5-4.5H462z"/>
<text transform="matrix(1 0 0 1 470.626 602.4531)" class="st2 st3">Ask A Dentist</text>
<path class="st1" d="M462,618.2c0,0-4.5,0-4.5,4.5v6.1c0,0,0,4.5,4.5,4.5h59.5c0,0,4.5,0,4.5-4.5v-6.1c0,0,0-4.5-4.5-4.5H462z"/>
<text transform="matrix(1 0 0 1 479.6387 628.2031)"><tspan x="0" y="0" class="st2 st3">A</tspan><tspan x="4.6" y="0" class="st2 st3">r</tspan><tspan x="7.1" y="0" class="st2 st3">ticles</tspan></text>
<path class="st1" d="M462,643.8c0,0-4.5,0-4.5,4.5v6.1c0,0,0,4.5,4.5,4.5h59.5c0,0,4.5,0,4.5-4.5v-6.1c0,0,0-4.5-4.5-4.5H462z"/>
<text transform="matrix(1 0 0 1 470.1777 653.8535)" class="st2 st3">Find a Dentist</text>
<path class="st1" d="M462,669.5c0,0-4.5,0-4.5,4.5v6.1c0,0,0,4.5,4.5,4.5h65.3c0,0,4.5,0,4.5-4.5V674c0,0,0-4.5-4.5-4.5H462z"/>
<text transform="matrix(1 0 0 1 463.9492 679.4912)"><tspan x="0" y="0" class="st2 st3">Lol</tspan><tspan x="9.5" y="0" class="st2 st3">o</tspan><tspan x="13.4" y="0" class="st2 st3">z (if applicable)</tspan></text>
<path class="st1" d="M369.6,592.4c0,0-4.5,0-4.5,4.5v6.1c0,0,0,4.5,4.5,4.5h59.5c0,0,4.5,0,4.5-4.5v-6.1c0,0,0-4.5-4.5-4.5H369.6z"
	/>
<text transform="matrix(1 0 0 1 381.7026 602.4229)" class="st2 st3">Conclusion</text>
<path class="st1" d="M184.8,592.9c0,0-4.5,0-4.5,4.5v6.1c0,0,0,4.5,4.5,4.5h59.5c0,0,4.5,0,4.5-4.5v-6.1c0,0,0-4.5-4.5-4.5H184.8z"
	/>
<text transform="matrix(1 0 0 1 198.8521 602.9229)"><tspan x="0" y="0" class="st2 st3">E</tspan><tspan x="3.9" y="0" class="st2 st3">d. &amp;</tspan><tspan x="15.8" y="0" class="st2 st3"> </tspan><tspan x="17.4" y="0" class="st2 st3">Tips</tspan></text>
<polyline class="st4" points="248.8,600.2 260.5,600.2 260.5,573.9 267.9,573.9 "/>
<polygon class="st5" points="272.7,573.9 268,572.2 268,575.6 "/>
<polyline class="st4" points="452.8,626.2 445.8,626.2 445.8,599.9 433.6,599.9 "/>
<polygon class="st5" points="457.5,626.2 452.9,627.9 452.9,624.5 "/>
<polyline class="st4" points="452.8,652.1 445.8,652.1 445.8,620.5 "/>
<polygon class="st5" points="457.5,652.1 452.9,653.8 452.9,650.4 "/>
<polyline class="st4" points="452.8,677 445.8,677 445.8,645.5 "/>
<polygon class="st5" points="457.5,677 452.9,678.7 452.9,675.3 "/>
<line class="st4" x1="175.5" y1="599.9" x2="160.5" y2="599.9"/>
<polygon class="st5" points="180.2,599.9 175.6,601.6 175.6,598.2 "/>
<line class="st4" x1="248.8" y1="600.2" x2="267.9" y2="600.2"/>
<polygon class="st5" points="272.7,600.2 268,598.5 268,601.9 "/>
<line class="st4" x1="341.2" y1="600.2" x2="360.4" y2="600.2"/>
<polygon class="st5" points="365.1,600.2 360.4,598.5 360.4,601.9 "/>
<line class="st4" x1="433.6" y1="599.9" x2="452.8" y2="599.9"/>
<polygon class="st5" points="457.5,599.9 452.9,598.2 452.9,601.6 "/>
<text transform="matrix(1 0 0 1 219.6836 581.4727)"><tspan x="0" y="0" class="st7 st2 st3">Login </tspan><tspan x="19" y="0" class="st7 st2 st3">r</tspan><tspan x="21.3" y="0" class="st7 st2 st3">eq</tspan><tspan x="29" y="0" class="st7 st2 st3"></tspan><tspan x="30.2" y="0" class="st7 st2 st3">d.</tspan></text>
<text transform="matrix(1 0 0 1 174.2002 841.3535)"><tspan x="0" y="0" class="st7 st2 st3">Login </tspan><tspan x="19" y="0" class="st7 st2 st3">r</tspan><tspan x="21.3" y="0" class="st7 st2 st3">eq</tspan><tspan x="29" y="0" class="st7 st2 st3"></tspan><tspan x="30.2" y="0" class="st7 st2 st3">d.</tspan></text>
<path class="st6" d="M254.7,589.2 M257.7,588.2L257,587l-2,1.5l0.3-2.6H254l0.3,2.6l-2-1.5l-0.7,1.2l2.3,1l-2.3,1l0.7,1.2l2-1.5
	l-0.3,2.6h1.3l-0.3-2.6l2,1.5l0.7-1.2l-2.3-1L257.7,588.2z"/>
<path class="st6" d="M177.2,851.1 M180.2,850l-0.7-1.2l-2,1.5l0.3-2.6h-1.3l0.3,2.6l-2-1.5l-0.7,1.2l2.3,1l-2.3,1l0.7,1.2l2-1.5
	l-0.3,2.6h1.3l-0.3-2.6l2,1.5l0.7-1.2l-2.3-1L180.2,850z"/>
<path class="st6" d="M260.7,605.9 M263.7,604.9l-0.7-1.2l-2,1.5l0.3-2.6h-1.3l0.3,2.6l-2-1.5l-0.7,1.2l2.3,1l-2.3,1l0.7,1.2l2-1.5
	l-0.3,2.6h1.3l-0.3-2.6l2,1.5l0.7-1.2l-2.3-1L263.7,604.9z"/>
<path class="st1" d="M279.4,638.9c0,0-4.5,0-4.5,4.5v6.1c0,0,0,4.5,4.5,4.5h59.5c0,0,4.5,0,4.5-4.5v-6.1c0,0,0-4.5-4.5-4.5H279.4z"
	/>
<text transform="matrix(1 0 0 1 280.6514 648.9531)" class="st2 st3">Answer Questions</text>
<path class="st1" d="M279.4,665c0,0-4.5,0-4.5,4.5v6.1c0,0,0,4.5,4.5,4.5h59.5c0,0,4.5,0,4.5-4.5v-6.1c0,0,0-4.5-4.5-4.5H279.4z"/>
<text transform="matrix(1 0 0 1 281.7114 675.0537)"><tspan x="0" y="0" class="st2 st3">P</tspan><tspan x="4.4" y="0" class="st2 st3">atient Gene</tspan><tspan x="39.8" y="0" class="st2 st3">r</tspan><tspan x="42" y="0" class="st2 st3">a</tspan><tspan x="45.8" y="0" class="st2 st3">t</tspan><tspan x="48.1" y="0" class="st2 st3">or</tspan></text>
<path class="st1" d="M279.4,690.7c0,0-4.5,0-4.5,4.5v6.1c0,0,0,4.5,4.5,4.5h59.5c0,0,4.5,0,4.5-4.5v-6.1c0,0,0-4.5-4.5-4.5H279.4z"
	/>
<text transform="matrix(1 0 0 1 282.2598 700.7432)"><tspan x="0" y="0" class="st2 st3">Get </tspan><tspan x="12.5" y="0" class="st2 st3">F</tspan><tspan x="16.3" y="0" class="st2 st3">ound Online</tspan></text>
<path class="st1" d="M279.4,716.2c0,0-4.5,0-4.5,4.5v6.1c0,0,0,4.5,4.5,4.5h59.5c0,0,4.5,0,4.5-4.5v-6.1c0,0,0-4.5-4.5-4.5H279.4z"
	/>
<text transform="matrix(1 0 0 1 289.877 726.2529)"><tspan x="0" y="0" class="st2 st3">W</tspan><tspan x="6.1" y="0" class="st2 st3">rite A</tspan><tspan x="22.5" y="0" class="st2 st3">r</tspan><tspan x="25" y="0" class="st2 st3">ticle</tspan></text>
<path class="st1" d="M360.4,717.2c0,0-4.5,0-4.5,4.5v6.1c0,0,0,4.5,4.5,4.5h59.5c0,0,4.5,0,4.5-4.5v-6.1c0,0,0-4.5-4.5-4.5H360.4z"
	/>
<text transform="matrix(1 0 0 1 367.9238 727.2529)"><tspan x="0" y="0" class="st2 st3">R</tspan><tspan x="4.3" y="0" class="st2 st3">e</tspan><tspan x="8" y="0" class="st2 st3">view A</tspan><tspan x="28.3" y="0" class="st2 st3">r</tspan><tspan x="30.9" y="0" class="st2 st3">ticle</tspan></text>
<path class="st1" d="M440.4,717.2c0,0-4.5,0-4.5,4.5v6.1c0,0,0,4.5,4.5,4.5h59.5c0,0,4.5,0,4.5-4.5v-6.1c0,0,0-4.5-4.5-4.5H440.4z"
	/>
<text transform="matrix(1 0 0 1 447.8721 727.2529)"><tspan x="0" y="0" class="st2 st3">Submit A</tspan><tspan x="28.4" y="0" class="st2 st3">r</tspan><tspan x="30.9" y="0" class="st2 st3">ticle</tspan></text>
<path class="st1" d="M279.4,743.3c0,0-4.5,0-4.5,4.5v6.1c0,0,0,4.5,4.5,4.5h59.5c0,0,4.5,0,4.5-4.5v-6.1c0,0,0-4.5-4.5-4.5H279.4z"
	/>
<text transform="matrix(1 0 0 1 292.7803 753.3535)" class="st2 st3">Wholesale</text>
<polyline class="st4" points="263.2,687.7 263.2,750.6 270.2,750.6 "/>
<polygon class="st5" points="274.9,750.6 270.3,752.3 270.3,748.9 "/>
<polyline class="st4" points="263.2,745.7 263.2,812.1 269.7,812.1 "/>
<polygon class="st5" points="274.4,812.1 269.8,813.8 269.8,810.4 "/>
<polyline class="st4" points="423.1,782 423.1,930.1 429.6,930.1 "/>
<polygon class="st5" points="434.3,930.1 429.6,931.8 429.6,928.4 "/>
<line class="st4" x1="263.2" y1="724.5" x2="270.2" y2="724.5"/>
<polygon class="st5" points="274.9,724.5 270.3,726.2 270.3,722.8 "/>
<line class="st4" x1="251" y1="724.5" x2="263.2" y2="724.5"/>
<polyline class="st4" points="263.2,762.2 263.2,783.7 270.2,783.7 "/>
<polygon class="st5" points="274.9,783.7 270.3,785.4 270.3,782 "/>
<line class="st4" x1="249.3" y1="937.9" x2="256.3" y2="937.9"/>
<polygon class="st5" points="261,937.9 256.4,939.6 256.4,936.2 "/>
<line class="st4" x1="249.3" y1="857.5" x2="423" y2="857.5"/>
<polyline class="st4" points="263.2,667.5 263.2,698.4 270.2,698.4 "/>
<polygon class="st5" points="274.9,698.4 270.3,700.1 270.3,696.7 "/>
<polyline class="st4" points="263.2,645.9 263.2,672.5 270.2,672.5 "/>
<polygon class="st5" points="274.9,672.5 270.3,674.2 270.3,670.8 "/>
<line class="st4" x1="263.2" y1="724.5" x2="160.4" y2="724.5"/>
<line class="st4" x1="343.9" y1="724.8" x2="348.4" y2="724.8"/>
<polygon class="st5" points="353.2,724.8 348.5,723.1 348.5,726.5 "/>
<line class="st4" x1="424.4" y1="724.8" x2="428.9" y2="724.8"/>
<polygon class="st5" points="433.6,724.8 429,723.1 429,726.5 "/>
<line class="st4" x1="263.2" y1="646.2" x2="270.2" y2="646.2"/>
<polygon class="st5" points="274.9,646.2 270.3,644.5 270.3,647.9 "/>
<path class="st1" d="M279.4,804.8c0,0-4.5,0-4.5,4.5v6.1c0,0,0,4.5,4.5,4.5h59.5c0,0,4.5,0,4.5-4.5v-6.1c0,0,0-4.5-4.5-4.5H279.4z"
	/>
<path d="M291.7,812.9v1.9h-0.7v-5h1.8c0.5,0,1,0.1,1.3,0.4c0.3,0.3,0.5,0.6,0.5,1.1c0,0.5-0.2,0.9-0.5,1.1c-0.3,0.3-0.7,0.4-1.3,0.4
	H291.7z M291.7,812.3h1.2c0.4,0,0.6-0.1,0.8-0.2c0.2-0.2,0.3-0.4,0.3-0.7c0-0.3-0.1-0.5-0.3-0.7c-0.2-0.2-0.4-0.3-0.8-0.3h-1.2
	V812.3z M297.2,811.7c-0.1,0-0.2,0-0.3,0c-0.4,0-0.7,0.2-0.8,0.5v2.6h-0.6v-3.7h0.6l0,0.4c0.2-0.3,0.5-0.5,0.9-0.5
	c0.1,0,0.2,0,0.3,0V811.7z M297.5,812.9c0-0.4,0.1-0.7,0.2-1c0.1-0.3,0.3-0.5,0.6-0.7c0.3-0.2,0.5-0.2,0.9-0.2
	c0.5,0,0.9,0.2,1.2,0.5s0.5,0.8,0.5,1.4v0c0,0.4-0.1,0.7-0.2,1c-0.1,0.3-0.3,0.5-0.6,0.7s-0.6,0.2-0.9,0.2c-0.5,0-0.9-0.2-1.2-0.5
	S297.5,813.5,297.5,812.9L297.5,812.9z M298.2,813c0,0.4,0.1,0.7,0.3,1c0.2,0.2,0.4,0.4,0.8,0.4c0.3,0,0.6-0.1,0.8-0.4
	c0.2-0.3,0.3-0.6,0.3-1.1c0-0.4-0.1-0.7-0.3-1c-0.2-0.3-0.4-0.4-0.8-0.4c-0.3,0-0.6,0.1-0.8,0.4S298.2,812.5,298.2,813z
	 M301.9,814.8v-3.2h-0.6v-0.5h0.6v-0.3c0-0.4,0.1-0.7,0.4-1s0.6-0.3,1-0.3c0.3,0,0.6,0.1,1,0.2l-0.1,0.5c-0.3-0.1-0.6-0.2-0.8-0.2
	c-0.3,0-0.5,0.1-0.6,0.2s-0.2,0.3-0.2,0.5v0.3h0.8v0.5h-0.8v3.2H301.9z M304.5,814.8h-0.6v-3.7h0.6V814.8z M306.3,814.8h-0.6v-5.2
	h0.6V814.8z M310.2,814.2c-0.3,0.5-0.8,0.7-1.4,0.7c-0.5,0-0.9-0.2-1.2-0.5s-0.5-0.8-0.5-1.3V813c0-0.4,0.1-0.7,0.2-1
	s0.3-0.5,0.6-0.7c0.3-0.2,0.5-0.2,0.8-0.2c0.5,0,0.9,0.2,1.1,0.5s0.4,0.8,0.4,1.4v0.3h-2.5c0,0.4,0.1,0.7,0.3,0.9
	c0.2,0.2,0.5,0.3,0.8,0.3c0.2,0,0.4,0,0.6-0.1c0.2-0.1,0.3-0.2,0.4-0.4L310.2,814.2L310.2,814.2z M308.7,811.6
	c-0.3,0-0.5,0.1-0.6,0.3c-0.2,0.2-0.3,0.4-0.3,0.8h1.9v0c0-0.3-0.1-0.6-0.3-0.7C309.2,811.7,309,811.6,308.7,811.6z M314.5,813.9
	l1.4-4.1h0.7l-1.8,5h-0.6l-1.8-5h0.7L314.5,813.9z M317.2,810.1c0-0.1,0-0.2,0.1-0.3c0.1-0.1,0.2-0.1,0.3-0.1s0.2,0,0.3,0.1
	c0.1,0.1,0.1,0.2,0.1,0.3s0,0.2-0.1,0.3c-0.1,0.1-0.2,0.1-0.3,0.1s-0.2,0-0.3-0.1C317.2,810.3,317.2,810.2,317.2,810.1z
	 M317.9,814.8h-0.6v-3.7h0.6V814.8z M321.8,814.2c-0.3,0.5-0.8,0.7-1.4,0.7c-0.5,0-0.9-0.2-1.2-0.5s-0.5-0.8-0.5-1.3V813
	c0-0.4,0.1-0.7,0.2-1s0.3-0.5,0.6-0.7c0.3-0.2,0.5-0.2,0.8-0.2c0.5,0,0.9,0.2,1.1,0.5s0.4,0.8,0.4,1.4v0.3h-2.5
	c0,0.4,0.1,0.7,0.3,0.9c0.2,0.2,0.5,0.3,0.8,0.3c0.2,0,0.4,0,0.6-0.1c0.2-0.1,0.3-0.2,0.4-0.4L321.8,814.2L321.8,814.2z
	 M320.3,811.6c-0.3,0-0.5,0.1-0.6,0.3c-0.2,0.2-0.3,0.4-0.3,0.8h1.9v0c0-0.3-0.1-0.6-0.3-0.7C320.8,811.7,320.6,811.6,320.3,811.6z
	 M325.8,813.9l0.7-2.8h0.6l-1.1,3.7h-0.5l-0.9-2.8l-0.9,2.8h-0.5l-1.1-3.7h0.6l0.7,2.8l0.9-2.8h0.5L325.8,813.9z"/>
<path class="st1" d="M279.4,774.4c0,0-4.5,0-4.5,4.5v6.1c0,0,0,4.5,4.5,4.5h59.5c0,0,4.5,0,4.5-4.5v-6.1c0,0,0-4.5-4.5-4.5H279.4z"
	/>
<text transform="matrix(1 0 0 1 278.6265 784.4531)" class="st2 st3">View Appt. Request</text>
<path class="st1" d="M588.4,125.9c0,0-4.5,0-4.5,4.5v6.1c0,0,0,4.5,4.5,4.5h59.5c0,0,4.5,0,4.5-4.5v-6.1c0,0,0-4.5-4.5-4.5H588.4z"
	/>
<text transform="matrix(1 0 0 1 589.083 135.9736)"><tspan x="0" y="0" class="st2 st3">Dentist Dashboa</tspan><tspan x="51.4" y="0" class="st2 st3">r</tspan><tspan x="53.6" y="0" class="st2 st3">d</tspan></text>
<path class="st1" d="M431.4,72.5c0,0-4.5,0-4.5,4.5v6.1c0,0,0,4.5,4.5,4.5h59.5c0,0,4.5,0,4.5-4.5V77c0,0,0-4.5-4.5-4.5H431.4z"/>
<path d="M436.1,80.3c-0.6-0.2-1-0.4-1.2-0.6s-0.4-0.5-0.4-0.9c0-0.4,0.2-0.7,0.5-1c0.3-0.3,0.7-0.4,1.2-0.4c0.3,0,0.6,0.1,0.9,0.2
	c0.3,0.1,0.5,0.3,0.6,0.5s0.2,0.5,0.2,0.8h-0.7c0-0.3-0.1-0.5-0.3-0.7c-0.2-0.2-0.5-0.3-0.8-0.3c-0.3,0-0.6,0.1-0.8,0.2
	c-0.2,0.1-0.3,0.3-0.3,0.6c0,0.2,0.1,0.4,0.3,0.5c0.2,0.1,0.5,0.3,0.9,0.4c0.4,0.1,0.7,0.2,1,0.4c0.2,0.1,0.4,0.3,0.5,0.5
	c0.1,0.2,0.2,0.4,0.2,0.7c0,0.4-0.2,0.7-0.5,1s-0.7,0.4-1.3,0.4c-0.3,0-0.7-0.1-1-0.2c-0.3-0.1-0.5-0.3-0.7-0.5
	c-0.2-0.2-0.2-0.5-0.2-0.8h0.7c0,0.3,0.1,0.5,0.3,0.7s0.5,0.3,0.9,0.3c0.3,0,0.6-0.1,0.8-0.2c0.2-0.1,0.3-0.3,0.3-0.6
	c0-0.2-0.1-0.4-0.3-0.6S436.5,80.4,436.1,80.3z M441.6,81.9c-0.3,0.5-0.8,0.7-1.4,0.7c-0.5,0-0.9-0.2-1.2-0.5
	c-0.3-0.3-0.5-0.8-0.5-1.3v-0.1c0-0.4,0.1-0.7,0.2-1c0.1-0.3,0.3-0.5,0.6-0.7c0.3-0.2,0.5-0.2,0.8-0.2c0.5,0,0.9,0.2,1.1,0.5
	c0.3,0.3,0.4,0.8,0.4,1.4v0.3h-2.5c0,0.4,0.1,0.7,0.3,0.9c0.2,0.2,0.5,0.3,0.8,0.3c0.2,0,0.4,0,0.6-0.1c0.2-0.1,0.3-0.2,0.4-0.4
	L441.6,81.9L441.6,81.9z M440.1,79.3c-0.3,0-0.5,0.1-0.6,0.3c-0.2,0.2-0.3,0.4-0.3,0.8h1.9v0c0-0.3-0.1-0.6-0.3-0.7
	C440.6,79.4,440.4,79.3,440.1,79.3z M444.6,82.5c0-0.1-0.1-0.2-0.1-0.4c-0.3,0.3-0.6,0.5-1.1,0.5c-0.4,0-0.7-0.1-0.9-0.3
	c-0.2-0.2-0.4-0.5-0.4-0.8c0-0.4,0.1-0.7,0.4-0.9c0.3-0.2,0.7-0.3,1.2-0.3h0.6V80c0-0.2-0.1-0.4-0.2-0.5c-0.1-0.1-0.3-0.2-0.6-0.2
	c-0.2,0-0.4,0.1-0.6,0.2c-0.2,0.1-0.2,0.3-0.2,0.4h-0.6c0-0.2,0.1-0.4,0.2-0.5c0.1-0.2,0.3-0.3,0.5-0.4c0.2-0.1,0.5-0.2,0.7-0.2
	c0.4,0,0.8,0.1,1,0.3c0.2,0.2,0.4,0.5,0.4,0.9v1.7c0,0.3,0,0.6,0.1,0.8v0.1H444.6z M443.6,82c0.2,0,0.4-0.1,0.6-0.2s0.3-0.2,0.4-0.4
	v-0.8H444c-0.8,0-1.2,0.2-1.2,0.7c0,0.2,0.1,0.4,0.2,0.5C443.2,82,443.4,82,443.6,82z M448,79.4c-0.1,0-0.2,0-0.3,0
	c-0.4,0-0.7,0.2-0.8,0.5v2.6h-0.6v-3.7h0.6l0,0.4c0.2-0.3,0.5-0.5,0.9-0.5c0.1,0,0.2,0,0.3,0V79.4z M450,82.1c0.2,0,0.4-0.1,0.6-0.2
	c0.2-0.1,0.3-0.3,0.3-0.5h0.6c0,0.2-0.1,0.4-0.2,0.6c-0.1,0.2-0.3,0.3-0.5,0.5c-0.2,0.1-0.5,0.2-0.7,0.2c-0.5,0-0.9-0.2-1.2-0.5
	c-0.3-0.3-0.4-0.8-0.4-1.4v-0.1c0-0.4,0.1-0.7,0.2-1c0.1-0.3,0.3-0.5,0.6-0.7c0.2-0.2,0.5-0.2,0.9-0.2c0.4,0,0.8,0.1,1,0.4
	c0.3,0.2,0.4,0.6,0.4,1h-0.6c0-0.2-0.1-0.4-0.3-0.6c-0.2-0.2-0.4-0.2-0.6-0.2c-0.3,0-0.6,0.1-0.7,0.3c-0.2,0.2-0.3,0.6-0.3,1v0.1
	c0,0.4,0.1,0.8,0.3,1C449.4,82,449.6,82.1,450,82.1z M452.8,79.3c0.3-0.3,0.6-0.5,1.1-0.5c0.8,0,1.2,0.4,1.2,1.3v2.4h-0.6v-2.4
	c0-0.3-0.1-0.5-0.2-0.6c-0.1-0.1-0.3-0.2-0.6-0.2c-0.2,0-0.4,0.1-0.5,0.2c-0.2,0.1-0.3,0.3-0.4,0.4v2.6h-0.6v-5.2h0.6V79.3z
	 M458,82.5v-3.2h-0.6v-0.5h0.6v-0.4c0-0.4,0.1-0.7,0.3-0.9c0.2-0.2,0.5-0.3,0.9-0.3c0.1,0,0.3,0,0.4,0.1l0,0.5c-0.1,0-0.2,0-0.3,0
	c-0.2,0-0.4,0.1-0.5,0.2c-0.1,0.1-0.2,0.3-0.2,0.5v0.4h0.8v0.5h-0.8v3.2H458z M460,80.6c0-0.4,0.1-0.7,0.2-1
	c0.1-0.3,0.3-0.5,0.6-0.7c0.3-0.2,0.5-0.2,0.9-0.2c0.5,0,0.9,0.2,1.2,0.5s0.5,0.8,0.5,1.4v0c0,0.4-0.1,0.7-0.2,1
	c-0.1,0.3-0.3,0.5-0.6,0.7c-0.3,0.2-0.6,0.2-0.9,0.2c-0.5,0-0.9-0.2-1.2-0.5S460,81.3,460,80.6L460,80.6z M460.6,80.7
	c0,0.4,0.1,0.7,0.3,1c0.2,0.2,0.4,0.4,0.8,0.4c0.3,0,0.6-0.1,0.8-0.4c0.2-0.3,0.3-0.6,0.3-1.1c0-0.4-0.1-0.7-0.3-1
	c-0.2-0.3-0.4-0.4-0.8-0.4c-0.3,0-0.6,0.1-0.8,0.4C460.7,79.9,460.6,80.3,460.6,80.7z M465.9,79.4c-0.1,0-0.2,0-0.3,0
	c-0.4,0-0.7,0.2-0.8,0.5v2.6h-0.6v-3.7h0.6l0,0.4c0.2-0.3,0.5-0.5,0.9-0.5c0.1,0,0.2,0,0.3,0V79.4z M469,80.6v1.9h-0.7v-5h1.8
	c0.5,0,1,0.1,1.3,0.4c0.3,0.3,0.5,0.6,0.5,1.1c0,0.5-0.2,0.9-0.5,1.1c-0.3,0.3-0.7,0.4-1.3,0.4H469z M469,80h1.2
	c0.4,0,0.6-0.1,0.8-0.2c0.2-0.2,0.3-0.4,0.3-0.7c0-0.3-0.1-0.5-0.3-0.7c-0.2-0.2-0.4-0.3-0.8-0.3H469V80z M474.5,79.4
	c-0.1,0-0.2,0-0.3,0c-0.4,0-0.7,0.2-0.8,0.5v2.6h-0.6v-3.7h0.6l0,0.4c0.2-0.3,0.5-0.5,0.9-0.5c0.1,0,0.2,0,0.3,0V79.4z M474.8,80.6
	c0-0.4,0.1-0.7,0.2-1c0.1-0.3,0.3-0.5,0.6-0.7c0.3-0.2,0.5-0.2,0.9-0.2c0.5,0,0.9,0.2,1.2,0.5s0.5,0.8,0.5,1.4v0
	c0,0.4-0.1,0.7-0.2,1c-0.1,0.3-0.3,0.5-0.6,0.7c-0.3,0.2-0.6,0.2-0.9,0.2c-0.5,0-0.9-0.2-1.2-0.5S474.8,81.3,474.8,80.6L474.8,80.6z
	 M475.4,80.7c0,0.4,0.1,0.7,0.3,1c0.2,0.2,0.4,0.4,0.8,0.4c0.3,0,0.6-0.1,0.8-0.4c0.2-0.3,0.3-0.6,0.3-1.1c0-0.4-0.1-0.7-0.3-1
	c-0.2-0.3-0.4-0.4-0.8-0.4c-0.3,0-0.6,0.1-0.8,0.4C475.5,79.9,475.4,80.3,475.4,80.7z M479.2,82.5v-3.2h-0.6v-0.5h0.6v-0.3
	c0-0.4,0.1-0.7,0.4-1c0.2-0.2,0.6-0.3,1-0.3c0.3,0,0.6,0.1,1,0.2l-0.1,0.5c-0.3-0.1-0.6-0.2-0.8-0.2c-0.3,0-0.5,0.1-0.6,0.2
	c-0.1,0.1-0.2,0.3-0.2,0.5v0.3h0.8v0.5h-0.8v3.2H479.2z M481.8,82.5h-0.6v-3.7h0.6V82.5z M483.5,82.5h-0.6v-5.2h0.6V82.5z
	 M487.5,81.9c-0.3,0.5-0.8,0.7-1.4,0.7c-0.5,0-0.9-0.2-1.2-0.5c-0.3-0.3-0.5-0.8-0.5-1.3v-0.1c0-0.4,0.1-0.7,0.2-1
	c0.1-0.3,0.3-0.5,0.6-0.7c0.3-0.2,0.5-0.2,0.8-0.2c0.5,0,0.9,0.2,1.1,0.5c0.3,0.3,0.4,0.8,0.4,1.4v0.3H485c0,0.4,0.1,0.7,0.3,0.9
	c0.2,0.2,0.5,0.3,0.8,0.3c0.2,0,0.4,0,0.6-0.1c0.2-0.1,0.3-0.2,0.4-0.4L487.5,81.9L487.5,81.9z M486,79.3c-0.3,0-0.5,0.1-0.6,0.3
	c-0.2,0.2-0.3,0.4-0.3,0.8h1.9v0c0-0.3-0.1-0.6-0.3-0.7C486.5,79.4,486.3,79.3,486,79.3z"/>
<path class="st1" d="M509.9,72.5c0,0-4.5,0-4.5,4.5v6.1c0,0,0,4.5,4.5,4.5h59.5c0,0,4.5,0,4.5-4.5V77c0,0,0-4.5-4.5-4.5H509.9z"/>
<path d="M517.8,80.9c-0.1,0.5-0.3,0.9-0.6,1.2c-0.3,0.3-0.8,0.4-1.3,0.4c-0.6,0-1.1-0.2-1.4-0.6c-0.4-0.4-0.5-1-0.5-1.7v-0.5
	c0-0.5,0.1-0.9,0.2-1.2c0.2-0.4,0.4-0.6,0.7-0.8c0.3-0.2,0.7-0.3,1.1-0.3c0.5,0,1,0.1,1.3,0.4c0.3,0.3,0.5,0.7,0.6,1.2h-0.7
	c-0.1-0.4-0.2-0.7-0.4-0.9c-0.2-0.2-0.5-0.3-0.8-0.3c-0.4,0-0.7,0.2-1,0.5c-0.2,0.3-0.4,0.8-0.4,1.3v0.5c0,0.5,0.1,1,0.3,1.3
	s0.5,0.5,0.9,0.5c0.4,0,0.6-0.1,0.8-0.2c0.2-0.2,0.3-0.5,0.4-0.9H517.8z M518.4,80.6c0-0.4,0.1-0.7,0.2-1c0.1-0.3,0.3-0.5,0.6-0.7
	c0.3-0.2,0.5-0.2,0.9-0.2c0.5,0,0.9,0.2,1.2,0.5s0.5,0.8,0.5,1.4v0c0,0.4-0.1,0.7-0.2,1c-0.1,0.3-0.3,0.5-0.6,0.7
	c-0.3,0.2-0.6,0.2-0.9,0.2c-0.5,0-0.9-0.2-1.2-0.5S518.4,81.3,518.4,80.6L518.4,80.6z M519,80.7c0,0.4,0.1,0.7,0.3,1
	c0.2,0.2,0.4,0.4,0.8,0.4c0.3,0,0.6-0.1,0.8-0.4c0.2-0.3,0.3-0.6,0.3-1.1c0-0.4-0.1-0.7-0.3-1c-0.2-0.3-0.4-0.4-0.8-0.4
	c-0.3,0-0.6,0.1-0.8,0.4C519.1,79.9,519,80.3,519,80.7z M523.1,78.8l0,0.4c0.3-0.3,0.6-0.5,1.1-0.5c0.5,0,0.9,0.2,1.1,0.6
	c0.1-0.2,0.3-0.3,0.5-0.4c0.2-0.1,0.4-0.2,0.7-0.2c0.8,0,1.2,0.4,1.2,1.3v2.5h-0.6v-2.4c0-0.3-0.1-0.5-0.2-0.6
	c-0.1-0.1-0.3-0.2-0.6-0.2c-0.2,0-0.4,0.1-0.6,0.2c-0.2,0.1-0.2,0.3-0.3,0.6v2.5h-0.6v-2.4c0-0.5-0.3-0.8-0.8-0.8
	c-0.4,0-0.7,0.2-0.9,0.5v2.7h-0.6v-3.7H523.1z M531.8,80.7c0,0.6-0.1,1-0.4,1.4c-0.3,0.3-0.6,0.5-1,0.5c-0.4,0-0.8-0.1-1.1-0.4v1.8
	h-0.6v-5.1h0.6l0,0.4c0.3-0.3,0.6-0.5,1.1-0.5c0.4,0,0.8,0.2,1.1,0.5C531.7,79.6,531.8,80.1,531.8,80.7L531.8,80.7z M531.2,80.6
	c0-0.4-0.1-0.7-0.3-1c-0.2-0.2-0.4-0.4-0.7-0.4c-0.4,0-0.7,0.2-0.9,0.5v1.8c0.2,0.3,0.5,0.5,0.9,0.5c0.3,0,0.5-0.1,0.7-0.4
	C531.1,81.5,531.2,81.1,531.2,80.6z M533.3,82.5h-0.6v-5.2h0.6V82.5z M537.2,81.9c-0.3,0.5-0.8,0.7-1.4,0.7c-0.5,0-0.9-0.2-1.2-0.5
	c-0.3-0.3-0.5-0.8-0.5-1.3v-0.1c0-0.4,0.1-0.7,0.2-1c0.1-0.3,0.3-0.5,0.6-0.7c0.3-0.2,0.5-0.2,0.8-0.2c0.5,0,0.9,0.2,1.1,0.5
	c0.3,0.3,0.4,0.8,0.4,1.4v0.3h-2.5c0,0.4,0.1,0.7,0.3,0.9c0.2,0.2,0.5,0.3,0.8,0.3c0.2,0,0.4,0,0.6-0.1c0.2-0.1,0.3-0.2,0.4-0.4
	L537.2,81.9L537.2,81.9z M535.8,79.3c-0.3,0-0.5,0.1-0.6,0.3c-0.2,0.2-0.3,0.4-0.3,0.8h1.9v0c0-0.3-0.1-0.6-0.3-0.7
	C536.2,79.4,536,79.3,535.8,79.3z M538.9,77.9v0.9h0.7v0.5h-0.7v2.3c0,0.1,0,0.3,0.1,0.3s0.2,0.1,0.3,0.1c0.1,0,0.2,0,0.3,0v0.5
	c-0.2,0-0.3,0.1-0.5,0.1c-0.3,0-0.5-0.1-0.6-0.3s-0.2-0.4-0.2-0.7v-2.3h-0.7v-0.5h0.7v-0.9H538.9z M543.2,81.9
	c-0.3,0.5-0.8,0.7-1.4,0.7c-0.5,0-0.9-0.2-1.2-0.5c-0.3-0.3-0.5-0.8-0.5-1.3v-0.1c0-0.4,0.1-0.7,0.2-1c0.1-0.3,0.3-0.5,0.6-0.7
	c0.3-0.2,0.5-0.2,0.8-0.2c0.5,0,0.9,0.2,1.1,0.5c0.3,0.3,0.4,0.8,0.4,1.4v0.3h-2.5c0,0.4,0.1,0.7,0.3,0.9c0.2,0.2,0.5,0.3,0.8,0.3
	c0.2,0,0.4,0,0.6-0.1c0.2-0.1,0.3-0.2,0.4-0.4L543.2,81.9L543.2,81.9z M541.8,79.3c-0.3,0-0.5,0.1-0.6,0.3c-0.2,0.2-0.3,0.4-0.3,0.8
	h1.9v0c0-0.3-0.1-0.6-0.3-0.7C542.2,79.4,542,79.3,541.8,79.3z M546.5,80.6v1.9h-0.7v-5h1.8c0.5,0,1,0.1,1.3,0.4
	c0.3,0.3,0.5,0.6,0.5,1.1c0,0.5-0.2,0.9-0.5,1.1c-0.3,0.3-0.7,0.4-1.3,0.4H546.5z M546.5,80h1.2c0.4,0,0.6-0.1,0.8-0.2
	c0.2-0.2,0.3-0.4,0.3-0.7c0-0.3-0.1-0.5-0.3-0.7c-0.2-0.2-0.4-0.3-0.8-0.3h-1.2V80z M552,79.4c-0.1,0-0.2,0-0.3,0
	c-0.4,0-0.7,0.2-0.8,0.5v2.6h-0.6v-3.7h0.6l0,0.4c0.2-0.3,0.5-0.5,0.9-0.5c0.1,0,0.2,0,0.3,0V79.4z M552.3,80.6c0-0.4,0.1-0.7,0.2-1
	c0.1-0.3,0.3-0.5,0.6-0.7c0.3-0.2,0.5-0.2,0.9-0.2c0.5,0,0.9,0.2,1.2,0.5s0.5,0.8,0.5,1.4v0c0,0.4-0.1,0.7-0.2,1
	c-0.1,0.3-0.3,0.5-0.6,0.7c-0.3,0.2-0.6,0.2-0.9,0.2c-0.5,0-0.9-0.2-1.2-0.5S552.3,81.3,552.3,80.6L552.3,80.6z M552.9,80.7
	c0,0.4,0.1,0.7,0.3,1c0.2,0.2,0.4,0.4,0.8,0.4c0.3,0,0.6-0.1,0.8-0.4c0.2-0.3,0.3-0.6,0.3-1.1c0-0.4-0.1-0.7-0.3-1
	c-0.2-0.3-0.4-0.4-0.8-0.4c-0.3,0-0.6,0.1-0.8,0.4C553,79.9,552.9,80.3,552.9,80.7z M556.7,82.5v-3.2h-0.6v-0.5h0.6v-0.3
	c0-0.4,0.1-0.7,0.4-1c0.2-0.2,0.6-0.3,1-0.3c0.3,0,0.6,0.1,1,0.2l-0.1,0.5c-0.3-0.1-0.6-0.2-0.8-0.2c-0.3,0-0.5,0.1-0.6,0.2
	c-0.1,0.1-0.2,0.3-0.2,0.5v0.3h0.8v0.5h-0.8v3.2H556.7z M559.3,82.5h-0.6v-3.7h0.6V82.5z M561,82.5h-0.6v-5.2h0.6V82.5z M565,81.9
	c-0.3,0.5-0.8,0.7-1.4,0.7c-0.5,0-0.9-0.2-1.2-0.5c-0.3-0.3-0.5-0.8-0.5-1.3v-0.1c0-0.4,0.1-0.7,0.2-1c0.1-0.3,0.3-0.5,0.6-0.7
	c0.3-0.2,0.5-0.2,0.8-0.2c0.5,0,0.9,0.2,1.1,0.5c0.3,0.3,0.4,0.8,0.4,1.4v0.3h-2.5c0,0.4,0.1,0.7,0.3,0.9c0.2,0.2,0.5,0.3,0.8,0.3
	c0.2,0,0.4,0,0.6-0.1c0.2-0.1,0.3-0.2,0.4-0.4L565,81.9L565,81.9z M563.5,79.3c-0.3,0-0.5,0.1-0.6,0.3c-0.2,0.2-0.3,0.4-0.3,0.8h1.9
	v0c0-0.3-0.1-0.6-0.3-0.7C564,79.4,563.8,79.3,563.5,79.3z"/>
<path class="st1" d="M588.4,72.5c0,0-4.5,0-4.5,4.5v6.1c0,0,0,4.5,4.5,4.5h59.5c0,0,4.5,0,4.5-4.5V77c0,0,0-4.5-4.5-4.5H588.4z"/>
<text transform="matrix(1 0 0 1 607.1914 82.5239)" class="st2 st3">Details</text>
<path class="st1" d="M588.4,99.8c0,0-4.5,0-4.5,4.5v6.1c0,0,0,4.5,4.5,4.5h59.5c0,0,4.5,0,4.5-4.5v-6.1c0,0,0-4.5-4.5-4.5H588.4z"/>
<text transform="matrix(1 0 0 1 603.3848 109.874)"><tspan x="0" y="0" class="st2 st3">W</tspan><tspan x="6.1" y="0" class="st2 st3">elcome</tspan></text>
<line class="st4" x1="573.9" y1="80.1" x2="579" y2="80.1"/>
<polygon class="st5" points="583.1,80.1 577.4,78 577.4,82.2 "/>
<line class="st4" x1="618.1" y1="87.6" x2="618.1" y2="92.7"/>
<polygon class="st5" points="618.1,96.8 620.2,91.1 616,91.1 "/>
<line class="st4" x1="618.1" y1="114.9" x2="618.1" y2="120"/>
<polygon class="st5" points="618.1,124.2 620.2,118.4 616,118.4 "/>
<line class="st4" x1="495.3" y1="80.1" x2="500.4" y2="80.1"/>
<polygon class="st5" points="504.5,80.1 498.7,78 498.7,82.2 "/>
<line class="st4" x1="305" y1="493.8" x2="697.9" y2="493.8"/>
<line class="st4" x1="429.6" y1="832.1" x2="423" y2="832.1"/>
<polygon class="st5" points="434.3,832.1 429.6,833.8 429.6,830.4 "/>
<line class="st4" x1="429.6" y1="857.3" x2="423" y2="857.3"/>
<polygon class="st5" points="434.3,857.3 429.6,859 429.6,855.6 "/>
<line class="st4" x1="429.6" y1="882.4" x2="423" y2="882.4"/>
<polygon class="st5" points="434.3,882.4 429.6,884.1 429.6,880.7 "/>
<line class="st4" x1="429.6" y1="907.5" x2="423" y2="907.5"/>
<polygon class="st5" points="434.3,907.5 429.6,909.2 429.6,905.8 "/>
<line class="st4" x1="429.6" y1="807.1" x2="423" y2="807.1"/>
<polygon class="st5" points="434.3,807.1 429.6,808.8 429.6,805.4 "/>
<line class="st4" x1="429.6" y1="782" x2="423" y2="782"/>
<polygon class="st5" points="434.3,782 429.6,783.7 429.6,780.3 "/>
</svg>
