<?xml version="1.0" encoding="utf-8"?>
<!-- Generator: Adobe Illustrator 21.1.0, SVG Export Plug-In . SVG Version: 6.00 Build 0)  -->
<svg version="1.1" id="Layer_1" xmlns="http://www.w3.org/2000/svg" xmlns:xlink="http://www.w3.org/1999/xlink" x="0px" y="0px"
	 viewBox="0 0 100 50" style="enable-background:new 0 0 100 50;" xml:space="preserve">
<style type="text/css">
	.st0{fill:#FC8383;}
	.st1{fill:#F69B9B;}
	.st2{fill:#F1B4B4;}
	.st3{fill:#EBCDCD;}
	.st4{fill:#B2B2B2;}
	.st5{fill:none;stroke:#B2B2B2;stroke-miterlimit:10;}
	.st6{fill:none;stroke:#B2B2B2;stroke-width:0.5;stroke-miterlimit:10;}
	.st7{fill:none;stroke:#B2B2B2;stroke-width:0.75;stroke-miterlimit:10;}
	.st8{fill:#FFFFFF;}
	.st9{fill:none;stroke:#FFFFFF;stroke-width:2;stroke-miterlimit:10;}
</style>
<rect class="st0" width="100" height="50"/>
<rect x="77.4" y="59.6" class="st0" width="11.3" height="40.5"/>
<rect x="60.8" y="62.6" class="st1" width="11.3" height="34.4"/>
<rect x="44.2" y="65.7" class="st2" width="11.3" height="28.3"/>
<rect x="27.6" y="68.7" class="st3" width="11.3" height="22.2"/>
<g>
	<path class="st4" d="M99,1v48H1V1H99 M100,0H0v50h100V0L100,0z"/>
</g>
<g>
	<path class="st5" d="M74.9,58v48h-98V58H74.9 M75.9,57h-100v50h100V57L75.9,57z"/>
</g>
<path class="st0" d="M15.5,19.6"/>
<path class="st6" d="M15.5-5.2c0-4.8,3.9-8.6,8.6-8.6s8.6,3.9,8.6,8.6"/>
<path class="st6" d="M32.8-5.2c0-4.8,3.9-8.6,8.6-8.6S50-10,50-5.2"/>
<path class="st6" d="M50-5.2c0-4.8,3.9-8.6,8.6-8.6s8.6,3.9,8.6,8.6"/>
<g>
	<path class="st6" d="M67.2-5.2c0-4.8,3.9-8.6,8.6-8.6c4.2,0,7.6,2.9,8.4,6.8"/>
	<g>
		<polygon class="st4" points="83,-7.2 84.5,-5.2 85.5,-7.5 		"/>
	</g>
</g>
<circle class="st4" cx="-75.1" cy="-32.8" r="8.1"/>
<g>
	<g>
		<path class="st7" d="M-85.3-41.4c2.2-3.2,5.8-5.3,10-5.3c3.7,0,7,1.7,9.2,4.3"/>
		<g>
			<polygon class="st4" points="-67.7,-41.9 -64.9,-40.7 -65.2,-43.7 			"/>
		</g>
	</g>
</g>
<polygon class="st0" points="-16.3,-47.9 -16.3,-18.6 -45.7,-18.6 "/>
<g>
	<g>
		<line class="st7" x1="-50.7" y1="-23.6" x2="-22.9" y2="-51.4"/>
		<g>
			<polygon class="st4" points="-22.1,-50.1 -21.3,-52.9 -24.2,-52.2 			"/>
		</g>
	</g>
</g>
<g>
	<circle class="st8" cx="18.6" cy="18.4" r="5.1"/>
	<circle class="st8" cx="37.6" cy="18.4" r="3.3"/>
	<circle class="st8" cx="53.4" cy="18.4" r="3.3"/>
	<circle class="st8" cx="69.1" cy="18.4" r="3.3"/>
	<circle class="st8" cx="84.9" cy="18.4" r="3.3"/>
	<g>
		<g>
			<line class="st9" x1="30.6" y1="35.8" x2="66.7" y2="35.8"/>
			<g>
				<polygon class="st8" points="65.5,39.8 72.4,35.8 65.5,31.8 				"/>
			</g>
		</g>
	</g>
</g>
</svg>
