<svg width="100" height="50" viewBox="0 0 100 50" fill="none" xmlns="http://www.w3.org/2000/svg">
<g clip-path="url(#clip0)">
<path d="M18.6 23.5C21.4167 23.5 23.7 21.2167 23.7 18.4C23.7 15.5834 21.4167 13.3 18.6 13.3C15.7833 13.3 13.5 15.5834 13.5 18.4C13.5 21.2167 15.7833 23.5 18.6 23.5Z" fill="white"/>
<path d="M37.6 21.7C39.4225 21.7 40.9 20.2225 40.9 18.4C40.9 16.5775 39.4225 15.1 37.6 15.1C35.7774 15.1 34.3 16.5775 34.3 18.4C34.3 20.2225 35.7774 21.7 37.6 21.7Z" fill="white"/>
<path d="M53.4 21.7C55.2225 21.7 56.7 20.2225 56.7 18.4C56.7 16.5775 55.2225 15.1 53.4 15.1C51.5775 15.1 50.1 16.5775 50.1 18.4C50.1 20.2225 51.5775 21.7 53.4 21.7Z" fill="white"/>
<path d="M69.1 21.7C70.9225 21.7 72.4 20.2225 72.4 18.4C72.4 16.5775 70.9225 15.1 69.1 15.1C67.2774 15.1 65.8 16.5775 65.8 18.4C65.8 20.2225 67.2774 21.7 69.1 21.7Z" fill="white"/>
<path d="M84.9 21.7C86.7225 21.7 88.2 20.2225 88.2 18.4C88.2 16.5775 86.7225 15.1 84.9 15.1C83.0775 15.1 81.6 16.5775 81.6 18.4C81.6 20.2225 83.0775 21.7 84.9 21.7Z" fill="white"/>
<path d="M30.6 35.8H66.7" stroke="white" stroke-width="2" stroke-miterlimit="10"/>
<path d="M65.5 39.8L72.4 35.8L65.5 31.8V39.8Z" fill="white"/>
</g>
<defs>
<clipPath id="clip0">
<rect width="100" height="50" fill="white"/>
</clipPath>
</defs>
</svg>
