<?xml version="1.0" encoding="utf-8"?>
<!-- Generator: Adobe Illustrator 23.0.6, SVG Export Plug-In . SVG Version: 6.00 Build 0)  -->
<svg version="1.1"
	 id="svg14" xmlns:cc="http://creativecommons.org/ns#" xmlns:dc="http://purl.org/dc/elements/1.1/" xmlns:inkscape="http://www.inkscape.org/namespaces/inkscape" xmlns:rdf="http://www.w3.org/1999/02/22-rdf-syntax-ns#" xmlns:sodipodi="http://sodipodi.sourceforge.net/DTD/sodipodi-0.dtd" xmlns:svg="http://www.w3.org/2000/svg"
	 xmlns="http://www.w3.org/2000/svg" xmlns:xlink="http://www.w3.org/1999/xlink" x="0px" y="0px" viewBox="0 0 38.5 55.4"
	 style="enable-background:new 0 0 38.5 55.4;" xml:space="preserve">
<sodipodi:namedview  bordercolor="#666666" borderopacity="1" fit-margin-bottom="10" fit-margin-left="10" fit-margin-right="10" fit-margin-top="10" gridtolerance="10" guidetolerance="10" id="namedview16" inkscape:current-layer="svg14" inkscape:cx="25.583884" inkscape:cy="23.883884" inkscape:pageopacity="0" inkscape:pageshadow="2" inkscape:window-height="480" inkscape:window-maximized="0" inkscape:window-width="640" inkscape:window-x="0" inkscape:window-y="0" inkscape:zoom="1.888" objecttolerance="10" pagecolor="#ffffff" showgrid="false">
	</sodipodi:namedview>
<g>
	<g id="line4">
		<polygon points="29.6,39.1 20.4,51.2 20.3,51.4 20.2,51.5 19.3,52.7 19.3,52.8 19.2,52.7 18.1,51.2 8.9,39.1 10.4,38 18.4,48.5 
			18.4,18.1 20.3,18.1 20.3,48.3 28.1,38 		"/>
	</g>
</g>
<g>
	<g>
		<path d="M2.8,7.8L3.5,7c0.5,0.4,1.1,0.7,1.7,0.7c0.7,0,1.1-0.3,1.1-0.8c0-0.5-0.4-0.7-1-1L4.4,5.5C3.8,5.2,3.1,4.7,3.1,3.8
			c0-1,0.9-1.8,2.2-1.8c0.8,0,1.5,0.3,2,0.8L6.7,3.5C6.3,3.2,5.8,2.9,5.3,2.9c-0.6,0-1,0.3-1,0.8c0,0.5,0.5,0.7,1,0.9L6.2,5
			c0.8,0.3,1.3,0.8,1.3,1.8c0,1.1-0.9,1.9-2.3,1.9C4.3,8.7,3.4,8.4,2.8,7.8z"/>
		<path d="M8.3,5.3c0-2.1,1.3-3.4,3-3.4c0.8,0,1.5,0.4,1.9,0.8l-0.6,0.7c-0.3-0.3-0.7-0.6-1.2-0.6c-1.1,0-1.8,0.9-1.8,2.4
			c0,1.5,0.7,2.4,1.8,2.4c0.6,0,1-0.3,1.4-0.7l0.6,0.7c-0.5,0.6-1.2,1-2.1,1C9.6,8.7,8.3,7.5,8.3,5.3z"/>
		<path d="M14.4,2.1h2.2c1.4,0,2.4,0.5,2.4,1.9c0,1.4-1,2-2.4,2h-1v2.6h-1.2V2.1z M16.5,5.1c0.9,0,1.4-0.4,1.4-1.1
			c0-0.8-0.5-1-1.4-1h-0.9v2.1H16.5z M16.4,5.7L17.3,5l2,3.6H18L16.4,5.7z"/>
		<path d="M20,5.3c0-2.1,1.2-3.4,2.9-3.4s2.9,1.3,2.9,3.4c0,2.1-1.2,3.4-2.9,3.4S20,7.4,20,5.3z M24.6,5.3c0-1.5-0.7-2.4-1.7-2.4
			s-1.7,0.9-1.7,2.4c0,1.5,0.7,2.4,1.7,2.4S24.6,6.8,24.6,5.3z"/>
		<path d="M27.1,2.1h1.2v5.6H31v1h-3.9V2.1z"/>
		<path d="M32.1,2.1h1.2v5.6H36v1h-3.9V2.1z"/>
	</g>
</g>
</svg>
