<?xml version="1.0" encoding="utf-8"?>
<!-- Generator: Adobe Illustrator 21.1.0, SVG Export Plug-In . SVG Version: 6.00 Build 0)  -->
<svg version="1.1" id="Layer_1" xmlns="http://www.w3.org/2000/svg" xmlns:xlink="http://www.w3.org/1999/xlink" x="0px" y="0px"
	 viewBox="0 0 100 50" style="enable-background:new 0 0 100 50;" xml:space="preserve">
<style type="text/css">
	.st0{fill:#B2B2B2;}
	.st1{fill:#FC8383;}
	.st2{fill:none;stroke:#FFFFFF;stroke-width:2;stroke-miterlimit:10;}
</style>
<g>
	<path class="st0" d="M99,1v48H1V1H99 M100,0H0v50h100V0L100,0z"/>
</g>
<g>
	<polygon class="st1" points="47.6,11.8 47.6,36.8 31.4,36.8 20.8,42.5 20.8,36.8 11.9,36.8 11.9,11.8 	"/>
	<line class="st2" x1="26.3" y1="20.3" x2="35.6" y2="29.7"/>
	<line class="st2" x1="35.6" y1="20.3" x2="26.3" y2="29.7"/>
	<polygon class="st1" points="86.7,11.8 86.7,36.8 70.4,36.8 59.8,42.5 59.8,36.8 50.9,36.8 50.9,11.8 	"/>
	<g transform="translate(0,-952.36218)">
		<path class="st2" d="M75,972l-9,9.1l-3.5-2.5"/>
	</g>
</g>
</svg>
