<?xml version="1.0" encoding="utf-8"?>
<!-- Generator: Adobe Illustrator 21.1.0, SVG Export Plug-In . SVG Version: 6.00 Build 0)  -->
<svg version="1.1" id="Layer_1" xmlns="http://www.w3.org/2000/svg" xmlns:xlink="http://www.w3.org/1999/xlink" x="0px" y="0px"
	 viewBox="0 0 850.4 468.6" style="enable-background:new 0 0 850.4 468.6;" xml:space="preserve">
<style type="text/css">
	.st0{fill:#FFFFFF;}
	.st1{fill:#AEC7FF;}
	.st2{fill:#5F82FF;}
	.st3{fill:none;stroke:#B7B7B7;stroke-miterlimit:10;}
	.st4{fill:none;}
	.st5{font-family:'RobotoSlab-Light';}
	.st6{font-size:14.9369px;}
</style>
<rect x="16.1" class="st0" width="834.2" height="468.6"/>
<rect x="388.4" y="257.1" class="st1" width="48.5" height="149.4"/>
<rect x="249.5" y="112.8" class="st2" width="48" height="293.7"/>
<rect x="195.4" y="146.9" class="st1" width="50.4" height="259.5"/>
<rect x="440.7" y="232.8" class="st2" width="48" height="173.6"/>
<rect x="748.8" y="60.5" class="st1" width="22.4" height="22.4"/>
<rect x="748.8" y="90.4" class="st2" width="22.4" height="22.4"/>
<rect x="576.3" y="297.6" class="st1" width="49.9" height="108.9"/>
<rect x="629.9" y="287" class="st2" width="49.1" height="119.5"/>
<line class="st3" x1="145" y1="60.5" x2="725.6" y2="60.5"/>
<line class="st3" x1="145" y1="232.8" x2="725.6" y2="232.8"/>
<line class="st3" x1="145" y1="406.5" x2="725.6" y2="406.5"/>
<g>
	<path d="M178.4,420.7v-0.7h1.3v-1.1c0-0.7,0.2-1.5,0.6-1.9c0.4-0.4,0.9-0.6,1.7-0.6c0.2,0,0.4,0,0.6,0c0.2,0,0.4,0,0.6,0.2
		l-0.2,0.7c-0.2,0-0.2,0-0.4,0s-0.2,0-0.4,0c-0.6,0-0.9,0.2-1.1,0.4c-0.2,0.4-0.4,0.7-0.4,1.3v1.1h1.9v0.7h-1.9v6.3l1.1,0v0.6h-3.2
		v-0.6l1.1-0.2v-6.3H178.4z"/>
	<path d="M185.7,419.9l0.2,1.3v0.2c0.2-0.6,0.6-0.9,0.9-1.1c0.4-0.2,0.9-0.4,1.3-0.4c0.2,0,0.2,0,0.4,0s0.2,0,0.2,0l-0.2,0.7h-0.6
		c-0.6,0-0.9,0.2-1.3,0.4c-0.4,0.4-0.6,0.7-0.7,1.3v4.7l1.1,0.2v0.6h-3.4v-0.6l1.1-0.2v-6.3l-1.1-0.2v-0.6h1.1L185.7,419.9
		L185.7,419.9z"/>
	<path d="M193.1,427.9c-0.9,0-1.9-0.4-2.4-1.1c-0.6-0.7-0.9-1.7-0.9-2.8v-0.4c0-1.1,0.4-2.1,0.9-2.8c0.6-0.7,1.5-1.1,2.4-1.1
		s1.7,0.4,2.2,0.9s0.7,1.5,0.7,2.4v0.7h-5.6v0.2c0,0.9,0.2,1.7,0.7,2.2c0.6,0.6,1.1,0.9,1.9,0.9c0.6,0,0.9,0,1.3-0.2
		c0.4-0.2,0.7-0.4,0.9-0.6l0.4,0.6c-0.4,0.4-0.7,0.6-1.1,0.7C194.3,427.9,193.7,427.9,193.1,427.9z M193,420.5
		c-0.6,0-1.1,0.2-1.7,0.7c-0.4,0.6-0.7,1.1-0.7,1.9l0,0h4.7v-0.2c0-0.7-0.2-1.3-0.6-1.7C194.3,420.7,193.7,420.5,193,420.5z"/>
	<path d="M197.6,423.8c0-1.3,0.2-2.2,0.7-3c0.6-0.7,1.3-1.1,2.2-1.1c0.6,0,0.9,0.2,1.5,0.4c0.6,0.2,0.7,0.6,0.9,0.9v-1.1h0.7v10.3
		l1.1,0.2v0.6h-3.2v-0.6l1.1-0.2v-3.4c-0.2,0.4-0.6,0.7-0.9,0.9c-0.4,0.2-0.9,0.4-1.5,0.4c-0.9,0-1.7-0.4-2.2-1.1
		C198,426.3,197.6,425.3,197.6,423.8L197.6,423.8z M198.6,424c0,0.9,0.2,1.7,0.6,2.2c0.4,0.6,0.9,0.9,1.7,0.9c0.6,0,0.9-0.2,1.3-0.4
		c0.4-0.2,0.7-0.6,0.9-0.9V422c-0.2-0.4-0.6-0.7-0.9-1.1s-0.7-0.4-1.3-0.4c-0.7,0-1.3,0.4-1.7,0.9C198.7,422,198.6,422.9,198.6,424
		L198.6,424z"/>
	<path d="M211.8,426.4c-0.2,0.4-0.6,0.7-0.9,1.1c-0.4,0.2-0.9,0.4-1.5,0.4c-0.7,0-1.5-0.4-1.9-0.9c-0.6-0.6-0.7-1.5-0.7-2.6v-3.9
		l-0.9-0.2v-0.6h0.9h0.9v4.7c0,0.9,0.2,1.7,0.6,2.1c0.4,0.4,0.7,0.6,1.3,0.6c0.7,0,1.1-0.2,1.5-0.4c0.4-0.2,0.7-0.7,0.7-1.1v-4.9
		l-1.1-0.2v-0.6h1.1h0.9v7.1l1.1,0.2v0.6H212L211.8,426.4z"/>
	<path d="M218.5,427.9c-0.9,0-1.9-0.4-2.4-1.1c-0.6-0.7-0.9-1.7-0.9-2.8v-0.4c0-1.1,0.4-2.1,0.9-2.8c0.6-0.7,1.5-1.1,2.4-1.1
		c0.9,0,1.7,0.4,2.2,0.9c0.6,0.6,0.7,1.5,0.7,2.4v0.7h-5.6v0.2c0,0.9,0.2,1.7,0.7,2.2c0.6,0.6,1.1,0.9,1.9,0.9c0.6,0,0.9,0,1.3-0.2
		c0.4-0.2,0.7-0.4,0.9-0.6l0.4,0.6c-0.4,0.4-0.7,0.6-1.1,0.7C219.7,427.9,219.1,427.9,218.5,427.9z M218.3,420.5
		c-0.6,0-1.1,0.2-1.7,0.7c-0.4,0.6-0.7,1.1-0.7,1.9l0,0h4.7v-0.2c0-0.7-0.2-1.3-0.6-1.7C219.7,420.7,219.1,420.5,218.3,420.5z"/>
	<path d="M222.8,427.2l1.1-0.2v-6.3l-1.1-0.2v-0.6h2.1v1.3c0.2-0.6,0.6-0.9,0.9-1.1c0.4-0.2,0.9-0.4,1.5-0.4c0.9,0,1.5,0.2,1.9,0.7
		c0.4,0.6,0.7,1.3,0.7,2.4v4.1l1.1,0.2v0.6h-3.2v-0.6l1.1-0.2v-4.1c0-0.9-0.2-1.5-0.6-1.9c-0.4-0.4-0.7-0.6-1.5-0.6
		c-0.6,0-1.1,0.2-1.5,0.6c-0.4,0.4-0.7,0.7-0.7,1.3v4.9l1.1,0.2v0.6h-3V427.2z"/>
	<path d="M234.6,417.9v2.1h1.7v0.7h-1.7v5.2c0,0.6,0.2,0.9,0.4,1.1c0.2,0.2,0.4,0.4,0.7,0.4c0.2,0,0.2,0,0.4,0s0.4,0,0.4,0l0.2,0.6
		c-0.2,0-0.4,0.2-0.6,0.2c-0.2,0-0.4,0-0.6,0c-0.6,0-0.9-0.2-1.3-0.6s-0.4-0.9-0.4-1.7v-5.2h-1.3v-0.7h1.3v-2.1H234.6z"/>
	<path d="M247.1,427.8c0-0.2-0.2-0.6-0.2-0.7s0-0.4,0-0.6c-0.4,0.4-0.7,0.7-1.1,1.1c-0.6,0.2-1.1,0.4-1.7,0.4
		c-0.7,0-1.3-0.2-1.9-0.6c-0.4-0.4-0.6-0.9-0.6-1.7c0-0.7,0.4-1.3,0.9-1.7c0.6-0.4,1.5-0.6,2.6-0.6h1.7v-1.1c0-0.6-0.2-0.9-0.6-1.3
		c-0.4-0.4-0.9-0.6-1.5-0.6c-0.4,0-0.7,0-1.1,0.2c-0.4,0.2-0.7,0.4-0.9,0.6v1.1h-0.7v-1.5c0.4-0.4,0.7-0.6,1.3-0.7
		c0.6-0.2,1.1-0.2,1.7-0.2c0.9,0,1.5,0.2,2.1,0.7c0.6,0.4,0.7,1.1,0.7,1.9v3.9c0,0.2,0,0.4,0,0.4c0,0.2,0,0.4,0,0.4h0.7v0.6
		L247.1,427.8L247.1,427.8z M244.1,427.2c0.6,0,1.1-0.2,1.7-0.4c0.6-0.2,0.7-0.7,1.1-1.1v-1.5h-1.7c-0.7,0-1.5,0.2-1.9,0.6
		s-0.7,0.7-0.7,1.3c0,0.4,0.2,0.7,0.4,0.9C243.2,427,243.7,427.2,244.1,427.2z"/>
	<path d="M255.3,426.6c-0.2,0.4-0.6,0.7-0.9,0.9c-0.4,0.2-0.9,0.4-1.5,0.4c-0.9,0-1.7-0.4-2.2-1.1c-0.6-0.7-0.7-1.7-0.7-2.8v-0.2
		c0-1.3,0.2-2.2,0.7-3c0.6-0.7,1.3-1.1,2.2-1.1c0.6,0,0.9,0.2,1.5,0.4c0.4,0.2,0.7,0.6,0.9,0.9v-3.9l-1.1-0.2v-0.6h1.1h0.9V427
		l1.1,0.2v0.6h-2.1V426.6z M250.6,424c0,0.9,0.2,1.7,0.6,2.2c0.4,0.6,0.9,0.9,1.7,0.9c0.6,0,1.1-0.2,1.5-0.4
		c0.4-0.2,0.7-0.6,0.9-1.1V422c-0.2-0.4-0.6-0.7-0.9-1.1s-0.9-0.4-1.5-0.4c-0.7,0-1.3,0.4-1.7,0.9
		C250.8,422.2,250.6,422.9,250.6,424L250.6,424z"/>
	<path d="M264.5,426.4c-0.2,0.4-0.6,0.7-0.9,1.1c-0.4,0.2-0.9,0.4-1.5,0.4c-0.7,0-1.5-0.4-1.9-0.9c-0.6-0.6-0.7-1.5-0.7-2.6v-3.9
		l-0.9-0.2v-0.6h0.9h0.9v4.7c0,0.9,0.2,1.7,0.6,2.1c0.4,0.4,0.7,0.6,1.3,0.6c0.7,0,1.1-0.2,1.5-0.4c0.4-0.2,0.7-0.7,0.7-1.1v-4.9
		l-1.1-0.2v-0.6h1.1h0.9v7.1l1.1,0.2v0.6h-1.9L264.5,426.4z"/>
	<path d="M267.5,417.1v-0.6h2.1v10.6l1.1,0.2v0.6h-3.2v-0.7l1.1-0.2v-9.9L267.5,417.1z"/>
	<path d="M274.2,417.9v2.1h1.7v0.7h-1.7v5.2c0,0.6,0.2,0.9,0.4,1.1c0.2,0.2,0.4,0.4,0.7,0.4c0.2,0,0.2,0,0.4,0c0.2,0,0.4,0,0.4,0
		l0.2,0.6c-0.2,0-0.4,0.2-0.6,0.2c-0.2,0-0.4,0-0.6,0c-0.6,0-0.9-0.2-1.3-0.6s-0.4-0.9-0.4-1.7v-5.2h-1.3v-0.7h1.3v-2.1H274.2z"/>
	<path d="M282.9,419.9l0.2,1.3v0.2c0.2-0.6,0.6-0.9,0.9-1.1c0.4-0.2,0.9-0.4,1.3-0.4c0.2,0,0.2,0,0.4,0s0.2,0,0.2,0l-0.2,0.7h-0.6
		c-0.6,0-0.9,0.2-1.3,0.4c-0.4,0.4-0.6,0.7-0.7,1.3v4.7l1.1,0.2v0.6h-3.2v-0.6l1.1-0.2v-6.3l-1.1-0.2v-0.6h1.1L282.9,419.9
		L282.9,419.9z"/>
	<path d="M287.1,427.2l1.1-0.2v-6.3l-1.1-0.2v-0.6h2.1v7.1l1.1,0.2v0.6h-3.2L287.1,427.2L287.1,427.2z M289.1,417.7h-0.9v-1.3h0.9
		V417.7z"/>
	<path d="M297.3,426.6c-0.2,0.4-0.6,0.7-0.9,0.9c-0.4,0.2-0.9,0.4-1.5,0.4c-0.9,0-1.7-0.4-2.2-1.1c-0.6-0.7-0.7-1.7-0.7-2.8v-0.2
		c0-1.3,0.2-2.2,0.7-3s1.3-1.1,2.2-1.1c0.6,0,0.9,0.2,1.5,0.4c0.4,0.2,0.7,0.6,0.9,0.9v-3.9l-1.1-0.2v-0.6h1.1h0.9V427l1.1,0.2v0.6
		h-2.1V426.6z M292.7,424c0,0.9,0.2,1.7,0.6,2.2c0.4,0.6,0.9,0.9,1.7,0.9c0.6,0,1.1-0.2,1.5-0.4c0.4-0.2,0.7-0.6,0.9-1.1V422
		c-0.2-0.4-0.6-0.7-0.9-1.1s-0.9-0.4-1.5-0.4c-0.7,0-1.3,0.4-1.7,0.9C292.8,422.2,292.7,422.9,292.7,424L292.7,424z"/>
	<path d="M304,427.9c-0.9,0-1.9-0.4-2.4-1.1c-0.6-0.7-0.9-1.7-0.9-2.8v-0.4c0-1.1,0.4-2.1,0.9-2.8c0.6-0.7,1.5-1.1,2.4-1.1
		s1.7,0.4,2.2,0.9c0.6,0.6,0.7,1.5,0.7,2.4v0.7h-5.6v0.2c0,0.9,0.2,1.7,0.7,2.2c0.6,0.6,1.1,0.9,1.9,0.9c0.6,0,0.9,0,1.3-0.2
		c0.4-0.2,0.7-0.4,0.9-0.6l0.4,0.6c-0.4,0.4-0.7,0.6-1.1,0.7C305.2,427.9,304.8,427.9,304,427.9z M304,420.5c-0.6,0-1.1,0.2-1.7,0.7
		c-0.4,0.6-0.7,1.1-0.7,1.9l0,0h4.7v-0.2c0-0.7-0.2-1.3-0.6-1.7C305.2,420.7,304.8,420.5,304,420.5z"/>
	<path d="M310.6,419.9l0.2,1.3v0.2c0.2-0.6,0.6-0.9,0.9-1.1c0.4-0.2,0.9-0.4,1.3-0.4c0.2,0,0.2,0,0.4,0c0.2,0,0.2,0,0.2,0l-0.2,0.7
		h-0.6c-0.6,0-0.9,0.2-1.3,0.4c-0.4,0.4-0.6,0.7-0.7,1.3v4.7l1.1,0.2v0.6h-3.2v-0.6l1.1-0.2v-6.3l-1.1-0.2v-0.6h1.1L310.6,419.9
		L310.6,419.9z"/>
	<path d="M320.5,422.3h-0.7l-0.2-1.1c-0.2-0.2-0.6-0.4-0.7-0.6c-0.4-0.2-0.7-0.2-1.1-0.2c-0.6,0-1.1,0.2-1.5,0.4s-0.6,0.6-0.6,0.9
		s0.2,0.7,0.4,0.9c0.2,0.2,0.7,0.4,1.7,0.6c0.9,0.2,1.7,0.6,2.1,0.9c0.4,0.4,0.7,0.9,0.7,1.5c0,0.7-0.2,1.1-0.7,1.7
		c-0.6,0.4-1.3,0.6-2.1,0.6c-0.6,0-1.1,0-1.7-0.2c-0.6-0.2-0.9-0.4-1.3-0.7v-1.7h0.7l0.2,1.1c0.2,0.2,0.6,0.4,0.9,0.6
		c0.4,0.2,0.7,0.2,1.1,0.2c0.6,0,1.1-0.2,1.5-0.4c0.4-0.2,0.6-0.6,0.6-0.9s-0.2-0.7-0.4-0.9c-0.2-0.2-0.9-0.6-1.7-0.7
		c-0.9-0.2-1.7-0.6-2.1-0.7c-0.4-0.4-0.7-0.7-0.7-1.5c0-0.6,0.2-1.1,0.7-1.5c0.6-0.4,1.1-0.6,2.1-0.6c0.6,0,1.1,0,1.5,0.2
		c0.6,0.2,0.9,0.4,1.1,0.7L320.5,422.3z"/>
</g>
<g>
	<path d="M59.3,326.4v2.2l3,0.6v0.7l-3-0.6v1.9h-0.7v-2.1l-3.2-0.6v2.1h-0.6v-2.2l-3-0.6v-0.7l3,0.6v-2.2l-3-0.6v-0.7l3,0.6V323h0.7
		v1.9l3.2,0.6v-1.9h0.7v2.1l3,0.6v0.7L59.3,326.4z M58.7,328.6v-2.2l-3.2-0.6v2.2L58.7,328.6z"/>
	<path d="M51.6,314.2c0-1.1,0.2-2.1,0.7-2.6c0.4-0.6,1.1-0.9,2.1-0.9c0.6,0,0.9,0.2,1.5,0.4c0.4,0.4,0.7,0.7,0.7,1.3
		c0.2-0.6,0.4-1.1,0.9-1.5c0.6-0.4,1.1-0.6,1.7-0.6c0.9,0,1.7,0.4,2.2,0.9c0.6,0.6,0.7,1.5,0.7,2.4v4.9h-0.6l-0.2-1.1h-9.1l-0.2,1.1
		h-0.6v-1.1V314.2z M56.5,316.5V314c0-0.7-0.2-1.3-0.6-1.9c-0.4-0.4-0.7-0.6-1.5-0.6s-1.1,0.2-1.5,0.7c-0.4,0.4-0.6,1.1-0.6,1.9v2.2
		L56.5,316.5L56.5,316.5z M57.2,316.5h4.3v-2.8c0-0.7-0.2-1.3-0.6-1.9c-0.4-0.6-0.9-0.7-1.7-0.7c-0.6,0-1.1,0.2-1.5,0.6
		s-0.6,0.9-0.6,1.7V316.5z"/>
	<path d="M61.7,308.6l-0.2-1.1h-6.3l-0.2,1.1h-0.6v-2.1h7.1l0.2-1.1h0.6v3.2L61.7,308.6L61.7,308.6z M52.2,306.6v0.9h-1.3v-0.9H52.2
		z"/>
	<path d="M51.6,304.2h-0.7v-2.1h6.7v-0.9l-2.6-2.4l0,0v0.7h-0.6v-2.8H55v0.9l2.8,2.6l3.5-3v-0.9h0.9v2.8h-0.6v-0.7l-3.2,2.8v0.9h3.2
		l0.2-1.1h0.4v3.2h-0.6l-0.2-1.1h-9.9V304.2z"/>
	<path d="M62.4,291.8c0,0.9-0.4,1.9-1.1,2.4c-0.7,0.6-1.7,0.9-2.8,0.9h-0.4c-1.1,0-2.1-0.4-2.8-0.9c-0.7-0.6-1.1-1.5-1.1-2.4
		c0-0.9,0.4-1.7,0.9-2.2c0.6-0.6,1.5-0.7,2.4-0.7h0.7v5.6h0.2c0.9,0,1.7-0.2,2.2-0.7c0.6-0.6,0.9-1.1,0.9-1.9c0-0.6,0-0.9-0.2-1.3
		c-0.2-0.4-0.4-0.7-0.6-0.9l0.6-0.4c0.4,0.4,0.6,0.7,0.7,1.1S62.4,291.3,62.4,291.8z M55,292c0,0.6,0.2,1.1,0.7,1.7
		c0.6,0.4,1.1,0.7,1.9,0.7l0,0v-4.7h-0.2c-0.7,0-1.3,0.2-1.7,0.6C55.2,290.7,55,291.3,55,292z"/>
	<path d="M51.6,279.5c0-1.1,0.2-2.1,0.7-2.6s1.1-0.9,2.2-0.9c0.6,0,1.1,0.2,1.5,0.6s0.7,0.7,0.9,1.3c0.2-0.7,0.4-1.1,0.9-1.5
		c0.4-0.4,0.9-0.4,1.7-0.4h0.9c0.4,0,0.6,0,0.7-0.2c0.2-0.2,0.2-0.4,0.4-0.6v-0.4h0.6v0.6c0,0.6-0.2,0.9-0.6,1.1
		c-0.4,0.2-0.7,0.4-1.3,0.4h-0.9c-0.6,0-1.1,0.2-1.5,0.6c-0.4,0.4-0.6,0.9-0.6,1.7v2.6h4.1l0.2-1.1h0.6v3.2h-0.6l-0.2-1.1h-9.1
		l-0.2,1.1h-0.6V279.5z M56.7,281.9v-2.2c0-0.9-0.2-1.7-0.6-2.1c-0.4-0.4-0.9-0.7-1.5-0.7c-0.7,0-1.1,0.2-1.5,0.7
		c-0.4,0.4-0.6,1.1-0.6,2.1v2.4h4.1V281.9z"/>
	<path d="M61.7,273.7l-0.2-1.1h-6.3l-0.2,1.1h-0.6v-2.1h7.1l0.2-1.1h0.6v3.2L61.7,273.7L61.7,273.7z M52.2,271.7v0.9h-1.3v-0.9H52.2
		z"/>
	<path d="M61.1,263.6c0.4,0.2,0.7,0.6,0.9,0.9c0.2,0.4,0.4,0.9,0.4,1.5c0,0.9-0.4,1.7-1.1,2.2c-0.7,0.6-1.7,0.7-2.8,0.7h-0.2
		c-1.3,0-2.2-0.2-3-0.7c-0.7-0.6-1.1-1.3-1.1-2.2c0-0.6,0.2-0.9,0.4-1.5c0.2-0.4,0.6-0.7,0.9-0.9h-3.9v1.1h-0.7v-1.1v-0.9h10.6
		l0.2-1.1h0.6v2.1H61.1z M58.5,268.1c0.9,0,1.7-0.2,2.2-0.6c0.6-0.4,0.9-0.9,0.9-1.7c0-0.6-0.2-1.1-0.4-1.5
		c-0.2-0.4-0.6-0.7-1.1-0.9h-3.7c-0.4,0.2-0.7,0.6-1.1,0.9c-0.4,0.4-0.4,0.9-0.4,1.5c0,0.7,0.4,1.3,0.9,1.7
		C56.7,267.9,57.4,268.1,58.5,268.1L58.5,268.1z"/>
	<path d="M62.4,256.7c0,0.9-0.4,1.9-1.1,2.4c-0.7,0.6-1.7,0.9-2.8,0.9h-0.4c-1.1,0-2.1-0.4-2.8-0.9c-0.7-0.6-1.1-1.5-1.1-2.4
		c0-0.9,0.4-1.7,0.9-2.2c0.6-0.6,1.5-0.7,2.4-0.7h0.7v5.6h0.2c0.9,0,1.7-0.2,2.2-0.7c0.6-0.6,0.9-1.1,0.9-1.9c0-0.6,0-0.9-0.2-1.3
		c-0.2-0.4-0.4-0.7-0.6-0.9l0.6-0.4c0.4,0.4,0.6,0.7,0.7,1.1S62.4,256.2,62.4,256.7z M55,256.9c0,0.6,0.2,1.1,0.7,1.7
		c0.6,0.4,1.1,0.7,1.9,0.7l0,0v-4.7h-0.2c-0.7,0-1.3,0.2-1.7,0.6C55.2,255.6,55,256.2,55,256.9z"/>
	<path d="M54.4,250.2l1.3-0.2h0.2c-0.6-0.2-0.9-0.6-1.1-0.9c-0.2-0.4-0.4-0.9-0.4-1.3c0-0.2,0-0.2,0-0.4s0-0.2,0-0.2l0.7,0.2v0.6
		c0,0.6,0.2,0.9,0.4,1.3c0.4,0.4,0.7,0.6,1.3,0.7h4.7l0.2-1.1h0.6v3.2h-0.6l-0.2-1.1h-6.3l-0.2,1.1h-0.6v-1.1
		C54.4,250.9,54.4,250.2,54.4,250.2z"/>
	<path d="M56.8,240.5v0.7l-1.1,0.2c-0.2,0.2-0.4,0.6-0.6,0.7c-0.2,0.4-0.2,0.7-0.2,1.1c0,0.6,0.2,1.1,0.4,1.5
		c0.2,0.4,0.6,0.6,0.9,0.6s0.7-0.2,0.9-0.4s0.4-0.7,0.6-1.7c0.2-0.9,0.6-1.7,0.9-2.1c0.4-0.4,0.9-0.7,1.5-0.7c0.7,0,1.1,0.2,1.7,0.7
		c0.4,0.6,0.6,1.3,0.6,2.1c0,0.6,0,1.1-0.2,1.7c-0.2,0.6-0.4,0.9-0.7,1.3h-1.7v-0.7l1.1-0.2c0.2-0.2,0.4-0.6,0.6-0.9
		c0.2-0.4,0.2-0.7,0.2-1.1c0-0.6-0.2-1.1-0.4-1.5s-0.6-0.6-0.9-0.6s-0.7,0.2-0.9,0.4c-0.2,0.2-0.6,0.9-0.7,1.7
		c-0.2,0.9-0.6,1.7-0.7,2.1c-0.4,0.4-0.7,0.7-1.5,0.7c-0.6,0-1.1-0.2-1.5-0.7c-0.4-0.6-0.6-1.1-0.6-2.1c0-0.6,0-1.1,0.2-1.5
		c0.2-0.6,0.4-0.9,0.7-1.1L56.8,240.5z"/>
	<path d="M58,234.9c-1.7,0-3.4-0.4-4.7-0.9s-2.4-1.5-2.8-2.2l0,0l0.6-0.2c0.6,0.7,1.3,1.3,2.6,1.9s2.8,0.7,4.3,0.7h0.2
		c1.7,0,3-0.2,4.3-0.7c1.3-0.6,2.2-1.1,2.6-1.9l0.6,0.2l0,0c-0.6,0.9-1.5,1.7-2.8,2.2S60,234.9,58,234.9L58,234.9z"/>
	<path d="M61.7,230.4l-0.2-1.1h-6.3l-0.2,1.1h-0.6v-2.1h7.1l0.2-1.1h0.6v3.2H61.7z M52.2,228.3v0.9h-1.3v-0.9H52.2z"/>
	<path d="M61.7,225.9l-0.2-1.1h-6.3l-0.2,1.1h-0.6v-2.1h1.3c-0.6-0.2-0.9-0.6-1.1-0.9s-0.4-0.9-0.4-1.5c0-0.9,0.2-1.5,0.7-1.9
		c0.6-0.4,1.3-0.7,2.4-0.7h4.1l0.2-1.1h0.6v3.2h-0.6l-0.2-1.1h-4.1c-0.9,0-1.5,0.2-1.9,0.6c-0.4,0.4-0.6,0.7-0.6,1.5
		c0,0.6,0.2,1.1,0.6,1.5c0.4,0.4,0.7,0.7,1.3,0.7h4.9l0.2-1.1h0.4v3.2h-0.6V225.9z"/>
	<path d="M52.4,210.4h2.1v-1.7h0.7v1.7h5.2c0.6,0,0.9-0.2,1.1-0.4c0.2-0.2,0.4-0.4,0.4-0.7c0-0.2,0-0.2,0-0.4s0-0.4,0-0.4l0.6-0.2
		c0,0.2,0.2,0.4,0.2,0.6c0,0.2,0,0.4,0,0.6c0,0.6-0.2,0.9-0.6,1.3c-0.4,0.4-0.9,0.4-1.7,0.4h-5.2v1.3h-0.7v-1.3h-2.1V210.4z"/>
	<path d="M51.6,207.4h-0.7v-2.1h4.9c-0.6-0.2-0.7-0.6-1.1-1.1c-0.4-0.6-0.4-0.9-0.4-1.5c0-0.7,0.2-1.5,0.7-1.9
		c0.6-0.4,1.3-0.7,2.4-0.7h4.1l0.2-1.1h0.6v3.2h-0.6l-0.2-1.1h-4.1c-0.9,0-1.5,0.2-1.9,0.6S55,202.4,55,203c0,0.6,0.2,1.1,0.6,1.5
		c0.4,0.4,0.7,0.7,1.3,0.9h4.9l0.2-1.1h0.4v3.2h-0.6l-0.2-1.1h-9.9V207.4z"/>
	<path d="M58.1,197.7c-1.1,0-2.1-0.4-2.8-0.9s-1.1-1.5-1.1-2.6c0-1.1,0.4-1.9,1.1-2.6c0.7-0.7,1.7-0.9,2.8-0.9h0.4
		c1.1,0,2.1,0.4,2.8,0.9c0.7,0.6,1.1,1.5,1.1,2.6c0,1.1-0.4,1.9-1.1,2.6c-0.7,0.6-1.7,0.9-2.8,0.9H58.1z M58.5,196.8
		c0.9,0,1.7-0.2,2.2-0.7c0.6-0.4,0.9-1.1,0.9-1.9s-0.4-1.5-0.9-1.9c-0.6-0.4-1.3-0.7-2.2-0.7h-0.2c-0.9,0-1.7,0.2-2.2,0.7
		c-0.6,0.6-0.9,1.1-0.9,1.9s0.4,1.5,0.9,1.9c0.6,0.4,1.3,0.7,2.2,0.7H58.5z"/>
	<path d="M61,183.5c0.4,0.2,0.7,0.6,1.1,0.9c0.2,0.4,0.4,0.9,0.4,1.5c0,0.7-0.4,1.5-0.9,1.9c-0.6,0.6-1.5,0.7-2.6,0.7H55l-0.2,0.9
		h-0.6v-0.9v-0.9h4.7c0.9,0,1.7-0.2,2.1-0.6s0.6-0.7,0.6-1.3c0-0.7-0.2-1.1-0.4-1.5c-0.2-0.4-0.7-0.7-1.1-0.7h-4.9l-0.2,1.1h-0.6
		v-1.1v-0.9h7.1l0.2-1.1h0.6v1.9L61,183.5z"/>
	<path d="M56.8,174.6v0.7l-1.1,0.2c-0.2,0.2-0.4,0.6-0.6,0.7c-0.2,0.4-0.2,0.7-0.2,1.1c0,0.6,0.2,1.1,0.4,1.5
		c0.2,0.4,0.6,0.6,0.9,0.6s0.7-0.2,0.9-0.4s0.4-0.7,0.6-1.7c0.2-0.9,0.6-1.7,0.9-2.1s0.9-0.7,1.5-0.7c0.7,0,1.1,0.2,1.7,0.7
		c0.4,0.6,0.6,1.3,0.6,2.1c0,0.6,0,1.1-0.2,1.7c-0.2,0.6-0.4,0.9-0.7,1.3h-1.7v-0.7l1.1-0.2c0.2-0.2,0.4-0.6,0.6-0.9
		c0.2-0.4,0.2-0.7,0.2-1.1c0-0.6-0.2-1.1-0.4-1.5c-0.2-0.4-0.6-0.6-0.9-0.6s-0.7,0.2-0.9,0.4c-0.2,0.2-0.6,0.9-0.7,1.7
		c-0.2,0.9-0.6,1.7-0.7,2.1c-0.4,0.4-0.7,0.7-1.5,0.7c-0.6,0-1.1-0.2-1.5-0.7s-0.6-1.1-0.6-2.1c0-0.6,0-1.1,0.2-1.5
		c0.2-0.6,0.4-0.9,0.7-1.1L56.8,174.6z"/>
	<path d="M62.3,167.5c-0.2,0-0.6,0.2-0.7,0.2c-0.2,0-0.4,0-0.6,0c0.4,0.4,0.7,0.7,1.1,1.1c0.2,0.6,0.4,1.1,0.4,1.7
		c0,0.7-0.2,1.3-0.6,1.9c-0.4,0.4-0.9,0.6-1.7,0.6c-0.7,0-1.3-0.4-1.7-0.9c-0.4-0.6-0.6-1.5-0.6-2.6v-1.7h-1.1
		c-0.6,0-0.9,0.2-1.3,0.6s-0.6,0.9-0.6,1.5c0,0.4,0,0.7,0.2,1.1s0.4,0.7,0.6,0.9h1.1v0.7h-1.5c-0.4-0.4-0.6-0.7-0.7-1.3
		c-0.2-0.6-0.2-1.1-0.2-1.7c0-0.9,0.2-1.5,0.7-2.1c0.4-0.6,1.1-0.7,1.9-0.7H61c0.2,0,0.4,0,0.4,0c0.2,0,0.4,0,0.4,0V166h0.6V167.5z
		 M61.7,170.3c0-0.6-0.2-1.1-0.4-1.7c-0.2-0.6-0.7-0.7-1.1-1.1h-1.7v1.7c0,0.7,0.2,1.5,0.6,1.9s0.7,0.7,1.3,0.7
		c0.4,0,0.7-0.2,0.9-0.4C61.5,171.2,61.7,170.8,61.7,170.3z"/>
	<path d="M61.7,164.9l-0.2-1.1h-6.3l-0.2,1.1h-0.6v-2.1h1.3c-0.6-0.2-0.9-0.6-1.1-0.9s-0.4-0.9-0.4-1.5c0-0.9,0.2-1.5,0.7-1.9
		c0.6-0.4,1.3-0.7,2.4-0.7h4.1l0.2-1.1h0.6v3.2h-0.6l-0.2-1.1h-4.1c-0.9,0-1.5,0.2-1.9,0.6c-0.4,0.4-0.6,0.7-0.6,1.5
		c0,0.6,0.2,1.1,0.6,1.5c0.4,0.4,0.7,0.7,1.3,0.7h4.9l0.2-1.1h0.4v3.2h-0.6V164.9z"/>
	<path d="M61.1,149.6c0.4,0.2,0.7,0.6,0.9,0.9c0.2,0.4,0.4,0.9,0.4,1.5c0,0.9-0.4,1.7-1.1,2.2c-0.7,0.6-1.7,0.7-2.8,0.7h-0.2
		c-1.3,0-2.2-0.2-3-0.7c-0.7-0.6-1.1-1.3-1.1-2.2c0-0.6,0.2-0.9,0.4-1.5c0.2-0.4,0.6-0.7,0.9-0.9h-3.9v1.3h-0.7v-1.1v-0.9h10.6
		l0.2-1.1h0.6v2.1L61.1,149.6z M58.5,154.2c0.9,0,1.7-0.2,2.2-0.6c0.6-0.4,0.9-0.9,0.9-1.7c0-0.6-0.2-0.9-0.4-1.5
		c-0.2-0.4-0.6-0.7-1.1-0.9h-3.7c-0.4,0.2-0.7,0.6-1.1,0.9c-0.4,0.4-0.4,0.9-0.4,1.5c0,0.7,0.4,1.3,0.9,1.7
		C56.7,154,57.4,154.2,58.5,154.2L58.5,154.2z"/>
	<path d="M56.8,140.6v0.7l-1.1,0.2c-0.2,0.2-0.4,0.6-0.6,0.7c-0.2,0.4-0.2,0.7-0.2,1.1c0,0.6,0.2,1.1,0.4,1.5
		c0.2,0.4,0.6,0.6,0.9,0.6s0.7-0.2,0.9-0.4s0.4-0.7,0.6-1.7c0.2-0.9,0.6-1.7,0.9-2.1c0.4-0.4,0.9-0.7,1.5-0.7c0.7,0,1.1,0.2,1.7,0.7
		c0.4,0.6,0.6,1.3,0.6,2.1c0,0.6,0,1.1-0.2,1.7c-0.2,0.6-0.4,0.9-0.7,1.3h-1.7v-0.7l1.1-0.2c0.2-0.2,0.4-0.6,0.6-0.9
		c0.2-0.4,0.2-0.7,0.2-1.1c0-0.6-0.2-1.1-0.4-1.5c-0.2-0.4-0.6-0.6-0.9-0.6s-0.7,0.2-0.9,0.4c-0.2,0.2-0.6,0.9-0.7,1.7
		c-0.2,0.9-0.6,1.7-0.7,2.1c-0.4,0.4-0.7,0.7-1.5,0.7c-0.6,0-1.1-0.2-1.5-0.7s-0.6-1.1-0.6-2.1c0-0.6,0-1.1,0.2-1.5
		c0.2-0.6,0.4-0.9,0.7-1.1L56.8,140.6z"/>
	<path d="M58.1,135.9c1.9,0,3.4,0.4,4.9,0.9c1.5,0.6,2.2,1.5,2.8,2.2l0,0l-0.6,0.2c-0.6-0.7-1.3-1.3-2.6-1.9
		c-1.3-0.6-2.8-0.7-4.3-0.7h-0.2c-1.7,0-3,0.2-4.3,0.7s-2.2,1.1-2.6,1.9l-0.6-0.2l0,0c0.6-0.7,1.5-1.5,2.8-2.2
		C54.8,136.1,56.3,135.9,58.1,135.9L58.1,135.9z"/>
</g>
<rect x="-39.5" y="227.2" class="st4" width="179.8" height="59.7"/>
<text transform="matrix(1 0 0 1 104.0415 238.5865)" class="st5 st6">2,000</text>
<rect x="-39.5" y="401.4" class="st4" width="179.8" height="59.7"/>
<text transform="matrix(1 0 0 1 131.9316 412.8506)" class="st5 st6">0</text>
<rect x="-39.5" y="53" class="st4" width="179.8" height="59.7"/>
<text transform="matrix(1 0 0 1 103.5894 64.3228)" class="st5 st6">4,000</text>
<rect x="777.4" y="67.2" class="st4" width="146.2" height="23"/>
<text transform="matrix(1 0 0 1 777.373 78.6372)" class="st5 st6">2000</text>
<rect x="777.4" y="96.2" class="st4" width="146.2" height="23"/>
<text transform="matrix(1 0 0 1 777.373 107.5777)" class="st5 st6">2010</text>
<g>
	<path d="M371.5,420.7v-0.7h1.3v-1.1c0-0.7,0.2-1.5,0.6-1.9s0.9-0.6,1.7-0.6c0.2,0,0.4,0,0.6,0c0.2,0,0.4,0,0.6,0.2l-0.2,0.7
		c-0.2,0-0.2,0-0.4,0c-0.2,0-0.2,0-0.4,0c-0.6,0-0.9,0.2-1.1,0.4c-0.2,0.4-0.4,0.7-0.4,1.3v1.1h1.9v0.7h-1.9v6.3l1.1,0.2v0.6h-3.2
		v-0.7l1.1-0.2v-6.3H371.5z"/>
	<path d="M378.7,419.9l0.2,1.3v0.2c0.2-0.6,0.6-0.9,0.9-1.1c0.4-0.2,0.9-0.4,1.3-0.4c0.2,0,0.2,0,0.4,0c0.2,0,0.2,0,0.2,0l-0.2,0.7
		H381c-0.6,0-0.9,0.2-1.3,0.4c-0.4,0.4-0.6,0.7-0.7,1.3v4.7l1.1,0.2v0.6h-3.2v-0.6l1.1-0.2v-6.3l-1.1-0.2v-0.6h1.1L378.7,419.9
		L378.7,419.9z"/>
	<path d="M386.2,427.9c-0.9,0-1.9-0.4-2.4-1.1c-0.6-0.7-0.9-1.7-0.9-2.8v-0.4c0-1.1,0.4-2.1,0.9-2.8c0.6-0.7,1.5-1.1,2.4-1.1
		s1.7,0.4,2.2,0.9c0.6,0.6,0.7,1.5,0.7,2.4v0.7h-5.6v0.2c0,0.9,0.2,1.7,0.7,2.2c0.6,0.6,1.1,0.9,1.9,0.9c0.6,0,0.9,0,1.3-0.2
		c0.4-0.2,0.7-0.4,0.9-0.6l0.4,0.6c-0.4,0.4-0.7,0.6-1.1,0.7C387.3,427.9,386.9,427.9,386.2,427.9z M386.2,420.5
		c-0.6,0-1.1,0.2-1.7,0.7c-0.4,0.6-0.7,1.1-0.7,1.9l0,0h4.7v-0.2c0-0.7-0.2-1.3-0.6-1.7C387.3,420.7,386.8,420.5,386.2,420.5z"/>
	<path d="M390.9,423.8c0-1.3,0.2-2.2,0.7-3s1.3-1.1,2.2-1.1c0.6,0,0.9,0.2,1.5,0.4c0.6,0.2,0.7,0.6,0.9,0.9v-1.1h0.7v10.3l1.1,0.2
		v0.6H395v-0.6l1.1-0.2v-3.4c-0.2,0.4-0.6,0.7-0.9,0.9c-0.4,0.2-0.9,0.4-1.5,0.4c-0.9,0-1.7-0.4-2.2-1.1
		C391.1,426.3,390.9,425.3,390.9,423.8L390.9,423.8z M391.6,424c0,0.9,0.2,1.7,0.6,2.2c0.4,0.6,0.9,0.9,1.7,0.9
		c0.6,0,0.9-0.2,1.3-0.4c0.4-0.2,0.7-0.6,0.9-0.9V422c-0.2-0.4-0.6-0.7-0.9-1.1s-0.7-0.4-1.3-0.4c-0.7,0-1.3,0.4-1.7,0.9
		C391.8,422,391.6,422.9,391.6,424L391.6,424z"/>
	<path d="M404.9,426.4c-0.2,0.4-0.6,0.7-0.9,1.1c-0.4,0.2-0.9,0.4-1.5,0.4c-0.7,0-1.5-0.4-1.9-0.9c-0.6-0.6-0.7-1.5-0.7-2.6v-3.9
		l-0.9-0.2v-0.6h0.9h0.9v4.7c0,0.9,0.2,1.7,0.6,2.1c0.4,0.4,0.7,0.6,1.3,0.6c0.7,0,1.1-0.2,1.5-0.4c0.4-0.2,0.7-0.7,0.7-1.1v-4.9
		l-1.1-0.2v-0.6h1.1h0.9v7.1l1.1,0.2v0.6h-1.9L404.9,426.4z"/>
	<path d="M411.6,427.9c-0.9,0-1.9-0.4-2.4-1.1c-0.6-0.7-0.9-1.7-0.9-2.8v-0.4c0-1.1,0.4-2.1,0.9-2.8c0.6-0.7,1.5-1.1,2.4-1.1
		c0.9,0,1.7,0.4,2.2,0.9c0.6,0.6,0.7,1.5,0.7,2.4v0.7H409v0.2c0,0.9,0.2,1.7,0.7,2.2c0.6,0.6,1.1,0.9,1.9,0.9c0.6,0,0.9,0,1.3-0.2
		c0.4-0.2,0.7-0.4,0.9-0.6l0.4,0.6c-0.4,0.4-0.7,0.6-1.1,0.7C412.7,427.9,412.2,427.9,411.6,427.9z M411.4,420.5
		c-0.6,0-1.1,0.2-1.7,0.7c-0.4,0.6-0.7,1.1-0.7,1.9l0,0h4.7v-0.2c0-0.7-0.2-1.3-0.6-1.7C412.7,420.7,412.2,420.5,411.4,420.5z"/>
	<path d="M416.1,427.2l1.1-0.2v-6.3l-1.1-0.2v-0.6h2.1v1.3c0.2-0.6,0.6-0.9,0.9-1.1c0.4-0.2,0.9-0.4,1.5-0.4c0.9,0,1.5,0.2,1.9,0.7
		s0.7,1.3,0.7,2.4v4.1l1.1,0.2v0.6h-3.2v-0.6l1.1-0.2v-4.1c0-0.9-0.2-1.5-0.6-1.9s-0.7-0.6-1.5-0.6c-0.6,0-1.1,0.2-1.5,0.6
		s-0.7,0.7-0.7,1.3v4.9l1.1,0.2v0.6h-3.2v-0.7H416.1z"/>
	<path d="M427.8,417.9v2.1h1.7v0.7h-1.7v5.2c0,0.6,0,0.9,0.4,1.1c0.2,0.2,0.4,0.4,0.7,0.4c0.2,0,0.2,0,0.4,0c0.2,0,0.4,0,0.4,0
		l0.2,0.6c-0.2,0-0.4,0.2-0.6,0.2c-0.2,0-0.4,0-0.6,0c-0.6,0-0.9-0.2-1.3-0.6s-0.4-0.9-0.4-1.7v-5.2h-1.3v-0.7h1.3v-2.1H427.8z"/>
	<path d="M440.2,427.8c0-0.2-0.2-0.6-0.2-0.7s0-0.4,0-0.6c-0.4,0.4-0.7,0.7-1.1,1.1c-0.6,0.2-1.1,0.4-1.7,0.4
		c-0.7,0-1.3-0.2-1.9-0.6c-0.4-0.4-0.6-0.9-0.6-1.7c0-0.7,0.4-1.3,0.9-1.7c0.6-0.4,1.5-0.6,2.6-0.6h1.7v-1.1c0-0.6-0.2-0.9-0.6-1.3
		s-0.9-0.6-1.5-0.6c-0.4,0-0.7,0-1.1,0.2c-0.4,0.2-0.7,0.4-0.9,0.6v1.1h-0.7v-1.5c0.4-0.4,0.7-0.6,1.3-0.7c0.6-0.2,1.1-0.2,1.7-0.2
		c0.9,0,1.5,0.2,2.1,0.7c0.6,0.4,0.7,1.1,0.7,1.9v3.9c0,0.2,0,0.4,0,0.4c0,0.2,0,0.4,0,0.4h0.7v0.6L440.2,427.8L440.2,427.8z
		 M437.4,427.2c0.6,0,1.1-0.2,1.7-0.4c0.6-0.2,0.7-0.7,1.1-1.1v-1.5h-1.7c-0.7,0-1.5,0.2-1.9,0.6c-0.4,0.4-0.7,0.7-0.7,1.3
		c0,0.4,0.2,0.7,0.4,0.9C436.4,427,436.8,427.2,437.4,427.2z"/>
	<path d="M448.6,426.6c-0.2,0.4-0.6,0.7-0.9,0.9c-0.4,0.2-0.9,0.4-1.5,0.4c-0.9,0-1.7-0.4-2.2-1.1c-0.6-0.7-0.7-1.7-0.7-2.8v-0.2
		c0-1.3,0.2-2.2,0.7-3s1.3-1.1,2.2-1.1c0.6,0,0.9,0.2,1.5,0.4c0.4,0.2,0.7,0.6,0.9,0.9v-3.9l-1.1-0.2v-0.6h1.1h0.9V427l1.1,0.2v0.6
		h-2.1V426.6z M443.9,424c0,0.9,0.2,1.7,0.6,2.2c0.4,0.6,0.9,0.9,1.7,0.9c0.6,0,0.9-0.2,1.5-0.4c0.4-0.2,0.7-0.6,0.9-1.1V422
		c-0.2-0.4-0.6-0.7-0.9-1.1c-0.4-0.4-0.9-0.4-1.5-0.4c-0.7,0-1.3,0.4-1.7,0.9C444.1,422.2,443.9,422.9,443.9,424L443.9,424z"/>
	<path d="M457.7,426.4c-0.2,0.4-0.6,0.7-0.9,1.1c-0.4,0.2-0.9,0.4-1.5,0.4c-0.7,0-1.5-0.4-1.9-0.9c-0.6-0.6-0.7-1.5-0.7-2.6v-3.9
		l-0.9-0.2v-0.6h0.9h0.9v4.7c0,0.9,0.2,1.7,0.6,2.1c0.4,0.4,0.7,0.6,1.3,0.6c0.7,0,1.1-0.2,1.5-0.4c0.4-0.2,0.7-0.7,0.7-1.1v-4.9
		l-1.1-0.2v-0.6h1.1h0.9v7.1l1.1,0.2v0.6h-1.9L457.7,426.4z"/>
	<path d="M460.7,417.1v-0.6h2.1v10.6l1.1,0.2v0.6h-3.2v-0.7l1.1-0.2v-9.9L460.7,417.1z"/>
	<path d="M467.2,417.9v2.1h1.7v0.7h-1.7v5.2c0,0.6,0,0.9,0.4,1.1c0.2,0.2,0.4,0.4,0.7,0.4c0.2,0,0.2,0,0.4,0s0.4,0,0.4,0l0.2,0.6
		c-0.2,0-0.4,0.2-0.6,0.2c-0.2,0-0.4,0-0.6,0c-0.6,0-0.9-0.2-1.3-0.6c-0.4-0.4-0.4-0.9-0.4-1.7v-5.2h-1.3v-0.7h1.3v-2.1H467.2z"/>
	<path d="M474.1,420.5v-0.6h2.1v1.3c0.2-0.4,0.6-0.7,0.9-1.1c0.4-0.2,0.9-0.4,1.5-0.4c0.6,0,1.1,0.2,1.5,0.4
		c0.4,0.4,0.7,0.7,0.9,1.3c0.2-0.6,0.6-0.9,0.9-1.3c0.4-0.4,0.9-0.6,1.7-0.6c0.9,0,1.5,0.4,1.9,0.7c0.4,0.6,0.7,1.5,0.7,2.6v3.9
		l1.1,0.2v0.6h-3.2v-0.4l1.1-0.2v-3.9c0-0.9-0.2-1.7-0.6-2.1c-0.4-0.4-0.7-0.6-1.5-0.6c-0.7,0-1.1,0.2-1.5,0.6s-0.6,0.9-0.7,1.7
		c0,0,0,0,0,0.2c0,0,0,0,0,0.2v3.9l1.1,0.2v0.6H479v-0.6l1.1-0.2v-3.9c0-0.9-0.2-1.7-0.6-2.1c-0.4-0.4-0.7-0.6-1.5-0.6
		c-0.6,0-1.1,0.2-1.5,0.6c-0.4,0.4-0.6,0.7-0.7,1.3v4.9l1.1,0.2v0.6h-3.2v-0.7l1.1-0.2v-6.3L474.1,420.5z"/>
	<path d="M493.9,427.8c0-0.2-0.2-0.6-0.2-0.7s0-0.4,0-0.6c-0.4,0.4-0.7,0.7-1.1,1.1c-0.6,0.2-1.1,0.4-1.7,0.4
		c-0.7,0-1.3-0.2-1.9-0.6c-0.4-0.4-0.6-0.9-0.6-1.7c0-0.7,0.4-1.3,0.9-1.7c0.6-0.4,1.5-0.6,2.6-0.6h1.7v-1.1c0-0.6-0.2-0.9-0.6-1.3
		s-0.9-0.6-1.5-0.6c-0.4,0-0.7,0-1.1,0.2c-0.4,0.2-0.7,0.4-0.9,0.6v1.1h-0.7v-1.5c0.4-0.4,0.7-0.6,1.3-0.7c0.6-0.2,1.1-0.2,1.7-0.2
		c0.9,0,1.5,0.2,2.1,0.7c0.6,0.4,0.7,1.1,0.7,1.9v3.9c0,0.2,0,0.4,0,0.4c0,0.2,0,0.4,0,0.4h0.7v0.6L493.9,427.8L493.9,427.8z
		 M491.1,427.2c0.6,0,1.1-0.2,1.7-0.4c0.6-0.2,0.7-0.7,1.1-1.1v-1.5h-1.7c-0.7,0-1.5,0.2-1.9,0.6s-0.7,0.7-0.7,1.3
		c0,0.4,0.2,0.7,0.4,0.9C490.2,427,490.6,427.2,491.1,427.2z"/>
	<path d="M496.5,417.1v-0.6h2.1v10.6l1.1,0.2v0.6h-3.2v-0.7l1.1-0.2v-9.9L496.5,417.1z"/>
	<path d="M504.8,427.9c-0.9,0-1.9-0.4-2.4-1.1c-0.6-0.7-0.9-1.7-0.9-2.8v-0.4c0-1.1,0.4-2.1,0.9-2.8c0.6-0.7,1.5-1.1,2.4-1.1
		c0.9,0,1.7,0.4,2.2,0.9c0.6,0.6,0.7,1.5,0.7,2.4v0.7h-5.6v0.2c0,0.9,0.2,1.7,0.7,2.2c0.6,0.6,1.1,0.9,1.9,0.9c0.6,0,0.9,0,1.3-0.2
		c0.4-0.2,0.7-0.4,0.9-0.6l0.4,0.6c-0.4,0.4-0.7,0.6-1.1,0.7C505.9,427.9,505.3,427.9,504.8,427.9z M504.6,420.5
		c-0.6,0-1.1,0.2-1.7,0.7c-0.4,0.6-0.7,1.1-0.7,1.9l0,0h4.7v-0.2c0-0.7-0.2-1.3-0.6-1.7C505.9,420.7,505.3,420.5,504.6,420.5z"/>
</g>
<g>
	<path d="M551.3,420.7v-0.7h1.3v-1.1c0-0.7,0.2-1.5,0.6-1.9s0.9-0.6,1.7-0.6c0.2,0,0.4,0,0.6,0c0.2,0,0.4,0,0.6,0.2l-0.2,0.7
		c-0.2,0-0.2,0-0.4,0s-0.2,0-0.4,0c-0.6,0-0.9,0.2-1.1,0.4c-0.2,0.4-0.4,0.7-0.4,1.3v1.1h1.9v0.7h-1.9v6.3l1.1,0.2v0.6h-3.2v-0.7
		l1.1-0.2v-6.3H551.3z"/>
	<path d="M558.5,419.9l0.2,1.3v0.2c0.2-0.6,0.6-0.9,0.9-1.1c0.4-0.2,0.9-0.4,1.3-0.4c0.2,0,0.2,0,0.4,0c0.2,0,0.2,0,0.2,0l-0.2,0.7
		h-0.6c-0.6,0-0.9,0.2-1.3,0.4c-0.4,0.4-0.6,0.7-0.7,1.3v4.7l1.1,0.2v0.6h-3.2v-0.6l1.1-0.2v-6.3l-1.1-0.2v-0.6h1.1L558.5,419.9
		L558.5,419.9z"/>
	<path d="M566,427.9c-0.9,0-1.9-0.4-2.4-1.1c-0.6-0.7-0.9-1.7-0.9-2.8v-0.4c0-1.1,0.4-2.1,0.9-2.8c0.6-0.7,1.5-1.1,2.4-1.1
		c0.9,0,1.7,0.4,2.2,0.9c0.6,0.6,0.7,1.5,0.7,2.4v0.7h-5.6v0.2c0,0.9,0.2,1.7,0.7,2.2c0.6,0.6,1.1,0.9,1.9,0.9c0.6,0,0.9,0,1.3-0.2
		c0.4-0.2,0.7-0.4,0.9-0.6l0.4,0.6c-0.4,0.4-0.7,0.6-1.1,0.7C567.1,427.9,566.8,427.9,566,427.9z M566,420.5c-0.6,0-1.1,0.2-1.7,0.7
		c-0.4,0.6-0.7,1.1-0.7,1.9l0,0h4.7v-0.2c0-0.7-0.2-1.3-0.6-1.7C567.1,420.7,566.6,420.5,566,420.5z"/>
	<path d="M570.7,423.8c0-1.3,0.2-2.2,0.7-3s1.3-1.1,2.2-1.1c0.6,0,0.9,0.2,1.5,0.4c0.6,0.2,0.7,0.6,0.9,0.9v-1.1h0.7v10.3l1.1,0.2
		v0.6h-3.2v-0.6l1.1-0.2v-3.4c-0.2,0.4-0.6,0.7-0.9,0.9c-0.4,0.2-0.9,0.4-1.5,0.4c-0.9,0-1.7-0.4-2.2-1.1
		C570.9,426.3,570.7,425.3,570.7,423.8L570.7,423.8z M571.4,424c0,0.9,0.2,1.7,0.6,2.2c0.4,0.6,0.9,0.9,1.7,0.9
		c0.6,0,0.9-0.2,1.3-0.4c0.4-0.2,0.7-0.6,0.9-0.9V422c-0.2-0.4-0.6-0.7-0.9-1.1c-0.4-0.2-0.7-0.4-1.3-0.4c-0.7,0-1.3,0.4-1.7,0.9
		C571.6,422,571.4,422.9,571.4,424L571.4,424z"/>
	<path d="M584.7,426.4c-0.2,0.4-0.6,0.7-0.9,1.1c-0.4,0.2-0.9,0.4-1.5,0.4c-0.7,0-1.5-0.4-1.9-0.9c-0.6-0.6-0.7-1.5-0.7-2.6v-3.9
		l-0.9-0.2v-0.6h0.9h0.9v4.7c0,0.9,0.2,1.7,0.6,2.1c0.4,0.4,0.7,0.6,1.3,0.6c0.7,0,1.1-0.2,1.5-0.4c0.4-0.4,0.7-0.7,0.7-1.1v-4.9
		l-1.1-0.2v-0.6h1.1h0.9v7.1l1.1,0.2v0.6h-1.9L584.7,426.4z"/>
	<path d="M591.4,427.9c-0.9,0-1.9-0.4-2.4-1.1c-0.6-0.7-0.9-1.7-0.9-2.8v-0.4c0-1.1,0.4-2.1,0.9-2.8c0.6-0.7,1.5-1.1,2.4-1.1
		c0.9,0,1.7,0.4,2.2,0.9c0.6,0.6,0.7,1.5,0.7,2.4v0.7h-5.6v0.2c0,0.9,0.2,1.7,0.7,2.2c0.6,0.6,1.1,0.9,1.9,0.9c0.6,0,0.9,0,1.3-0.2
		c0.4-0.2,0.7-0.4,0.9-0.6l0.4,0.6c-0.4,0.4-0.7,0.6-1.1,0.7C592.5,427.9,592,427.9,591.4,427.9z M591.2,420.5
		c-0.6,0-1.1,0.2-1.7,0.7c-0.4,0.6-0.7,1.1-0.7,1.9l0,0h4.7v-0.2c0-0.7-0.2-1.3-0.6-1.7C592.5,420.7,592,420.5,591.2,420.5z"/>
	<path d="M595.9,427.2l1.1-0.2v-6.3l-1.1-0.2v-0.6h2.1v1.3c0.2-0.6,0.6-0.9,0.9-1.1c0.4-0.2,0.9-0.4,1.5-0.4c0.9,0,1.5,0.2,1.9,0.7
		c0.4,0.6,0.7,1.3,0.7,2.4v4.1l1.1,0.2v0.6h-3.2v-0.6l1.1-0.2v-4.1c0-0.9-0.2-1.5-0.6-1.9c-0.4-0.4-0.7-0.6-1.5-0.6
		c-0.6,0-1.1,0.2-1.5,0.6c-0.4,0.4-0.7,0.7-0.7,1.3v4.9l1.1,0.2v0.6h-3.2v-0.7H595.9z"/>
	<path d="M607.6,417.9v2.1h1.7v0.7h-1.7v5.2c0,0.6,0.2,0.9,0.4,1.1c0.2,0.2,0.4,0.4,0.7,0.4c0.2,0,0.2,0,0.4,0s0.4,0,0.4,0l0.2,0.6
		c-0.2,0-0.4,0.2-0.6,0.2c-0.2,0-0.4,0-0.6,0c-0.6,0-0.9-0.2-1.3-0.6c-0.4-0.4-0.4-0.9-0.4-1.7v-5.2h-1.3v-0.7h1.3v-2.1H607.6z"/>
	<path d="M620,427.8c0-0.2-0.2-0.6-0.2-0.7s0-0.4,0-0.6c-0.4,0.4-0.7,0.7-1.1,1.1c-0.6,0.2-1.1,0.4-1.7,0.4c-0.7,0-1.3-0.2-1.9-0.6
		c-0.4-0.4-0.6-0.9-0.6-1.7c0-0.7,0.4-1.3,0.9-1.7s1.5-0.6,2.6-0.6h1.7v-1.1c0-0.6-0.2-0.9-0.6-1.3c-0.4-0.4-0.9-0.6-1.5-0.6
		c-0.4,0-0.7,0-1.1,0.2c-0.4,0.2-0.7,0.4-0.9,0.6v1.1h-0.7v-1.5c0.4-0.4,0.7-0.6,1.3-0.7s1.1-0.2,1.7-0.2c0.9,0,1.5,0.2,2.1,0.7
		c0.6,0.4,0.7,1.1,0.7,1.9v3.9c0,0.2,0,0.4,0,0.4c0,0.2,0,0.4,0,0.4h0.7v0.6L620,427.8L620,427.8z M617.2,427.2
		c0.6,0,1.1-0.2,1.7-0.4c0.6-0.2,0.7-0.7,1.1-1.1v-1.5h-1.7c-0.7,0-1.5,0.2-1.9,0.6c-0.4,0.4-0.7,0.7-0.7,1.3c0,0.4,0.2,0.7,0.4,0.9
		C616.2,427,616.6,427.2,617.2,427.2z"/>
	<path d="M628.4,426.6c-0.2,0.4-0.6,0.7-0.9,0.9c-0.4,0.2-0.9,0.4-1.5,0.4c-0.9,0-1.7-0.4-2.2-1.1c-0.6-0.7-0.7-1.7-0.7-2.8v-0.2
		c0-1.3,0.2-2.2,0.7-3s1.3-1.1,2.2-1.1c0.6,0,0.9,0.2,1.5,0.4c0.4,0.2,0.7,0.6,0.9,0.9v-3.9l-1.1-0.2v-0.6h1.1h0.9V427l1.1,0.2v0.6
		h-2.1V426.6z M623.7,424c0,0.9,0.2,1.7,0.6,2.2c0.4,0.6,0.9,0.9,1.7,0.9c0.6,0,1.1-0.2,1.5-0.4c0.4-0.2,0.7-0.6,0.9-1.1V422
		c-0.2-0.4-0.6-0.7-0.9-1.1c-0.4-0.4-0.9-0.4-1.5-0.4c-0.7,0-1.3,0.4-1.7,0.9C623.9,422.2,623.7,422.9,623.7,424L623.7,424z"/>
	<path d="M637.5,426.4c-0.2,0.4-0.6,0.7-0.9,1.1c-0.4,0.2-0.9,0.4-1.5,0.4c-0.7,0-1.5-0.4-1.9-0.9c-0.6-0.6-0.7-1.5-0.7-2.6v-3.9
		l-0.9-0.2v-0.6h0.9h0.9v4.7c0,0.9,0.2,1.7,0.6,2.1c0.4,0.4,0.7,0.6,1.3,0.6c0.7,0,1.1-0.2,1.5-0.4c0.4-0.4,0.7-0.7,0.7-1.1v-4.9
		l-1.1-0.2v-0.6h1.1h0.9v7.1l1.1,0.2v0.6h-1.9L637.5,426.4z"/>
	<path d="M640.5,417.1v-0.6h2.1v10.6l1.1,0.2v0.6h-3.2v-0.7l1.1-0.2v-9.9L640.5,417.1z"/>
	<path d="M647,417.9v2.1h1.7v0.7H647v5.2c0,0.6,0.2,0.9,0.4,1.1c0.2,0.2,0.4,0.4,0.7,0.4c0.2,0,0.2,0,0.4,0c0.2,0,0.4,0,0.4,0
		l0.2,0.6c-0.2,0-0.4,0.2-0.6,0.2s-0.4,0-0.6,0c-0.6,0-0.9-0.2-1.3-0.6c-0.4-0.4-0.4-0.9-0.4-1.7v-5.2h-1.5v-0.7h1.3v-2.1H647z"/>
	<path d="M653.9,420.7v-0.7h1.3v-1.1c0-0.7,0.2-1.5,0.6-1.9s0.9-0.6,1.7-0.6c0.2,0,0.4,0,0.6,0c0.2,0,0.4,0,0.6,0.2l-0.2,0.7
		c-0.2,0-0.2,0-0.4,0c-0.2,0-0.2,0-0.4,0c-0.6,0-0.9,0.2-1.1,0.4c-0.2,0.4-0.4,0.7-0.4,1.3v1.1h1.9v0.7h-1.9v6.3l1.1,0.2v0.6h-3.2
		v-0.7l1.1-0.2v-6.3H653.9z"/>
	<path d="M662.7,427.9c-0.9,0-1.9-0.4-2.4-1.1c-0.6-0.7-0.9-1.7-0.9-2.8v-0.4c0-1.1,0.4-2.1,0.9-2.8c0.6-0.7,1.5-1.1,2.4-1.1
		s1.7,0.4,2.2,0.9s0.7,1.5,0.7,2.4v0.7h-5.6v0.2c0,0.9,0.2,1.7,0.7,2.2c0.6,0.6,1.1,0.9,1.9,0.9c0.6,0,0.9,0,1.3-0.2
		c0.4-0.2,0.7-0.4,0.9-0.6l0.4,0.6c-0.4,0.4-0.7,0.6-1.1,0.7C663.8,427.9,663.3,427.9,662.7,427.9z M662.5,420.5
		c-0.6,0-1.1,0.2-1.7,0.7c-0.4,0.6-0.7,1.1-0.7,1.9l0,0h4.7v-0.2c0-0.7-0.2-1.3-0.6-1.7C663.8,420.7,663.3,420.5,662.5,420.5z"/>
	<path d="M667,420.5v-0.6h2.1v1.3c0.2-0.4,0.6-0.7,0.9-1.1c0.4-0.2,0.9-0.4,1.5-0.4s1.1,0.2,1.5,0.4c0.4,0.4,0.7,0.7,0.9,1.3
		c0.2-0.6,0.6-0.9,0.9-1.3c0.4-0.4,0.9-0.6,1.7-0.6c0.9,0,1.5,0.4,1.9,0.7c0.4,0.6,0.7,1.5,0.7,2.6v3.9l1.1,0.2v0.6h-3.2v-0.4
		l1.1-0.2v-3.9c0-0.9-0.2-1.7-0.6-2.1c-0.4-0.4-0.7-0.6-1.5-0.6c-0.7,0-1.1,0.2-1.5,0.6s-0.6,0.9-0.7,1.7c0,0,0,0,0,0.2
		c0,0,0,0,0,0.2v3.9l1.1,0.2v0.6h-3.2v-0.6l1.1-0.2v-3.9c0-0.9-0.2-1.7-0.6-2.1c-0.4-0.4-0.7-0.6-1.5-0.6c-0.6,0-1.1,0.2-1.5,0.6
		c-0.4,0.4-0.6,0.7-0.7,1.3v4.9l1.1,0.2v0.6h-3.2v-0.7l1.1-0.2v-6.3L667,420.5z"/>
	<path d="M687,427.8c0-0.2-0.2-0.6-0.2-0.7s0-0.4,0-0.6c-0.4,0.4-0.7,0.7-1.1,1.1c-0.6,0.2-1.1,0.4-1.7,0.4c-0.7,0-1.3-0.2-1.9-0.6
		c-0.4-0.4-0.6-0.9-0.6-1.7c0-0.7,0.4-1.3,0.9-1.7s1.5-0.6,2.6-0.6h1.7v-1.1c0-0.6-0.2-0.9-0.6-1.3s-0.9-0.6-1.5-0.6
		c-0.4,0-0.7,0-1.1,0.2c-0.4,0.2-0.7,0.4-0.9,0.6v1.1H682v-1.5c0.4-0.4,0.7-0.6,1.3-0.7c0.6-0.2,1.1-0.2,1.7-0.2
		c0.9,0,1.5,0.2,2.1,0.7c0.6,0.4,0.7,1.1,0.7,1.9v3.9c0,0.2,0,0.4,0,0.4c0,0.2,0,0.4,0,0.4h0.7v0.6L687,427.8L687,427.8z
		 M684.2,427.2c0.6,0,1.1-0.2,1.7-0.4c0.6-0.2,0.7-0.7,1.1-1.1v-1.5h-1.7c-0.7,0-1.5,0.2-1.9,0.6c-0.4,0.4-0.7,0.7-0.7,1.3
		c0,0.4,0.2,0.7,0.4,0.9C683.3,427,683.6,427.2,684.2,427.2z"/>
	<path d="M689.6,417.1v-0.6h2.1v10.6l1.1,0.2v0.6h-3.2v-0.7l1.1-0.2v-9.9L689.6,417.1z"/>
	<path d="M697.6,427.9c-0.9,0-1.9-0.4-2.4-1.1c-0.6-0.7-0.9-1.7-0.9-2.8v-0.4c0-1.1,0.4-2.1,0.9-2.8c0.6-0.7,1.5-1.1,2.4-1.1
		c0.9,0,1.7,0.4,2.2,0.9s0.7,1.5,0.7,2.4v0.7H695v0.2c0,0.9,0.2,1.7,0.7,2.2c0.6,0.6,1.1,0.9,1.9,0.9c0.6,0,0.9,0,1.3-0.2
		c0.4-0.2,0.7-0.4,0.9-0.6l0.4,0.6c-0.4,0.4-0.7,0.6-1.1,0.7C698.8,427.9,698.4,427.9,697.6,427.9z M697.6,420.5
		c-0.6,0-1.1,0.2-1.7,0.7c-0.4,0.6-0.7,1.1-0.7,1.9l0,0h4.7v-0.2c0-0.7-0.2-1.3-0.6-1.7C698.8,420.7,698.2,420.5,697.6,420.5z"/>
</g>
</svg>
