<?xml version="1.0" encoding="utf-8"?>
<!-- Generator: Adobe Illustrator 21.1.0, SVG Export Plug-In . SVG Version: 6.00 Build 0)  -->
<svg version="1.1" id="Layer_1" xmlns="http://www.w3.org/2000/svg" xmlns:xlink="http://www.w3.org/1999/xlink" x="0px" y="0px"
	 viewBox="0 0 100 50" style="enable-background:new 0 0 100 50;" xml:space="preserve">
<style type="text/css">
	.st0{fill:#2D2D2D;}
	.st1{fill:#595959;}
	.st2{fill:#858585;}
	.st3{fill:#B2B2B2;}
	.st4{fill:#FC8383;}
</style>
<rect x="77.1" y="56" width="16.1" height="40.5"/>
<rect x="59.2" y="62.1" class="st0" width="16.1" height="34.4"/>
<rect x="41.3" y="68.2" class="st1" width="16.1" height="28.3"/>
<rect x="23.4" y="74.3" class="st2" width="16.1" height="22.2"/>
<rect x="5.5" y="80.4" class="st3" width="16.1" height="16.1"/>
<g>
	<path class="st3" d="M99,1v48H1V1H99 M100,0H0v50h100V0L100,0z"/>
</g>
<rect x="52.5" y="19.3" class="st4" width="35.8" height="11.3"/>
<rect x="11.7" y="22.8" class="st4" width="13.7" height="4.3"/>
<g>
	<path d="M33.9,21.6l-0.8,0.1l1.9,5.5l0.2,0.7l0,0l0.2-0.7l1.9-5.5l-0.8-0.1v-0.7h2.7v0.7l-0.7,0.1l-2.9,7.7h-1l-2.9-7.7L31,21.6
		v-0.7h2.7v0.7H33.9z"/>
	<path d="M46.1,23.4h-0.9L45,22.2c-0.2-0.1-0.4-0.3-0.7-0.4s-0.6-0.1-1-0.1c-0.6,0-1.1,0.1-1.4,0.4s-0.5,0.6-0.5,1s0.2,0.7,0.5,0.9
		s0.9,0.5,1.6,0.7c0.9,0.2,1.6,0.6,2,1s0.7,1,0.7,1.6c0,0.7-0.3,1.2-0.8,1.7s-1.3,0.6-2.2,0.6c-0.7,0-1.2-0.1-1.7-0.3
		s-0.9-0.5-1.2-0.8v-1.6h0.9l0.2,1.2c0.2,0.2,0.5,0.3,0.8,0.5s0.7,0.2,1.1,0.2c0.6,0,1-0.1,1.4-0.4s0.5-0.6,0.5-1s-0.1-0.7-0.4-1
		s-0.8-0.5-1.6-0.7c-0.9-0.2-1.6-0.5-2.1-0.9s-0.8-0.9-0.8-1.6s0.3-1.2,0.8-1.7s1.3-0.7,2.2-0.7c0.6,0,1.1,0.1,1.6,0.3
		s0.9,0.5,1.2,0.7V23.4z"/>
</g>
</svg>
