<svg width="100" height="50" viewBox="0 0 100 50" fill="none" xmlns="http://www.w3.org/2000/svg">
<g clip-path="url(#clip0)">
<path d="M88.3 19.3H52.5V30.6H88.3V19.3Z" fill="white"/>
<path d="M25.4 22.8H11.7V27.1H25.4V22.8Z" fill="white"/>
<path d="M33.9 21.6L33.1 21.7L35 27.2L35.2 27.9L35.4 27.2L37.3 21.7L36.5 21.6V20.9H39.2V21.6L38.5 21.7L35.6 29.4H34.6L31.7 21.7L31 21.6V20.9H33.7V21.6H33.9Z" fill="white"/>
<path d="M46.1 23.4H45.2L45 22.2C44.8 22.1 44.6 21.9 44.3 21.8C44 21.7 43.7 21.7 43.3 21.7C42.7 21.7 42.2 21.8 41.9 22.1C41.6 22.4 41.4 22.7 41.4 23.1C41.4 23.5 41.6 23.8 41.9 24C42.2 24.2 42.8 24.5 43.5 24.7C44.4 24.9 45.1 25.3 45.5 25.7C45.9 26.1 46.2 26.7 46.2 27.3C46.2 28 45.9 28.5 45.4 29C44.9 29.5 44.1 29.6 43.2 29.6C42.5 29.6 42 29.5 41.5 29.3C41 29.1 40.6 28.8 40.3 28.5V26.9H41.2L41.4 28.1C41.6 28.3 41.9 28.4 42.2 28.6C42.5 28.8 42.9 28.8 43.3 28.8C43.9 28.8 44.3 28.7 44.7 28.4C45.1 28.1 45.2 27.8 45.2 27.4C45.2 27 45.1 26.7 44.8 26.4C44.5 26.1 44 25.9 43.2 25.7C42.3 25.5 41.6 25.2 41.1 24.8C40.6 24.4 40.3 23.9 40.3 23.2C40.3 22.5 40.6 22 41.1 21.5C41.6 21 42.4 20.8 43.3 20.8C43.9 20.8 44.4 20.9 44.9 21.1C45.4 21.3 45.8 21.6 46.1 21.8V23.4Z" fill="white"/>
</g>
<defs>
<clipPath id="clip0">
<rect width="100" height="50" fill="white"/>
</clipPath>
</defs>
</svg>
