<?xml version="1.0" encoding="UTF-8"?>
<svg width="130px" height="89px" viewBox="0 0 130 89" version="1.1" xmlns="http://www.w3.org/2000/svg" xmlns:xlink="http://www.w3.org/1999/xlink">
    <!-- Generator: Sketch 53.2 (72643) - https://sketchapp.com -->
    <title>Group</title>
    <desc>Created with Sketch.</desc>
    <g id="Page-1" stroke="none" stroke-width="1" fill="none" fill-rule="evenodd">
        <g id="dan" transform="translate(-493.000000, -439.000000)" fill="#FFFFFF" fill-rule="nonzero">
            <g id="Group" transform="translate(493.000000, 439.000000)">
                <path d="M28.4,30.1 C35.9,29.9 38.9,31.2 44,36.5 C49.1,41.4 51.3,53 51,60.6 C50.7,68.4 50,74.9 44.6,79.9 C39.1,85.1 32.9,87.6 25.1,87.4 C20.8,87.3 16.3,83.5 16.3,83.5 L15.5,85.1 C15.1,86 14.2,86.6 13.2,86.8 L4.4,87.8 C2.4,88.2 0.6,86.4 0.9,84.3 C1.9,77.8 3.9,66 4.3,60.8 C6.1,42.3 4.7,17.9 4.1,10 C4,8.4 5,7.1 6.5,6.8 L15.3,4.5 C17.2,4 19,5.4 19.1,7.4 C19.4,15.7 20.2,33.1 19.7,36.1 C20.3,32.4 24.3,30.2 28.4,30.1 Z M26.8,70.2 C31.218278,70.2 34.8,65.1408177 34.8,58.9 C34.8,52.6591823 31.218278,47.6 26.8,47.6 C22.381722,47.6 18.8,52.6591823 18.8,58.9 C18.8,65.1408177 22.381722,70.2 26.8,70.2 Z" id="Combined-Shape"></path>
                <path d="M81.4,1.3 C80.5,0.8 79.5,0.7 78.6,1 C75.6,2.1 72.6,3 69.7,3.9 C68.2,4.3 67.2,5.7 67.3,7.3 C67.5,19.8 66.1,32.6 64.6,45 C63.1,58 61.5,71.5 61.9,84.9 C61.9,86 62.5,87 63.3,87.6 C63.9,88 64.6,88.3 65.3,88.3 C65.6,88.3 65.9,88.3 66.3,88.2 C69.5,87.3 72.9,86.2 76.7,84.9 C78.2,84.4 79.2,82.8 79,81.2 C77.6,69.6 79.4,58.1 81.4,45.9 C83.6,32.2 85.9,18 83.1,3.8 C82.9,2.7 82.3,1.8 81.4,1.3 Z" id="Path"></path>
                <path d="M129.3,35.1 C128.6,34.2 127.6,33.7 126.4,33.7 C124.4,33.7 122.4,33.8 120.3,33.8 C119.8,33.8 119.3,33.8 118.8,33.8 C120,29 120.9,23.6 120.4,18.1 C120.3,17.1 119.8,16.2 119.1,15.7 C118.3,15.1 117.3,14.9 116.4,15.1 C112.7,15.8 108.9,16.5 105.2,17.2 C103.6,17.5 102.4,18.9 102.4,20.6 C102.4,24.6 101.9,28.9 100.7,34.2 C100,34.2 99.3,34.2 98.6,34.2 C97.1,34.2 95.5,34.2 94,34.2 C92.4,34.2 91,35.3 90.6,36.9 C90,39.7 89.4,42.3 88.8,45.1 L88.4,46.7 C88.2,47.7 88.4,48.8 89.1,49.7 C89.8,50.5 90.8,51 91.9,51 C93.5,51 95.1,50.9 96.7,50.9 C95.2,62.6 94.4,74.6 102.9,86.8 C103.6,87.7 104.6,88.3 105.7,88.3 C106,88.3 106.3,88.3 106.6,88.2 C107.8,87.9 108.9,87.6 110.1,87.2 C112,86.7 113.8,86.2 115.7,85.7 C116.8,85.4 117.6,84.6 118,83.6 C118.4,82.6 118.2,81.4 117.6,80.5 C111,70.9 112.1,61.2 113.9,50.9 L122.7,50.9 C124.1,50.9 125.4,50 125.9,48.7 C126.4,47.4 126.8,46.2 127.3,45 C128.1,42.9 129,40.7 129.8,38.4 C130.2,37.2 130,36 129.3,35.1 Z" id="Path"></path>
            </g>
        </g>
    </g>
</svg>