<?xml version="1.0" encoding="utf-8"?>
<!-- Generator: Adobe Illustrator 23.0.1, SVG Export Plug-In . SVG Version: 6.00 Build 0)  -->
<svg version="1.1"
	 id="Layer_1" xmlns:cc="http://creativecommons.org/ns#" xmlns:dc="http://purl.org/dc/elements/1.1/" xmlns:inkscape="http://www.inkscape.org/namespaces/inkscape" xmlns:rdf="http://www.w3.org/1999/02/22-rdf-syntax-ns#" xmlns:sodipodi="http://sodipodi.sourceforge.net/DTD/sodipodi-0.dtd" xmlns:svg="http://www.w3.org/2000/svg"
	 xmlns="http://www.w3.org/2000/svg" xmlns:xlink="http://www.w3.org/1999/xlink" x="0px" y="0px" viewBox="0 0 45.9 30.5"
	 style="enable-background:new 0 0 45.9 30.5;" xml:space="preserve">
<g>
	<path d="M45.9,3.5H0c-0.8,0-1.5-0.7-1.5-1.5S-0.8,0.5,0,0.5h45.9c0.8,0,1.5,0.7,1.5,1.5S46.7,3.5,45.9,3.5z"/>
</g>
<g>
	<path d="M34.4,16.9H0c-0.8,0-1.5-0.7-1.5-1.5c0-0.8,0.7-1.5,1.5-1.5h34.4c0.8,0,1.5,0.7,1.5,1.5C35.9,16.2,35.3,16.9,34.4,16.9z"/>
</g>
<g>
	<path d="M23,30.2H0c-0.8,0-1.5-0.7-1.5-1.5s0.7-1.5,1.5-1.5h23c0.8,0,1.5,0.7,1.5,1.5S23.8,30.2,23,30.2z"/>
</g>
</svg>
