<?xml version="1.0" encoding="utf-8"?>
<!-- Generator: Adobe Illustrator 21.1.0, SVG Export Plug-In . SVG Version: 6.00 Build 0)  -->
<svg version="1.1" id="Layer_1" xmlns="http://www.w3.org/2000/svg" xmlns:xlink="http://www.w3.org/1999/xlink" x="0px" y="0px"
	 viewBox="0 0 20 20" style="enable-background:new 0 0 20 20;" xml:space="preserve">
<style type="text/css">
	.st0{fill:#A8A8A8;}
</style>
<g>
	<circle class="st0" cx="15.8" cy="4.2" r="1.2"/>
	<g>
		<path class="st0" d="M10,6c2.2,0,4.1,1.8,4.1,4.1s-1.8,4.1-4.1,4.1S5.9,12.3,5.9,10S7.8,6,10,6 M10,4.6C7,4.6,4.5,7,4.5,10
			S7,15.5,10,15.5s5.5-2.5,5.5-5.5S13,4.6,10,4.6L10,4.6z"/>
	</g>
</g>
<g>
	<path class="st0" d="M18,0H2C1,0,0.1,0.8,0,1.8C0,1.8,0,2,0,2v16c0,1.1,0.9,2,2,2h16c1.1,0,2-0.9,2-2V2c0-0.1,0-0.2,0-0.2
		C19.9,0.8,19,0,18,0z M18.5,18c0,0.3-0.2,0.5-0.5,0.5H2c-0.3,0-0.5-0.2-0.5-0.5V2c0-0.3,0.2-0.5,0.5-0.5h16c0.3,0,0.5,0.2,0.5,0.5
		V18z"/>
</g>
</svg>
