<?xml version="1.0" encoding="utf-8"?>
<!-- Generator: Adobe Illustrator 21.1.0, SVG Export Plug-In . SVG Version: 6.00 Build 0)  -->
<svg version="1.1" id="Layer_1" xmlns="http://www.w3.org/2000/svg" xmlns:xlink="http://www.w3.org/1999/xlink" x="0px" y="0px"
	 viewBox="0 0 20 20" style="enable-background:new 0 0 20 20;" xml:space="preserve">
<style type="text/css">
	.st0{fill:#A8A8A8;}
</style>
<g>
	<g>
		<rect x="5.3" y="8.4" class="st0" width="2.1" height="6.5"/>
	</g>
	<g>
		<path class="st0" d="M14.9,11.2v3.7h-2.1v-3.7c-0.1-0.7-0.2-1.4-1.1-1.4c-1.1,0-1.2,0.8-1.2,1.7v3.4h-2V8.4h1.9v0.8h0.1l0,0
			c0.3-0.5,0.9-1,2-1h0.1C14.5,8.2,14.9,9.5,14.9,11.2z"/>
	</g>
	<circle class="st0" cx="6.2" cy="6.2" r="1.1"/>
</g>
<g>
	<path class="st0" d="M18,0H2C1,0,0.1,0.8,0,1.8c0,0,0,0.1,0,0.2v16c0,1.1,0.9,2,2,2h16c1.1,0,2-0.9,2-2V2c0-0.1,0-0.2,0-0.2
		C19.9,0.8,19,0,18,0z M18.5,18c0,0.3-0.2,0.5-0.5,0.5H2c-0.3,0-0.5-0.2-0.5-0.5V2c0-0.3,0.2-0.5,0.5-0.5h16c0.3,0,0.5,0.2,0.5,0.5
		V18z"/>
</g>
</svg>
