<?xml version="1.0" encoding="utf-8"?>
<!-- Generator: Adobe Illustrator 21.1.0, SVG Export Plug-In . SVG Version: 6.00 Build 0)  -->
<svg version="1.1" id="Layer_1" xmlns="http://www.w3.org/2000/svg" xmlns:xlink="http://www.w3.org/1999/xlink" x="0px" y="0px"
	 viewBox="0 0 20 20" style="enable-background:new 0 0 20 20;" xml:space="preserve">
<style type="text/css">
	.st0{fill:#A8A8A8;}
	.st1{fill:none;}
</style>
<g>
	<path class="st0" d="M18,0H2C1,0,0.1,0.8,0,1.8c0,0,0,0.1,0,0.2v16c0,1.1,0.9,2,2,2h16c1.1,0,2-0.9,2-2V2c0-0.1,0-0.2,0-0.2
		C19.9,0.8,19,0,18,0z M18.5,18c0,0.3-0.2,0.5-0.5,0.5H2c-0.3,0-0.5-0.2-0.5-0.5V2c0-0.3,0.2-0.5,0.5-0.5h16c0.3,0,0.5,0.2,0.5,0.5
		V18z"/>
</g>
<line class="st1" x1="1.5" y1="8.7" x2="1.5" y2="5.4"/>
<line class="st1" x1="1.5" y1="3.3" x2="1.5" y2="2.6"/>
<path class="st0" d="M18.5,2.5v2.1l-7.1,7.1c-0.8,0.8-2.1,0.8-2.8,0L1.5,4.6V2.5l7.8,7.8c0.4,0.4,1,0.4,1.4,0L18.5,2.5z"/>
<line class="st1" x1="18.5" y1="8.9" x2="18.5" y2="5.4"/>
<line class="st1" x1="18.5" y1="3.3" x2="18.5" y2="2.8"/>
</svg>
