<?xml version="1.0" encoding="utf-8"?>
<!-- Generator: Adobe Illustrator 21.1.0, SVG Export Plug-In . SVG Version: 6.00 Build 0)  -->
<svg version="1.1" id="Layer_1" xmlns="http://www.w3.org/2000/svg" xmlns:xlink="http://www.w3.org/1999/xlink" x="0px" y="0px"
	 viewBox="0 0 1239.2 246.6" style="enable-background:new 0 0 1239.2 246.6;" xml:space="preserve">
<style type="text/css">
	.st0{opacity:0.3;}
	.st1{fill:none;stroke:#000000;stroke-linecap:round;stroke-linejoin:round;}
	.st2{fill:#E6E7E8;}
	.st3{fill:none;}
	.st4{fill:#808285;}
	.st5{font-family:'Klavika-Regular';}
	.st6{font-size:12px;}
	.st7{fill:#FFFFFF;}
	.st8{fill:#D1D3D4;}
</style>
<g id="Layer_1_1_">
</g>
<g id="XMLID_18_" class="st0">
	<g>
		<path class="st1" d="M616.8,15.2h254.1h25v45.5"/>
		<g>
			<polygon points="890.9,59.2 895.9,67.9 900.9,59.2 			"/>
		</g>
	</g>
</g>
<g id="XMLID_33_" class="st0">
	<g>
		<path class="st1" d="M895.9,15.2h278.5v45.5"/>
		<g>
			<polygon points="1169.4,59.2 1174.4,67.9 1179.4,59.2 			"/>
		</g>
	</g>
</g>
<g id="XMLID_5_" class="st0">
	<g id="XMLID_8_">
		<line id="XMLID_30_" class="st1" x1="343.5" y1="15.2" x2="343.5" y2="56.9"/>
		<g id="XMLID_19_">
			<polygon id="XMLID_22_" points="338.5,55.4 343.5,64 348.5,55.4 			"/>
		</g>
	</g>
</g>
<g id="XMLID_3_" class="st0">
	<g>
		<path class="st1" d="M65.5,76.1V15.2h526.2h25c0,0,0,37.2,0,41.7"/>
		<g>
			<polygon points="611.8,55.4 616.8,64 621.8,55.4 			"/>
		</g>
	</g>
</g>
<g id="Light_Block">
</g>
<g id="Dark_Block">
</g>
<g id="Dots">
</g>
<g id="Light_Text">
</g>
<g id="Dark_Text">
</g>
<g>
	<g id="XMLID_79_">
		<path class="st2" d="M686,242.6c0,2.2-1.8,4-4,4H559c-2.2,0-4-1.8-4-4V80.1c0-2.2,1.8-4,4-4h123c2.2,0,4,1.8,4,4V242.6z"/>
	</g>
	<g id="XMLID_27_">
		<rect id="XMLID_59_" x="580.1" y="95.7" class="st3" width="80.7" height="17"/>
		<text transform="matrix(1 0 0 1 592.3733 104.1286)" class="st4 st5 st6">Location</text>
	</g>
	<rect id="XMLID_254_" x="581" y="138.4" class="st7" width="10.1" height="7.4"/>
	<rect id="XMLID_252_" x="595.9" y="138.4" class="st7" width="16.4" height="7.4"/>
	<rect id="XMLID_251_" x="581" y="207.7" class="st7" width="10.1" height="10.5"/>
	<rect id="XMLID_250_" x="595.9" y="207.7" class="st7" width="16.4" height="10.5"/>
	<rect id="XMLID_219_" x="617.1" y="207.7" class="st7" width="20.4" height="10.5"/>
	<rect id="XMLID_218_" x="581" y="150.6" class="st7" width="10.1" height="16.4"/>
	<rect id="XMLID_217_" x="581" y="171.9" class="st7" width="10.1" height="5.8"/>
	<rect id="XMLID_216_" x="581" y="182.5" class="st7" width="10.1" height="20.4"/>
	<rect id="XMLID_215_" x="595.9" y="150.6" class="st7" width="16.4" height="16.4"/>
	<rect id="XMLID_214_" x="595.9" y="171.9" class="st7" width="16.4" height="5.8"/>
	<rect id="XMLID_213_" x="595.9" y="182.5" class="st7" width="16.4" height="20.4"/>
	<rect id="XMLID_212_" x="617.1" y="150.6" class="st7" width="20.4" height="16.4"/>
	<rect id="XMLID_211_" x="617.1" y="171.9" class="st7" width="20.4" height="5.8"/>
	<rect id="XMLID_210_" x="617.1" y="182.5" class="st7" width="20.4" height="20.4"/>
	<rect id="XMLID_209_" x="642.3" y="150.6" class="st7" width="17.7" height="16.4"/>
	<rect id="XMLID_208_" x="642.3" y="171.9" class="st7" width="17.7" height="5.8"/>
	<rect id="XMLID_207_" x="642.3" y="182.5" class="st7" width="17.7" height="20.4"/>
	<rect id="XMLID_206_" x="642.3" y="207.7" class="st7" width="17.7" height="10.5"/>
	<rect id="XMLID_205_" x="617.1" y="138.4" class="st7" width="20.4" height="7.4"/>
	<rect id="XMLID_204_" x="642.3" y="138.4" class="st7" width="17.7" height="7.4"/>
</g>
<g>
	<g id="XMLID_187_">
		<path class="st2" d="M409.1,242.6c0,2.2-1.8,4-4,4h-123c-2.2,0-4-1.8-4-4V80.1c0-2.2,1.8-4,4-4h123c2.2,0,4,1.8,4,4V242.6z"/>
	</g>
	<g id="XMLID_34_">
		<rect id="XMLID_58_" x="281.8" y="96.1" class="st3" width="127.6" height="17"/>
		<text transform="matrix(1 0 0 1 302.0235 104.4619)" class="st4 st5 st6">Reservations</text>
	</g>
	<rect id="XMLID_15_" x="333.3" y="184.7" class="st8" width="20.3" height="4.5"/>
	<rect id="XMLID_14_" x="333.3" y="193.3" class="st8" width="20.3" height="4.5"/>
	<rect id="XMLID_12_" x="303.3" y="184.7" class="st8" width="20.3" height="4.5"/>
	<rect id="XMLID_4_" x="363.9" y="184.7" class="st8" width="20.3" height="4.5"/>
	<path id="XMLID_16_" class="st7" d="M397.1,165.1h-107c-1.1,0-2-0.9-2-2v-35.3c0-1.1,0.9-2,2-2h107c1.1,0,2,0.9,2,2v35.3
		C399.1,164.2,398.2,165.1,397.1,165.1z"/>
</g>
<g>
	<g id="XMLID_160_">
		<path class="st2" d="M131,242.6c0,2.2-1.8,4-4,4H4c-2.2,0-4-1.8-4-4V80.1c0-2.2,1.8-4,4-4h123c2.2,0,4,1.8,4,4V242.6z"/>
	</g>
	<rect id="XMLID_29_" x="55.8" y="184.7" class="st8" width="20.3" height="4.5"/>
	<rect id="XMLID_28_" x="55.8" y="193.4" class="st8" width="20.3" height="4.5"/>
	<rect id="XMLID_24_" x="25.8" y="184.7" class="st8" width="20.3" height="4.5"/>
	<rect id="XMLID_23_" x="86.3" y="184.7" class="st8" width="20.3" height="4.5"/>
	<g id="XMLID_21_">
		<rect id="XMLID_56_" x="5.6" y="95.1" class="st3" width="119.9" height="17"/>
		<text transform="matrix(1 0 0 1 23.8306 103.4851)" class="st4 st5 st6">Landing Page</text>
	</g>
	<path id="XMLID_20_" class="st7" d="M119.5,165.1h-107c-1.1,0-2-0.9-2-2v-35.3c0-1.1,0.9-2,2-2h107c1.1,0,2,0.9,2,2v35.3
		C121.5,164.2,120.6,165.1,119.5,165.1z"/>
</g>
<g>
	<g id="XMLID_41_">
		<path class="st2" d="M1239.2,242.6c0,2.2-1.8,4-4,4h-123c-2.2,0-4-1.8-4-4V80.1c0-2.2,1.8-4,4-4h123c2.2,0,4,1.8,4,4V242.6z"/>
	</g>
	<path id="XMLID_37_" class="st7" d="M1227.7,165.1h-107c-1.1,0-2-0.9-2-2v-35.3c0-1.1,0.9-2,2-2h107c1.1,0,2,0.9,2,2v35.3
		C1229.7,164.2,1228.8,165.1,1227.7,165.1z"/>
	<g id="XMLID_6_">
		<rect id="XMLID_55_" x="1113.8" y="95.1" class="st3" width="119.9" height="17"/>
		<text transform="matrix(1 0 0 1 1154.7075 103.462)" class="st4 st5 st6">About</text>
	</g>
	<rect id="XMLID_25_" x="1133.4" y="184.7" class="st8" width="82" height="4.5"/>
	<rect id="XMLID_17_" x="1133.4" y="194.7" class="st8" width="82" height="4.5"/>
	<rect id="XMLID_7_" x="1133.4" y="204.7" class="st8" width="82" height="4.5"/>
	<rect id="XMLID_2_" x="1133.4" y="214.7" class="st8" width="82" height="4.5"/>
</g>
<g>
	<g id="XMLID_1_">
		<path class="st2" d="M962.6,242.6c0,2.2-1.8,4-4,4h-123c-2.2,0-4-1.8-4-4V80.1c0-2.2,1.8-4,4-4h123c2.2,0,4,1.8,4,4V242.6z"/>
	</g>
	<g id="XMLID_13_">
		<rect id="XMLID_57_" x="857.5" y="95.7" class="st3" width="80.7" height="17"/>
		<text transform="matrix(1 0 0 1 881.1182 104.1286)" class="st4 st5 st6">Menu</text>
	</g>
	<rect id="XMLID_32_" x="856.8" y="184.7" class="st8" width="82" height="4.5"/>
	<rect id="XMLID_26_" x="856.8" y="194.7" class="st8" width="82" height="4.5"/>
	<rect id="XMLID_10_" x="856.8" y="204.7" class="st8" width="82" height="4.5"/>
	<rect id="XMLID_9_" x="856.8" y="214.7" class="st8" width="82" height="4.5"/>
	<rect id="XMLID_52_" x="856.8" y="128.1" class="st8" width="82" height="4.5"/>
	<rect id="XMLID_51_" x="856.8" y="138.1" class="st8" width="82" height="4.5"/>
	<rect id="XMLID_50_" x="856.8" y="148.1" class="st8" width="82" height="4.5"/>
	<rect id="XMLID_49_" x="856.8" y="158.1" class="st8" width="82" height="4.5"/>
	<rect id="XMLID_80_" x="882.3" y="173.7" class="st8" width="29.6" height="4.5"/>
	<rect id="XMLID_143_" x="882.3" y="117.5" class="st8" width="29.6" height="4.5"/>
</g>
</svg>
