<?xml version="1.0" encoding="utf-8"?>
<!-- Generator: Adobe Illustrator 21.1.0, SVG Export Plug-In . SVG Version: 6.00 Build 0)  -->
<svg version="1.1" id="Layer_1" xmlns="http://www.w3.org/2000/svg" xmlns:xlink="http://www.w3.org/1999/xlink" x="0px" y="0px"
	 viewBox="0 0 20 20" style="enable-background:new 0 0 20 20;" xml:space="preserve">
<style type="text/css">
	.st0{fill:#A8A8A8;}
</style>
<g>
	<path class="st0" d="M16.7,1.5c1,0,1.8,0.8,1.8,1.8v13.4c-0.1,1-0.9,1.8-1.9,1.8H3.3c-1,0-1.8-0.9-1.8-1.9V3.3c0-1,0.8-1.8,1.8-1.8
		H16.7 M16.7,0H3.3C1.5,0,0,1.5,0,3.3v13.3C0,18.5,1.5,20,3.3,20h13.3c1.8,0,3.3-1.5,3.4-3.3V3.3C20,1.5,18.5,0,16.7,0L16.7,0z"/>
</g>
<path class="st0" d="M10.8,12.8c-0.7-0.1-1.1-0.4-1.6-0.8c-0.3,1.7-0.7,3.2-1.9,4.1c-0.4-2.5,0.5-4.5,0.9-6.5
	C7.6,8.5,8.3,6.1,9.8,6.7c1.8,0.7-1.5,4.4,0.7,4.8c2.4,0.5,3.3-4.1,1.9-5.6c-2.1-2.1-6.2-0.1-5.7,3C6.8,9.7,7.6,9.9,7,11
	c-1.4-0.3-1.8-1.4-1.7-2.8c0.1-2.4,2.1-4,4.1-4.1c2.5-0.3,4.9,1,5.3,3.3C15,10,13.5,12.9,10.8,12.8z"/>
</svg>
