<?xml version="1.0" encoding="utf-8"?>
<!-- Generator: Adobe Illustrator 23.0.6, SVG Export Plug-In . SVG Version: 6.00 Build 0)  -->
<svg version="1.1" id="Layer_1" xmlns="http://www.w3.org/2000/svg" xmlns:xlink="http://www.w3.org/1999/xlink" x="0px" y="0px"
	 viewBox="0 0 1419.8 425.8" style="enable-background:new 0 0 1419.8 425.8;" xml:space="preserve">
<style type="text/css">
	.st0{fill:none;stroke:#CCCCCC;stroke-width:6;stroke-miterlimit:10;}
	.st1{fill:none;stroke:#CCCCCC;stroke-width:4;stroke-miterlimit:10;}
	.st2{fill:#CCCCCC;}
	.st3{fill:#FC8383;}
	.st4{fill:#F69B9B;}
	.st5{fill:#F1B4B4;}
	.st6{fill:#EBCDCD;}
	.st7{fill:#FFFFFF;}
</style>
<g>
	<circle class="st0" cx="137.3" cy="644.7" r="70.5"/>
</g>
<g>
	<g>
		<line class="st1" x1="280.5" y1="209.2" x2="294.6" y2="209.2"/>
		<g>
			<polygon class="st2" points="291.7,219.2 309,209.2 291.7,199.2 			"/>
		</g>
	</g>
</g>
<g>
	<g>
		<line class="st1" x1="1109" y1="209.2" x2="1123.1" y2="209.2"/>
		<g>
			<polygon class="st2" points="1120.2,219.2 1137.5,209.2 1120.2,199.2 			"/>
		</g>
	</g>
</g>
<g>
	<g>
		<line class="st1" x1="900.3" y1="209.2" x2="914.5" y2="209.2"/>
		<g>
			<polygon class="st2" points="911.5,219.2 928.8,209.2 911.5,199.2 			"/>
		</g>
	</g>
</g>
<g>
	<g>
		<line class="st1" x1="1161.6" y1="209.2" x2="1175.8" y2="209.2"/>
		<g>
			<polygon class="st2" points="1172.8,219.2 1190.1,209.2 1172.8,199.2 			"/>
		</g>
	</g>
</g>
<g>
	<g>
		<line class="st1" x1="492.6" y1="209.2" x2="506.8" y2="209.2"/>
		<g>
			<polygon class="st2" points="503.8,219.2 521.1,209.2 503.8,199.2 			"/>
		</g>
	</g>
</g>
<g>
	<g>
		<line class="st1" x1="229.6" y1="209.2" x2="243.8" y2="209.2"/>
		<g>
			<polygon class="st2" points="240.8,219.2 258.1,209.2 240.8,199.2 			"/>
		</g>
	</g>
</g>
<rect x="1068.4" y="494.5" class="st3" width="140.6" height="529.4"/>
<rect x="861.8" y="533.7" class="st4" width="140.6" height="449.7"/>
<rect x="655.2" y="574.2" class="st5" width="140.6" height="369.9"/>
<rect x="448.6" y="613.5" class="st6" width="140.6" height="290.2"/>
<g>
	<circle class="st3" cx="117.8" cy="212.9" r="105.7"/>
	<g>
		<path class="st7" d="M51.4,222.7v-19.6h12.2v3.7h-7.8v3.9h6.7v3.7h-6.7v4.5h8.1v3.7H51.4z"/>
		<path class="st7" d="M67.8,222.7v-19.6h4.8l3.1,8.7c0.2,0.6,0.4,1.2,0.6,1.8c0.2,0.6,0.4,1.2,0.6,1.8H77c0.2-0.6,0.4-1.2,0.6-1.8
			c0.2-0.6,0.4-1.2,0.6-1.8l3.1-8.7H86v19.6h-4v-7.2c0-0.5,0-1,0.1-1.6s0.1-1.2,0.2-1.8c0.1-0.6,0.1-1.2,0.2-1.7
			c0.1-0.6,0.1-1.1,0.2-1.6h-0.1l-1.6,4.6l-2.8,7.5h-2.4l-2.8-7.5l-1.6-4.6h-0.1c0.1,0.5,0.1,1,0.2,1.6c0.1,0.6,0.1,1.1,0.2,1.7
			s0.1,1.2,0.1,1.8s0.1,1.1,0.1,1.6v7.2H67.8z"/>
		<path class="st7" d="M90.7,222.7v-19.6h6.7c1.1,0,2.1,0.1,3,0.3c0.9,0.2,1.8,0.6,2.5,1.1c0.7,0.5,1.3,1.1,1.7,1.9
			c0.4,0.8,0.6,1.8,0.6,3c0,1.1-0.2,2.1-0.6,3c-0.4,0.8-1,1.5-1.7,2.1c-0.7,0.5-1.5,0.9-2.4,1.2s-1.9,0.4-2.9,0.4h-2.4v6.6H90.7z
			 M95.1,212.5h2.2c2.4,0,3.6-1,3.6-3.1c0-1-0.3-1.7-1-2.2c-0.6-0.4-1.6-0.6-2.8-0.6h-2V212.5z"/>
		<path class="st7" d="M104.5,222.7l6.1-19.6h5.3l6.1,19.6h-4.7l-1.2-4.6h-6l-1.2,4.6H104.5z M111.6,212.8l-0.5,1.8h4.2l-0.4-1.8
			c-0.3-1-0.6-2-0.8-3.1c-0.3-1.1-0.5-2.2-0.8-3.2h-0.1c-0.2,1-0.5,2.1-0.7,3.2C112.2,210.8,111.9,211.8,111.6,212.8z"/>
		<path class="st7" d="M125.8,222.7v-15.8h-5.4v-3.7h15.2v3.7h-5.4v15.8H125.8z"/>
		<path class="st7" d="M138.7,222.7v-19.6h4.4v7.5h6.8v-7.5h4.4v19.6h-4.4v-8.2h-6.8v8.2H138.7z"/>
		<path class="st7" d="M158.9,222.7v-19.6h4.4v19.6H158.9z"/>
		<path class="st7" d="M166.7,222.7V220l8.6-13.2h-7.8v-3.7h13.3v2.7l-8.6,13.2h8.7v3.7H166.7z"/>
		<path class="st7" d="M184.2,222.7v-19.6h12.2v3.7h-7.8v3.9h6.7v3.7h-6.7v4.5h8.1v3.7H184.2z"/>
	</g>
</g>
<g>
	<circle class="st5" cx="369.8" cy="212.9" r="105.7"/>
	<g>
		<path class="st7" d="M323.8,186.7v-19.6h5.5c1.5,0,2.9,0.2,4,0.6c1.2,0.4,2.2,1,3.1,1.8c0.9,0.8,1.5,1.8,2,3
			c0.5,1.2,0.7,2.7,0.7,4.4c0,1.7-0.2,3.1-0.7,4.4c-0.5,1.2-1.1,2.3-2,3.1s-1.8,1.4-3,1.8c-1.2,0.4-2.5,0.6-3.9,0.6H323.8z
			 M328.2,183.1h0.8c0.8,0,1.6-0.1,2.3-0.3c0.7-0.2,1.3-0.6,1.7-1.1s0.9-1.1,1.1-1.9c0.3-0.8,0.4-1.8,0.4-3c0-1.2-0.1-2.1-0.4-2.9
			s-0.6-1.4-1.1-1.9c-0.5-0.5-1.1-0.8-1.7-1c-0.7-0.2-1.4-0.3-2.3-0.3h-0.8V183.1z"/>
		<path class="st7" d="M342.8,186.7v-19.6H355v3.7h-7.8v3.9h6.7v3.7h-6.7v4.5h8.1v3.7H342.8z"/>
		<path class="st7" d="M359.2,186.7v-19.6h12.3v3.7h-7.9v4.5h6.8v3.7h-6.8v7.6H359.2z"/>
		<path class="st7" d="M375,186.7v-19.6h4.4v19.6H375z"/>
		<path class="st7" d="M384,186.7v-19.6h4.5l5.1,9.7l1.9,4.3h0.1c-0.1-1-0.2-2.2-0.3-3.5c-0.1-1.3-0.2-2.5-0.2-3.7v-6.9h4.2v19.6
			h-4.5l-5.1-9.8l-1.9-4.3h-0.1c0.1,1.1,0.2,2.2,0.3,3.5c0.1,1.2,0.2,2.4,0.2,3.6v6.9H384z"/>
		<path class="st7" d="M403.9,186.7v-19.6h12.2v3.7h-7.8v3.9h6.7v3.7h-6.7v4.5h8.1v3.7H403.9z"/>
		<path class="st7" d="M367,223c-1.1,0-2-0.1-2.8-0.4c-0.8-0.3-1.5-0.7-2-1.2c-0.6-0.5-1-1.1-1.2-1.8c-0.3-0.7-0.4-1.4-0.4-2.1
			c0-0.7,0.1-1.3,0.3-1.8c0.2-0.5,0.4-1,0.8-1.5c0.3-0.4,0.7-0.8,1.1-1.2c0.4-0.4,0.9-0.7,1.4-1c-0.4-0.7-0.7-1.4-0.9-2.1
			s-0.3-1.3-0.3-2c0-0.7,0.1-1.4,0.4-2c0.2-0.6,0.6-1.2,1.1-1.6c0.5-0.5,1-0.8,1.7-1.1c0.6-0.3,1.4-0.4,2.2-0.4
			c1.5,0,2.6,0.4,3.5,1.2c0.9,0.8,1.3,1.9,1.3,3.2c0,0.6-0.1,1.2-0.3,1.8c-0.2,0.5-0.5,1-0.9,1.5c-0.4,0.4-0.8,0.9-1.3,1.2
			s-1,0.7-1.5,1.1c0.6,0.6,1.2,1.3,1.8,1.9c0.7,0.6,1.4,1.2,2.1,1.7c0.5-0.6,0.9-1.3,1.3-2.1s0.7-1.6,0.9-2.5h4
			c-0.4,1.2-0.8,2.3-1.3,3.4c-0.5,1.1-1.2,2.1-1.9,3.2c0.6,0.3,1.2,0.6,1.8,0.8c0.6,0.2,1.1,0.4,1.6,0.4l-1.1,3.6
			c-0.8-0.2-1.6-0.4-2.5-0.8c-0.8-0.3-1.7-0.8-2.5-1.2c-0.8,0.6-1.8,1.1-2.8,1.5S368.3,223,367,223z M367.6,219.7
			c0.8,0,1.6-0.3,2.5-0.8c-0.8-0.6-1.5-1.3-2.2-2c-0.7-0.7-1.3-1.4-1.9-2.1c-0.4,0.3-0.7,0.7-1,1.1c-0.2,0.4-0.4,0.8-0.4,1.3
			c0,0.7,0.3,1.3,0.8,1.8C366,219.4,366.7,219.7,367.6,219.7z M366.5,207.8c0,0.4,0.1,0.7,0.2,1.1c0.1,0.4,0.3,0.8,0.5,1.2
			c0.7-0.4,1.3-0.9,1.8-1.3s0.7-1,0.7-1.7c0-0.5-0.1-0.8-0.3-1.1c-0.2-0.3-0.6-0.4-1-0.4c-0.5,0-0.9,0.2-1.3,0.6
			C366.7,206.6,366.5,207.2,366.5,207.8z"/>
		<path class="st7" d="M336.9,258.7v-19.6h6.7c1.1,0,2.1,0.1,3,0.3c0.9,0.2,1.8,0.6,2.5,1c0.7,0.5,1.3,1.1,1.7,2
			c0.4,0.8,0.6,1.8,0.6,3c0,1.1-0.2,2.1-0.6,3c-0.4,0.8-1,1.5-1.7,2.1c-0.7,0.5-1.5,0.9-2.4,1.2c-0.9,0.3-1.9,0.4-2.9,0.4h-2.4v6.6
			H336.9z M341.3,248.5h2.2c2.4,0,3.6-1,3.6-3.1c0-1-0.3-1.7-1-2.2c-0.6-0.4-1.6-0.6-2.8-0.6h-2V248.5z"/>
		<path class="st7" d="M354.8,258.7v-19.6h4.4v15.8h7.7v3.7H354.8z"/>
		<path class="st7" d="M367.6,258.7l6.1-19.6h5.3l6.1,19.6h-4.7l-1.2-4.7h-6l-1.2,4.7H367.6z M374.7,248.8l-0.5,1.8h4.2l-0.4-1.8
			c-0.3-1-0.6-2-0.8-3.1c-0.3-1.1-0.5-2.2-0.8-3.2h-0.1c-0.2,1-0.5,2.1-0.7,3.2S375,247.8,374.7,248.8z"/>
		<path class="st7" d="M387.3,258.7v-19.6h4.5l5.1,9.7l1.9,4.3h0.1c-0.1-1-0.2-2.2-0.3-3.5s-0.2-2.5-0.2-3.7v-6.9h4.2v19.6h-4.5
			l-5.1-9.8l-1.9-4.3H391c0.1,1.1,0.2,2.2,0.3,3.5c0.1,1.2,0.2,2.4,0.2,3.6v6.9H387.3z"/>
	</g>
</g>
<g>
	<g>
		<circle class="st5" cx="601.3" cy="307.6" r="105.8"/>
		<g>
			<path class="st7" d="M545.5,317.4l-5.9-19.6h4.7l2.3,9.1c0.3,1.1,0.6,2.1,0.8,3.1c0.2,1,0.5,2.1,0.8,3.1h0.1
				c0.3-1.1,0.5-2.1,0.8-3.1c0.2-1,0.5-2.1,0.8-3.1l2.3-9.1h4.5l-5.9,19.6H545.5z"/>
			<path class="st7" d="M555.8,317.4l6.1-19.6h5.3l6.1,19.6h-4.7l-1.2-4.6h-6l-1.2,4.6H555.8z M562.9,307.5l-0.5,1.8h4.2l-0.4-1.8
				c-0.3-1-0.6-2-0.8-3.1c-0.3-1.1-0.5-2.2-0.8-3.2h-0.1c-0.2,1-0.5,2.1-0.7,3.2C563.4,305.5,563.1,306.5,562.9,307.5z"/>
			<path class="st7" d="M575.5,317.4v-19.6h4.4v15.8h7.7v3.7H575.5z"/>
			<path class="st7" d="M591,317.4v-19.6h4.4v19.6H591z"/>
			<path class="st7" d="M600,317.4v-19.6h5.5c1.5,0,2.9,0.2,4,0.6c1.2,0.4,2.2,1,3.1,1.8c0.9,0.8,1.5,1.8,2,3
				c0.5,1.2,0.7,2.7,0.7,4.3c0,1.7-0.2,3.1-0.7,4.4c-0.5,1.2-1.1,2.3-2,3.1c-0.8,0.8-1.8,1.4-3,1.8s-2.5,0.6-3.9,0.6H600z
				 M604.4,313.8h0.8c0.8,0,1.6-0.1,2.3-0.3c0.7-0.2,1.3-0.6,1.7-1.1s0.9-1.1,1.1-1.9s0.4-1.8,0.4-3c0-1.2-0.1-2.1-0.4-2.9
				s-0.6-1.4-1.1-1.9s-1.1-0.8-1.7-1c-0.7-0.2-1.4-0.3-2.3-0.3h-0.8V313.8z"/>
			<path class="st7" d="M616.3,317.4l6.1-19.6h5.3l6.1,19.6h-4.7l-1.2-4.6h-6l-1.2,4.6H616.3z M623.4,307.5l-0.5,1.8h4.2l-0.4-1.8
				c-0.3-1-0.6-2-0.8-3.1c-0.3-1.1-0.5-2.2-0.8-3.2h-0.1c-0.2,1-0.5,2.1-0.7,3.2C623.9,305.5,623.6,306.5,623.4,307.5z"/>
			<path class="st7" d="M637.6,317.4v-15.8h-5.4v-3.7h15.2v3.7H642v15.8H637.6z"/>
			<path class="st7" d="M650.5,317.4v-19.6h12.2v3.7h-7.8v3.9h6.7v3.7h-6.7v4.5h8.1v3.7H650.5z"/>
		</g>
	</g>
	<g>
		<circle class="st3" cx="818.5" cy="307.6" r="105.8"/>
		<g>
			<path class="st7" d="M741.6,317.4v-19.6h6.7c1.1,0,2.1,0.1,3,0.3s1.8,0.6,2.5,1c0.7,0.5,1.3,1.1,1.7,2c0.4,0.8,0.6,1.8,0.6,3
				c0,1.1-0.2,2.1-0.6,3c-0.4,0.8-1,1.5-1.7,2.1c-0.7,0.5-1.5,0.9-2.4,1.2c-0.9,0.3-1.9,0.4-2.9,0.4h-2.4v6.6H741.6z M746.1,307.3
				h2.2c2.4,0,3.6-1,3.6-3.1c0-1-0.3-1.7-1-2.2c-0.6-0.4-1.6-0.6-2.8-0.6h-2V307.3z"/>
			<path class="st7" d="M759.5,317.4v-19.6h7c1,0,2,0.1,2.9,0.3c0.9,0.2,1.7,0.5,2.4,1s1.2,1.1,1.6,1.9c0.4,0.8,0.6,1.8,0.6,2.9
				c0,1.4-0.3,2.6-0.9,3.6c-0.6,0.9-1.5,1.6-2.5,2.1l4.4,7.8h-5l-3.8-7h-2.4v7H759.5z M763.9,306.9h2.3c1.2,0,2-0.2,2.7-0.7
				s0.9-1.2,0.9-2.2c0-1-0.3-1.6-0.9-2c-0.6-0.4-1.5-0.6-2.7-0.6h-2.3V306.9z"/>
			<path class="st7" d="M785.9,317.8c-1.3,0-2.5-0.2-3.6-0.7c-1.1-0.5-2-1.1-2.8-2c-0.8-0.9-1.4-2-1.8-3.2s-0.6-2.7-0.6-4.3
				c0-1.6,0.2-3,0.6-4.3c0.4-1.2,1-2.3,1.8-3.1c0.8-0.9,1.7-1.5,2.8-2s2.3-0.7,3.6-0.7s2.5,0.2,3.6,0.7c1.1,0.5,2,1.1,2.8,2
				c0.8,0.9,1.4,1.9,1.8,3.2s0.6,2.7,0.6,4.2c0,1.6-0.2,3-0.6,4.3s-1,2.3-1.8,3.2c-0.8,0.9-1.7,1.6-2.8,2
				C788.4,317.5,787.2,317.8,785.9,317.8z M785.9,314c1.3,0,2.4-0.6,3.2-1.7c0.8-1.2,1.2-2.7,1.2-4.7c0-2-0.4-3.5-1.2-4.6
				c-0.8-1.1-1.8-1.7-3.2-1.7s-2.4,0.6-3.2,1.7c-0.8,1.1-1.2,2.6-1.2,4.6c0,2,0.4,3.5,1.2,4.7C783.5,313.4,784.5,314,785.9,314z"/>
			<path class="st7" d="M801.4,317.4v-15.8H796v-3.7h15.2v3.7h-5.4v15.8H801.4z"/>
			<path class="st7" d="M821.4,317.8c-1.3,0-2.5-0.2-3.6-0.7c-1.1-0.5-2-1.1-2.8-2c-0.8-0.9-1.4-2-1.8-3.2s-0.6-2.7-0.6-4.3
				c0-1.6,0.2-3,0.6-4.3c0.4-1.2,1-2.3,1.8-3.1c0.8-0.9,1.7-1.5,2.8-2s2.3-0.7,3.6-0.7s2.5,0.2,3.6,0.7c1.1,0.5,2,1.1,2.8,2
				c0.8,0.9,1.4,1.9,1.8,3.2s0.6,2.7,0.6,4.2c0,1.6-0.2,3-0.6,4.3s-1,2.3-1.8,3.2c-0.8,0.9-1.7,1.6-2.8,2
				C823.9,317.5,822.7,317.8,821.4,317.8z M821.4,314c1.3,0,2.4-0.6,3.2-1.7c0.8-1.2,1.2-2.7,1.2-4.7c0-2-0.4-3.5-1.2-4.6
				c-0.8-1.1-1.8-1.7-3.2-1.7s-2.4,0.6-3.2,1.7c-0.8,1.1-1.2,2.6-1.2,4.6c0,2,0.4,3.5,1.2,4.7C819,313.4,820,314,821.4,314z"/>
			<path class="st7" d="M836.9,317.4v-15.8h-5.4v-3.7h15.2v3.7h-5.4v15.8H836.9z"/>
			<path class="st7" d="M852.6,317.4v-7l-5.9-12.6h4.7l1.7,4.5c0.3,0.7,0.5,1.5,0.8,2.1c0.2,0.7,0.5,1.4,0.8,2.2h0.1
				c0.3-0.8,0.6-1.5,0.8-2.2c0.3-0.7,0.5-1.4,0.8-2.1l1.8-4.5h4.6l-5.9,12.6v7H852.6z"/>
			<path class="st7" d="M865,317.4v-19.6h6.7c1.1,0,2.1,0.1,3,0.3s1.8,0.6,2.5,1c0.7,0.5,1.3,1.1,1.7,2c0.4,0.8,0.6,1.8,0.6,3
				c0,1.1-0.2,2.1-0.6,3c-0.4,0.8-1,1.5-1.7,2.1c-0.7,0.5-1.5,0.9-2.4,1.2c-0.9,0.3-1.9,0.4-2.9,0.4h-2.4v6.6H865z M869.4,307.3h2.2
				c2.4,0,3.6-1,3.6-3.1c0-1-0.3-1.7-1-2.2c-0.6-0.4-1.6-0.6-2.8-0.6h-2V307.3z"/>
			<path class="st7" d="M882.9,317.4v-19.6h12.2v3.7h-7.8v3.9h6.7v3.7h-6.7v4.5h8.1v3.7H882.9z"/>
		</g>
	</g>
	<g>
		<g>
			<circle class="st6" cx="712" cy="119.1" r="105.8"/>
			<g>
				<path class="st7" d="M667.7,128.9v-19.6h4.4v19.6H667.7z"/>
				<path class="st7" d="M676.7,128.9v-19.6h5.5c1.5,0,2.9,0.2,4,0.6c1.2,0.4,2.2,1,3.1,1.8c0.9,0.8,1.5,1.8,2,3
					c0.5,1.2,0.7,2.7,0.7,4.4c0,1.7-0.2,3.1-0.7,4.4c-0.5,1.2-1.1,2.3-2,3.1s-1.8,1.4-3,1.8c-1.2,0.4-2.5,0.6-3.9,0.6H676.7z
					 M681.1,125.3h0.8c0.8,0,1.6-0.1,2.3-0.3c0.7-0.2,1.3-0.6,1.7-1.1s0.9-1.1,1.1-1.9c0.3-0.8,0.4-1.8,0.4-3c0-1.2-0.1-2.1-0.4-2.9
					s-0.6-1.4-1.1-1.9c-0.5-0.5-1.1-0.8-1.7-1c-0.7-0.2-1.4-0.3-2.3-0.3h-0.8V125.3z"/>
				<path class="st7" d="M695.8,128.9v-19.6H708v3.7h-7.8v3.9h6.7v3.7h-6.7v4.5h8.1v3.7H695.8z"/>
				<path class="st7" d="M709.7,128.9l6.1-19.6h5.3l6.1,19.6h-4.7l-1.2-4.6h-6l-1.2,4.6H709.7z M716.8,119l-0.5,1.8h4.2L720,119
					c-0.3-1-0.6-2-0.8-3.1c-0.3-1.1-0.5-2.2-0.8-3.2h-0.1c-0.2,1-0.5,2.1-0.7,3.2C717.3,117,717.1,118,716.8,119z"/>
				<path class="st7" d="M731,128.9v-15.8h-5.4v-3.7h15.2v3.7h-5.4v15.8H731z"/>
				<path class="st7" d="M743.9,128.9v-19.6h12.2v3.7h-7.8v3.9h6.7v3.7h-6.7v4.5h8.1v3.7H743.9z"/>
			</g>
		</g>
		<g>
			<circle class="st6" cx="712" cy="118.1" r="105.8"/>
			<g>
				<path class="st7" d="M667.7,127.9v-19.6h4.4v19.6H667.7z"/>
				<path class="st7" d="M676.7,127.9v-19.6h5.5c1.5,0,2.9,0.2,4,0.6c1.2,0.4,2.2,1,3.1,1.8c0.9,0.8,1.5,1.8,2,3
					c0.5,1.2,0.7,2.7,0.7,4.4c0,1.7-0.2,3.1-0.7,4.4c-0.5,1.2-1.1,2.3-2,3.1s-1.8,1.4-3,1.8c-1.2,0.4-2.5,0.6-3.9,0.6H676.7z
					 M681.1,124.3h0.8c0.8,0,1.6-0.1,2.3-0.3c0.7-0.2,1.3-0.6,1.7-1.1s0.9-1.1,1.1-1.9c0.3-0.8,0.4-1.8,0.4-3c0-1.2-0.1-2.1-0.4-2.9
					s-0.6-1.4-1.1-1.9c-0.5-0.5-1.1-0.8-1.7-1c-0.7-0.2-1.4-0.3-2.3-0.3h-0.8V124.3z"/>
				<path class="st7" d="M695.8,127.9v-19.6H708v3.7h-7.8v3.9h6.7v3.7h-6.7v4.5h8.1v3.7H695.8z"/>
				<path class="st7" d="M709.7,127.9l6.1-19.6h5.3l6.1,19.6h-4.7l-1.2-4.6h-6l-1.2,4.6H709.7z M716.8,118l-0.5,1.8h4.2L720,118
					c-0.3-1-0.6-2-0.8-3.1c-0.3-1.1-0.5-2.2-0.8-3.2h-0.1c-0.2,1-0.5,2.1-0.7,3.2C717.3,116,717.1,117,716.8,118z"/>
				<path class="st7" d="M731,127.9v-15.8h-5.4v-3.7h15.2v3.7h-5.4v15.8H731z"/>
				<path class="st7" d="M743.9,127.9v-19.6h12.2v3.7h-7.8v3.9h6.7v3.7h-6.7v4.5h8.1v3.7H743.9z"/>
			</g>
		</g>
	</g>
</g>
<g>
	<circle class="st5" cx="1050.2" cy="212.9" r="105.7"/>
	<g>
		<path class="st7" d="M1011.6,186.5v-19.6h6.7c1,0,2,0.1,2.8,0.2s1.6,0.4,2.3,0.8c0.6,0.4,1.2,0.9,1.5,1.5c0.4,0.6,0.6,1.4,0.6,2.3
			c0,0.4-0.1,0.9-0.2,1.3s-0.3,0.9-0.5,1.2c-0.2,0.4-0.5,0.7-0.8,1c-0.3,0.3-0.7,0.5-1.1,0.7v0.1c0.5,0.1,1,0.3,1.4,0.6
			s0.8,0.6,1.1,0.9c0.3,0.4,0.6,0.8,0.8,1.3c0.2,0.5,0.3,1.1,0.3,1.8c0,1-0.2,1.9-0.6,2.6c-0.4,0.7-0.9,1.3-1.6,1.8
			c-0.7,0.5-1.5,0.8-2.4,1c-0.9,0.2-1.9,0.3-3,0.3H1011.6z M1016,174.8h2.1c1.1,0,1.9-0.2,2.4-0.6c0.5-0.4,0.7-1,0.7-1.7
			c0-0.8-0.2-1.3-0.8-1.6c-0.5-0.3-1.3-0.5-2.3-0.5h-2.1V174.8z M1016,183.1h2.5c2.4,0,3.6-0.9,3.6-2.6c0-0.9-0.3-1.5-0.9-1.8
			c-0.6-0.4-1.5-0.6-2.7-0.6h-2.5V183.1z"/>
		<path class="st7" d="M1037.5,186.8c-2.5,0-4.5-0.8-5.8-2.2c-1.3-1.5-2-3.9-2-7.2v-10.5h4.4v11c0,1.9,0.3,3.3,0.9,4
			c0.6,0.8,1.4,1.1,2.5,1.1s2-0.4,2.5-1.1c0.6-0.8,0.9-2.1,0.9-4v-11h4.3v10.5c0,3.3-0.7,5.7-2,7.2S1040,186.8,1037.5,186.8z"/>
		<path class="st7" d="M1049.7,186.5v-19.6h4.4v19.6H1049.7z"/>
		<path class="st7" d="M1058.8,186.5v-19.6h4.4v15.8h7.7v3.7H1058.8z"/>
		<path class="st7" d="M1074.3,186.5v-19.6h5.5c1.5,0,2.9,0.2,4,0.6c1.2,0.4,2.2,1,3.1,1.8c0.9,0.8,1.5,1.8,2,3
			c0.5,1.2,0.7,2.7,0.7,4.4c0,1.7-0.2,3.1-0.7,4.4c-0.5,1.2-1.1,2.3-2,3.1s-1.8,1.4-3,1.8c-1.2,0.4-2.5,0.6-3.9,0.6H1074.3z
			 M1078.7,182.9h0.8c0.8,0,1.6-0.1,2.3-0.3c0.7-0.2,1.3-0.6,1.7-1.1c0.5-0.5,0.9-1.1,1.1-1.9c0.3-0.8,0.4-1.8,0.4-3
			c0-1.2-0.1-2.1-0.4-2.9c-0.3-0.8-0.6-1.4-1.1-1.9c-0.5-0.5-1.1-0.8-1.7-1c-0.7-0.2-1.4-0.3-2.3-0.3h-0.8V182.9z"/>
		<path class="st7" d="M1047.4,222.8c-1.1,0-2-0.1-2.8-0.4c-0.8-0.3-1.5-0.7-2-1.2c-0.5-0.5-1-1.1-1.2-1.8s-0.4-1.4-0.4-2.1
			c0-0.7,0.1-1.3,0.3-1.8c0.2-0.5,0.5-1,0.8-1.5c0.3-0.4,0.7-0.8,1.1-1.2s0.9-0.7,1.4-1c-0.4-0.7-0.7-1.4-0.9-2.1
			c-0.2-0.7-0.3-1.3-0.3-2c0-0.7,0.1-1.4,0.4-2c0.2-0.6,0.6-1.2,1.1-1.6c0.5-0.5,1-0.8,1.7-1.1c0.6-0.3,1.4-0.4,2.2-0.4
			c1.5,0,2.6,0.4,3.5,1.2c0.9,0.8,1.3,1.9,1.3,3.2c0,0.6-0.1,1.2-0.3,1.8c-0.2,0.5-0.5,1-0.9,1.5c-0.4,0.4-0.8,0.9-1.3,1.2
			s-1,0.7-1.5,1.1c0.6,0.6,1.2,1.3,1.8,1.9c0.7,0.6,1.4,1.2,2.1,1.7c0.5-0.6,0.9-1.3,1.3-2.1s0.7-1.6,0.9-2.6h4
			c-0.4,1.2-0.8,2.3-1.3,3.4c-0.5,1.1-1.2,2.1-1.9,3.2c0.6,0.3,1.2,0.6,1.8,0.8s1.1,0.4,1.6,0.4l-1.1,3.6c-0.8-0.2-1.6-0.4-2.5-0.8
			c-0.8-0.3-1.7-0.8-2.5-1.2c-0.8,0.6-1.8,1.1-2.8,1.5S1048.7,222.8,1047.4,222.8z M1048,219.5c0.8,0,1.6-0.3,2.5-0.8
			c-0.8-0.6-1.5-1.3-2.2-2c-0.7-0.7-1.3-1.4-1.9-2.1c-0.4,0.3-0.7,0.7-1,1.1s-0.4,0.8-0.4,1.3c0,0.7,0.3,1.3,0.8,1.8
			C1046.4,219.3,1047.1,219.5,1048,219.5z M1046.9,207.7c0,0.4,0.1,0.7,0.2,1.1c0.1,0.4,0.3,0.8,0.5,1.2c0.7-0.4,1.3-0.9,1.8-1.3
			c0.5-0.5,0.7-1,0.7-1.7c0-0.5-0.1-0.8-0.3-1.1c-0.2-0.3-0.6-0.4-1-0.4c-0.5,0-0.9,0.2-1.3,0.6
			C1047.1,206.5,1046.9,207,1046.9,207.7z"/>
		<path class="st7" d="M1000.7,258.5v-19.6h5.5c1.5,0,2.8,0.2,4,0.6s2.2,1,3.1,1.8c0.9,0.8,1.5,1.8,2,3c0.5,1.2,0.7,2.7,0.7,4.4
			s-0.2,3.1-0.7,4.4c-0.5,1.2-1.1,2.3-2,3.1c-0.8,0.8-1.8,1.4-3,1.8c-1.2,0.4-2.5,0.6-3.9,0.6H1000.7z M1005.2,254.9h0.8
			c0.8,0,1.6-0.1,2.3-0.3c0.7-0.2,1.3-0.6,1.7-1.1c0.5-0.5,0.9-1.1,1.1-1.9c0.3-0.8,0.4-1.8,0.4-3c0-1.2-0.1-2.1-0.4-2.9
			c-0.3-0.8-0.6-1.4-1.1-1.9c-0.5-0.5-1.1-0.8-1.7-1c-0.7-0.2-1.4-0.3-2.3-0.3h-0.8V254.9z"/>
		<path class="st7" d="M1019.8,258.5v-19.6h12.2v3.7h-7.8v3.9h6.7v3.7h-6.7v4.5h8.1v3.7H1019.8z"/>
		<path class="st7" d="M1036.2,258.5v-19.6h6.7c1.1,0,2.1,0.1,3,0.3s1.8,0.6,2.5,1s1.3,1.1,1.7,2c0.4,0.8,0.6,1.8,0.6,3
			c0,1.1-0.2,2.1-0.6,3s-1,1.5-1.7,2.1c-0.7,0.5-1.5,0.9-2.4,1.2c-0.9,0.3-1.9,0.4-2.9,0.4h-2.4v6.6H1036.2z M1040.6,248.3h2.2
			c2.4,0,3.6-1,3.6-3.1c0-1-0.3-1.7-1-2.2s-1.6-0.6-2.8-0.6h-2V248.3z"/>
		<path class="st7" d="M1054.1,258.5v-19.6h4.4v15.8h7.7v3.7H1054.1z"/>
		<path class="st7" d="M1076.5,258.8c-1.3,0-2.5-0.2-3.6-0.7c-1.1-0.5-2-1.1-2.8-2c-0.8-0.9-1.4-2-1.8-3.2c-0.4-1.3-0.6-2.7-0.6-4.3
			c0-1.6,0.2-3,0.6-4.3c0.4-1.2,1-2.3,1.8-3.1c0.8-0.9,1.7-1.5,2.8-2c1.1-0.5,2.3-0.7,3.6-0.7c1.3,0,2.5,0.2,3.6,0.7s2,1.1,2.8,2
			c0.8,0.9,1.4,1.9,1.8,3.2c0.4,1.2,0.6,2.7,0.6,4.2c0,1.6-0.2,3-0.6,4.3c-0.4,1.3-1,2.3-1.8,3.2c-0.8,0.9-1.7,1.6-2.8,2
			C1079,258.6,1077.8,258.8,1076.5,258.8z M1076.5,255c1.3,0,2.4-0.6,3.2-1.7c0.8-1.2,1.2-2.7,1.2-4.7c0-2-0.4-3.5-1.2-4.6
			s-1.8-1.7-3.2-1.7s-2.4,0.6-3.2,1.7s-1.2,2.6-1.2,4.6c0,2,0.4,3.5,1.2,4.7C1074.1,254.5,1075.2,255,1076.5,255z"/>
		<path class="st7" d="M1091.9,258.5v-7l-5.9-12.6h4.7l1.7,4.5c0.3,0.7,0.5,1.5,0.8,2.1c0.2,0.7,0.5,1.4,0.8,2.2h0.1
			c0.3-0.8,0.6-1.5,0.8-2.2c0.3-0.7,0.5-1.4,0.8-2.1l1.8-4.5h4.6l-5.9,12.6v7H1091.9z"/>
	</g>
</g>
<g>
	<circle class="st3" cx="1301.5" cy="212.9" r="105.7"/>
	<g>
		<path class="st7" d="M1237.8,186.7v-19.6h12.2v3.7h-7.8v3.9h6.7v3.7h-6.7v4.5h8.1v3.7H1237.8z"/>
		<path class="st7" d="M1257.6,186.7l-5.9-19.6h4.7l2.3,9.1c0.3,1.1,0.6,2.1,0.8,3.1c0.2,1,0.5,2.1,0.8,3.1h0.1
			c0.3-1.1,0.5-2.1,0.8-3.1c0.2-1,0.5-2.1,0.8-3.1l2.3-9.1h4.5l-5.9,19.6H1257.6z"/>
		<path class="st7" d="M1267.9,186.7l6.1-19.6h5.3l6.1,19.6h-4.7l-1.2-4.7h-6l-1.2,4.7H1267.9z M1275,176.8l-0.5,1.8h4.2l-0.5-1.8
			c-0.3-1-0.5-2-0.8-3.1c-0.3-1.1-0.5-2.2-0.8-3.2h-0.1c-0.2,1-0.5,2.1-0.7,3.2C1275.5,174.8,1275.3,175.8,1275,176.8z"/>
		<path class="st7" d="M1287.6,186.7v-19.6h4.4v15.8h7.7v3.7H1287.6z"/>
		<path class="st7" d="M1309.7,187c-2.5,0-4.5-0.8-5.8-2.2s-2-3.9-2-7.2v-10.5h4.4v11c0,1.9,0.3,3.3,0.9,4s1.4,1.1,2.5,1.1
			c1.1,0,2-0.4,2.5-1.1s0.9-2.1,0.9-4v-11h4.3v10.5c0,3.3-0.7,5.7-2,7.2C1314.2,186.3,1312.2,187,1309.7,187z"/>
		<path class="st7" d="M1319.1,186.7l6.1-19.6h5.3l6.1,19.6h-4.7l-1.2-4.7h-6l-1.2,4.7H1319.1z M1326.2,176.8l-0.5,1.8h4.2l-0.4-1.8
			c-0.3-1-0.6-2-0.8-3.1c-0.3-1.1-0.5-2.2-0.8-3.2h-0.1c-0.2,1-0.5,2.1-0.7,3.2C1326.7,174.8,1326.5,175.8,1326.2,176.8z"/>
		<path class="st7" d="M1340.4,186.7v-15.8h-5.4v-3.7h15.2v3.7h-5.4v15.8H1340.4z"/>
		<path class="st7" d="M1353.3,186.7v-19.6h12.2v3.7h-7.8v3.9h6.7v3.7h-6.7v4.5h8.1v3.7H1353.3z"/>
		<path class="st7" d="M1298.7,223c-1.1,0-2-0.1-2.8-0.4c-0.8-0.3-1.5-0.7-2-1.2c-0.5-0.5-1-1.1-1.2-1.8s-0.4-1.4-0.4-2.1
			c0-0.7,0.1-1.3,0.3-1.8c0.2-0.5,0.5-1,0.8-1.5c0.3-0.4,0.7-0.8,1.1-1.2c0.4-0.4,0.9-0.7,1.4-1c-0.4-0.7-0.7-1.4-0.9-2.1
			s-0.3-1.3-0.3-2c0-0.7,0.1-1.4,0.4-2c0.2-0.6,0.6-1.2,1.1-1.6c0.5-0.5,1-0.8,1.7-1.1c0.6-0.3,1.4-0.4,2.2-0.4
			c1.5,0,2.6,0.4,3.5,1.2c0.9,0.8,1.3,1.9,1.3,3.2c0,0.6-0.1,1.2-0.3,1.8c-0.2,0.5-0.5,1-0.9,1.5c-0.4,0.4-0.8,0.9-1.3,1.2
			s-1,0.7-1.5,1.1c0.6,0.6,1.2,1.3,1.8,1.9c0.7,0.6,1.4,1.2,2.1,1.7c0.5-0.6,0.9-1.3,1.3-2.1s0.7-1.6,0.9-2.5h4
			c-0.4,1.2-0.8,2.3-1.3,3.4c-0.5,1.1-1.2,2.1-1.9,3.2c0.6,0.3,1.2,0.6,1.8,0.8s1.1,0.4,1.6,0.4l-1.1,3.6c-0.8-0.2-1.6-0.4-2.5-0.8
			c-0.8-0.3-1.7-0.8-2.5-1.2c-0.8,0.6-1.8,1.1-2.8,1.5S1300,223,1298.7,223z M1299.3,219.7c0.8,0,1.6-0.3,2.5-0.8
			c-0.8-0.6-1.5-1.3-2.2-2c-0.7-0.7-1.3-1.4-1.9-2.1c-0.4,0.3-0.7,0.7-1,1.1s-0.4,0.8-0.4,1.3c0,0.7,0.3,1.3,0.8,1.8
			C1297.7,219.4,1298.4,219.7,1299.3,219.7z M1298.2,207.8c0,0.4,0.1,0.7,0.2,1.1c0.1,0.4,0.3,0.8,0.5,1.2c0.7-0.4,1.3-0.9,1.8-1.3
			c0.5-0.5,0.7-1,0.7-1.7c0-0.5-0.1-0.8-0.3-1.1s-0.6-0.4-1-0.4c-0.5,0-0.9,0.2-1.3,0.6C1298.4,206.6,1298.2,207.2,1298.2,207.8z"/>
		<path class="st7" d="M1249.6,258.7v-19.6h4.4v19.6H1249.6z"/>
		<path class="st7" d="M1262.4,258.7v-15.8h-5.4v-3.7h15.2v3.7h-5.4v15.8H1262.4z"/>
		<path class="st7" d="M1275.3,258.7v-19.6h12.2v3.7h-7.8v3.9h6.7v3.7h-6.7v4.5h8.1v3.7H1275.3z"/>
		<path class="st7" d="M1291.7,258.7v-19.6h7c1,0,2,0.1,2.9,0.3c0.9,0.2,1.7,0.5,2.4,1c0.7,0.5,1.2,1.1,1.6,1.9
			c0.4,0.8,0.6,1.8,0.6,2.9c0,1.4-0.3,2.6-0.9,3.6c-0.6,0.9-1.5,1.6-2.5,2.1l4.4,7.8h-5l-3.8-7h-2.4v7H1291.7z M1296.1,248.1h2.3
			c1.2,0,2-0.2,2.7-0.7c0.6-0.5,0.9-1.2,0.9-2.2c0-1-0.3-1.6-0.9-2c-0.6-0.4-1.5-0.6-2.7-0.6h-2.3V248.1z"/>
		<path class="st7" d="M1307.4,258.7l6.1-19.6h5.3l6.1,19.6h-4.7l-1.2-4.7h-6l-1.2,4.7H1307.4z M1314.5,248.8l-0.5,1.8h4.2l-0.4-1.8
			c-0.3-1-0.6-2-0.8-3.1c-0.3-1.1-0.5-2.2-0.8-3.2h-0.1c-0.2,1-0.5,2.1-0.7,3.2S1314.7,247.8,1314.5,248.8z"/>
		<path class="st7" d="M1328.7,258.7v-15.8h-5.4v-3.7h15.2v3.7h-5.4v15.8H1328.7z"/>
		<path class="st7" d="M1341.5,258.7v-19.6h12.2v3.7h-7.8v3.9h6.7v3.7h-6.7v4.5h8.1v3.7H1341.5z"/>
	</g>
</g>
<rect x="103.1" y="-382.8" style="fill:none;" width="154.7" height="86.7"/>
<text transform="matrix(1 0 0 1 103.9955 -361.7882)" class="st7" style="font-family:'SourceSansPro-Bold'; font-size:30px;">Empathize</text>
<rect x="332.1" y="-417.1" style="fill:none;" width="154.7" height="120.3"/>
<text transform="matrix(1 0 0 1 361.1171 -396.0885)"><tspan x="0" y="0" class="st7" style="font-family:'SourceSansPro-Bold'; font-size:30px;">Define</tspan><tspan x="38.3" y="36" class="st7" style="font-family:'SourceSansPro-Bold'; font-size:30px;">&amp;</tspan><tspan x="13" y="72" class="st7" style="font-family:'SourceSansPro-Bold'; font-size:30px;">Plan</tspan></text>
<rect x="530.1" y="-257" style="fill:none;" width="154.7" height="120.3"/>
<text transform="matrix(1 0 0 1 543.5322 -235.963)" class="st7" style="font-family:'SourceSansPro-Bold'; font-size:30px;">validate</text>
<rect x="619.2" y="-540.2" style="fill:none;" width="154.7" height="120.3"/>
<text transform="matrix(1 0 0 1 649.1671 -519.1385)" class="st7" style="font-family:'SourceSansPro-Bold'; font-size:30px;">ideate</text>
<rect x="752.2" y="-257" style="fill:none;" width="154.7" height="120.3"/>
<text transform="matrix(1 0 0 1 777.6075 -235.963)"><tspan x="0" y="0" class="st7" style="font-family:'SourceSansPro-Bold'; font-size:30px;">proto</tspan><tspan x="94" y="0" class="st7" style="font-family:'SourceSansPro-Bold'; font-size:30px;">-</tspan><tspan x="18.6" y="36" class="st7" style="font-family:'SourceSansPro-Bold'; font-size:30px;">type</tspan></text>
<rect x="950.7" y="-420.9" style="fill:none;" width="154.7" height="120.3"/>
<text transform="matrix(1 0 0 1 987.1722 -399.8885)"><tspan x="0" y="0" class="st7" style="font-family:'SourceSansPro-Bold'; font-size:30px;">Build</tspan><tspan x="30.9" y="36" class="st7" style="font-family:'SourceSansPro-Bold'; font-size:30px;">&amp;</tspan><tspan x="-11.7" y="72" class="st7" style="font-family:'SourceSansPro-Bold'; font-size:30px;">Deploy</tspan></text>
<rect x="1160.7" y="-388" style="fill:none;" width="154.7" height="120.3"/>
<text transform="matrix(1 0 0 1 1169.9774 -366.9382)"><tspan x="0" y="0" class="st7" style="font-family:'SourceSansPro-Bold'; font-size:30px;">Evaluate </tspan><tspan x="-0.4" y="36" class="st7" style="font-family:'SourceSansPro-Bold'; font-size:30px;">&amp; Iterate</tspan></text>
</svg>
