<?xml version="1.0" encoding="utf-8"?>
<!-- Generator: Adobe Illustrator 21.1.0, SVG Export Plug-In . SVG Version: 6.00 Build 0)  -->
<svg version="1.1" id="Layer_1" xmlns="http://www.w3.org/2000/svg" xmlns:xlink="http://www.w3.org/1999/xlink" x="0px" y="0px"
	 viewBox="0 0 1286.5 400" style="enable-background:new 0 0 1286.5 400;" xml:space="preserve">
<style type="text/css">
	.st0{fill:#B3B3B3;}
	.st1{fill:#FFFFFF;}
	.st2{fill:#CCCCCC;}
	.st3{fill:none;stroke:#CCCCCC;stroke-width:6;stroke-miterlimit:10;}
	.st4{fill:#666666;}
	.st5{fill:#1A1A1A;}
	.st6{fill:none;stroke:#CCCCCC;stroke-width:4;stroke-miterlimit:10;}
	.st7{fill:#EBCDCD;}
	.st8{fill:#F1B4B4;}
	.st9{fill:#FC8383;}
	.st10{fill:#F69B9B;}
</style>
<circle class="st0" cx="339.4" cy="196.3" r="70.5"/>
<g>
	<path class="st1" d="M314.3,179.7v-10h3.2c0.9,0,1.7,0.2,2.4,0.6s1.2,1,1.6,1.7c0.4,0.7,0.6,1.5,0.6,2.4v0.5c0,0.9-0.2,1.7-0.6,2.5
		c-0.4,0.7-0.9,1.3-1.6,1.7c-0.7,0.4-1.5,0.6-2.3,0.6H314.3z M316.7,171.6v6.3h0.8c0.7,0,1.2-0.2,1.6-0.7s0.6-1.2,0.6-2.2v-0.4
		c0-1-0.2-1.7-0.6-2.2s-0.9-0.7-1.6-0.7H316.7z"/>
	<path class="st1" d="M330.6,175.5h-3.8v2.4h4.5v1.8h-6.9v-10h6.9v1.9h-4.5v2.1h3.8V175.5z"/>
	<path class="st1" d="M339.6,175.7h-3.9v4h-2.4v-10h6.7v1.9h-4.3v2.3h3.9V175.7z"/>
	<path class="st1" d="M344.6,179.7h-2.4v-10h2.4V179.7z"/>
	<path class="st1" d="M355.6,179.7h-2.4l-3.5-6.2v6.2h-2.4v-10h2.4l3.5,6.2v-6.2h2.4V179.7z"/>
	<path class="st1" d="M364.4,175.5h-3.8v2.4h4.5v1.8h-6.9v-10h6.9v1.9h-4.5v2.1h3.8V175.5z"/>
	<path class="st1" d="M339.1,191.2c-0.3-0.4-0.5-0.7-0.6-1.1c-0.2-0.3-0.2-0.7-0.2-1.1c0-0.8,0.3-1.5,0.8-1.9s1.2-0.7,2-0.7
		c0.8,0,1.4,0.2,1.9,0.7s0.7,1,0.7,1.7c0,0.8-0.5,1.6-1.4,2.3l-0.5,0.4l1.5,1.8c0.3-0.5,0.4-1.1,0.4-1.6h1.9c0,1.3-0.3,2.4-0.9,3.2
		l1.5,1.7h-2.6l-0.5-0.5c-0.4,0.2-0.8,0.4-1.2,0.5c-0.4,0.1-0.8,0.2-1.3,0.2c-1,0-1.8-0.3-2.4-0.8s-0.9-1.2-0.9-2
		c0-0.5,0.1-0.9,0.4-1.3C337.9,192.2,338.4,191.8,339.1,191.2L339.1,191.2z M340.8,194.9c0.4,0,0.8-0.1,1.1-0.3l-1.8-2l-0.1,0
		c-0.3,0.3-0.4,0.7-0.4,1.1c0,0.3,0.1,0.6,0.3,0.8S340.5,194.9,340.8,194.9z M340.2,189c0,0.3,0.2,0.7,0.5,1.2l0.5-0.3
		c0.2-0.1,0.4-0.3,0.5-0.4s0.1-0.3,0.1-0.6c0-0.2-0.1-0.4-0.2-0.5s-0.3-0.2-0.5-0.2c-0.3,0-0.5,0.1-0.6,0.2S340.2,188.8,340.2,189z"
		/>
	<path class="st1" d="M322.9,209.9v3.4h-2.4v-10h4c0.8,0,1.4,0.1,2,0.4c0.6,0.3,1,0.7,1.4,1.2c0.3,0.5,0.5,1.1,0.5,1.8
		c0,1-0.3,1.7-1,2.3c-0.7,0.6-1.6,0.9-2.9,0.9H322.9z M322.9,208.1h1.6c0.5,0,0.8-0.1,1.1-0.3c0.2-0.2,0.4-0.6,0.4-1
		c0-0.5-0.1-0.8-0.4-1.1c-0.3-0.3-0.6-0.4-1-0.4h-1.6V208.1z"/>
	<path class="st1" d="M333.1,211.4h4.2v1.8h-6.6v-10h2.4V211.4z"/>
	<path class="st1" d="M345.1,211.4h-3.3l-0.6,1.9h-2.6l3.7-10h2.3l3.7,10h-2.6L345.1,211.4z M342.4,209.6h2.1l-1.1-3.5L342.4,209.6z
		"/>
	<path class="st1" d="M358.3,213.3H356l-3.5-6.2v6.2H350v-10h2.4l3.5,6.2v-6.2h2.4V213.3z"/>
</g>
<circle class="st2" cx="110.4" cy="196.3" r="70.5"/>
<g>
	<path class="st1" d="M74.6,196.2h-3.8v2.4h4.5v1.8h-6.9v-10h6.9v1.9h-4.5v2.1h3.8V196.2z"/>
	<path class="st1" d="M80.4,190.4l2.2,6.9l2.2-6.9H88v10h-2.4v-2.3l0.2-4.8l-2.4,7.1h-1.6l-2.4-7.1l0.2,4.8v2.3h-2.4v-10H80.4z"/>
	<path class="st1" d="M93,197v3.4h-2.4v-10h4c0.8,0,1.4,0.1,2,0.4c0.6,0.3,1,0.7,1.4,1.2c0.3,0.5,0.5,1.1,0.5,1.8c0,1-0.3,1.7-1,2.3
		c-0.7,0.6-1.6,0.9-2.9,0.9H93z M93,195.1h1.6c0.5,0,0.8-0.1,1.1-0.3c0.2-0.2,0.4-0.6,0.4-1c0-0.5-0.1-0.8-0.4-1.1s-0.6-0.4-1-0.4
		H93V195.1z"/>
	<path class="st1" d="M105.2,198.5h-3.3l-0.6,1.9h-2.6l3.7-10h2.3l3.7,10h-2.6L105.2,198.5z M102.5,196.7h2.1l-1.1-3.5L102.5,196.7z
		"/>
	<path class="st1" d="M117.1,192.3h-3v8.1h-2.4v-8.1h-2.9v-1.9h8.3V192.3z"/>
	<path class="st1" d="M127.5,200.4h-2.4v-4.2h-3.5v4.2h-2.4v-10h2.4v4h3.5v-4h2.4V200.4z"/>
	<path class="st1" d="M132.6,200.4h-2.4v-10h2.4V200.4z"/>
	<path class="st1" d="M138,198.5h4.8v1.8H135v-1.3l4.7-6.8H135v-1.9h7.7v1.2L138,198.5z"/>
	<path class="st1" d="M151.1,196.2h-3.8v2.4h4.5v1.8h-6.9v-10h6.9v1.9h-4.5v2.1h3.8V196.2z"/>
</g>
<g>
	<circle class="st3" cx="67.3" cy="631.8" r="70.5"/>
</g>
<circle class="st4" cx="939" cy="196.3" r="70.5"/>
<g>
	<path class="st1" d="M915.3,183.6v-10h3.6c1.3,0,2.3,0.2,2.9,0.7c0.7,0.5,1,1.2,1,2c0,0.5-0.1,1-0.4,1.3s-0.6,0.6-1,0.8
		c0.5,0.1,0.9,0.4,1.2,0.8s0.4,0.8,0.4,1.4c0,1-0.3,1.7-0.9,2.2c-0.6,0.5-1.5,0.7-2.7,0.7H915.3z M917.7,177.8h1.3
		c0.5,0,0.9-0.1,1.1-0.3c0.2-0.2,0.3-0.5,0.3-0.8c0-0.4-0.1-0.7-0.4-0.9s-0.6-0.3-1.2-0.3h-1.2V177.8z M917.7,179.3v2.4h1.6
		c0.4,0,0.8-0.1,1-0.3s0.3-0.5,0.3-0.8c0-0.8-0.4-1.2-1.2-1.3H917.7z"/>
	<path class="st1" d="M933.2,173.6v6.5c0,0.7-0.2,1.4-0.5,1.9s-0.8,1-1.4,1.2s-1.3,0.4-2.1,0.4c-1.2,0-2.2-0.3-2.9-0.9
		s-1.1-1.5-1.1-2.6v-6.6h2.4v6.6c0,1.1,0.5,1.6,1.5,1.6c0.5,0,0.9-0.1,1.1-0.4s0.4-0.7,0.4-1.3v-6.5H933.2z"/>
	<path class="st1" d="M938.3,183.6h-2.4v-10h2.4V183.6z"/>
	<path class="st1" d="M943.4,181.7h4.2v1.8H941v-10h2.4V181.7z"/>
	<path class="st1" d="M949.6,183.6v-10h3.2c0.9,0,1.7,0.2,2.4,0.6s1.2,1,1.6,1.7c0.4,0.7,0.6,1.5,0.6,2.4v0.5c0,0.9-0.2,1.7-0.6,2.5
		c-0.4,0.7-0.9,1.3-1.6,1.7c-0.7,0.4-1.5,0.6-2.3,0.6H949.6z M952,175.5v6.3h0.8c0.7,0,1.2-0.2,1.6-0.7s0.6-1.2,0.6-2.2v-0.4
		c0-1-0.2-1.7-0.6-2.2s-0.9-0.7-1.6-0.7H952z"/>
	<path class="st1" d="M933.6,195.1c-0.3-0.4-0.5-0.7-0.6-1.1c-0.2-0.3-0.2-0.7-0.2-1.1c0-0.8,0.3-1.5,0.8-1.9s1.2-0.7,2-0.7
		c0.8,0,1.4,0.2,1.9,0.7s0.7,1,0.7,1.7c0,0.8-0.5,1.6-1.4,2.3l-0.5,0.4l1.5,1.8c0.3-0.5,0.4-1.1,0.4-1.6h1.9c0,1.3-0.3,2.4-0.9,3.2
		l1.5,1.7h-2.6l-0.5-0.5c-0.4,0.2-0.8,0.4-1.2,0.5c-0.4,0.1-0.8,0.2-1.3,0.2c-1,0-1.8-0.3-2.4-0.8s-0.9-1.2-0.9-2
		c0-0.5,0.1-0.9,0.4-1.3C932.5,196.1,932.9,195.6,933.6,195.1L933.6,195.1z M935.3,198.7c0.4,0,0.8-0.1,1.1-0.3l-1.8-2l-0.1,0
		c-0.3,0.3-0.4,0.7-0.4,1.1c0,0.3,0.1,0.6,0.3,0.8S935,198.7,935.3,198.7z M934.8,192.9c0,0.3,0.2,0.7,0.5,1.2l0.5-0.3
		c0.2-0.1,0.4-0.3,0.5-0.4s0.1-0.3,0.1-0.6c0-0.2-0.1-0.4-0.2-0.5s-0.3-0.2-0.5-0.2c-0.3,0-0.5,0.1-0.6,0.2S934.8,192.7,934.8,192.9
		z"/>
	<path class="st1" d="M911,217.2v-10h3.2c0.9,0,1.7,0.2,2.4,0.6c0.7,0.4,1.2,1,1.6,1.7c0.4,0.7,0.6,1.5,0.6,2.4v0.5
		c0,0.9-0.2,1.7-0.6,2.5c-0.4,0.7-0.9,1.3-1.6,1.7c-0.7,0.4-1.5,0.6-2.3,0.6H911z M913.4,209.1v6.3h0.8c0.7,0,1.2-0.2,1.6-0.7
		c0.4-0.5,0.6-1.2,0.6-2.2V212c0-1-0.2-1.7-0.6-2.2c-0.4-0.5-0.9-0.7-1.6-0.7H913.4z"/>
	<path class="st1" d="M927.2,213h-3.8v2.4h4.5v1.8h-6.9v-10h6.9v1.9h-4.5v2.1h3.8V213z"/>
	<path class="st1" d="M932.4,213.8v3.4H930v-10h4c0.8,0,1.4,0.1,2,0.4c0.6,0.3,1,0.7,1.4,1.2c0.3,0.5,0.5,1.1,0.5,1.8
		c0,1-0.3,1.7-1,2.3c-0.7,0.6-1.6,0.9-2.9,0.9H932.4z M932.4,211.9h1.6c0.5,0,0.8-0.1,1.1-0.3c0.2-0.2,0.4-0.6,0.4-1
		c0-0.5-0.1-0.8-0.4-1.1c-0.3-0.3-0.6-0.4-1-0.4h-1.6V211.9z"/>
	<path class="st1" d="M942.5,215.3h4.2v1.8h-6.6v-10h2.4V215.3z"/>
	<path class="st1" d="M956.7,212.4c0,1-0.2,1.8-0.5,2.6c-0.4,0.7-0.9,1.3-1.5,1.7c-0.7,0.4-1.4,0.6-2.3,0.6s-1.6-0.2-2.3-0.6
		c-0.7-0.4-1.2-0.9-1.5-1.7c-0.4-0.7-0.6-1.6-0.6-2.5V212c0-1,0.2-1.8,0.5-2.6c0.4-0.7,0.9-1.3,1.5-1.7c0.7-0.4,1.4-0.6,2.3-0.6
		c0.8,0,1.6,0.2,2.3,0.6c0.7,0.4,1.2,1,1.5,1.7c0.4,0.7,0.6,1.6,0.6,2.5V212.4z M954.3,212c0-1-0.2-1.7-0.5-2.3
		c-0.3-0.5-0.8-0.8-1.4-0.8c-1.2,0-1.8,0.9-1.9,2.7l0,0.7c0,1,0.2,1.7,0.5,2.2c0.3,0.5,0.8,0.8,1.4,0.8c0.6,0,1.1-0.3,1.4-0.8
		c0.3-0.5,0.5-1.3,0.5-2.2V212z"/>
	<path class="st1" d="M962.4,211.5l1.8-4.3h2.6l-3.2,6.4v3.6h-2.4v-3.6l-3.2-6.4h2.6L962.4,211.5z"/>
</g>
<circle class="st5" cx="1168" cy="196.3" r="70.5"/>
<g>
	<path class="st1" d="M1136.7,179.4h-3.8v2.4h4.5v1.8h-6.9v-10h6.9v1.9h-4.5v2.1h3.8V179.4z"/>
	<path class="st1" d="M1143.3,180.9l2-7.2h2.7l-3.3,10h-2.6l-3.3-10h2.7L1143.3,180.9z"/>
	<path class="st1" d="M1154.9,181.7h-3.3l-0.6,1.9h-2.6l3.7-10h2.3l3.7,10h-2.6L1154.9,181.7z M1152.2,179.9h2.1l-1.1-3.5
		L1152.2,179.9z"/>
	<path class="st1" d="M1162.2,181.7h4.2v1.8h-6.6v-10h2.4V181.7z"/>
	<path class="st1" d="M1176.1,173.6v6.5c0,0.7-0.2,1.4-0.5,1.9s-0.8,1-1.4,1.2s-1.3,0.4-2.1,0.4c-1.2,0-2.2-0.3-2.9-0.9
		s-1.1-1.5-1.1-2.6v-6.6h2.4v6.6c0,1.1,0.5,1.6,1.5,1.6c0.5,0,0.9-0.1,1.1-0.4s0.4-0.7,0.4-1.3v-6.5H1176.1z"/>
	<path class="st1" d="M1184.1,181.7h-3.3l-0.6,1.9h-2.6l3.7-10h2.3l3.7,10h-2.6L1184.1,181.7z M1181.4,179.9h2.1l-1.1-3.5
		L1181.4,179.9z"/>
	<path class="st1" d="M1196.1,175.5h-3v8.1h-2.4v-8.1h-2.9v-1.9h8.3V175.5z"/>
	<path class="st1" d="M1204.3,179.4h-3.8v2.4h4.5v1.8h-6.9v-10h6.9v1.9h-4.5v2.1h3.8V179.4z"/>
	<path class="st1" d="M1162.6,195.1c-0.3-0.4-0.5-0.7-0.6-1.1c-0.2-0.3-0.2-0.7-0.2-1.1c0-0.8,0.3-1.5,0.8-1.9s1.2-0.7,2-0.7
		c0.8,0,1.4,0.2,1.9,0.7s0.7,1,0.7,1.7c0,0.8-0.5,1.6-1.4,2.3l-0.5,0.4l1.5,1.8c0.3-0.5,0.4-1.1,0.4-1.6h1.9c0,1.3-0.3,2.4-0.9,3.2
		l1.5,1.7h-2.6l-0.5-0.5c-0.4,0.2-0.8,0.4-1.2,0.5c-0.4,0.1-0.8,0.2-1.3,0.2c-1,0-1.8-0.3-2.4-0.8s-0.9-1.2-0.9-2
		c0-0.5,0.1-0.9,0.4-1.3C1161.5,196.1,1161.9,195.6,1162.6,195.1L1162.6,195.1z M1164.3,198.7c0.4,0,0.8-0.1,1.1-0.3l-1.8-2l-0.1,0
		c-0.3,0.3-0.4,0.7-0.4,1.1c0,0.3,0.1,0.6,0.3,0.8S1164,198.7,1164.3,198.7z M1163.8,192.9c0,0.3,0.2,0.7,0.5,1.2l0.5-0.3
		c0.2-0.1,0.4-0.3,0.5-0.4s0.1-0.3,0.1-0.6c0-0.2-0.1-0.4-0.2-0.5s-0.3-0.2-0.5-0.2c-0.3,0-0.5,0.1-0.6,0.2
		S1163.8,192.7,1163.8,192.9z"/>
	<path class="st1" d="M1140.1,217.2h-2.4v-10h2.4V217.2z"/>
	<path class="st1" d="M1150.4,209.1h-3v8.1h-2.4v-8.1h-2.9v-1.9h8.3V209.1z"/>
	<path class="st1" d="M1158.6,213h-3.8v2.4h4.5v1.8h-6.9v-10h6.9v1.9h-4.5v2.1h3.8V213z"/>
	<path class="st1" d="M1165,213.7h-1.3v3.5h-2.4v-10h3.9c1.2,0,2.1,0.3,2.8,0.8s1,1.3,1,2.2c0,0.7-0.1,1.3-0.4,1.7
		c-0.3,0.5-0.7,0.8-1.3,1.1l2.1,4v0.1h-2.6L1165,213.7z M1163.7,211.8h1.5c0.5,0,0.8-0.1,1-0.4c0.2-0.2,0.3-0.6,0.3-1
		c0-0.4-0.1-0.8-0.3-1s-0.6-0.4-1-0.4h-1.5V211.8z"/>
	<path class="st1" d="M1177.2,215.3h-3.3l-0.6,1.9h-2.6l3.7-10h2.3l3.7,10h-2.6L1177.2,215.3z M1174.5,213.5h2.1l-1.1-3.5
		L1174.5,213.5z"/>
	<path class="st1" d="M1189.1,209.1h-3v8.1h-2.4v-8.1h-2.9v-1.9h8.3V209.1z"/>
	<path class="st1" d="M1197.3,213h-3.8v2.4h4.5v1.8h-6.9v-10h6.9v1.9h-4.5v2.1h3.8V213z"/>
</g>
<g>
	<g>
		<line class="st6" x1="210.5" y1="196.3" x2="224.6" y2="196.3"/>
		<g>
			<polygon class="st2" points="221.7,206.3 239,196.3 221.7,186.3 			"/>
		</g>
	</g>
</g>
<g>
	<g>
		<line class="st6" x1="1039" y1="196.3" x2="1053.1" y2="196.3"/>
		<g>
			<polygon class="st2" points="1050.2,206.3 1067.5,196.3 1050.2,186.3 			"/>
		</g>
	</g>
</g>
<g>
	<g>
		<line class="st6" x1="814" y1="196.3" x2="828.2" y2="196.3"/>
		<g>
			<polygon class="st2" points="825.2,206.3 842.5,196.3 825.2,186.3 			"/>
		</g>
	</g>
</g>
<g>
	<g>
		<line class="st6" x1="444" y1="196.3" x2="458.2" y2="196.3"/>
		<g>
			<polygon class="st2" points="455.2,206.3 472.5,196.3 455.2,186.3 			"/>
		</g>
	</g>
</g>
<circle class="st7" cx="633.4" cy="117.2" r="70.5"/>
<g>
	<path class="st1" d="M610.3,121.3h-2.4v-10h2.4V121.3z"/>
	<path class="st1" d="M613,121.3v-10h3.2c0.9,0,1.7,0.2,2.4,0.6s1.2,1,1.6,1.7c0.4,0.7,0.6,1.5,0.6,2.4v0.5c0,0.9-0.2,1.7-0.6,2.5
		c-0.4,0.7-0.9,1.3-1.6,1.7c-0.7,0.4-1.5,0.6-2.3,0.6H613z M615.4,113.2v6.3h0.8c0.7,0,1.2-0.2,1.6-0.7s0.6-1.2,0.6-2.2v-0.4
		c0-1-0.2-1.7-0.6-2.2s-0.9-0.7-1.6-0.7H615.4z"/>
	<path class="st1" d="M629.3,117h-3.8v2.4h4.5v1.8h-6.9v-10h6.9v1.9h-4.5v2.1h3.8V117z"/>
	<path class="st1" d="M637.6,119.4h-3.3l-0.6,1.9h-2.6l3.7-10h2.3l3.7,10h-2.6L637.6,119.4z M634.9,117.5h2.1l-1.1-3.5L634.9,117.5z
		"/>
	<path class="st1" d="M649.6,113.2h-3v8.1h-2.4v-8.1h-2.9v-1.9h8.3V113.2z"/>
	<path class="st1" d="M657.8,117H654v2.4h4.5v1.8h-6.9v-10h6.9v1.9H654v2.1h3.8V117z"/>
</g>
<circle class="st8" cx="537.4" cy="276.7" r="70.5"/>
<g>
	<path class="st1" d="M506.2,279l2-7.2h2.7l-3.3,10h-2.6l-3.3-10h2.7L506.2,279z"/>
	<path class="st1" d="M517.8,279.9h-3.3l-0.6,1.9h-2.6l3.7-10h2.3l3.7,10h-2.6L517.8,279.9z M515,278h2.1l-1.1-3.5L515,278z"/>
	<path class="st1" d="M525.1,279.9h4.2v1.8h-6.6v-10h2.4V279.9z"/>
	<path class="st1" d="M533.9,281.7h-2.4v-10h2.4V281.7z"/>
	<path class="st1" d="M536.6,281.7v-10h3.2c0.9,0,1.7,0.2,2.4,0.6c0.7,0.4,1.2,1,1.6,1.7c0.4,0.7,0.6,1.5,0.6,2.4v0.5
		c0,0.9-0.2,1.7-0.6,2.5c-0.4,0.7-0.9,1.3-1.6,1.7c-0.7,0.4-1.5,0.6-2.3,0.6H536.6z M539,273.6v6.3h0.8c0.7,0,1.2-0.2,1.6-0.7
		c0.4-0.5,0.6-1.2,0.6-2.2v-0.4c0-1-0.2-1.7-0.6-2.2c-0.4-0.5-0.9-0.7-1.6-0.7H539z"/>
	<path class="st1" d="M552.2,279.9h-3.3l-0.6,1.9h-2.6l3.7-10h2.3l3.7,10h-2.6L552.2,279.9z M549.5,278h2.1l-1.1-3.5L549.5,278z"/>
	<path class="st1" d="M564.1,273.6h-3v8.1h-2.4v-8.1h-2.9v-1.9h8.3V273.6z"/>
	<path class="st1" d="M572.4,277.5h-3.8v2.4h4.5v1.8h-6.9v-10h6.9v1.9h-4.5v2.1h3.8V277.5z"/>
</g>
<circle class="st9" cx="728.8" cy="277.2" r="70.5"/>
<g>
	<path class="st1" d="M687.9,277.9v3.4h-2.4v-10h4c0.8,0,1.4,0.1,2,0.4c0.6,0.3,1,0.7,1.4,1.2c0.3,0.5,0.5,1.1,0.5,1.8
		c0,1-0.3,1.7-1,2.3c-0.7,0.6-1.6,0.9-2.9,0.9H687.9z M687.9,276h1.6c0.5,0,0.8-0.1,1.1-0.3c0.2-0.2,0.4-0.6,0.4-1
		c0-0.5-0.1-0.8-0.4-1.1c-0.3-0.3-0.6-0.4-1-0.4h-1.6V276z"/>
	<path class="st1" d="M699.3,277.7H698v3.5h-2.4v-10h3.9c1.2,0,2.1,0.3,2.8,0.8c0.7,0.5,1,1.3,1,2.2c0,0.7-0.1,1.3-0.4,1.7
		c-0.3,0.5-0.7,0.8-1.3,1.1l2.1,4v0.1h-2.6L699.3,277.7z M698,275.9h1.5c0.5,0,0.8-0.1,1-0.4c0.2-0.2,0.3-0.6,0.3-1s-0.1-0.8-0.3-1
		c-0.2-0.2-0.6-0.4-1-0.4H698V275.9z"/>
	<path class="st1" d="M714.2,276.5c0,1-0.2,1.8-0.5,2.6c-0.4,0.7-0.9,1.3-1.5,1.7c-0.7,0.4-1.4,0.6-2.3,0.6s-1.6-0.2-2.3-0.6
		s-1.2-0.9-1.5-1.7c-0.4-0.7-0.6-1.6-0.6-2.5v-0.6c0-1,0.2-1.8,0.5-2.6c0.4-0.7,0.9-1.3,1.5-1.7c0.7-0.4,1.4-0.6,2.3-0.6
		c0.8,0,1.6,0.2,2.3,0.6c0.7,0.4,1.2,1,1.5,1.7c0.4,0.7,0.6,1.6,0.6,2.5V276.5z M711.8,276.1c0-1-0.2-1.7-0.5-2.3
		c-0.3-0.5-0.8-0.8-1.4-0.8c-1.2,0-1.8,0.9-1.9,2.7l0,0.7c0,1,0.2,1.7,0.5,2.2c0.3,0.5,0.8,0.8,1.4,0.8c0.6,0,1.1-0.3,1.4-0.8
		c0.3-0.5,0.5-1.3,0.5-2.2V276.1z"/>
	<path class="st1" d="M723.7,273.2h-3v8.1h-2.4v-8.1h-2.9v-1.9h8.3V273.2z"/>
	<path class="st1" d="M734,276.5c0,1-0.2,1.8-0.5,2.6c-0.4,0.7-0.9,1.3-1.5,1.7c-0.7,0.4-1.4,0.6-2.3,0.6s-1.6-0.2-2.3-0.6
		s-1.2-0.9-1.5-1.7c-0.4-0.7-0.6-1.6-0.6-2.5v-0.6c0-1,0.2-1.8,0.5-2.6c0.4-0.7,0.9-1.3,1.5-1.7c0.7-0.4,1.4-0.6,2.3-0.6
		c0.8,0,1.6,0.2,2.3,0.6c0.7,0.4,1.2,1,1.5,1.7c0.4,0.7,0.6,1.6,0.6,2.5V276.5z M731.6,276.1c0-1-0.2-1.7-0.5-2.3
		c-0.3-0.5-0.8-0.8-1.4-0.8c-1.2,0-1.8,0.9-1.9,2.7l0,0.7c0,1,0.2,1.7,0.5,2.2c0.3,0.5,0.8,0.8,1.4,0.8c0.6,0,1.1-0.3,1.4-0.8
		c0.3-0.5,0.5-1.3,0.5-2.2V276.1z"/>
	<path class="st1" d="M743.6,273.2h-3v8.1h-2.4v-8.1h-2.9v-1.9h8.3V273.2z"/>
	<path class="st1" d="M749.4,275.6l1.8-4.3h2.6l-3.2,6.4v3.6h-2.4v-3.6l-3.2-6.4h2.6L749.4,275.6z"/>
	<path class="st1" d="M758,277.9v3.4h-2.4v-10h4c0.8,0,1.4,0.1,2,0.4c0.6,0.3,1,0.7,1.4,1.2c0.3,0.5,0.5,1.1,0.5,1.8
		c0,1-0.3,1.7-1,2.3c-0.7,0.6-1.6,0.9-2.9,0.9H758z M758,276h1.6c0.5,0,0.8-0.1,1.1-0.3c0.2-0.2,0.4-0.6,0.4-1
		c0-0.5-0.1-0.8-0.4-1.1c-0.3-0.3-0.6-0.4-1-0.4H758V276z"/>
	<path class="st1" d="M771.9,277h-3.8v2.4h4.5v1.8h-6.9v-10h6.9v1.9h-4.5v2.1h3.8V277z"/>
</g>
<g>
	<g>
		<line class="st6" x1="618.9" y1="276.7" x2="633" y2="276.7"/>
		<g>
			<polygon class="st2" points="630.1,286.7 647.3,276.7 630.1,266.7 			"/>
		</g>
	</g>
</g>
<g>
	<g>
		<line class="st6" x1="578.6" y1="207.2" x2="585.7" y2="194.9"/>
		<g>
			<polygon class="st2" points="592.8,202.4 592.8,182.5 575.6,192.5 			"/>
		</g>
	</g>
</g>
<g>
	<g>
		<line class="st6" x1="692.2" y1="206.2" x2="685.1" y2="193.9"/>
		<g>
			<polygon class="st2" points="695.2,191.5 677.9,181.5 677.9,201.4 			"/>
		</g>
	</g>
</g>
<rect x="998.4" y="481.6" class="st9" width="140.6" height="529.4"/>
<rect x="791.8" y="520.8" class="st10" width="140.6" height="449.7"/>
<rect x="585.2" y="561.3" class="st8" width="140.6" height="369.9"/>
<rect x="378.6" y="600.6" class="st7" width="140.6" height="290.2"/>
</svg>
