<svg width="80" height="36" viewBox="0 0 80 36" fill="none" xmlns="http://www.w3.org/2000/svg">
<g clip-path="url(#clip0)">
<path d="M34.4 13.8999C34.4 13.7452 34.3284 13.5992 34.2061 13.5045L18.7061 1.50454C18.5254 1.36467 18.2729 1.36506 18.0927 1.5055L2.69268 13.5055C2.57109 13.6002 2.5 13.7458 2.5 13.8999V35.0999C2.5 35.376 2.72386 35.5999 3 35.5999H16.3C16.5761 35.5999 16.8 35.376 16.8 35.0999V24.4999H20.1V35.0999C20.1 35.376 20.3239 35.5999 20.6 35.5999H33.9C34.1761 35.5999 34.4 35.376 34.4 35.0999V13.8999Z" fill="black" stroke="black" stroke-linejoin="round"/>
<path d="M56.3073 1.5055C56.1271 1.36506 55.8746 1.36467 55.6939 1.50454L40.1939 13.5045C40.0716 13.5992 40 13.7452 40 13.8999V35.1999C40 35.476 40.2239 35.6999 40.5 35.6999H53.8C54.0761 35.6999 54.3 35.476 54.3 35.1999V24.4999H57.6V35.1999C57.6 35.476 57.8239 35.6999 58.1 35.6999H71.4C71.6761 35.6999 71.9 35.476 71.9 35.1999V13.8999C71.9 13.7458 71.8289 13.6002 71.7073 13.5055L56.3073 1.5055ZM44.1 15.5451L56.0012 6.33128L68 15.5463V31.5999H61.7V23.9999C61.7 22.0238 60.1761 20.4999 58.2 20.4999H53.9C51.9239 20.4999 50.4 22.0238 50.4 23.9999V31.6999H44.1V15.5451Z" fill="black" stroke="black" stroke-linejoin="round"/>
</g>
<defs>
<clipPath id="clip0">
<rect width="80" height="36" fill="white"/>
</clipPath>
</defs>
</svg>
