<?xml version="1.0" encoding="utf-8"?>
<!-- Generator: Adobe Illustrator 22.0.0, SVG Export Plug-In . SVG Version: 6.00 Build 0)  -->
<svg version="1.1" id="Layer_1" xmlns="http://www.w3.org/2000/svg" xmlns:xlink="http://www.w3.org/1999/xlink" x="0px" y="0px"
	 viewBox="0 0 1123.8 532.2" style="enable-background:new 0 0 1123.8 532.2;" xml:space="preserve">
<style type="text/css">
	.st0{opacity:0.3;}
	.st1{fill:none;stroke:#000000;stroke-linecap:round;stroke-linejoin:round;}
	.st2{fill:#E6E7E8;}
	.st3{fill:#FFFFFF;}
	.st4{fill:none;}
	.st5{fill:#808285;}
	.st6{font-family:'Klavika-Regular';}
	.st7{font-size:12px;}
	.st8{fill:#D1D3D4;}
	.st9{fill:#C7C6C6;}
</style>
<g id="Layer_10">
</g>
<g id="Layer_1_1_">
</g>
<g id="Outline">
	<g id="XMLID_46_" class="st0">
		<g>
			<path class="st1" d="M67.1,60V15.2h991.2v28.6"/>
			<g>
				<polygon points="1053.3,42.3 1058.3,51 1063.3,42.3 				"/>
			</g>
		</g>
	</g>
	<g id="XMLID_41_" class="st0">
		<g>
			<path class="st1" d="M563.4,15.2c0,7.5,0,17.8,0,22.8"/>
			<g>
				<polygon points="558.4,36.5 563.4,45.1 568.4,36.5 				"/>
			</g>
		</g>
	</g>
	<g id="XMLID_42_" class="st0">
		<g>
			<path class="st1" d="M731.8,15.2c0,11.5,0,18.2,0,24.8"/>
			<g>
				<polygon points="726.7,38.5 731.7,47.1 736.7,38.5 				"/>
			</g>
		</g>
	</g>
	<g id="XMLID_40_" class="st0">
		<g>
			<path class="st1" d="M402.3,15.2c0,4.7,0,21.4,0,24.8"/>
			<g>
				<polygon points="397.3,38.5 402.3,47.1 407.3,38.5 				"/>
			</g>
		</g>
	</g>
	<g id="XMLID_43_" class="st0">
		<g>
			<path class="st1" d="M894.3,15.2c0,14.8,0,17,0,24.8"/>
			<g>
				<polygon points="889.2,38.5 894.2,47.1 899.2,38.5 				"/>
			</g>
		</g>
	</g>
	<g id="XMLID_2_" class="st0">
		<g>
			<line class="st1" x1="232.6" y1="15.2" x2="232.6" y2="39.8"/>
			<g>
				<polygon points="227.7,38.4 232.6,47 237.6,38.4 				"/>
			</g>
		</g>
	</g>
	<g id="XMLID_7_" class="st0">
		<g>
			<line class="st1" x1="233.4" y1="229.7" x2="233.4" y2="337.4"/>
			<g>
				<polygon points="228.6,336 233.4,344.6 238.4,336 				"/>
			</g>
		</g>
	</g>
</g>
<g id="Light_Block">
</g>
<g id="Dark_Block">
</g>
<g id="Dots">
</g>
<g id="Light_Text">
</g>
<g id="Dark_Text">
</g>
<g id="Titles">
</g>
<g id="XMLID_762_">
	<path class="st2" d="M638.8,528.2c0,2.2-1.8,4-4,4h-123c-2.2,0-4-1.8-4-4V365.7c0-2.2,1.8-4,4-4h123c2.2,0,4,1.8,4,4V528.2z"/>
</g>
<g id="XMLID_789_">
	<path class="st2" d="M803.7,528.2c0,2.2-1.8,4-4,4h-123c-2.2,0-4-1.8-4-4V365.7c0-2.2,1.8-4,4-4h123c2.2,0,4,1.8,4,4V528.2z"/>
</g>
<g id="XMLID_105_">
	<path class="st2" d="M793.8,225.7c0,2.2-1.8,4-4,4h-123c-2.2,0-4-1.8-4-4V63.2c0-2.2,1.8-4,4-4h123c2.2,0,4,1.8,4,4V225.7z"/>
</g>
<g id="XMLID_17_">
	<path class="st2" d="M958.8,225.7c0,2.2-1.8,4-4,4h-123c-2.2,0-4-1.8-4-4V63.2c0-2.2,1.8-4,4-4h123c2.2,0,4,1.8,4,4V225.7z"/>
</g>
<g id="XMLID_195_">
	<path class="st2" d="M1123.8,225.7c0,2.2-1.8,4-4,4h-123c-2.2,0-4-1.8-4-4V63.2c0-2.2,1.8-4,4-4h123c2.2,0,4,1.8,4,4V225.7z"/>
</g>
<g id="XMLID_187_">
	<path class="st2" d="M298.9,225.7c0,2.2-1.8,4-4,4h-123c-2.2,0-4-1.8-4-4V63.2c0-2.2,1.8-4,4-4h123c2.2,0,4,1.8,4,4V225.7z"/>
</g>
<g id="XMLID_494_">
	<path class="st2" d="M463.9,225.7c0,2.2-1.8,4-4,4h-123c-2.2,0-4-1.8-4-4V63.2c0-2.2,1.8-4,4-4h123c2.2,0,4,1.8,4,4V225.7z"/>
</g>
<g id="XMLID_565_">
	<path class="st2" d="M628.9,225.7c0,2.2-1.8,4-4,4h-123c-2.2,0-4-1.8-4-4V63.2c0-2.2,1.8-4,4-4h123c2.2,0,4,1.8,4,4V225.7z"/>
</g>
<g id="XMLID_298_">
	<path class="st2" d="M131,226.5c0,2.2-1.8,4-4,4H4c-2.2,0-4-1.8-4-4V64c0-2.2,1.8-4,4-4h123c2.2,0,4,1.8,4,4V226.5z"/>
</g>
<g id="XMLID_289_">
	<path class="st2" d="M131,226.5c0,2.2-1.8,4-4,4H4c-2.2,0-4-1.8-4-4V64c0-2.2,1.8-4,4-4h123c2.2,0,4,1.8,4,4V226.5z"/>
</g>
<rect id="XMLID_756_" x="518.4" y="411.3" class="st3" width="109.8" height="27.9"/>
<rect id="XMLID_703_" x="518.4" y="456.3" class="st3" width="109.8" height="45.2"/>
<rect id="XMLID_783_" x="683.3" y="411.3" class="st3" width="109.8" height="27.9"/>
<rect id="XMLID_236_" x="673.4" y="111.7" class="st3" width="109.8" height="27.9"/>
<rect id="XMLID_73_" x="673.4" y="156.8" class="st3" width="109.8" height="45.2"/>
<path id="XMLID_537_" class="st3" d="M882.9,166.4h-42.6c-1.1,0-2-0.9-2-2v-20.5c0-1.1,0.9-2,2-2h42.6c1.1,0,2,0.9,2,2v20.5
	C884.9,165.5,884,166.4,882.9,166.4z"/>
<path id="XMLID_267_" class="st3" d="M912.9,166.4H891c-1.1,0-2-0.9-2-2v-20.5c0-1.1,0.9-2,2-2h21.9c1.1,0,2,0.9,2,2v20.5
	C914.9,165.5,914,166.4,912.9,166.4z"/>
<path id="XMLID_346_" class="st3" d="M942.9,166.4H921c-1.1,0-2-0.9-2-2v-20.5c0-1.1,0.9-2,2-2h21.9c1.1,0,2,0.9,2,2v20.5
	C944.9,165.5,944,166.4,942.9,166.4z"/>
<path id="XMLID_229_" class="st3" d="M900.3,199.8h42.6c1.1,0,2-0.9,2-2v-20.5c0-1.1-0.9-2-2-2h-42.6c-1.1,0-2,0.9-2,2v20.5
	C898.3,198.9,899.2,199.8,900.3,199.8z"/>
<path id="XMLID_263_" class="st3" d="M870.3,199.8h21.9c1.1,0,2-0.9,2-2v-20.5c0-1.1-0.9-2-2-2h-21.9c-1.1,0-2,0.9-2,2v20.5
	C868.3,198.9,869.2,199.8,870.3,199.8z"/>
<path id="XMLID_282_" class="st3" d="M840.3,199.8h21.9c1.1,0,2-0.9,2-2v-20.5c0-1.1-0.9-2-2-2h-21.9c-1.1,0-2,0.9-2,2v20.5
	C838.3,198.9,839.2,199.8,840.3,199.8z"/>
<path id="XMLID_225_" class="st3" d="M900.3,133h42.6c1.1,0,2-0.9,2-2v-20.5c0-1.1-0.9-2-2-2h-42.6c-1.1,0-2,0.9-2,2V131
	C898.3,132.1,899.2,133,900.3,133z"/>
<path id="XMLID_100_" class="st3" d="M870.3,133h21.9c1.1,0,2-0.9,2-2v-20.5c0-1.1-0.9-2-2-2h-21.9c-1.1,0-2,0.9-2,2V131
	C868.3,132.1,869.2,133,870.3,133z"/>
<path id="XMLID_94_" class="st3" d="M840.3,133h21.9c1.1,0,2-0.9,2-2v-20.5c0-1.1-0.9-2-2-2h-21.9c-1.1,0-2,0.9-2,2V131
	C838.3,132.1,839.2,133,840.3,133z"/>
<rect id="XMLID_168_" x="1003.4" y="108.7" class="st3" width="109.8" height="27.9"/>
<rect id="XMLID_98_" x="1003.4" y="153.8" class="st3" width="109.8" height="54"/>
<rect id="XMLID_438_" x="269.2" y="139.3" class="st3" width="20.4" height="20.4"/>
<rect id="XMLID_434_" x="239.2" y="139.3" class="st3" width="20.4" height="20.4"/>
<rect id="XMLID_425_" x="209.2" y="139.3" class="st3" width="20.4" height="20.4"/>
<rect id="XMLID_401_" x="269.2" y="109.6" class="st3" width="20.4" height="20.4"/>
<rect id="XMLID_397_" x="239.2" y="109.6" class="st3" width="20.4" height="20.4"/>
<rect id="XMLID_393_" x="209.2" y="109.6" class="st3" width="20.4" height="20.4"/>
<rect id="XMLID_385_" x="269.2" y="169.3" class="st3" width="20.4" height="20.4"/>
<rect id="XMLID_381_" x="239.2" y="169.3" class="st3" width="20.4" height="20.4"/>
<rect id="XMLID_377_" x="209.2" y="169.3" class="st3" width="20.4" height="20.4"/>
<rect id="XMLID_369_" x="269.2" y="199.7" class="st3" width="20.4" height="20.4"/>
<rect id="XMLID_365_" x="239.2" y="199.7" class="st3" width="20.4" height="20.4"/>
<rect id="XMLID_361_" x="209.2" y="199.7" class="st3" width="20.4" height="20.4"/>
<rect id="XMLID_488_" x="434.2" y="139.3" class="st3" width="20.4" height="20.4"/>
<rect id="XMLID_483_" x="404.2" y="139.3" class="st3" width="20.4" height="20.4"/>
<rect id="XMLID_478_" x="374.2" y="139.3" class="st3" width="20.4" height="20.4"/>
<rect id="XMLID_472_" x="434.2" y="109.6" class="st3" width="20.4" height="20.4"/>
<rect id="XMLID_467_" x="404.2" y="109.6" class="st3" width="20.4" height="20.4"/>
<rect id="XMLID_462_" x="374.2" y="109.6" class="st3" width="20.4" height="20.4"/>
<rect id="XMLID_458_" x="434.2" y="169.3" class="st3" width="20.4" height="20.4"/>
<rect id="XMLID_454_" x="404.2" y="169.3" class="st3" width="20.4" height="20.4"/>
<rect id="XMLID_450_" x="374.2" y="169.3" class="st3" width="20.4" height="20.4"/>
<rect id="XMLID_446_" x="434.2" y="199.7" class="st3" width="20.4" height="20.4"/>
<rect id="XMLID_442_" x="404.2" y="199.7" class="st3" width="20.4" height="20.4"/>
<rect id="XMLID_415_" x="374.2" y="199.7" class="st3" width="20.4" height="20.4"/>
<rect id="XMLID_561_" x="599.2" y="139.3" class="st3" width="20.4" height="20.4"/>
<rect id="XMLID_557_" x="569.2" y="139.3" class="st3" width="20.4" height="20.4"/>
<rect id="XMLID_553_" x="539.2" y="139.3" class="st3" width="20.4" height="20.4"/>
<rect id="XMLID_549_" x="599.2" y="109.6" class="st3" width="20.4" height="20.4"/>
<rect id="XMLID_545_" x="569.2" y="109.6" class="st3" width="20.4" height="20.4"/>
<rect id="XMLID_536_" x="539.2" y="109.6" class="st3" width="20.4" height="20.4"/>
<rect id="XMLID_532_" x="599.2" y="169.3" class="st3" width="20.4" height="20.4"/>
<rect id="XMLID_528_" x="569.2" y="169.3" class="st3" width="20.4" height="20.4"/>
<rect id="XMLID_524_" x="539.2" y="169.3" class="st3" width="20.4" height="20.4"/>
<rect id="XMLID_520_" x="599.2" y="199.7" class="st3" width="20.4" height="20.4"/>
<rect id="XMLID_516_" x="569.2" y="199.7" class="st3" width="20.4" height="20.4"/>
<rect id="XMLID_512_" x="539.2" y="199.7" class="st3" width="20.4" height="20.4"/>
<rect id="XMLID_281_" x="79.7" y="120.1" class="st3" width="17.2" height="17.2"/>
<rect id="XMLID_280_" x="58.5" y="120.1" class="st3" width="17.2" height="17.2"/>
<rect id="XMLID_279_" x="100.8" y="120.1" class="st3" width="17.2" height="17.2"/>
<rect id="XMLID_278_" x="37.3" y="120.1" class="st3" width="17.2" height="17.2"/>
<rect id="XMLID_277_" x="16.2" y="120.1" class="st3" width="17.2" height="17.2"/>
<rect id="XMLID_274_" x="79.7" y="144.1" class="st3" width="17.2" height="17.2"/>
<rect id="XMLID_273_" x="58.5" y="144.1" class="st3" width="17.2" height="17.2"/>
<rect id="XMLID_272_" x="100.8" y="144.1" class="st3" width="17.2" height="17.2"/>
<rect id="XMLID_271_" x="37.3" y="144.1" class="st3" width="17.2" height="17.2"/>
<rect id="XMLID_270_" x="16.2" y="144.1" class="st3" width="17.2" height="17.2"/>
<rect id="XMLID_269_" x="79.7" y="168.1" class="st3" width="17.2" height="17.2"/>
<rect id="XMLID_268_" x="58.5" y="168.1" class="st3" width="17.2" height="17.2"/>
<rect id="XMLID_266_" x="100.8" y="168.1" class="st3" width="17.2" height="17.2"/>
<rect id="XMLID_265_" x="37.3" y="168.1" class="st3" width="17.2" height="17.2"/>
<rect id="XMLID_264_" x="16.2" y="168.1" class="st3" width="17.2" height="17.2"/>
<g id="XMLID_62_" class="st0">
	<g id="XMLID_36_">
		<line id="XMLID_39_" class="st1" x1="642.6" y1="447" x2="658.9" y2="447"/>
		<g id="XMLID_37_">
			<polygon id="XMLID_38_" points="657.5,452 666.1,447 657.5,442 			"/>
		</g>
	</g>
</g>
<g id="XMLID_44_" class="st0">
	<g id="XMLID_31_">
		<line id="XMLID_34_" class="st1" x1="478.8" y1="447" x2="495.1" y2="447"/>
		<g id="XMLID_32_">
			<polygon id="XMLID_33_" points="493.7,452 502.3,447 493.7,442 			"/>
		</g>
	</g>
</g>
<g id="XMLID_35_" class="st0">
	<g id="XMLID_45_">
		<line id="XMLID_65_" class="st1" x1="304.1" y1="447" x2="320.5" y2="447"/>
		<g id="XMLID_63_">
			<polygon id="XMLID_64_" points="319.1,452 327.6,447 319.1,442 			"/>
		</g>
	</g>
</g>
<g id="XMLID_760_">
	<rect id="XMLID_59_" x="511.5" y="380.7" class="st4" width="123.6" height="17.7"/>
	<text transform="matrix(1 0 0 1 556.3123 389.1068)" class="st5 st6 st7">Login</text>
</g>
<rect id="XMLID_755_" x="518.4" y="402.8" class="st8" width="22.4" height="4.5"/>
<rect id="XMLID_731_" x="545.9" y="419.1" class="st8" width="13.5" height="4.5"/>
<rect id="XMLID_730_" x="564.9" y="419.1" class="st8" width="35.3" height="4.5"/>
<rect id="XMLID_729_" x="545.9" y="427.5" class="st8" width="13.5" height="4.5"/>
<rect id="XMLID_722_" x="564.9" y="427.5" class="st8" width="35.3" height="4.5"/>
<rect id="XMLID_702_" x="518.4" y="447.9" class="st8" width="22.4" height="4.5"/>
<rect id="XMLID_700_" x="548.1" y="464.2" class="st8" width="11.2" height="4.5"/>
<rect id="XMLID_699_" x="564.9" y="464.2" class="st8" width="35.3" height="4.5"/>
<rect id="XMLID_698_" x="548.1" y="472.5" class="st8" width="11.2" height="4.5"/>
<rect id="XMLID_697_" x="564.9" y="472.5" class="st8" width="35.3" height="4.5"/>
<rect id="XMLID_696_" x="548.1" y="481.6" class="st8" width="11.2" height="4.5"/>
<rect id="XMLID_662_" x="564.9" y="481.6" class="st8" width="35.3" height="4.5"/>
<rect id="XMLID_661_" x="548.1" y="490.6" class="st8" width="11.2" height="4.5"/>
<rect id="XMLID_660_" x="564.9" y="490.6" class="st8" width="35.3" height="4.5"/>
<g id="XMLID_787_">
	<rect id="XMLID_53_" x="676.4" y="380.7" class="st4" width="123.6" height="17.7"/>
	<text transform="matrix(1 0 0 1 694.6787 389.1068)" class="st5 st6 st7">Confirmation</text>
</g>
<rect id="XMLID_782_" x="683.3" y="402.8" class="st8" width="22.4" height="4.5"/>
<rect id="XMLID_781_" x="710.8" y="419.1" class="st8" width="13.5" height="4.5"/>
<rect id="XMLID_780_" x="729.9" y="419.1" class="st8" width="35.3" height="4.5"/>
<rect id="XMLID_779_" x="710.8" y="427.5" class="st8" width="13.5" height="4.5"/>
<rect id="XMLID_778_" x="729.9" y="427.5" class="st8" width="35.3" height="4.5"/>
<g>
	<g id="XMLID_715_">
		<path class="st2" d="M465.9,528.2c0,2.2-1.8,4-4,4h-123c-2.2,0-4-1.8-4-4V365.7c0-2.2,1.8-4,4-4h123c2.2,0,4,1.8,4,4V528.2z"/>
	</g>
	<rect id="XMLID_701_" x="345.5" y="405.5" class="st3" width="109.8" height="68.8"/>
	<rect id="XMLID_685_" x="367.9" y="482.6" class="st3" width="66.1" height="13.1"/>
	<rect id="XMLID_681_" x="374.7" y="413" class="st3" width="10.2" height="10.2"/>
	<rect id="XMLID_656_" x="374.7" y="427.9" class="st3" width="10.2" height="10.2"/>
	<rect id="XMLID_631_" x="374.7" y="443.3" class="st3" width="10.2" height="10.2"/>
	<rect id="XMLID_252_" x="374.7" y="458.1" class="st3" width="10.2" height="10.2"/>
	<g id="XMLID_707_">
		<rect id="XMLID_51_" x="338.6" y="380.7" class="st4" width="123.6" height="17.7"/>
		<text transform="matrix(1 0 0 1 370.8379 389.107)" class="st5 st6 st7">Checkout</text>
	</g>
	<rect id="XMLID_695_" x="391.9" y="413.4" class="st8" width="35.3" height="4.5"/>
	<rect id="XMLID_694_" x="391.9" y="428.3" class="st8" width="35.3" height="4.5"/>
	<rect id="XMLID_693_" x="391.9" y="443.7" class="st8" width="35.3" height="4.5"/>
	<rect id="XMLID_692_" x="391.9" y="458.5" class="st8" width="35.3" height="4.5"/>
</g>
<g>
	<g id="XMLID_18_">
		<path class="st2" d="M298.9,528.2c0,2.2-1.8,4-4,4h-123c-2.2,0-4-1.8-4-4V365.7c0-2.2,1.8-4,4-4h123c2.2,0,4,1.8,4,4V528.2z"/>
	</g>
	<rect id="XMLID_16_" x="203.5" y="405.5" class="st3" width="46.4" height="48"/>
	<rect id="XMLID_14_" x="187.9" y="405.4" class="st3" width="10.2" height="10.2"/>
	<rect id="XMLID_12_" x="187.9" y="420.3" class="st3" width="10.2" height="10.2"/>
	<rect id="XMLID_11_" x="187.9" y="435.7" class="st3" width="10.2" height="10.2"/>
	<g>
		<rect id="XMLID_19_" x="190.5" y="473.8" class="st3" width="10.2" height="10.2"/>
		<rect id="XMLID_15_" x="205.4" y="473.8" class="st3" width="10.2" height="10.2"/>
		<rect id="XMLID_10_" x="220.8" y="473.8" class="st3" width="10.2" height="10.2"/>
		<rect id="XMLID_26_" x="235.8" y="473.8" class="st3" width="10.2" height="10.2"/>
		<rect id="XMLID_21_" x="250.7" y="473.8" class="st3" width="10.2" height="10.2"/>
		<rect id="XMLID_20_" x="266.1" y="473.8" class="st3" width="10.2" height="10.2"/>
	</g>
	<g id="XMLID_8_">
		<rect id="XMLID_9_" x="174.2" y="380.7" class="st4" width="123.6" height="17.7"/>
		<text transform="matrix(1 0 0 1 206.4379 389.107)" class="st5 st6 st7">Product Page</text>
	</g>
	<rect id="XMLID_5_" x="254.5" y="406.4" class="st8" width="35.3" height="4.5"/>
	<rect id="XMLID_1_" x="254.5" y="413.4" class="st8" width="35.3" height="4.5"/>
	<rect id="XMLID_3_" x="254.5" y="420.4" class="st8" width="35.3" height="4.5"/>
	<rect id="XMLID_4_" x="254.5" y="427.4" class="st8" width="35.3" height="4.5"/>
	<rect id="XMLID_30_" x="254.5" y="438.5" class="st8" width="16.7" height="4.5"/>
	<rect id="XMLID_28_" x="215.5" y="465" class="st8" width="35.3" height="4.5"/>
</g>
<g id="XMLID_13_">
	<rect id="XMLID_49_" x="666.5" y="78.2" class="st4" width="123.6" height="17.7"/>
	<text transform="matrix(1 0 0 1 711.3813 86.5653)" class="st5 st6 st7">Login</text>
</g>
<rect id="XMLID_54_" x="673.4" y="103.3" class="st8" width="22.4" height="4.5"/>
<rect id="XMLID_61_" x="700.9" y="119.6" class="st8" width="13.5" height="4.5"/>
<rect id="XMLID_68_" x="719.9" y="119.6" class="st8" width="35.3" height="4.5"/>
<rect id="XMLID_70_" x="700.9" y="127.9" class="st8" width="13.5" height="4.5"/>
<rect id="XMLID_69_" x="719.9" y="127.9" class="st8" width="35.3" height="4.5"/>
<rect id="XMLID_72_" x="673.4" y="148.3" class="st8" width="22.4" height="4.5"/>
<rect id="XMLID_71_" x="703.2" y="164.7" class="st8" width="11.2" height="4.5"/>
<rect id="XMLID_57_" x="719.9" y="164.7" class="st8" width="35.3" height="4.5"/>
<rect id="XMLID_56_" x="703.2" y="173" class="st8" width="11.2" height="4.5"/>
<rect id="XMLID_55_" x="719.9" y="173" class="st8" width="35.3" height="4.5"/>
<rect id="XMLID_75_" x="703.2" y="182" class="st8" width="11.2" height="4.5"/>
<rect id="XMLID_74_" x="719.9" y="182" class="st8" width="35.3" height="4.5"/>
<rect id="XMLID_77_" x="703.2" y="191" class="st8" width="11.2" height="4.5"/>
<rect id="XMLID_76_" x="719.9" y="191" class="st8" width="35.3" height="4.5"/>
<g id="XMLID_25_">
	<rect id="XMLID_47_" x="831.5" y="78.2" class="st4" width="123.6" height="17.7"/>
	<text transform="matrix(1 0 0 1 864.0756 86.5653)" class="st5 st6 st7">Textures</text>
</g>
<rect id="XMLID_95_" x="838.3" y="101.7" class="st8" width="22.4" height="4.5"/>
<rect id="XMLID_96_" x="838.3" y="135.2" class="st8" width="22.4" height="4.5"/>
<rect id="XMLID_99_" x="838.3" y="168.6" class="st8" width="22.4" height="4.5"/>
<g id="XMLID_185_">
	<rect id="XMLID_29_" x="996.5" y="78.2" class="st4" width="123.6" height="17.7"/>
	<text transform="matrix(1 0 0 1 1023.3399 86.5653)" class="st5 st6 st7">Contact Us</text>
</g>
<rect id="XMLID_167_" x="1003.4" y="100.3" class="st8" width="22.4" height="4.5"/>
<rect id="XMLID_166_" x="1030.9" y="116.6" class="st8" width="13.5" height="4.5"/>
<rect id="XMLID_162_" x="1049.9" y="116.6" class="st8" width="35.3" height="4.5"/>
<rect id="XMLID_161_" x="1030.9" y="124.9" class="st8" width="13.5" height="4.5"/>
<rect id="XMLID_113_" x="1049.9" y="124.9" class="st8" width="35.3" height="4.5"/>
<rect id="XMLID_97_" x="1003.4" y="145.3" class="st8" width="22.4" height="4.5"/>
<rect id="XMLID_93_" x="1033.1" y="161.7" class="st8" width="11.2" height="4.5"/>
<rect id="XMLID_92_" x="1049.9" y="161.7" class="st8" width="35.3" height="4.5"/>
<rect id="XMLID_87_" x="1049.9" y="171.7" class="st8" width="35.3" height="18.6"/>
<rect id="XMLID_78_" x="1033.1" y="196.7" class="st8" width="11.2" height="4.5"/>
<rect id="XMLID_85_" x="1033.1" y="171.3" class="st8" width="11.2" height="4.5"/>
<rect id="XMLID_6_" x="1049.9" y="196.7" class="st8" width="35.3" height="4.5"/>
<rect id="XMLID_422_" x="177.3" y="110.2" class="st9" width="22.4" height="4.5"/>
<rect id="XMLID_421_" x="177.3" y="120.2" class="st9" width="22.4" height="4.5"/>
<rect id="XMLID_392_" x="177.3" y="130.2" class="st9" width="22.4" height="4.5"/>
<rect id="XMLID_391_" x="177.3" y="140.2" class="st9" width="22.4" height="4.5"/>
<rect id="XMLID_390_" x="177.3" y="149.6" class="st9" width="22.4" height="4.5"/>
<rect id="XMLID_389_" x="177.3" y="159.6" class="st9" width="22.4" height="4.5"/>
<rect id="XMLID_376_" x="177.3" y="169.6" class="st9" width="22.4" height="4.5"/>
<rect id="XMLID_375_" x="177.3" y="179.6" class="st9" width="22.4" height="4.5"/>
<g id="XMLID_373_">
	<rect id="XMLID_27_" x="183.4" y="80.1" class="st4" width="100.2" height="17"/>
	<text transform="matrix(1 0 0 1 200.6548 88.4859)" class="st5 st6 st7">Groupings</text>
</g>
<rect id="XMLID_414_" x="342.2" y="110.2" class="st9" width="22.4" height="4.5"/>
<rect id="XMLID_374_" x="342.2" y="120.2" class="st9" width="22.4" height="4.5"/>
<rect id="XMLID_360_" x="342.2" y="130.2" class="st9" width="22.4" height="4.5"/>
<rect id="XMLID_359_" x="342.2" y="140.2" class="st9" width="22.4" height="4.5"/>
<rect id="XMLID_358_" x="342.2" y="149.6" class="st9" width="22.4" height="4.5"/>
<rect id="XMLID_357_" x="342.2" y="159.6" class="st9" width="22.4" height="4.5"/>
<rect id="XMLID_356_" x="342.2" y="169.6" class="st9" width="22.4" height="4.5"/>
<rect id="XMLID_355_" x="342.2" y="179.6" class="st9" width="22.4" height="4.5"/>
<g id="XMLID_340_">
	<rect id="XMLID_24_" x="348.3" y="80.1" class="st4" width="100.2" height="17"/>
	<text transform="matrix(1 0 0 1 363.429 88.4859)" class="st5 st6 st7">Categories</text>
</g>
<rect id="XMLID_511_" x="507.2" y="110.2" class="st9" width="22.4" height="4.5"/>
<rect id="XMLID_510_" x="507.2" y="120.2" class="st9" width="22.4" height="4.5"/>
<rect id="XMLID_509_" x="507.2" y="130.2" class="st9" width="22.4" height="4.5"/>
<rect id="XMLID_508_" x="507.2" y="140.2" class="st9" width="22.4" height="4.5"/>
<rect id="XMLID_507_" x="507.2" y="149.6" class="st9" width="22.4" height="4.5"/>
<rect id="XMLID_506_" x="507.2" y="159.6" class="st9" width="22.4" height="4.5"/>
<rect id="XMLID_505_" x="507.2" y="169.6" class="st9" width="22.4" height="4.5"/>
<rect id="XMLID_504_" x="507.2" y="179.6" class="st9" width="22.4" height="4.5"/>
<g id="XMLID_502_">
	<rect id="XMLID_23_" x="513.3" y="80.1" class="st4" width="100.2" height="17"/>
	<text transform="matrix(1 0 0 1 549.2607 88.4859)" class="st5 st6 st7">Sale</text>
</g>
<g id="XMLID_261_">
	<rect id="XMLID_22_" x="5.6" y="79" class="st4" width="119.9" height="17"/>
	<text transform="matrix(1 0 0 1 58.0361 87.4383)" class="st5 st6 st7">HP</text>
</g>
<g id="Outline_1_">
	<g id="XMLID_60_" class="st0">
		<g>
			<path class="st1" d="M1058.3,248.3v17.2H233.5"/>
		</g>
	</g>
	<g id="XMLID_58_" class="st0">
		<g>
			<path class="st1" d="M563.4,247.5c0,5,0,10.4,0,17.9"/>
		</g>
	</g>
	<g id="XMLID_52_" class="st0">
		<g>
			<path class="st1" d="M731.8,247.5c0,6.6,0,6.3,0,17.8"/>
		</g>
	</g>
	<g id="XMLID_50_" class="st0">
		<g>
			<path class="st1" d="M402.3,248.3c0,3.4,0,12.5,0,17.2"/>
		</g>
	</g>
	<g id="XMLID_48_" class="st0">
		<g>
			<path class="st1" d="M894.3,247.5c0,7.8,0,3.1,0,17.9"/>
		</g>
	</g>
</g>
</svg>
