<svg width="100" height="50" viewBox="0 0 100 50" fill="none" xmlns="http://www.w3.org/2000/svg">
<g clip-path="url(#clip0)">
<path d="M100 0H65V50H100V0Z" fill="white"/>
<path d="M25.3 15.4H11.6V19.7H25.3V15.4Z" fill="white"/>
<path opacity="0.3" d="M53.3 22.5H11.6V24.7H53.3V22.5Z" fill="white"/>
<path opacity="0.3" d="M53.3 27.5H11.6V29.7H53.3V27.5Z" fill="white"/>
<path opacity="0.3" d="M53.3 32.4H11.6V34.6H53.3V32.4Z" fill="white"/>
<path d="M91.6 16.7H86.3V15.1C86.3 14.3 85.6 13.6 84.8 13.6H79.4C78.6 13.6 77.9 14.3 77.9 15.1V16.7H72.6C72.3 16.7 72.1 16.9 72.1 17.2C72.1 17.5 72.3 17.7 72.6 17.7H73.9L74.7 34.4C74.7 35.5 75.6 36.3 76.7 36.3H87.5C88.6 36.3 89.5 35.4 89.5 34.4L90.3 17.7H91.6C91.9 17.7 92.1 17.5 92.1 17.2C92.1 17 91.9 16.7 91.6 16.7ZM79.3 14.6H84.7C85 14.6 85.2 14.8 85.2 15.1V16.7H78.8V15.1C78.8 14.9 79 14.6 79.3 14.6ZM87.5 35.4H76.6C76 35.4 75.6 35 75.6 34.4L74.8 17.8H89.3L88.5 34.4C88.4 34.9 88 35.4 87.5 35.4Z" fill="black"/>
<path d="M82 21.5C81.7 21.5 81.5 21.7 81.5 22V30.8C81.5 31.1 81.7 31.3 82 31.3C82.3 31.3 82.5 31.1 82.5 30.8V22C82.5 21.8 82.3 21.5 82 21.5Z" fill="black"/>
<path d="M78.6 21.5C78.5 21.5 78.3 21.6 78.2 21.7C78.1 21.8 78 21.9 78.1 22.1L78.4 30.9C78.4 31.2 78.6 31.4 78.9 31.4C79.2 31.4 79.4 31.1 79.4 30.9L79.1 22C79.1 21.7 78.9 21.5 78.6 21.5Z" fill="black"/>
<path d="M85.5 21.5C85.2 21.5 85 21.7 85 22L84.7 30.8C84.7 30.9 84.8 31.1 84.8 31.2C84.9 31.3 85 31.4 85.2 31.4C85.5 31.4 85.7 31.2 85.7 30.9L86 22.1C86 22 85.9 21.8 85.9 21.7C85.7 21.6 85.6 21.5 85.5 21.5Z" fill="black"/>
</g>
<defs>
<clipPath id="clip0">
<rect width="100" height="50" fill="white"/>
</clipPath>
</defs>
</svg>
