<?xml version="1.0" encoding="utf-8"?>
<!-- Generator: Adobe Illustrator 21.1.0, SVG Export Plug-In . SVG Version: 6.00 Build 0)  -->
<svg version="1.1" id="Layer_1" xmlns="http://www.w3.org/2000/svg" xmlns:xlink="http://www.w3.org/1999/xlink" x="0px" y="0px"
	 viewBox="0 0 100 50" style="enable-background:new 0 0 100 50;" xml:space="preserve">
<style type="text/css">
	.st0{fill:#FC8383;}
	.st1{fill:#2D2D2D;}
	.st2{fill:#595959;}
	.st3{fill:#858585;}
	.st4{fill:#B2B2B2;}
	.st5{opacity:0.3;enable-background:new    ;}
	.st6{fill:none;}
	.st7{fill:#FFFFFF;}
</style>
<rect x="65" class="st0" width="35" height="50"/>
<rect x="77.1" y="56" width="16.1" height="40.5"/>
<rect x="59.2" y="62.1" class="st1" width="16.1" height="34.4"/>
<rect x="41.3" y="68.2" class="st2" width="16.1" height="28.3"/>
<rect x="23.4" y="74.3" class="st3" width="16.1" height="22.2"/>
<rect x="5.5" y="80.4" class="st4" width="16.1" height="16.1"/>
<g>
	<path class="st4" d="M99,1v48H1V1H99 M100,0H0v50h100V0L100,0z"/>
</g>
<rect x="11.6" y="15.4" width="13.7" height="4.3"/>
<rect x="11.6" y="22.5" class="st5" width="41.7" height="2.2"/>
<rect x="11.6" y="27.5" class="st5" width="41.7" height="2.2"/>
<rect x="11.6" y="32.4" class="st5" width="41.7" height="2.2"/>
<path d="M142.4,49.1c0.1,0.5-0.3,1-0.8,1.2c-5.2,2-9.1,6.5-10.1,12.1c-0.1,0.5-0.7,0.9-1.2,0.8c-0.5-0.1-0.9-0.6-0.8-1.2
	c1.1-6.3,5.5-11.5,11.4-13.7c0.1,0,0.3-0.1,0.4-0.1C141.8,48.3,142.1,48.5,142.4,49.1z"/>
<path d="M142.4,49.1c0.1,0.5-0.3,1-0.8,1.2c-5.2,2-9.1,6.5-10.1,12.1c-0.1,0.5-0.7,0.9-1.2,0.8c-0.5-0.1-0.9-0.6-0.8-1.2
	c1.1-6.3,5.5-11.5,11.4-13.7c0.1,0,0.3-0.1,0.4-0.1C141.8,48.3,142.1,48.5,142.4,49.1z"/>
<path d="M142.4,49.1c0.1,0.5-0.3,1-0.8,1.2c-5.2,2-9.1,6.5-10.1,12.1c-0.1,0.5-0.7,0.9-1.2,0.8c-0.5-0.1-0.9-0.6-0.8-1.2
	c1.1-6.3,5.5-11.5,11.4-13.7c0.1,0,0.3-0.1,0.4-0.1C141.8,48.3,142.1,48.5,142.4,49.1z"/>
<path d="M147.2,40.2c-12.7,0-25,9.9-25,23.8c0,8.9,3.4,14.5,6.7,19.1c3.3,4.6,6.3,8.3,6.3,14.1v12c0,2.8,2.3,5,5,5h14
	c2.7,0,5-2.2,5-5v-12c0-5.7,3-9.4,6.3-14.1c3.3-4.6,6.7-10.2,6.7-19.1C172.2,50.1,160,40.2,147.2,40.2z M157.2,109.2
	c0,1.8-1.4,3-3,3h-14c-1.6,0-3-1.2-3-3v-3h20V109.2z M157.2,104.2h-20v-6h20V104.2z M163.9,82c-3.1,4.3-6.3,8.3-6.7,14.2h-20.1
	c-0.3-5.9-3.6-9.9-6.7-14.2c-3.2-4.6-6.3-9.5-6.3-17.9c0-12.8,11.3-21.8,23-21.8s23,9,23,21.8C170.2,72.5,167.2,77.5,163.9,82z"/>
<path d="M141.6,50.3c-5.2,2-9.1,6.5-10.1,12.1c-0.1,0.5-0.7,0.9-1.2,0.8c-0.5-0.1-0.9-0.6-0.8-1.2c1.1-6.3,5.5-11.5,11.4-13.7
	c0.1,0,0.3-0.1,0.4-0.1c0.4,0,0.8,0.2,1,0.8C142.5,49.6,142.1,50.2,141.6,50.3z"/>
<path d="M142.4,49.1c0.1,0.5-0.3,1-0.8,1.2c-5.2,2-9.1,6.5-10.1,12.1c-0.1,0.5-0.7,0.9-1.2,0.8c-0.5-0.1-0.9-0.6-0.8-1.2
	c1.1-6.3,5.5-11.5,11.4-13.7c0.1,0,0.3-0.1,0.4-0.1C141.8,48.3,142.1,48.5,142.4,49.1z"/>
<path d="M142.4,49.1c0.1,0.5-0.3,1-0.8,1.2c-5.2,2-9.1,6.5-10.1,12.1c-0.1,0.5-0.7,0.9-1.2,0.8c-0.5-0.1-0.9-0.6-0.8-1.2
	c1.1-6.3,5.5-11.5,11.4-13.7c0.1,0,0.3-0.1,0.4-0.1C141.8,48.3,142.1,48.5,142.4,49.1z"/>
<line class="st6" x1="142.2" y1="114.2" x2="140.2" y2="114.2"/>
<g>
	<path class="st7" d="M91.6,16.7h-5.3v-1.6c0-0.8-0.7-1.5-1.5-1.5h-5.4c-0.8,0-1.5,0.7-1.5,1.5v1.6h-5.3c-0.3,0-0.5,0.2-0.5,0.5
		s0.2,0.5,0.5,0.5h1.3l0.8,16.7c0,1.1,0.9,1.9,2,1.9h10.8c1.1,0,2-0.9,2-1.9l0.8-16.7h1.3c0.3,0,0.5-0.2,0.5-0.5
		C92.1,17,91.9,16.7,91.6,16.7z M79.3,14.6h5.4c0.3,0,0.5,0.2,0.5,0.5v1.6h-6.4v-1.6C78.8,14.9,79,14.6,79.3,14.6z M87.5,35.4H76.6
		c-0.6,0-1-0.4-1-1l-0.8-16.6h14.5l-0.8,16.6l0,0C88.4,34.9,88,35.4,87.5,35.4z"/>
	<path class="st7" d="M82,21.5c-0.3,0-0.5,0.2-0.5,0.5v8.8c0,0.3,0.2,0.5,0.5,0.5s0.5-0.2,0.5-0.5V22C82.5,21.8,82.3,21.5,82,21.5z"
		/>
	<path class="st7" d="M78.6,21.5L78.6,21.5c-0.1,0-0.3,0.1-0.4,0.2s-0.2,0.2-0.1,0.4l0.3,8.8c0,0.3,0.2,0.5,0.5,0.5l0,0
		c0.3,0,0.5-0.3,0.5-0.5L79.1,22C79.1,21.7,78.9,21.5,78.6,21.5z"/>
	<path class="st7" d="M85.5,21.5L85.5,21.5c-0.3,0-0.5,0.2-0.5,0.5l-0.3,8.8c0,0.1,0.1,0.3,0.1,0.4c0.1,0.1,0.2,0.2,0.4,0.2
		c0.3,0,0.5-0.2,0.5-0.5l0.3-8.8c0-0.1-0.1-0.3-0.1-0.4C85.7,21.6,85.6,21.5,85.5,21.5z"/>
</g>
</svg>
