<?xml version="1.0" encoding="utf-8"?>
<!-- Generator: Adobe Illustrator 21.1.0, SVG Export Plug-In . SVG Version: 6.00 Build 0)  -->
<svg version="1.1" id="Layer_1" xmlns="http://www.w3.org/2000/svg" xmlns:xlink="http://www.w3.org/1999/xlink" x="0px" y="0px"
	 viewBox="0 0 1252.7 767" style="enable-background:new 0 0 1252.7 767;" xml:space="preserve">
<style type="text/css">
	.st0{opacity:0.3;}
	.st1{fill:none;stroke:#000000;stroke-linecap:round;stroke-linejoin:round;}
	.st2{fill:#E6E7E8;}
	.st3{fill:#FFFFFF;}
	.st4{fill:none;}
	.st5{fill:#808285;}
	.st6{font-family:'Klavika-Regular';}
	.st7{font-size:12px;}
	.st8{fill:#D1D3D4;}
	.st9{fill:#C7C6C6;}
	.st10{fill:#EC008C;}
	.st11{font-family:'Klavika-Bold';}
	.st12{font-size:21px;}
	.st13{opacity:0.3;fill:none;stroke:#000000;stroke-linecap:round;stroke-linejoin:round;enable-background:new    ;}
</style>
<g id="Layer_10">
</g>
<g id="Layer_1_1_">
</g>
<g id="Outline">
	<g id="XMLID_102_" class="st0">
		<g>
			<path class="st1" d="M65.5,24.6h1120.7l0,0v14.9"/>
			<g>
				<polygon points="1181.2,38 1186.2,46.7 1191.2,38 				"/>
			</g>
		</g>
	</g>
	<g id="XMLID_11_" class="st0">
		<g id="XMLID_247_">
			<line id="XMLID_372_" class="st1" x1="256.9" y1="24.6" x2="256.6" y2="35.7"/>
			<g id="XMLID_268_">
				<polygon id="XMLID_270_" points="251.6,34.2 256.6,42.8 261.6,34.2 				"/>
			</g>
		</g>
	</g>
	<g id="XMLID_13_" class="st0">
		<g>
			<path class="st1" d="M721.9,35.7V24.6"/>
			<g>
				<polygon points="726.9,34.2 721.9,42.8 716.9,34.2 				"/>
			</g>
		</g>
	</g>
	<g id="XMLID_91_" class="st0">
		<g>
			<path class="st1" d="M954.2,24.6v11.1"/>
			<g>
				<polygon points="949.2,34.2 954.2,42.8 959.2,34.2 				"/>
			</g>
		</g>
	</g>
	<g id="XMLID_32_" class="st0">
		<g>
			<path class="st1" d="M490.5,24.6v11.1"/>
			<g>
				<polygon points="485.5,34.2 490.5,42.8 495.5,34.2 				"/>
			</g>
		</g>
	</g>
	<g id="XMLID_699_" class="st0">
		<g id="XMLID_175_">
			<path id="XMLID_180_" class="st1" d="M490.5,225.2v37.6l-28.6-0.1h-88c0,0,0.1,16.6,0.1,18.3"/>
			<g id="XMLID_176_">
				<polygon id="XMLID_179_" points="369,279.5 374,288.2 379,279.5 				"/>
			</g>
		</g>
	</g>
	<g id="XMLID_700_" class="st0">
		<g id="XMLID_165_">
			<path id="XMLID_173_" class="st1" d="M256.9,225.2v37.6l28.6-0.1h88.4V281"/>
			<g id="XMLID_171_">
				<polygon id="XMLID_172_" points="369,279.5 374,288.2 379,279.5 				"/>
			</g>
		</g>
	</g>
	<g id="XMLID_3_" class="st0">
		<g id="XMLID_210_">
			<line id="XMLID_216_" class="st1" x1="932.6" y1="216.2" x2="834.1" y2="216.2"/>
			<g id="XMLID_214_">
				<polygon id="XMLID_215_" points="835.5,211.2 826.9,216.2 835.5,221.2 				"/>
			</g>
		</g>
	</g>
</g>
<g id="Light_Block">
</g>
<g id="Dark_Block">
</g>
<g id="Dots">
</g>
<g id="Light_Text">
</g>
<g id="Dark_Text">
</g>
<g id="Titles">
</g>
<g id="XMLID_17_">
	<path class="st2" d="M1019.8,221.4c0,2.2-1.8,4-4,4h-123c-2.2,0-4-1.8-4-4V58.9c0-2.2,1.8-4,4-4h123c2.2,0,4,1.8,4,4V221.4z"/>
</g>
<g id="XMLID_494_">
	<path class="st2" d="M556,221.4c0,2.2-1.8,4-4,4H429c-2.2,0-4-1.8-4-4V58.9c0-2.2,1.8-4,4-4h123c2.2,0,4,1.8,4,4V221.4z"/>
</g>
<g id="XMLID_321_">
	<path class="st2" d="M322.1,221.7c0,2.2-1.8,4-4,4h-123c-2.2,0-4-1.8-4-4V59.2c0-2.2,1.8-4,4-4h123c2.2,0,4,1.8,4,4V221.7z"/>
</g>
<g id="XMLID_195_">
	<path class="st2" d="M1251.7,221.4c0,2.2-1.8,4-4,4h-123c-2.2,0-4-1.8-4-4V58.9c0-2.2,1.8-4,4-4h123c2.2,0,4,1.8,4,4V221.4z"/>
</g>
<g id="XMLID_105_">
	<path class="st2" d="M787.9,221.4c0,2.2-1.8,4-4,4h-123c-2.2,0-4-1.8-4-4V58.9c0-2.2,1.8-4,4-4h123c2.2,0,4,1.8,4,4V221.4z"/>
</g>
<path id="XMLID_94_" class="st3" d="M901.3,146.3h105.8c1.1,0,2-0.9,2-2v-38.1c0-1.1-0.9-2-2-2H901.3c-1.1,0-2,0.9-2,2v38.1
	C899.3,145.4,900.2,146.3,901.3,146.3z"/>
<path id="XMLID_320_" class="st3" d="M308.9,115.3H204.6c-1.1,0-2-0.9-2-2V65.1c0-1.1,0.9-2,2-2h104.3c1.1,0,2,0.9,2,2v48.2
	C310.9,114.4,310,115.3,308.9,115.3z"/>
<rect id="XMLID_318_" x="286.6" y="146.8" class="st3" width="24.3" height="22.2"/>
<rect id="XMLID_306_" x="258.6" y="120.2" class="st3" width="24.3" height="22.2"/>
<rect id="XMLID_305_" x="258.6" y="146.8" class="st3" width="24.3" height="22.2"/>
<rect id="XMLID_300_" x="202.6" y="120.2" class="st3" width="24.3" height="22.2"/>
<rect id="XMLID_298_" x="202.6" y="146.8" class="st3" width="24.3" height="22.2"/>
<rect id="XMLID_294_" x="230.6" y="146.8" class="st3" width="24.3" height="22.2"/>
<rect id="XMLID_168_" x="1131.3" y="104.4" class="st3" width="109.8" height="27.9"/>
<rect id="XMLID_98_" x="1131.3" y="149.5" class="st3" width="109.8" height="54"/>
<rect id="XMLID_236_" x="667.5" y="107.4" class="st3" width="109.8" height="27.9"/>
<rect id="XMLID_5_" x="667.5" y="152.5" class="st3" width="109.8" height="45.2"/>
<g id="XMLID_25_">
	<rect id="XMLID_237_" x="892.5" y="73.9" class="st4" width="123.6" height="17.7"/>
	<text transform="matrix(1 0 0 1 929.5575 82.2531)" class="st5 st6 st7">Hosting</text>
</g>
<rect id="XMLID_95_" x="924.7" y="133.1" class="st8" width="53.1" height="4.5"/>
<rect id="XMLID_96_" x="940" y="155.3" class="st8" width="22.4" height="4.5"/>
<rect id="XMLID_291_" x="912" y="165" class="st9" width="78.3" height="4.5"/>
<rect id="XMLID_282_" x="912" y="175" class="st9" width="78.3" height="4.5"/>
<rect id="XMLID_267_" x="912" y="185" class="st9" width="78.3" height="4.5"/>
<rect id="XMLID_263_" x="912" y="195" class="st9" width="78.3" height="4.5"/>
<rect id="XMLID_414_" x="468" y="105.9" class="st9" width="44.6" height="4.5"/>
<rect id="XMLID_374_" x="468" y="115.9" class="st9" width="44.6" height="4.5"/>
<rect id="XMLID_360_" x="468" y="125.9" class="st9" width="44.6" height="4.5"/>
<rect id="XMLID_359_" x="468" y="135.9" class="st9" width="44.6" height="4.5"/>
<rect id="XMLID_358_" x="468" y="145.3" class="st9" width="44.6" height="4.5"/>
<rect id="XMLID_357_" x="468" y="155.3" class="st9" width="44.6" height="4.5"/>
<rect id="XMLID_356_" x="468" y="165.3" class="st9" width="44.6" height="4.5"/>
<rect id="XMLID_355_" x="468" y="175.3" class="st9" width="44.6" height="4.5"/>
<g id="XMLID_340_">
	<rect id="XMLID_228_" x="440.2" y="75.8" class="st4" width="100.2" height="17"/>
</g>
<g id="XMLID_289_">
	<rect id="XMLID_226_" x="196.7" y="74.2" class="st4" width="119.9" height="17"/>
	<text transform="matrix(1 0 0 1 239.2079 82.5805)" class="st5 st6 st7">Cities</text>
</g>
<rect id="XMLID_286_" x="291.2" y="160.2" class="st8" width="15.2" height="4.5"/>
<rect id="XMLID_284_" x="263.1" y="160.2" class="st8" width="15.2" height="4.5"/>
<rect id="XMLID_283_" x="235.1" y="160.2" class="st8" width="15.2" height="4.5"/>
<rect id="XMLID_279_" x="207.1" y="160.2" class="st8" width="15.2" height="4.5"/>
<rect id="XMLID_277_" x="263.1" y="133.2" class="st8" width="15.2" height="4.5"/>
<rect id="XMLID_73_" x="286.6" y="120.2" class="st3" width="24.3" height="22.2"/>
<rect id="XMLID_62_" x="291.2" y="133.2" class="st8" width="15.2" height="4.5"/>
<rect id="XMLID_82_" x="230.6" y="120.2" class="st3" width="24.3" height="22.2"/>
<rect id="XMLID_79_" x="235.1" y="133.2" class="st8" width="15.2" height="4.5"/>
<rect id="XMLID_275_" x="207.1" y="133.2" class="st8" width="15.2" height="4.5"/>
<g id="XMLID_185_">
	<rect id="XMLID_224_" x="1124.4" y="73.9" class="st4" width="123.6" height="17.7"/>
	<text transform="matrix(1 0 0 1 1151.2937 82.2531)" class="st5 st6 st7">Contact Us</text>
</g>
<rect id="XMLID_167_" x="1131.3" y="96" class="st8" width="22.4" height="4.5"/>
<rect id="XMLID_166_" x="1158.8" y="112.3" class="st8" width="13.5" height="4.5"/>
<rect id="XMLID_162_" x="1177.8" y="112.3" class="st8" width="35.3" height="4.5"/>
<rect id="XMLID_161_" x="1158.8" y="120.6" class="st8" width="13.5" height="4.5"/>
<rect id="XMLID_113_" x="1177.8" y="120.6" class="st8" width="35.3" height="4.5"/>
<rect id="XMLID_97_" x="1131.3" y="141" class="st8" width="22.4" height="4.5"/>
<rect id="XMLID_93_" x="1161.1" y="157.4" class="st8" width="11.2" height="4.5"/>
<rect id="XMLID_92_" x="1177.8" y="157.4" class="st8" width="35.3" height="4.5"/>
<rect id="XMLID_87_" x="1177.8" y="167.4" class="st8" width="35.3" height="18.6"/>
<rect id="XMLID_78_" x="1161.1" y="192.4" class="st8" width="11.2" height="4.5"/>
<rect id="XMLID_85_" x="1161.1" y="167" class="st8" width="11.2" height="4.5"/>
<rect id="XMLID_6_" x="1177.8" y="192.4" class="st8" width="35.3" height="4.5"/>
<g id="XMLID_348_">
	<rect id="XMLID_222_" x="1124.4" y="240" class="st4" width="123.6" height="96.3"/>
	<text transform="matrix(1 0 0 1 1157.9773 248.4114)" class="st5 st6 st7">•Contact</text>
	<text transform="matrix(1 0 0 1 1168.9773 262.8114)" class="st5 st6 st7">•Chat</text>
</g>
<g id="XMLID_285_" class="st0">
	<g id="XMLID_197_">
		<line id="XMLID_209_" class="st1" x1="725.8" y1="691.1" x2="750.2" y2="691.1"/>
		<g id="XMLID_203_">
			<polygon id="XMLID_208_" points="748.7,696.1 757.3,691.1 748.7,686.1 			"/>
		</g>
	</g>
</g>
<g id="XMLID_81_" class="st0">
	<g id="XMLID_170_">
		<line id="XMLID_182_" class="st1" x1="547.1" y1="691.1" x2="571.4" y2="691.1"/>
		<g id="XMLID_177_">
			<polygon id="XMLID_178_" points="569.9,696.1 578.6,691.1 569.9,686.1 			"/>
		</g>
	</g>
</g>
<g id="XMLID_232_" class="st0">
	<g id="XMLID_154_">
		<line id="XMLID_157_" class="st1" x1="369.5" y1="691.1" x2="393.8" y2="691.1"/>
		<g id="XMLID_155_">
			<polygon id="XMLID_156_" points="392.3,696.1 401,691.1 392.3,686.1 			"/>
		</g>
	</g>
</g>
<g>
	<g id="XMLID_453_">
		<path class="st2" d="M896.7,762.3c0,2.2-1.8,4-4,4h-123c-2.2,0-4-1.8-4-4V599.8c0-2.2,1.8-4,4-4h123c2.2,0,4,1.8,4,4V762.3z"/>
	</g>
	<rect id="XMLID_447_" x="776.3" y="645.3" class="st3" width="109.8" height="27.9"/>
	<g id="XMLID_451_">
		<rect id="XMLID_220_" x="769.4" y="614.8" class="st4" width="123.6" height="17.7"/>
		<text transform="matrix(1 0 0 1 787.6735 623.1544)" class="st5 st6 st7">Confirmation</text>
	</g>
	<rect id="XMLID_446_" x="776.3" y="636.9" class="st8" width="22.4" height="4.5"/>
	<rect id="XMLID_445_" x="803.8" y="653.2" class="st8" width="13.5" height="4.5"/>
	<rect id="XMLID_444_" x="822.8" y="653.2" class="st8" width="35.3" height="4.5"/>
	<rect id="XMLID_443_" x="803.8" y="661.5" class="st8" width="13.5" height="4.5"/>
	<rect id="XMLID_442_" x="822.8" y="661.5" class="st8" width="35.3" height="4.5"/>
</g>
<g>
	<g id="XMLID_406_">
		<path class="st2" d="M718,762.3c0,2.2-1.8,4-4,4H591c-2.2,0-4-1.8-4-4V599.8c0-2.2,1.8-4,4-4h123c2.2,0,4,1.8,4,4V762.3z"/>
	</g>
	<rect id="XMLID_400_" x="594.1" y="646.1" class="st3" width="109.8" height="27.9"/>
	<rect id="XMLID_364_" x="594.1" y="691.2" class="st3" width="109.8" height="45.2"/>
	<rect id="XMLID_335_" x="596.4" y="745.9" class="st3" width="66.1" height="13.1"/>
	<rect id="XMLID_399_" x="594.1" y="637.7" class="st8" width="22.4" height="4.5"/>
	<rect id="XMLID_397_" x="621.6" y="654" class="st8" width="13.5" height="4.5"/>
	<rect id="XMLID_396_" x="640.6" y="654" class="st8" width="35.3" height="4.5"/>
	<rect id="XMLID_395_" x="621.6" y="662.3" class="st8" width="13.5" height="4.5"/>
	<rect id="XMLID_393_" x="640.6" y="662.3" class="st8" width="35.3" height="4.5"/>
	<rect id="XMLID_363_" x="594.1" y="682.7" class="st8" width="22.4" height="4.5"/>
	<rect id="XMLID_362_" x="623.9" y="699.1" class="st8" width="11.2" height="4.5"/>
	<rect id="XMLID_361_" x="640.6" y="699.1" class="st8" width="35.3" height="4.5"/>
	<rect id="XMLID_352_" x="623.9" y="707.4" class="st8" width="11.2" height="4.5"/>
	<rect id="XMLID_347_" x="640.6" y="707.4" class="st8" width="35.3" height="4.5"/>
	<rect id="XMLID_346_" x="623.9" y="716.4" class="st8" width="11.2" height="4.5"/>
	<rect id="XMLID_345_" x="640.6" y="716.4" class="st8" width="35.3" height="4.5"/>
	<rect id="XMLID_344_" x="623.9" y="725.4" class="st8" width="11.2" height="4.5"/>
	<rect id="XMLID_343_" x="640.6" y="725.4" class="st8" width="35.3" height="4.5"/>
	<g id="XMLID_339_">
		<rect id="XMLID_193_" x="590.7" y="614.8" class="st4" width="123.6" height="17.7"/>
		<text transform="matrix(1 0 0 1 626.6744 623.1545)" class="st5 st6 st7">Confirm</text>
	</g>
</g>
<g>
	<g id="XMLID_217_">
		<path class="st2" d="M539.8,763c0,2.2-1.8,4-4,4h-123c-2.2,0-4-1.8-4-4V600.5c0-2.2,1.8-4,4-4h123c2.2,0,4,1.8,4,4V763z"/>
	</g>
	<path id="XMLID_213_" class="st3" d="M524.9,656.6H419.1c-1.1,0-2-0.9-2-2v-48.2c0-1.1,0.9-2,2-2h105.8c1.1,0,2,0.9,2,2v48.2
		C526.9,655.7,526,656.6,524.9,656.6z"/>
	<g id="XMLID_211_">
		<rect id="XMLID_189_" x="414.4" y="615.5" class="st4" width="119.9" height="17"/>
		<text transform="matrix(1 0 0 1 446.0641 623.9229)" class="st5 st6 st7">Input Bio</text>
	</g>
	<circle id="XMLID_207_" class="st8" cx="505.8" cy="692.1" r="17.9"/>
	<rect id="XMLID_206_" x="422.6" y="672.7" class="st8" width="13.1" height="4.5"/>
	<rect id="XMLID_205_" x="442.1" y="672.7" class="st8" width="29.4" height="4.5"/>
	<rect id="XMLID_204_" x="422.6" y="681" class="st8" width="13.1" height="4.5"/>
	<rect id="XMLID_202_" x="422.6" y="690" class="st8" width="13.1" height="4.5"/>
	<rect id="XMLID_201_" x="442.1" y="681" class="st8" width="29.4" height="4.5"/>
	<rect id="XMLID_200_" x="442.1" y="690" class="st8" width="29.4" height="4.5"/>
	<rect id="XMLID_199_" x="442.1" y="699.1" class="st8" width="29.4" height="4.5"/>
	<rect id="XMLID_198_" x="442.1" y="708.8" class="st8" width="29.4" height="4.5"/>
</g>
<g id="XMLID_331_" class="st0">
	<g id="XMLID_148_">
		<line id="XMLID_151_" class="st1" x1="725.8" y1="467.7" x2="750.1" y2="467.7"/>
		<g id="XMLID_149_">
			<polygon id="XMLID_150_" points="748.6,472.7 757.3,467.7 748.6,462.7 			"/>
		</g>
	</g>
</g>
<g id="XMLID_12_" class="st0">
	<g id="XMLID_131_">
		<line id="XMLID_135_" class="st1" x1="903.5" y1="467.7" x2="927.8" y2="467.7"/>
		<g id="XMLID_132_">
			<polygon id="XMLID_133_" points="926.4,472.7 934.9,467.7 926.4,462.7 			"/>
		</g>
	</g>
</g>
<g id="XMLID_24_" class="st0">
	<g id="XMLID_123_">
		<line id="XMLID_129_" class="st1" x1="1080.8" y1="467.7" x2="1105.1" y2="467.7"/>
		<g id="XMLID_124_">
			<polygon id="XMLID_125_" points="1103.7,472.7 1112.3,467.7 1103.7,462.7 			"/>
		</g>
	</g>
</g>
<g id="XMLID_128_" class="st0">
	<g id="XMLID_117_">
		<line id="XMLID_121_" class="st1" x1="547.7" y1="467.7" x2="572" y2="467.7"/>
		<g id="XMLID_119_">
			<polygon id="XMLID_120_" points="570.5,472.7 579.2,467.7 570.5,462.7 			"/>
		</g>
	</g>
</g>
<g id="XMLID_152_" class="st0">
	<g id="XMLID_110_">
		<line id="XMLID_114_" class="st1" x1="369.5" y1="467.7" x2="393.8" y2="467.7"/>
		<g id="XMLID_111_">
			<polygon id="XMLID_112_" points="392.3,472.7 401,467.7 392.3,462.7 			"/>
		</g>
	</g>
</g>
<g>
	<g id="XMLID_874_">
		<path class="st2" d="M1252.7,542.1c0,2.2-1.8,4-4,4h-123c-2.2,0-4-1.8-4-4V379.6c0-2.2,1.8-4,4-4h123c2.2,0,4,1.8,4,4V542.1z"/>
	</g>
	<rect id="XMLID_868_" x="1132.3" y="425.2" class="st3" width="109.8" height="27.9"/>
	<g id="XMLID_872_">
		<rect id="XMLID_187_" x="1125.4" y="394.6" class="st4" width="123.6" height="17.7"/>
		<text transform="matrix(1 0 0 1 1143.6658 403.0243)" class="st5 st6 st7">Confirmation</text>
	</g>
	<rect id="XMLID_867_" x="1132.3" y="416.7" class="st8" width="22.4" height="4.5"/>
	<rect id="XMLID_866_" x="1159.8" y="433.1" class="st8" width="13.5" height="4.5"/>
	<rect id="XMLID_865_" x="1178.8" y="433.1" class="st8" width="35.3" height="4.5"/>
	<rect id="XMLID_864_" x="1159.8" y="441.4" class="st8" width="13.5" height="4.5"/>
	<rect id="XMLID_863_" x="1178.8" y="441.4" class="st8" width="35.3" height="4.5"/>
</g>
<g>
	<g id="XMLID_858_">
		<path class="st2" d="M896.3,542.1c0,2.2-1.8,4-4,4h-123c-2.2,0-4-1.8-4-4V379.6c0-2.2,1.8-4,4-4h123c2.2,0,4,1.8,4,4V542.1z"/>
	</g>
	<rect id="XMLID_852_" x="775.9" y="428.2" class="st3" width="109.8" height="27.9"/>
	<rect id="XMLID_843_" x="775.9" y="473.3" class="st3" width="109.8" height="45.2"/>
	<g id="XMLID_856_">
		<rect id="XMLID_184_" x="769" y="394.6" class="st4" width="123.6" height="17.7"/>
		<text transform="matrix(1 0 0 1 813.7838 403.0245)" class="st5 st6 st7">Login</text>
	</g>
	<rect id="XMLID_851_" x="775.9" y="419.7" class="st8" width="22.4" height="4.5"/>
	<rect id="XMLID_850_" x="803.4" y="436.1" class="st8" width="13.5" height="4.5"/>
	<rect id="XMLID_849_" x="822.4" y="436.1" class="st8" width="35.3" height="4.5"/>
	<rect id="XMLID_848_" x="803.4" y="444.4" class="st8" width="13.5" height="4.5"/>
	<rect id="XMLID_847_" x="822.4" y="444.4" class="st8" width="35.3" height="4.5"/>
	<rect id="XMLID_842_" x="775.9" y="464.8" class="st8" width="22.4" height="4.5"/>
	<rect id="XMLID_841_" x="805.6" y="481.1" class="st8" width="11.2" height="4.5"/>
	<rect id="XMLID_840_" x="822.4" y="481.1" class="st8" width="35.3" height="4.5"/>
	<rect id="XMLID_839_" x="805.6" y="489.5" class="st8" width="11.2" height="4.5"/>
	<rect id="XMLID_838_" x="822.4" y="489.5" class="st8" width="35.3" height="4.5"/>
	<rect id="XMLID_837_" x="805.6" y="498.5" class="st8" width="11.2" height="4.5"/>
	<rect id="XMLID_836_" x="822.4" y="498.5" class="st8" width="35.3" height="4.5"/>
	<rect id="XMLID_835_" x="805.6" y="507.5" class="st8" width="11.2" height="4.5"/>
	<rect id="XMLID_834_" x="822.4" y="507.5" class="st8" width="35.3" height="4.5"/>
</g>
<g>
	<g id="XMLID_785_">
		<path class="st2" d="M718,542.1c0,2.2-1.8,4-4,4H591c-2.2,0-4-1.8-4-4V379.6c0-2.2,1.8-4,4-4h123c2.2,0,4,1.8,4,4V542.1z"/>
	</g>
	<rect id="XMLID_779_" x="597.6" y="419.4" class="st3" width="109.8" height="79.4"/>
	<rect id="XMLID_775_" x="602" y="509.7" class="st3" width="66.1" height="13.1"/>
	<rect id="XMLID_771_" x="612.3" y="426.9" class="st3" width="26.9" height="26.9"/>
	<g id="XMLID_783_">
		<rect id="XMLID_107_" x="590.7" y="394.6" class="st4" width="123.6" height="17.7"/>
		<text transform="matrix(1 0 0 1 623.2797 403.0243)" class="st5 st6 st7">Summary</text>
	</g>
	<rect id="XMLID_766_" x="645.7" y="429" class="st8" width="11.2" height="4.5"/>
	<rect id="XMLID_765_" x="662.4" y="429" class="st8" width="35.3" height="4.5"/>
	<rect id="XMLID_764_" x="645.7" y="438.1" class="st8" width="11.2" height="4.5"/>
	<rect id="XMLID_763_" x="662.4" y="438.1" class="st8" width="35.3" height="4.5"/>
	<rect id="XMLID_762_" x="645.7" y="447.2" class="st8" width="11.2" height="4.5"/>
	<rect id="XMLID_761_" x="662.4" y="447.2" class="st8" width="35.3" height="4.5"/>
	<rect id="XMLID_760_" x="614.6" y="464.9" class="st8" width="42.3" height="4.5"/>
	<rect id="XMLID_759_" x="662.4" y="464.9" class="st8" width="35.3" height="4.5"/>
	<rect id="XMLID_758_" x="614.6" y="474" class="st8" width="42.3" height="4.5"/>
	<rect id="XMLID_757_" x="662.4" y="474" class="st8" width="35.3" height="4.5"/>
	<rect id="XMLID_756_" x="614.6" y="483.1" class="st8" width="42.3" height="4.5"/>
	<rect id="XMLID_755_" x="662.4" y="483.1" class="st8" width="35.3" height="4.5"/>
</g>
<g>
	<g id="XMLID_750_">
		<path class="st2" d="M1074.5,542.1c0,2.2-1.8,4-4,4h-123c-2.2,0-4-1.8-4-4V379.6c0-2.2,1.8-4,4-4h123c2.2,0,4,1.8,4,4V542.1z"/>
	</g>
	<rect id="XMLID_746_" x="950.6" y="426" class="st3" width="109.8" height="27.9"/>
	<rect id="XMLID_732_" x="950.6" y="471.1" class="st3" width="109.8" height="45.2"/>
	<rect id="XMLID_707_" x="952.9" y="525.8" class="st3" width="66.1" height="13.1"/>
	<rect id="XMLID_745_" x="950.6" y="417.5" class="st8" width="22.4" height="4.5"/>
	<rect id="XMLID_744_" x="978.1" y="433.9" class="st8" width="13.5" height="4.5"/>
	<rect id="XMLID_743_" x="997.1" y="433.9" class="st8" width="35.3" height="4.5"/>
	<rect id="XMLID_742_" x="978.1" y="442.2" class="st8" width="13.5" height="4.5"/>
	<rect id="XMLID_741_" x="997.1" y="442.2" class="st8" width="35.3" height="4.5"/>
	<rect id="XMLID_731_" x="950.6" y="462.6" class="st8" width="22.4" height="4.5"/>
	<rect id="XMLID_730_" x="980.3" y="478.9" class="st8" width="11.2" height="4.5"/>
	<rect id="XMLID_729_" x="997.1" y="478.9" class="st8" width="35.3" height="4.5"/>
	<rect id="XMLID_728_" x="980.3" y="487.3" class="st8" width="11.2" height="4.5"/>
	<rect id="XMLID_727_" x="997.1" y="487.3" class="st8" width="35.3" height="4.5"/>
	<rect id="XMLID_726_" x="980.3" y="496.3" class="st8" width="11.2" height="4.5"/>
	<rect id="XMLID_720_" x="997.1" y="496.3" class="st8" width="35.3" height="4.5"/>
	<rect id="XMLID_714_" x="980.3" y="505.3" class="st8" width="11.2" height="4.5"/>
	<rect id="XMLID_713_" x="997.1" y="505.3" class="st8" width="35.3" height="4.5"/>
	<g id="XMLID_711_">
		<rect id="XMLID_106_" x="947.2" y="394.6" class="st4" width="123.6" height="17.7"/>
		<text transform="matrix(1 0 0 1 983.0896 403.0244)" class="st5 st6 st7">Confirm</text>
	</g>
</g>
<g>
	<g id="XMLID_702_">
		<path class="st2" d="M539.8,542.1c0,2.2-1.8,4-4,4h-123c-2.2,0-4-1.8-4-4V379.6c0-2.2,1.8-4,4-4h123c2.2,0,4,1.8,4,4V542.1z"/>
	</g>
	<path id="XMLID_576_" class="st3" d="M527.2,435.7H421.4c-1.1,0-2-0.9-2-2v-48.2c0-1.1,0.9-2,2-2h105.8c1.1,0,2,0.9,2,2v48.2
		C529.2,434.8,528.3,435.7,527.2,435.7z"/>
	<rect id="XMLID_390_" x="419.4" y="443.4" class="st3" width="109.8" height="81.3"/>
	<g id="XMLID_525_">
		<rect id="XMLID_103_" x="414.4" y="394.6" class="st4" width="119.9" height="17"/>
		<text transform="matrix(1 0 0 1 445.7636 403.0242)" class="st5 st6 st7">Unit Info</text>
	</g>
	<rect id="XMLID_389_" x="436.4" y="451.3" class="st8" width="11.2" height="4.5"/>
	<rect id="XMLID_388_" x="453.2" y="451.3" class="st8" width="35.3" height="4.5"/>
	<rect id="XMLID_387_" x="436.4" y="459.6" class="st8" width="11.2" height="4.5"/>
	<rect id="XMLID_381_" x="453.2" y="459.6" class="st8" width="35.3" height="4.5"/>
	<rect id="XMLID_380_" x="436.4" y="468.6" class="st8" width="11.2" height="4.5"/>
	<rect id="XMLID_379_" x="453.2" y="468.6" class="st8" width="35.3" height="4.5"/>
	<rect id="XMLID_378_" x="436.4" y="477.6" class="st8" width="11.2" height="4.5"/>
	<rect id="XMLID_377_" x="453.2" y="477.6" class="st8" width="35.3" height="4.5"/>
	<rect id="XMLID_376_" x="436.4" y="495.8" class="st8" width="11.2" height="4.5"/>
	<rect id="XMLID_375_" x="453.2" y="495.8" class="st8" width="35.3" height="4.5"/>
	<rect id="XMLID_317_" x="436.4" y="505" class="st8" width="11.2" height="4.5"/>
	<rect id="XMLID_310_" x="453.2" y="505" class="st8" width="35.3" height="4.5"/>
	<rect id="XMLID_309_" x="436.4" y="514.1" class="st8" width="11.2" height="4.5"/>
	<rect id="XMLID_308_" x="453.2" y="514.1" class="st8" width="35.3" height="4.5"/>
	<circle id="XMLID_255_" class="st8" cx="508.9" cy="461.9" r="10.8"/>
</g>
<g id="XMLID_269_" class="st0">
	<g id="XMLID_143_">
		<path id="XMLID_158_" class="st1" d="M722.4,225.2v37.6H662V281"/>
		<g id="XMLID_144_">
			<polygon id="XMLID_145_" points="657,279.5 662,288.2 667,279.5 			"/>
		</g>
	</g>
</g>
<g id="XMLID_27_" class="st0">
	<g id="XMLID_138_">
		<path id="XMLID_141_" class="st1" d="M722.4,225.2v37.6H783V281"/>
		<g id="XMLID_139_">
			<polygon id="XMLID_140_" points="778,279.5 783,288.2 788,279.5 			"/>
		</g>
	</g>
</g>
<g id="XMLID_19_">
	<rect id="XMLID_101_" x="660.6" y="73.9" class="st4" width="123.6" height="17.7"/>
	<text transform="matrix(1 0 0 1 705.4637 82.2531)" class="st5 st6 st7">Login</text>
</g>
<rect id="XMLID_54_" x="667.5" y="99" class="st8" width="22.4" height="4.5"/>
<rect id="XMLID_61_" x="695" y="115.3" class="st8" width="13.5" height="4.5"/>
<rect id="XMLID_68_" x="714" y="115.3" class="st8" width="35.3" height="4.5"/>
<rect id="XMLID_70_" x="695" y="123.6" class="st8" width="13.5" height="4.5"/>
<rect id="XMLID_69_" x="714" y="123.6" class="st8" width="35.3" height="4.5"/>
<rect id="XMLID_72_" x="667.5" y="144" class="st8" width="22.4" height="4.5"/>
<rect id="XMLID_71_" x="697.3" y="160.4" class="st8" width="11.2" height="4.5"/>
<rect id="XMLID_57_" x="714" y="160.4" class="st8" width="35.3" height="4.5"/>
<rect id="XMLID_56_" x="697.3" y="168.7" class="st8" width="11.2" height="4.5"/>
<rect id="XMLID_55_" x="714" y="168.7" class="st8" width="35.3" height="4.5"/>
<rect id="XMLID_75_" x="697.3" y="177.7" class="st8" width="11.2" height="4.5"/>
<rect id="XMLID_74_" x="714" y="177.7" class="st8" width="35.3" height="4.5"/>
<rect id="XMLID_77_" x="697.3" y="186.7" class="st8" width="11.2" height="4.5"/>
<rect id="XMLID_76_" x="714" y="186.7" class="st8" width="35.3" height="4.5"/>
<g id="XMLID_126_">
	<rect id="XMLID_89_" x="612.3" y="295.7" class="st4" width="100.2" height="17"/>
	<text transform="matrix(1 0 0 1 617.4392 304.104)" class="st5 st6 st7">Account Menu</text>
</g>
<g id="XMLID_99_">
	<g id="XMLID_100_">
		<text transform="matrix(1 0 0 1 775.5724 321.3163)" class="st10 st11 st12">2B</text>
	</g>
</g>
<g id="XMLID_7_">
	<g id="XMLID_8_">
		<text transform="matrix(1 0 0 1 202.5997 611.3163)" class="st10 st11 st12">2B</text>
	</g>
</g>
<g id="XMLID_229_">
	<g id="XMLID_329_">
		<text transform="matrix(1 0 0 1 363.5999 321.3163)" class="st10 st11 st12">2A</text>
	</g>
</g>
<g id="XMLID_1_">
	<g id="XMLID_2_">
		<text transform="matrix(1 0 0 1 202.6 391.1001)" class="st10 st11 st12">2A</text>
	</g>
</g>
<g>
	<g id="XMLID_313_">
		<path class="st2" d="M361.6,762c0,2.2-1.8,4-4,4h-123c-2.2,0-4-1.8-4-4V599.5c0-2.2,1.8-4,4-4h123c2.2,0,4,1.8,4,4V762z"/>
	</g>
	<path id="XMLID_288_" class="st3" d="M345.3,655.5H242.1c-1.1,0-2-0.9-2-2v-48.2c0-1.1,0.9-2,2-2h103.3c1.1,0,2,0.9,2,2v48.2
		C347.3,654.6,346.5,655.5,345.3,655.5z"/>
	<g id="XMLID_280_">
		<rect id="XMLID_191_" x="236.2" y="614.5" class="st4" width="119.9" height="17"/>
		<text transform="matrix(1 0 0 1 267.5168 622.856)" class="st5 st6 st7">Unit Info</text>
	</g>
	<rect id="XMLID_271_" x="252.6" y="703.2" class="st8" width="13.1" height="4.5"/>
	<rect id="XMLID_266_" x="272.1" y="703.2" class="st8" width="67.4" height="4.5"/>
	<rect id="XMLID_258_" x="252.6" y="711.5" class="st8" width="13.1" height="4.5"/>
	<rect id="XMLID_257_" x="272.1" y="711.5" class="st8" width="67.4" height="4.5"/>
	<rect id="XMLID_256_" x="252.6" y="720.5" class="st8" width="13.1" height="4.5"/>
	<rect id="XMLID_254_" x="272.1" y="720.5" class="st8" width="67.4" height="4.5"/>
	<rect id="XMLID_253_" x="252.6" y="729.6" class="st8" width="13.1" height="4.5"/>
	<rect id="XMLID_252_" x="272.1" y="729.6" class="st8" width="67.4" height="4.5"/>
	<rect id="XMLID_249_" x="252.6" y="739.3" class="st8" width="13.1" height="4.5"/>
	<rect id="XMLID_248_" x="272.1" y="739.3" class="st8" width="67.4" height="4.5"/>
	<rect id="XMLID_246_" x="252.6" y="663.9" class="st8" width="23.3" height="4.5"/>
	<g id="XMLID_243_">
		<path class="st8" d="M270.8,687.1c0,2.2-1.8,4-4,4H257c-2.2,0-4-1.8-4-4v-10.6c0-2.2,1.8-4,4-4h9.8c2.2,0,4,1.8,4,4V687.1z"/>
	</g>
	<g id="XMLID_240_">
		<path class="st8" d="M293.7,687.1c0,2.2-1.8,4-4,4h-9.8c-2.2,0-4-1.8-4-4v-10.6c0-2.2,1.8-4,4-4h9.8c2.2,0,4,1.8,4,4V687.1z"/>
	</g>
	<g id="XMLID_235_">
		<path class="st8" d="M316.6,687.1c0,2.2-1.8,4-4,4h-9.8c-2.2,0-4-1.8-4-4v-10.6c0-2.2,1.8-4,4-4h9.8c2.2,0,4,1.8,4,4V687.1z"/>
	</g>
	<g id="XMLID_231_">
		<path class="st8" d="M339.4,687.1c0,2.2-1.8,4-4,4h-9.8c-2.2,0-4-1.8-4-4v-10.6c0-2.2,1.8-4,4-4h9.8c2.2,0,4,1.8,4,4V687.1z"/>
	</g>
</g>
<g>
	<g id="XMLID_829_">
		<path class="st2" d="M361.6,542.1c0,2.2-1.8,4-4,4h-123c-2.2,0-4-1.8-4-4V379.6c0-2.2,1.8-4,4-4h123c2.2,0,4,1.8,4,4V542.1z"/>
	</g>
	<path id="XMLID_825_" class="st3" d="M347.3,435.7H244.1c-1.1,0-2-0.9-2-2v-48.2c0-1.1,0.9-2,2-2h103.3c1.1,0,2,0.9,2,2v48.2
		C349.3,434.8,348.5,435.7,347.3,435.7z"/>
	<rect id="XMLID_818_" x="242.1" y="450.6" class="st3" width="107.3" height="22.1"/>
	<rect id="XMLID_807_" x="242.1" y="479.1" class="st3" width="107.3" height="22.1"/>
	<rect id="XMLID_796_" x="242.1" y="507.6" class="st3" width="107.3" height="22.1"/>
	<rect id="XMLID_817_" x="298.1" y="454.8" class="st8" width="37.3" height="4.5"/>
	<rect id="XMLID_816_" x="298.1" y="463.2" class="st8" width="37.3" height="4.5"/>
	<rect id="XMLID_815_" x="286.2" y="454.8" class="st8" width="6.9" height="4.5"/>
	<g id="XMLID_812_">
		<path class="st8" d="M277.6,465.7c0,1.1-0.9,2-2,2h-17.2c-1.1,0-2-0.9-2-2v-8.9c0-1.1,0.9-2,2-2h17.2c1.1,0,2,0.9,2,2V465.7z"/>
	</g>
	<rect id="XMLID_811_" x="286.2" y="463.2" class="st8" width="6.9" height="4.5"/>
	<rect id="XMLID_806_" x="298.1" y="483.3" class="st8" width="37.3" height="4.5"/>
	<rect id="XMLID_805_" x="298.1" y="491.7" class="st8" width="37.3" height="4.5"/>
	<rect id="XMLID_804_" x="286.2" y="483.3" class="st8" width="6.9" height="4.5"/>
	<g id="XMLID_801_">
		<path class="st8" d="M277.6,494.2c0,1.1-0.9,2-2,2h-17.2c-1.1,0-2-0.9-2-2v-8.9c0-1.1,0.9-2,2-2h17.2c1.1,0,2,0.9,2,2V494.2z"/>
	</g>
	<rect id="XMLID_800_" x="286.2" y="491.7" class="st8" width="6.9" height="4.5"/>
	<rect id="XMLID_795_" x="298.1" y="511.8" class="st8" width="37.3" height="4.5"/>
	<rect id="XMLID_794_" x="298.1" y="520.2" class="st8" width="37.3" height="4.5"/>
	<rect id="XMLID_793_" x="286.2" y="511.8" class="st8" width="6.9" height="4.5"/>
	<g id="XMLID_790_">
		<path class="st8" d="M277.6,522.7c0,1.1-0.9,2-2,2h-17.2c-1.1,0-2-0.9-2-2v-8.9c0-1.1,0.9-2,2-2h17.2c1.1,0,2,0.9,2,2V522.7z"/>
	</g>
	<rect id="XMLID_789_" x="286.2" y="520.2" class="st8" width="6.9" height="4.5"/>
	<g id="XMLID_398_">
		<rect id="XMLID_181_" x="235.8" y="391.1" class="st4" width="119.9" height="17"/>
		<text transform="matrix(1 0 0 1 266.0661 399.4733)" class="st5 st6 st7">Unit Opts</text>
	</g>
</g>
<g>
	<g id="XMLID_705_">
		<path class="st2" d="M131,221.7c0,2.2-1.8,4-4,4H4c-2.2,0-4-1.8-4-4V59.2c0-2.2,1.8-4,4-4h123c2.2,0,4,1.8,4,4V221.7z"/>
	</g>
	<path id="XMLID_658_" class="st3" d="M117.8,115.3H13.9c-1.1,0-2-0.9-2-2V65c0-1.1,0.9-2,2-2h103.9c1.1,0,2,0.9,2,2v48.2
		C119.8,114.4,118.9,115.3,117.8,115.3z"/>
	<g id="XMLID_45_">
		<rect id="XMLID_51_" x="6" y="71.4" class="st4" width="119.9" height="17"/>
		<text transform="matrix(1 0 0 1 31.5999 79.7967)" class="st5 st6 st7">Landing Page</text>
	</g>
	<rect id="XMLID_234_" x="95.9" y="146.9" class="st3" width="24.3" height="22.2"/>
	<rect id="XMLID_233_" x="67.9" y="120.3" class="st3" width="24.3" height="22.2"/>
	<rect id="XMLID_160_" x="67.9" y="146.9" class="st3" width="24.3" height="22.2"/>
	<rect id="XMLID_159_" x="11.9" y="120.3" class="st3" width="24.3" height="22.2"/>
	<rect id="XMLID_146_" x="11.9" y="146.9" class="st3" width="24.3" height="22.2"/>
	<rect id="XMLID_134_" x="39.9" y="146.9" class="st3" width="24.3" height="22.2"/>
	<rect id="XMLID_115_" x="100.5" y="160.3" class="st8" width="15.2" height="4.5"/>
	<rect id="XMLID_104_" x="72.4" y="160.3" class="st8" width="15.2" height="4.5"/>
	<rect id="XMLID_88_" x="44.4" y="160.3" class="st8" width="15.2" height="4.5"/>
	<rect id="XMLID_86_" x="16.4" y="160.3" class="st8" width="15.2" height="4.5"/>
	<rect id="XMLID_84_" x="72.4" y="133.3" class="st8" width="15.2" height="4.5"/>
	<rect id="XMLID_83_" x="95.9" y="120.3" class="st3" width="24.3" height="22.2"/>
	<rect id="XMLID_67_" x="100.5" y="133.3" class="st8" width="15.2" height="4.5"/>
	<rect id="XMLID_65_" x="39.9" y="120.3" class="st3" width="24.3" height="22.2"/>
	<rect id="XMLID_23_" x="44.4" y="133.3" class="st8" width="15.2" height="4.5"/>
	<rect id="XMLID_4_" x="16.4" y="133.3" class="st8" width="15.2" height="4.5"/>
</g>
<line class="st13" x1="65.5" y1="24.6" x2="65.5" y2="54.9"/>
<text transform="matrix(1 0 0 1 464.3819 84.1736)" class="st5 st6 st7">Categories</text>
</svg>
