<?xml version="1.0" encoding="utf-8"?>
<!-- Generator: Adobe Illustrator 21.1.0, SVG Export Plug-In . SVG Version: 6.00 Build 0)  -->
<svg version="1.1" id="Layer_1" xmlns="http://www.w3.org/2000/svg" xmlns:xlink="http://www.w3.org/1999/xlink" x="0px" y="0px"
	 viewBox="0 0 1000 296.2" style="enable-background:new 0 0 1000 296.2;" xml:space="preserve">
<style type="text/css">
	.st0{fill:#FFFFFF;}
</style>
<rect x="-37.9" y="-26.4" class="st0" width="1061.9" height="379.5"/>
<g>
	<path d="M127.7,115.7c2.3,0,4.1,0.5,5.3,1.5c1.2,1,1.9,2.5,1.9,4.4c0,1-0.3,2-0.9,2.8c-0.6,0.8-1.4,1.4-2.5,1.9
		c1.2,0.4,2,1,2.5,1.9c0.5,0.9,0.8,1.9,0.8,3.2v1.6c0,0.7,0.1,1.1,0.2,1.5c0.1,0.4,0.4,0.5,0.8,0.6l0.7,0.1v1.8h-1.6
		c-1.1,0-1.9-0.4-2.4-1.2c-0.5-0.8-0.7-1.7-0.7-2.8v-1.7c0-1.2-0.3-2.1-1-2.8c-0.7-0.7-1.6-1.1-2.7-1.1h-4.6v7.3l2.4,0.4v1.9h-7.6
		v-1.8l2.4-0.4V118l-2.4-0.4v-1.8h2.4L127.7,115.7L127.7,115.7z M123.4,125.2h3.8c1.6,0,2.8-0.3,3.5-0.9c0.7-0.6,1.1-1.5,1.1-2.7
		c0-1.1-0.4-2-1.1-2.7s-1.8-1-3.3-1h-4.1L123.4,125.2L123.4,125.2z"/>
	<path d="M158.9,126.5c0,3.1-0.9,5.7-2.7,7.7c-1.8,2-4.1,3.1-6.9,3.1s-5-1-6.7-3.1c-1.7-2.1-2.5-4.6-2.5-7.7v-0.3
		c0-3.1,0.9-5.7,2.6-7.7s4-3.1,6.7-3.1c2.8,0,5.1,1,6.9,3.1s2.7,4.6,2.7,7.7L158.9,126.5L158.9,126.5z M156.1,126.2
		c0-2.5-0.6-4.5-1.8-6.1c-1.2-1.6-2.8-2.4-4.9-2.4c-2,0-3.6,0.8-4.7,2.4c-1.1,1.6-1.7,3.6-1.7,6.1v0.3c0,2.5,0.6,4.5,1.7,6.1
		s2.7,2.4,4.7,2.4c2.1,0,3.8-0.8,5-2.3s1.7-3.7,1.7-6.2C156.1,126.5,156.1,126.2,156.1,126.2z"/>
	<path d="M172,115.7c2.2,0,4,0.5,5.2,1.4s1.9,2.4,1.9,4.3c0,0.9-0.3,1.8-0.9,2.5s-1.4,1.3-2.4,1.7c1.3,0.3,2.3,0.9,3,1.9
		s1.1,2.1,1.1,3.4c0,2-0.6,3.4-1.9,4.5c-1.3,1.1-3,1.5-5.2,1.5h-10.2v-1.8l2.4-0.4V118l-2.4-0.4v-1.9h2.4
		C165,115.7,172,115.7,172,115.7z M167.9,124.8h4.8c1,0,1.9-0.3,2.5-0.9s1-1.4,1-2.4c0-1.2-0.4-2-1.1-2.6s-1.8-0.9-3.1-0.9h-4.1
		C167.9,118,167.9,124.8,167.9,124.8z M167.9,127v7.7h5c1.3,0,2.3-0.3,3.1-1c0.8-0.7,1.1-1.6,1.1-2.8s-0.3-2.2-0.9-2.9
		c-0.6-0.7-1.5-1.1-2.8-1.1L167.9,127L167.9,127z"/>
	<path d="M202.8,126.5c0,3.1-0.9,5.7-2.7,7.7c-1.8,2-4.1,3.1-6.9,3.1s-5-1-6.7-3.1s-2.6-4.6-2.6-7.7v-0.3c0-3.1,0.9-5.7,2.6-7.7
		s4-3.1,6.7-3.1c2.8,0,5.1,1,6.9,3.1s2.7,4.6,2.7,7.7V126.5z M199.9,126.2c0-2.5-0.6-4.5-1.8-6.1c-1.2-1.6-2.8-2.4-4.9-2.4
		c-2,0-3.6,0.8-4.7,2.4s-1.7,3.6-1.7,6.1v0.3c0,2.5,0.6,4.5,1.7,6.1s2.7,2.4,4.7,2.4c2.1,0,3.8-0.8,5-2.3s1.8-3.6,1.8-6.1v-0.4
		H199.9z"/>
	<path d="M223.3,115.7v4.7h-2.5l-0.2-2.4h-4.7v16.8l2.4,0.4v1.8h-7.7v-1.8l2.4-0.4V118h-4.7l-0.2,2.4h-2.5v-4.7
		C205.6,115.7,223.3,115.7,223.3,115.7z"/>
	<path d="M245,126.5c0,3.1-0.9,5.7-2.7,7.7s-4.1,3.1-6.9,3.1s-5-1-6.7-3.1s-2.6-4.6-2.6-7.7v-0.3c0-3.1,0.9-5.7,2.6-7.7
		s4-3.1,6.7-3.1c2.8,0,5.1,1,6.9,3.1s2.7,4.6,2.7,7.7V126.5z M242,126.2c0-2.5-0.6-4.5-1.8-6.1c-1.2-1.6-2.8-2.4-4.9-2.4
		c-2,0-3.6,0.8-4.7,2.4s-1.7,3.6-1.7,6.1v0.3c0,2.5,0.6,4.5,1.7,6.1s2.7,2.4,4.7,2.4c2.1,0,3.8-0.8,5-2.3s1.8-3.6,1.8-6.1L242,126.2
		L242,126.2z"/>
	<path d="M273,122h-2.2l-0.5-3c-0.4-0.4-1-0.7-1.8-0.9c-0.8-0.2-1.6-0.4-2.5-0.4c-1.5,0-2.7,0.3-3.5,1s-1.2,1.5-1.2,2.5
		c0,0.9,0.4,1.7,1.3,2.3c0.9,0.6,2.2,1.2,4.1,1.6c2.2,0.6,4,1.4,5.1,2.5s1.8,2.4,1.8,4c0,1.7-0.7,3.1-2.1,4.1s-3.2,1.6-5.5,1.6
		c-1.6,0-3.1-0.3-4.4-0.8s-2.3-1.2-3.1-2.1v-4h2.2l0.6,3.1c0.6,0.5,1.2,0.8,2,1.1s1.7,0.4,2.8,0.4c1.5,0,2.6-0.3,3.4-0.9
		s1.3-1.5,1.3-2.5s-0.4-1.8-1.1-2.5s-2-1.2-3.9-1.7c-2.3-0.5-4-1.3-5.3-2.4s-1.9-2.4-1.9-3.9c0-1.7,0.7-3.1,2.1-4.2
		c1.4-1.1,3.3-1.7,5.5-1.7c1.5,0,2.9,0.3,4.1,0.8s2.2,1.1,3,1.9v4.1L273,122L273,122z"/>
	<path d="M277.5,137v-1.8l2.4-0.4V118l-2.4-0.4v-1.9h2.4h2.9h2.4v1.9l-2.4,0.4v16.8h7.4l0.2-2.4h2.5v4.6H277.5L277.5,137z"/>
	<path d="M296.6,135.2l1.6-0.2l7.5-19.3h2.5l7.3,19.3l1.6,0.2v1.8H311v-1.8l1.6-0.3l-1.4-3.9h-8.5l-1.5,3.9l1.6,0.3v1.8h-6.1
		L296.6,135.2L296.6,135.2z M303.3,128.6h6.8l-3.3-9.2h-0.1L303.3,128.6z"/>
	<path d="M329.6,115.7c2.2,0,4,0.5,5.2,1.4s1.9,2.4,1.9,4.3c0,0.9-0.3,1.8-0.9,2.5s-1.4,1.3-2.4,1.7c1.3,0.3,2.3,0.9,3,1.9
		s1.1,2.1,1.1,3.4c0,2-0.6,3.4-1.9,4.5c-1.3,1.1-3,1.5-5.2,1.5h-10.3v-1.8l2.4-0.4V118l-2.4-0.4v-1.9h2.4
		C322.5,115.7,329.6,115.7,329.6,115.7z M325.6,124.8h4.8c1,0,1.9-0.3,2.5-0.9s1-1.4,1-2.4c0-1.2-0.4-2-1.1-2.6s-1.8-0.9-3.1-0.9
		h-4.1L325.6,124.8L325.6,124.8z M325.6,127v7.7h5c1.3,0,2.3-0.3,3.1-1c0.8-0.7,1.1-1.6,1.1-2.8s-0.3-2.2-0.9-2.9
		c-0.6-0.7-1.7-1-2.9-1C330.9,127,325.6,127,325.6,127z"/>
</g>
<g>
	<g>
		<path d="M139.5,186.2v5.4h-1v-4.3h-8.7V212h3v1h-7v-1h3v-24.7h-8.7v4.3h-1v-5.4L139.5,186.2L139.5,186.2z"/>
		<path d="M142.5,185.3v-1h4v12.9c0.6-1.4,1.5-2.5,2.7-3.4c1.2-0.8,2.6-1.2,4.3-1.2c2.1,0,3.6,0.7,4.7,1.9c1,1.3,1.6,3.4,1.6,6.2v11
			h3v1h-7v-1h3v-11.1c0-2.6-0.4-4.4-1.4-5.5c-1-1-2.2-1.6-3.8-1.6c-2.1,0-3.8,0.7-4.9,1.9c-1.1,1.3-1.9,2.9-2.2,4.9v11.4h3v1h-7v-1
			h3v-26.6L142.5,185.3L142.5,185.3z"/>
		<path d="M166.8,211.8h3V194h-3v-1h4v18.8h3v1h-7V211.8z M170.8,186.8h-1v-2.5h1V186.8z"/>
		<path d="M178.3,211.8h3V194h-3v-1h3.8l0.2,4c0.6-1.4,1.5-2.5,2.6-3.3s2.5-1.1,4.3-1.1c2.2,0,3.8,0.7,4.9,2s1.6,3.5,1.6,6.5v10.6h3
			v1h-7v-1h3V201c0-2.8-0.5-4.6-1.5-5.8c-1-1.1-2.3-1.6-4-1.6c-2.1,0-3.8,0.7-4.8,1.9c-1,1.3-1.8,2.9-2,4.9v11.4h3v1h-7L178.3,211.8
			L178.3,211.8L178.3,211.8z"/>
	</g>
	<g>
		<path d="M119.2,257.8v-1.6l3-0.2v-23l-3-0.2v-1.6h3h2.2h3v1.6l-3,0.2v23h11.1l0.2-3.8h1.9v5.6H119.2L119.2,257.8z"/>
		<path d="M141.4,256.2l3-0.2v-16.1l-3-0.2V238h5.2v18l3,0.2v1.6h-8.2V256.2L141.4,256.2z M146.6,232.3h-2.2v-3.1h2.2V232.3z"/>
		<path d="M153.8,248c0-3.2,0.7-5.7,2-7.6c1.3-1.9,3.2-2.8,5.6-2.8c1.4,0,2.6,0.3,3.7,0.9c1.1,0.6,1.9,1.5,2.6,2.6l0.2-3.1h1.9v19.6
			c0,2.6-0.7,4.6-2.1,6.1c-1.3,1.5-3.3,2.2-5.8,2.2c-1,0-2-0.1-3.1-0.4c-1-0.2-2-0.5-2.8-1l0.6-1.9c0.8,0.4,1.7,0.7,2.5,0.9
			c0.9,0.2,1.8,0.3,2.8,0.3c1.9,0,3.3-0.5,4.3-1.6s1.4-2.6,1.4-4.7V255c-0.7,1-1.5,1.8-2.6,2.3s-2.2,0.8-3.6,0.8
			c-2.4,0-4.3-0.9-5.5-2.6c-1.4-1.8-2-4.1-2-7L153.8,248L153.8,248z M155.9,248.4c0,2.4,0.4,4.3,1.4,5.7s2.4,2.1,4.3,2.1
			c1.4,0,2.6-0.3,3.5-1c1-0.7,1.6-1.6,2.2-2.7v-9.2c-0.5-1.1-1.2-2.1-2.1-2.8c-0.9-0.8-2.1-1.1-3.6-1.1c-2,0-3.4,0.8-4.4,2.4
			s-1.5,3.7-1.5,6.2L155.9,248.4L155.9,248.4L155.9,248.4z"/>
		<path d="M174.4,230.9v-1.7h5.2v12.2c0.7-1.2,1.6-2.1,2.6-2.8s2.4-1,3.8-1c2.1,0,3.7,0.7,4.8,1.9c1.1,1.3,1.6,3.3,1.6,6v10.4l3,0.2
			v1.6h-8.2v-1.6l3-0.2v-10.4c0-2.2-0.4-3.7-1.3-4.7c-0.8-0.9-2-1.4-3.5-1.4s-2.8,0.4-3.8,1.2s-1.7,1.8-2.2,3.1v12.1l3,0.2v1.6h-8.1
			V256l3-0.2V231L174.4,230.9z"/>
		<path d="M204.1,232.9v5.1h4.4v1.8h-4.4v12.9c0,1.3,0.2,2.2,0.7,2.8c0.4,0.5,1.1,0.8,1.9,0.8c0.4,0,0.7,0,1-0.1
			c0.3,0,0.8-0.1,1.2-0.2l0.3,1.7c-0.4,0.1-0.8,0.3-1.3,0.4c-0.5,0.1-1.1,0.1-1.6,0.1c-1.4,0-2.5-0.5-3.2-1.3
			c-0.8-0.9-1.2-2.2-1.2-4.2v-12.9h-3.4V238h3.4v-5.1H204.1L204.1,232.9z"/>
	</g>
	<g>
		<path d="M330.6,186.2c2.9,0,5.1,0.7,6.7,2s2.3,3.1,2.3,5.5c0,1.3-0.4,2.5-1,3.5c-0.8,1-1.7,1.8-3.1,2.3c1.4,0.4,2.5,1.3,3.1,2.3
			c0.7,1.1,1,2.4,1,4v2.2c0,0.8,0.1,1.4,0.3,1.8c0.2,0.4,0.5,0.6,1,0.7l0.9,0.1v2.3h-2c-1.4,0-2.4-0.5-3-1.5s-0.9-2.2-0.9-3.5v-2.1
			c0-1.4-0.5-2.6-1.3-3.5s-2-1.3-3.4-1.3h-5.8v9.1l3,0.5v2.3h-9.6v-2.3l3-0.5v-21l-3-0.5v-2.3h3h8.6L330.6,186.2L330.6,186.2z
			 M325.4,198.1h4.7c2,0,3.5-0.4,4.4-1.1c1-0.8,1.4-1.9,1.4-3.4c0-1.4-0.5-2.6-1.4-3.3c-0.9-0.8-2.2-1.2-4-1.2h-5.1V198.1
			L325.4,198.1z"/>
		<path d="M353.9,213.2c-2.8,0-5-0.9-6.6-2.8c-1.6-1.8-2.5-4.2-2.5-7.1v-0.8c0-2.8,0.8-5.2,2.5-7c1.6-1.9,3.7-2.8,5.9-2.8
			c2.6,0,4.7,0.8,6.1,2.4c1.3,1.6,2,3.8,2,6.5v2.2h-12.8l-0.1,0.1c0,1.9,0.5,3.5,1.4,4.7s2.2,1.9,3.9,1.9c1.2,0,2.3-0.1,3.2-0.5
			s1.7-0.8,2.4-1.4l1.4,2.3c-0.7,0.7-1.7,1.3-2.8,1.7C357,212.9,355.6,213.2,353.9,213.2z M353.4,195.5c-1.2,0-2.2,0.5-3.1,1.5
			c-0.8,1-1.3,2.3-1.6,3.8v0.1h9.2v-0.5c0-1.4-0.4-2.6-1.1-3.5C356,195.9,354.9,195.5,353.4,195.5z"/>
		<path d="M365.6,203.3c0-3.1,0.7-5.8,2.1-7.7s3.3-2.9,5.8-2.9c1.3,0,2.3,0.2,3.3,0.8c1,0.5,1.7,1.2,2.3,2.1l0.3-2.5h3.1v19.6
			c0,2.5-0.8,4.6-2.2,6.1s-3.4,2.2-6.1,2.2c-1,0-2-0.2-3.1-0.4c-1.1-0.3-2.1-0.6-2.9-1l0.9-2.8c0.7,0.4,1.5,0.7,2.4,0.9
			s1.8,0.4,2.7,0.4c1.6,0,2.8-0.5,3.5-1.4s1.1-2.2,1.1-3.9v-2c-0.7,0.8-1.4,1.4-2.3,1.9s-2,0.7-3.1,0.7c-2.4,0-4.4-0.9-5.7-2.6
			c-1.4-1.7-2.1-4.1-2.1-6.9L365.6,203.3L365.6,203.3z M369.1,203.6c0,2,0.5,3.6,1.3,4.8s2.1,1.8,3.8,1.8c1.1,0,2-0.2,2.7-0.8
			c0.8-0.5,1.4-1.2,1.8-2.1v-9.1c-0.4-0.8-1-1.5-1.8-2s-1.6-0.8-2.7-0.8c-1.7,0-3,0.8-3.9,2.2c-0.8,1.4-1.3,3.3-1.3,5.5L369.1,203.6
			L369.1,203.6L369.1,203.6z"/>
		<path d="M401.2,209.9c-0.6,1-1.4,1.9-2.4,2.5s-2.1,0.8-3.4,0.8c-2.2,0-3.8-0.7-5-2.1c-1.2-1.3-1.8-3.5-1.8-6.4v-8.9l-2.2-0.5V193
			h2.2h3.6v11.8c0,2.1,0.3,3.6,0.9,4.4c0.6,0.8,1.6,1.2,2.9,1.2s2.3-0.2,3.1-0.8c0.8-0.5,1.5-1.3,1.9-2.2v-11.5l-2.6-0.5v-2.3h2.6
			h3.6v17l2.2,0.5v2.3h-5.5L401.2,209.9z"/>
		<path d="M409.6,186.5v-2.3h6.6v25.7l3,0.5v2.3h-9.6v-2.2l3-0.5v-22.9L409.6,186.5z"/>
		<path d="M435.3,212.8c-0.1-0.5-0.2-1-0.2-1.4c-0.1-0.5-0.1-0.8-0.1-1.3c-0.7,0.9-1.6,1.7-2.6,2.2c-1.1,0.6-2.2,0.9-3.4,0.9
			c-2.1,0-3.6-0.5-4.7-1.5c-1-1-1.6-2.4-1.6-4.3s0.8-3.3,2.2-4.3c1.5-1.1,3.6-1.5,6.2-1.5h3.8v-2.3c0-1.1-0.4-2.1-1.1-2.8
			c-0.8-0.7-1.7-1-3.1-1c-0.9,0-1.7,0.2-2.4,0.4s-1.3,0.5-1.7,1l-0.4,2.1h-2.8v-3.8c0.9-0.8,2-1.3,3.3-1.7c1.3-0.5,2.7-0.7,4.2-0.7
			c2.2,0,4,0.6,5.5,1.7c1.4,1.1,2.1,2.8,2.1,5v9.5c0,0.2,0,0.5,0,0.8c0,0.2,0,0.5,0.1,0.8l1.5,0.2v2.3h-4.8V212.8z M429.5,210.2
			c1.2,0,2.3-0.3,3.3-0.8c1-0.6,1.7-1.3,2.1-2.1v-3.2H431c-1.5,0-2.6,0.4-3.5,1c-0.8,0.7-1.3,1.5-1.3,2.5c0,0.9,0.3,1.5,0.8,2
			C427.6,209.9,428.5,210.2,429.5,210.2z"/>
		<path d="M443.5,195.3V193h6.2l0.4,2.8c0.5-1,1.3-1.8,2.1-2.4c0.8-0.6,1.8-0.8,2.8-0.8c0.3,0,0.6,0,0.9,0.1
			c0.3,0.1,0.5,0.1,0.7,0.2l-0.4,3.4l-2-0.1c-1,0-1.7,0.2-2.4,0.7s-1.1,1.1-1.5,1.9v11.4l3,0.5v2.3h-9.6v-2.3l3-0.5V196L443.5,195.3
			z"/>
	</g>
	<g>
		<path d="M330.5,231.2c3.2,0,5.6,0.6,7.4,1.8c1.7,1.2,2.6,3.1,2.6,5.5c0,1.2-0.3,2.3-1,3.3s-1.6,1.7-2.8,2.2c1.6,0.4,2.8,1,3.6,2.2
			c0.8,1.1,1.2,2.4,1.2,3.9c0,2.5-0.8,4.5-2.5,5.8c-1.7,1.4-4,2-7.1,2h-13.1v-3.4l2.8-0.5v-19.1l-2.8-0.5v-3.2h2.8H330.5
			L330.5,231.2z M326.8,242.3h3.8c1.4,0,2.5-0.3,3.3-0.9c0.8-0.6,1.1-1.4,1.1-2.5c0-1.2-0.4-2.2-1.2-2.7c-0.8-0.6-1.9-0.9-3.4-0.9
			h-3.6L326.8,242.3L326.8,242.3z M326.8,246v7.7h5c1.4,0,2.5-0.3,3.2-0.9c0.8-0.6,1.1-1.5,1.1-2.8s-0.3-2.3-1-3c-0.6-0.7-1.7-1-3-1
			H326.8L326.8,246z"/>
		<path d="M344,247.7c0-2.9,0.8-5.4,2.5-7.3c1.7-1.9,4-2.8,6.8-2.8c2.9,0,5.2,1,6.9,2.8c1.7,1.9,2.5,4.3,2.5,7.3v0.4
			c0,3-0.8,5.4-2.5,7.3c-1.7,1.9-3.9,2.8-6.8,2.8s-5.2-0.9-6.9-2.8c-1.6-1.9-2.5-4.3-2.5-7.3V247.7z M349.3,248.1
			c0,1.8,0.3,3.2,1,4.3c0.6,1.1,1.6,1.7,3.1,1.7c1.4,0,2.4-0.5,3-1.7c0.7-1.1,1-2.5,1-4.3v-0.4c0-1.7-0.3-3.2-1-4.3
			s-1.6-1.7-3.1-1.7c-1.4,0-2.4,0.5-3.1,1.7c-0.6,1.1-1,2.5-1,4.3L349.3,248.1L349.3,248.1z"/>
		<path d="M364.5,232.4v-3.2h8.2V254l2.5,0.5v3.2h-10.5v-3.2l2.6-0.5v-21.1L364.5,232.4z"/>
		<path d="M390.2,255.4c-0.6,0.9-1.3,1.6-2.2,2.1c-0.8,0.4-1.8,0.8-2.9,0.8c-2.5,0-4.4-0.9-5.7-2.7c-1.3-1.8-2-4.1-2-7v-0.4
			c0-3.2,0.7-5.6,2-7.6s3.2-2.9,5.7-2.9c1,0,1.9,0.2,2.7,0.7c0.8,0.4,1.5,1,2.1,1.9v-7.1l-2.9-0.5v-3.2h2.9h5.3v24.8l2.5,0.5v3.2
			h-7.2L390.2,255.4z M382.6,248.4c0,1.7,0.3,3.1,0.9,4.1s1.5,1.5,2.8,1.5c0.8,0,1.4-0.2,2-0.5s1-0.8,1.4-1.3v-8.4
			c-0.4-0.6-0.8-1.1-1.4-1.5s-1.2-0.5-2-0.5c-1.3,0-2.2,0.6-2.8,1.7c-0.6,1.1-0.9,2.7-0.9,4.6V248.4z"/>
	</g>
</g>
</svg>
